G04 #@! TF.FileFunction,Paste,Top*
%FSLAX45Y45*%
G04 Gerber Fmt 4.5, Leading zero omitted, Abs format (unit mm)*
G04 Created by KiCad (PCBNEW 4.0.7) date 06/19/18 16:53:46*
%MOMM*%
%LPD*%
G01*
G04 APERTURE LIST*
%ADD10C,0.100000*%
%ADD11R,0.350000X0.200000*%
%ADD12R,0.400000X0.150000*%
%ADD13R,0.800000X0.600000*%
%ADD14R,1.000000X1.200000*%
%ADD15R,0.350000X1.350000*%
%ADD16R,0.750000X0.200000*%
%ADD17R,0.200000X0.750000*%
%ADD18R,1.002500X1.002500*%
%ADD19R,0.200000X1.450000*%
%ADD20R,1.450000X0.200000*%
%ADD21R,6.600000X6.600000*%
%ADD22R,0.400000X0.800000*%
%ADD23R,0.800000X0.400000*%
%ADD24R,0.700000X0.700000*%
%ADD25R,1.100000X1.400000*%
%ADD26R,0.500000X1.450000*%
%ADD27R,0.700000X0.650000*%
%ADD28R,0.600000X1.200000*%
G04 APERTURE END LIST*
D10*
X7854636Y-6381761D02*
X7854636Y-11381761D01*
X7854636Y-6381761D02*
G75*
G02X8154636Y-6081761I300000J0D01*
G01*
X14054636Y-6081761D02*
X8154636Y-6081761D01*
X14054636Y-6081761D02*
G75*
G02X14354636Y-6381761I0J-300000D01*
G01*
X14354636Y-11381761D02*
X14354636Y-6381761D01*
X8154636Y-11681761D02*
G75*
G02X7854636Y-11381761I0J300000D01*
G01*
X8154636Y-11681761D02*
X14054636Y-11681761D01*
X14354635Y-11382285D02*
G75*
G02X14054636Y-11681761I-300000J524D01*
G01*
D11*
X13897500Y-7990000D03*
X13897500Y-7940000D03*
X13897500Y-7890000D03*
X13762500Y-7890000D03*
X13762500Y-7940000D03*
X13762500Y-7990000D03*
D12*
X8205000Y-7175000D03*
X8395000Y-7125000D03*
X8395000Y-7075000D03*
X8205000Y-7075000D03*
X8205000Y-7125000D03*
X8205000Y-7225000D03*
X8395000Y-7225000D03*
X8395000Y-7175000D03*
D13*
X8300000Y-7195000D03*
X8300000Y-7105000D03*
D12*
X8205000Y-7875000D03*
X8395000Y-7825000D03*
X8395000Y-7775000D03*
X8205000Y-7775000D03*
X8205000Y-7825000D03*
X8205000Y-7925000D03*
X8395000Y-7925000D03*
X8395000Y-7875000D03*
D13*
X8300000Y-7895000D03*
X8300000Y-7805000D03*
D12*
X8205000Y-8570000D03*
X8395000Y-8520000D03*
X8395000Y-8470000D03*
X8205000Y-8470000D03*
X8205000Y-8520000D03*
X8205000Y-8620000D03*
X8395000Y-8620000D03*
X8395000Y-8570000D03*
D13*
X8300000Y-8590000D03*
X8300000Y-8500000D03*
D14*
X9312500Y-10675000D03*
X9312500Y-10465000D03*
X9147500Y-10465000D03*
X9147500Y-10675000D03*
D15*
X9707500Y-10105000D03*
X9642500Y-10105000D03*
X9577500Y-10105000D03*
X9512500Y-10105000D03*
X9512500Y-10695000D03*
X9577500Y-10695000D03*
X9642500Y-10695000D03*
X9707500Y-10695000D03*
D16*
X11465000Y-10615000D03*
X11465000Y-10565000D03*
X11465000Y-10515000D03*
X11465000Y-10465000D03*
X11465000Y-10415000D03*
X11465000Y-10365000D03*
X11465000Y-10315000D03*
X11465000Y-10265000D03*
X11465000Y-10215000D03*
X11465000Y-10165000D03*
X11465000Y-10115000D03*
X11465000Y-10065000D03*
X11465000Y-10015000D03*
X11465000Y-9965000D03*
X11465000Y-9915000D03*
X11465000Y-9865000D03*
D17*
X11395000Y-9795000D03*
X11345000Y-9795000D03*
X11295000Y-9795000D03*
X11245000Y-9795000D03*
X11195000Y-9795000D03*
X11145000Y-9795000D03*
X11095000Y-9795000D03*
X11045000Y-9795000D03*
X10995000Y-9795000D03*
X10945000Y-9795000D03*
X10895000Y-9795000D03*
X10845000Y-9795000D03*
X10795000Y-9795000D03*
X10745000Y-9795000D03*
X10695000Y-9795000D03*
X10645000Y-9795000D03*
D16*
X10575000Y-9865000D03*
X10575000Y-9915000D03*
X10575000Y-9965000D03*
X10575000Y-10015000D03*
X10575000Y-10065000D03*
X10575000Y-10115000D03*
X10575000Y-10165000D03*
X10575000Y-10215000D03*
X10575000Y-10265000D03*
X10575000Y-10315000D03*
X10575000Y-10365000D03*
X10575000Y-10415000D03*
X10575000Y-10465000D03*
X10575000Y-10515000D03*
X10575000Y-10565000D03*
X10575000Y-10615000D03*
D17*
X10645000Y-10685000D03*
X10695000Y-10685000D03*
X10745000Y-10685000D03*
X10795000Y-10685000D03*
X10845000Y-10685000D03*
X10895000Y-10685000D03*
X10945000Y-10685000D03*
X10995000Y-10685000D03*
X11045000Y-10685000D03*
X11095000Y-10685000D03*
X11145000Y-10685000D03*
X11195000Y-10685000D03*
X11245000Y-10685000D03*
X11295000Y-10685000D03*
X11345000Y-10685000D03*
X11395000Y-10685000D03*
D18*
X10744375Y-9964375D03*
X10744375Y-10148125D03*
X10744375Y-10331875D03*
X10744375Y-10515625D03*
X10928125Y-9964375D03*
X10928125Y-10148125D03*
X10928125Y-10331875D03*
X10928125Y-10515625D03*
X11111875Y-9964375D03*
X11111875Y-10148125D03*
X11111875Y-10331875D03*
X11111875Y-10515625D03*
X11295625Y-9964375D03*
X11295625Y-10148125D03*
X11295625Y-10331875D03*
X11295625Y-10515625D03*
D19*
X11875000Y-6980000D03*
X11825000Y-6980000D03*
X11775000Y-6980000D03*
X11725000Y-6980000D03*
X11675000Y-6980000D03*
X11625000Y-6980000D03*
X11575000Y-6980000D03*
X11525000Y-6980000D03*
X11475000Y-6980000D03*
X11425000Y-6980000D03*
X11375000Y-6980000D03*
X11325000Y-6980000D03*
X11275000Y-6980000D03*
X11225000Y-6980000D03*
X11175000Y-6980000D03*
X11125000Y-6980000D03*
X11075000Y-6980000D03*
X11025000Y-6980000D03*
X10975000Y-6980000D03*
X10925000Y-6980000D03*
X10875000Y-6980000D03*
X10825000Y-6980000D03*
X10775000Y-6980000D03*
X10725000Y-6980000D03*
X10675000Y-6980000D03*
X10625000Y-6980000D03*
X10575000Y-6980000D03*
X10525000Y-6980000D03*
X10475000Y-6980000D03*
X10425000Y-6980000D03*
X10375000Y-6980000D03*
X10325000Y-6980000D03*
X10275000Y-6980000D03*
X10225000Y-6980000D03*
X10175000Y-6980000D03*
X10125000Y-6980000D03*
D20*
X9930000Y-7175000D03*
X9930000Y-7225000D03*
X9930000Y-7275000D03*
X9930000Y-7325000D03*
X9930000Y-7375000D03*
X9930000Y-7425000D03*
X9930000Y-7475000D03*
X9930000Y-7525000D03*
X9930000Y-7575000D03*
X9930000Y-7625000D03*
X9930000Y-7675000D03*
X9930000Y-7725000D03*
X9930000Y-7775000D03*
X9930000Y-7825000D03*
X9930000Y-7875000D03*
X9930000Y-7925000D03*
X9930000Y-7975000D03*
X9930000Y-8025000D03*
X9930000Y-8075000D03*
X9930000Y-8125000D03*
X9930000Y-8175000D03*
X9930000Y-8225000D03*
X9930000Y-8275000D03*
X9930000Y-8325000D03*
X9930000Y-8375000D03*
X9930000Y-8425000D03*
X9930000Y-8475000D03*
X9930000Y-8525000D03*
X9930000Y-8575000D03*
X9930000Y-8625000D03*
X9930000Y-8675000D03*
X9930000Y-8725000D03*
X9930000Y-8775000D03*
X9930000Y-8825000D03*
X9930000Y-8875000D03*
X9930000Y-8925000D03*
D19*
X10125000Y-9120000D03*
X10175000Y-9120000D03*
X10225000Y-9120000D03*
X10275000Y-9120000D03*
X10325000Y-9120000D03*
X10375000Y-9120000D03*
X10425000Y-9120000D03*
X10475000Y-9120000D03*
X10525000Y-9120000D03*
X10575000Y-9120000D03*
X10625000Y-9120000D03*
X10675000Y-9120000D03*
X10725000Y-9120000D03*
X10775000Y-9120000D03*
X10825000Y-9120000D03*
X10875000Y-9120000D03*
X10925000Y-9120000D03*
X10975000Y-9120000D03*
X11025000Y-9120000D03*
X11075000Y-9120000D03*
X11125000Y-9120000D03*
X11175000Y-9120000D03*
X11225000Y-9120000D03*
X11275000Y-9120000D03*
X11325000Y-9120000D03*
X11375000Y-9120000D03*
X11425000Y-9120000D03*
X11475000Y-9120000D03*
X11525000Y-9120000D03*
X11575000Y-9120000D03*
X11625000Y-9120000D03*
X11675000Y-9120000D03*
X11725000Y-9120000D03*
X11775000Y-9120000D03*
X11825000Y-9120000D03*
X11875000Y-9120000D03*
D20*
X12070000Y-8925000D03*
X12070000Y-8875000D03*
X12070000Y-8825000D03*
X12070000Y-8775000D03*
X12070000Y-8725000D03*
X12070000Y-8675000D03*
X12070000Y-8625000D03*
X12070000Y-8575000D03*
X12070000Y-8525000D03*
X12070000Y-8475000D03*
X12070000Y-8425000D03*
X12070000Y-8375000D03*
X12070000Y-8325000D03*
X12070000Y-8275000D03*
X12070000Y-8225000D03*
X12070000Y-8175000D03*
X12070000Y-8125000D03*
X12070000Y-8075000D03*
X12070000Y-8025000D03*
X12070000Y-7975000D03*
X12070000Y-7925000D03*
X12070000Y-7875000D03*
X12070000Y-7825000D03*
X12070000Y-7775000D03*
X12070000Y-7725000D03*
X12070000Y-7675000D03*
X12070000Y-7625000D03*
X12070000Y-7575000D03*
X12070000Y-7525000D03*
X12070000Y-7475000D03*
X12070000Y-7425000D03*
X12070000Y-7375000D03*
X12070000Y-7325000D03*
X12070000Y-7275000D03*
X12070000Y-7225000D03*
X12070000Y-7175000D03*
D21*
X11000000Y-8050000D03*
D22*
X9310000Y-10850000D03*
X9160000Y-10850000D03*
D23*
X8950000Y-11375000D03*
X8950000Y-11525000D03*
X9100000Y-11375000D03*
X9100000Y-11525000D03*
X9250000Y-11375000D03*
X9250000Y-11525000D03*
X9400000Y-11375000D03*
X9400000Y-11525000D03*
X9550000Y-11375000D03*
X9550000Y-11525000D03*
X9700000Y-11375000D03*
X9700000Y-11525000D03*
D24*
X8950000Y-11280000D03*
X8950000Y-11120000D03*
X9100000Y-11280000D03*
X9100000Y-11120000D03*
X9250000Y-11280000D03*
X9250000Y-11120000D03*
X9550000Y-11280000D03*
X9550000Y-11120000D03*
X9700000Y-11280000D03*
X9700000Y-11120000D03*
X9400000Y-11280000D03*
X9400000Y-11120000D03*
D25*
X8650000Y-7015000D03*
X8650000Y-7285000D03*
D22*
X11675000Y-9690000D03*
X11825000Y-9690000D03*
D23*
X11370000Y-10955000D03*
X11370000Y-11105000D03*
X10430000Y-10955000D03*
X10430000Y-11105000D03*
X11050000Y-11105000D03*
X11050000Y-10955000D03*
X10600000Y-10955000D03*
X10600000Y-11105000D03*
X10750000Y-10955000D03*
X10750000Y-11105000D03*
X10900000Y-10955000D03*
X10900000Y-11105000D03*
D22*
X11455000Y-10790000D03*
X11605000Y-10790000D03*
D25*
X8650000Y-7715000D03*
X8650000Y-7985000D03*
X8650000Y-8415000D03*
X8650000Y-8685000D03*
D26*
X8759500Y-9570000D03*
X8886500Y-9570000D03*
X9013500Y-9570000D03*
X9140500Y-9570000D03*
X9140500Y-9030000D03*
X9013500Y-9030000D03*
X8886500Y-9030000D03*
X8759500Y-9030000D03*
D27*
X8275000Y-6900000D03*
X8425000Y-6900000D03*
X8275000Y-8300000D03*
X8425000Y-8300000D03*
X8275000Y-7600000D03*
X8425000Y-7600000D03*
X8275000Y-7400000D03*
X8425000Y-7400000D03*
X8275000Y-8800000D03*
X8425000Y-8800000D03*
X8275000Y-8100000D03*
X8425000Y-8100000D03*
D28*
X8905000Y-7250000D03*
X9095000Y-7250000D03*
X8905000Y-8650000D03*
X9095000Y-8650000D03*
X8910000Y-7950000D03*
X9100000Y-7950000D03*
D22*
X11705000Y-10795000D03*
X11855000Y-10795000D03*
D23*
X10410000Y-9725000D03*
X10410000Y-9575000D03*
X13170000Y-11058000D03*
X13170000Y-11208000D03*
X9655000Y-8170000D03*
X9655000Y-8320000D03*
X11210000Y-10955000D03*
X11210000Y-11105000D03*
X10140000Y-9535000D03*
X10140000Y-9385000D03*
X9750000Y-7135000D03*
X9750000Y-6985000D03*
X12330000Y-9090000D03*
X12330000Y-8940000D03*
D22*
X12135000Y-6830000D03*
X11985000Y-6830000D03*
M02*
