G04 #@! TF.FileFunction,Paste,Bot*
%FSLAX45Y45*%
G04 Gerber Fmt 4.5, Leading zero omitted, Abs format (unit mm)*
G04 Created by KiCad (PCBNEW 4.0.7) date 07/31/18 15:54:45*
%MOMM*%
%LPD*%
G01*
G04 APERTURE LIST*
%ADD10C,0.100000*%
%ADD11R,0.400000X0.800000*%
%ADD12R,0.650000X0.700000*%
%ADD13R,0.700000X0.650000*%
%ADD14R,0.800000X0.400000*%
G04 APERTURE END LIST*
D10*
D11*
X10295000Y-11000000D03*
X10145000Y-11000000D03*
X10295000Y-10820000D03*
X10145000Y-10820000D03*
X11415000Y-8800000D03*
X11265000Y-8800000D03*
X11265000Y-9020000D03*
X11415000Y-9020000D03*
X11265000Y-9170000D03*
X11415000Y-9170000D03*
D12*
X10175000Y-8590000D03*
X10175000Y-8740000D03*
X10380000Y-9065000D03*
X10380000Y-9215000D03*
D13*
X10005000Y-7580000D03*
X9855000Y-7580000D03*
D12*
X10675000Y-9065000D03*
X10675000Y-9215000D03*
D13*
X11985000Y-7480000D03*
X12135000Y-7480000D03*
X10005000Y-8370000D03*
X9855000Y-8370000D03*
X11985000Y-7670000D03*
X12135000Y-7670000D03*
X10005000Y-7225000D03*
X9855000Y-7225000D03*
X11705000Y-8890000D03*
X11555000Y-8890000D03*
X11995000Y-8170000D03*
X12145000Y-8170000D03*
D12*
X10445000Y-7070000D03*
X10445000Y-6920000D03*
D13*
X11995000Y-8590000D03*
X12145000Y-8590000D03*
D12*
X11635000Y-7055000D03*
X11635000Y-6905000D03*
X10225000Y-9065000D03*
X10225000Y-9215000D03*
D13*
X10005000Y-7350000D03*
X9855000Y-7350000D03*
D12*
X10095000Y-9065000D03*
X10095000Y-9215000D03*
X11765000Y-7055000D03*
X11765000Y-6905000D03*
D13*
X11995000Y-8290000D03*
X12145000Y-8290000D03*
X10005000Y-8495000D03*
X9855000Y-8495000D03*
D12*
X11890000Y-7055000D03*
X11890000Y-6905000D03*
X10085000Y-7070000D03*
X10085000Y-6920000D03*
D13*
X11990000Y-7850000D03*
X12140000Y-7850000D03*
X10005000Y-8125000D03*
X9855000Y-8125000D03*
D12*
X12310000Y-9095000D03*
X12310000Y-8945000D03*
X11850000Y-9065000D03*
X11850000Y-9215000D03*
D13*
X11985000Y-7360000D03*
X12135000Y-7360000D03*
D12*
X10600000Y-7070000D03*
X10600000Y-6920000D03*
X9935000Y-6920000D03*
X9935000Y-7070000D03*
X11150000Y-9065000D03*
X11150000Y-9215000D03*
X11020000Y-7070000D03*
X11020000Y-6920000D03*
X10510000Y-9065000D03*
X10510000Y-9215000D03*
D13*
X10005000Y-7720000D03*
X9855000Y-7720000D03*
X10675000Y-10010000D03*
X10525000Y-10010000D03*
D12*
X10840000Y-10595000D03*
X10840000Y-10745000D03*
X11340000Y-10555000D03*
X11340000Y-10705000D03*
D13*
X10675000Y-10340000D03*
X10525000Y-10340000D03*
X11265000Y-10180000D03*
X11415000Y-10180000D03*
X10675000Y-10520000D03*
X10525000Y-10520000D03*
D12*
X11560000Y-10660000D03*
X11560000Y-10510000D03*
X13520000Y-9695000D03*
X13520000Y-9545000D03*
D13*
X13415000Y-9860000D03*
X13265000Y-9860000D03*
X12435000Y-9840000D03*
X12285000Y-9840000D03*
X12375000Y-9300000D03*
X12225000Y-9300000D03*
D12*
X11010000Y-9945000D03*
X11010000Y-9795000D03*
D13*
X11265000Y-10420000D03*
X11415000Y-10420000D03*
X10675000Y-10200000D03*
X10525000Y-10200000D03*
X11415000Y-9940000D03*
X11565000Y-9940000D03*
D12*
X11180000Y-9945000D03*
X11180000Y-9795000D03*
D13*
X11265000Y-10300000D03*
X11415000Y-10300000D03*
D12*
X10860000Y-9945000D03*
X10860000Y-9795000D03*
X11220000Y-10555000D03*
X11220000Y-10705000D03*
X11100000Y-10555000D03*
X11100000Y-10705000D03*
X10960000Y-10595000D03*
X10960000Y-10745000D03*
X9540000Y-10475000D03*
X9540000Y-10325000D03*
X13510000Y-7680000D03*
X13510000Y-7530000D03*
D13*
X9305000Y-10570000D03*
X9155000Y-10570000D03*
D14*
X8200000Y-7775000D03*
X8200000Y-7925000D03*
D11*
X8425000Y-8100000D03*
X8275000Y-8100000D03*
D14*
X8200000Y-8475000D03*
X8200000Y-8625000D03*
D11*
X8425000Y-8800000D03*
X8275000Y-8800000D03*
D14*
X8200000Y-7075000D03*
X8200000Y-7225000D03*
D11*
X8425000Y-7400000D03*
X8275000Y-7400000D03*
X12355000Y-10990000D03*
X12205000Y-10990000D03*
X13325000Y-11250000D03*
X13175000Y-11250000D03*
X10145000Y-10640000D03*
X10295000Y-10640000D03*
X13175000Y-11000000D03*
X13325000Y-11000000D03*
X12355000Y-11240000D03*
X12205000Y-11240000D03*
X10175000Y-10020000D03*
X10025000Y-10020000D03*
X10175000Y-10180000D03*
X10025000Y-10180000D03*
X10175000Y-10340000D03*
X10025000Y-10340000D03*
X10175000Y-10500000D03*
X10025000Y-10500000D03*
D14*
X10255000Y-7420000D03*
X10255000Y-7270000D03*
D11*
X11255000Y-6850000D03*
X11405000Y-6850000D03*
D14*
X13740000Y-7775000D03*
X13740000Y-7625000D03*
X14060000Y-7775000D03*
X14060000Y-7625000D03*
D11*
X13000000Y-8580000D03*
X13150000Y-8580000D03*
D14*
X13380000Y-7230000D03*
X13380000Y-7380000D03*
D13*
X11265000Y-10060000D03*
X11415000Y-10060000D03*
D12*
X10210000Y-7070000D03*
X10210000Y-6920000D03*
D14*
X13900000Y-7775000D03*
X13900000Y-7625000D03*
X12790000Y-8095000D03*
X12790000Y-7945000D03*
D12*
X11300000Y-9945000D03*
X11300000Y-9795000D03*
M02*
