M48
;DRILL file {KiCad 4.0.7} date 06/19/18 16:42:01
;FORMAT={3:3/ absolute / metric / suppress leading zeros}
FMAT,2
METRIC,TZ
T1C0.200
T2C0.890
T3C1.000
T4C1.016
T5C1.270
T6C1.570
%
G90
G05
M71
T1
X81000Y-71000
X81000Y-78000
X81000Y-85000
X81050Y-71750
X81050Y-78750
X81100Y-85700
X82000Y-69998
X82000Y-73000
X82050Y-77050
X82050Y-79950
X82050Y-84050
X82050Y-86950
X82500Y-68000
X83000Y-70000
X83000Y-71500
X83000Y-73000
X83000Y-77000
X83000Y-78500
X83000Y-80000
X83000Y-84000
X83000Y-85450
X83000Y-87000
X83500Y-75000
X83500Y-82000
X84100Y-68030
X84375Y-75000
X84500Y-73000
X84500Y-80000
X84500Y-82000
X84500Y-87000
X85000Y-68030
X87595Y-92995
X87600Y-97200
X88200Y-115250
X88900Y-97200
X89500Y-110000
X90200Y-88800
X90200Y-97200
X90550Y-105700
X91000Y-110000
X91400Y-93000
X91405Y-88805
X91500Y-71500
X91500Y-73500
X92000Y-72500
X92000Y-78500
X92000Y-79500
X92000Y-80500
X92000Y-85500
X92000Y-86500
X92000Y-87430
X92500Y-71500
X92500Y-73500
X92500Y-81500
X92500Y-82250
X92500Y-83000
X92500Y-110000
X93000Y-72500
X94000Y-110000
X94150Y-105700
X95100Y-102300
X95500Y-110000
X95800Y-105600
X96700Y-99400
X97000Y-110000
X97750Y-73500
X97750Y-75700
X97750Y-76800
X97750Y-81250
X97750Y-83750
X97750Y-84750
X97800Y-72100
X98500Y-69200
X98500Y-70700
X100250Y-106350
X100300Y-108200
X100900Y-104200
X101000Y-72250
X101000Y-73500
X101000Y-76000
X101000Y-77250
X101000Y-79500
X101000Y-81500
X101000Y-84300
X101000Y-85250
X101000Y-88000
X101000Y-93000
X101250Y-68250
X101450Y-71450
X101500Y-111000
X101500Y-80000
X101800Y-89750
X101800Y-96200
X102000Y-68250
X102000Y-80500
X102000Y-93000
X102250Y-88250
X102400Y-103200
X102400Y-101100
X102400Y-102200
X102400Y-104200
X103000Y-88500
X103050Y-109200
X103300Y-95200
X103500Y-71500
X103600Y-111700
X103700Y-108100
X103750Y-88750
X103750Y-89750
X104000Y-93000
X104050Y-94700
X104300Y-108100
X104300Y-108700
X104300Y-111700
X104450Y-102150
X104494Y-105186
X104500Y-68250
X104500Y-71500
X104500Y-100100
X104500Y-103250
X104550Y-97950
X104750Y-89750
X104800Y-106630
X104800Y-107500
X104900Y-111700
X105050Y-97700
X105500Y-93000
X105500Y-108000
X106000Y-68250
X106000Y-71500
X106000Y-96750
X106217Y-108303
X106250Y-89750
X106750Y-67750
X106800Y-93000
X106900Y-108700
X107000Y-77500
X107000Y-83500
X107000Y-80500
X107250Y-68250
X107400Y-96700
X107638Y-108275
X107750Y-67750
X108250Y-68250
X108300Y-108700
X108750Y-67750
X108900Y-108313
X109000Y-93000
X109000Y-109000
X109250Y-89750
X109281Y-101481
X109281Y-103319
X109800Y-93000
X109900Y-96700
X110000Y-71500
X110000Y-77500
X110000Y-80500
X110000Y-83500
X110000Y-108300
X110250Y-68250
X110250Y-89750
X110500Y-93000
X110741Y-108290
X111119Y-101481
X111119Y-103319
X111250Y-93000
X111500Y-108300
X111750Y-89750
X112000Y-93000
X112450Y-96650
X112500Y-89000
X112900Y-93000
X113000Y-77500
X113000Y-80500
X113000Y-83500
X113100Y-113300
X113200Y-108200
X113250Y-67250
X113500Y-89000
X113700Y-93300
X113700Y-96650
X113700Y-113300
X113800Y-108400
X114300Y-113300
X114500Y-89000
X114500Y-92800
X114700Y-106900
X115250Y-89750
X115300Y-97700
X115300Y-108450
X115950Y-100150
X115950Y-100650
X115950Y-102050
X115950Y-104150
X115950Y-104650
X116100Y-96500
X116100Y-97300
X116300Y-106200
X116500Y-71500
X116550Y-108950
X116850Y-68200
X117250Y-89750
X117300Y-108950
X117500Y-71500
X117750Y-68250
X118500Y-71500
X118500Y-72500
X118500Y-75500
X118500Y-77500
X118500Y-79500
X118500Y-93000
X118550Y-106950
X118550Y-108950
X118750Y-68250
X118750Y-89750
X118800Y-97900
X118800Y-101300
X118800Y-102000
X118800Y-98700
X118900Y-96100
X118900Y-96900
X119000Y-76650
X119000Y-78500
X119000Y-82250
X119000Y-85250
X119100Y-74200
X119250Y-89250
X121000Y-109800
X121125Y-92350
X121350Y-69350
X122200Y-76700
X122200Y-78400
X122250Y-73750
X122300Y-74700
X122300Y-81900
X122300Y-82600
X122300Y-84800
X122300Y-85550
X122300Y-86650
X122300Y-87300
X122300Y-87950
X122300Y-88600
X122300Y-89400
X123000Y-81000
X123050Y-78700
X123100Y-86600
X123300Y-84800
X123400Y-92000
X124000Y-84760
X124300Y-78700
X124300Y-90900
X124500Y-81000
X124800Y-83700
X124800Y-84800
X130500Y-112130
X132900Y-112130
X134300Y-95700
X135050Y-71500
X135100Y-105300
X136800Y-79400
X137600Y-96650
X137600Y-106800
X139700Y-79400
T2
X120860Y-94900
X120860Y-96930
X120860Y-98960
X120860Y-103040
X120860Y-105070
X120860Y-107100
X123400Y-95920
X123400Y-97950
X123400Y-99980
X123400Y-102020
X123400Y-104050
X123400Y-106080
T3
X82100Y-98000
X82100Y-100540
X82100Y-103080
X82100Y-105620
X82100Y-108160
X84000Y-91100
X84000Y-93640
X84640Y-98000
X84640Y-100540
X84640Y-103080
X84640Y-105620
X84640Y-108160
X86920Y-63050
X86920Y-65590
X89460Y-63050
X89460Y-65590
X90000Y-70000
X90000Y-77000
X90000Y-84000
X92000Y-63050
X92000Y-65590
X94540Y-63050
X94540Y-65590
X97080Y-63050
X97080Y-65590
X99620Y-63050
X99620Y-65590
X102160Y-63050
X102160Y-65590
X104700Y-63050
X104700Y-65590
X107240Y-63050
X107240Y-65590
X109780Y-63050
X109780Y-65590
X112320Y-63050
X112320Y-65590
X114860Y-63050
X114860Y-65590
X117400Y-63050
X117400Y-65590
X119940Y-63050
X119940Y-65590
X122480Y-63050
X122480Y-65590
X125020Y-63050
X125020Y-65590
X127560Y-63050
X127560Y-65590
X130100Y-63050
X130100Y-65590
X132640Y-63050
X132640Y-65590
X135180Y-63050
X135180Y-65590
X138770Y-69180
X138770Y-71720
X141310Y-69180
X141310Y-71720
T4
X130860Y-73790
X130860Y-76330
X130860Y-78870
X130860Y-81410
X130860Y-83950
X133400Y-73790
X133400Y-76330
X133400Y-78870
X133400Y-81410
X133400Y-83950
T5
X133810Y-108520
X136350Y-93480
X136350Y-108520
X138890Y-93480
X138890Y-108520
T6
X130000Y-92210
X130000Y-109790
T0
M30
