M48
;DRILL file {KiCad 4.0.7} date 07/31/18 15:52:40
;FORMAT={3:3/ absolute / metric / suppress leading zeros}
FMAT,2
METRIC,TZ
T1C0.200
T2C0.890
T3C1.000
T4C1.016
T5C1.270
T6C1.570
%
G90
G05
M71
T1
X81000Y-71000
X81000Y-78000
X81000Y-85000
X81050Y-71750
X81050Y-78750
X81100Y-85700
X82000Y-69998
X82000Y-73000
X82000Y-90000
X82000Y-92950
X82050Y-77050
X82050Y-79950
X82050Y-84050
X82050Y-86950
X82500Y-68000
X83000Y-70000
X83000Y-71500
X83000Y-73000
X83000Y-77000
X83000Y-78500
X83000Y-80000
X83000Y-84000
X83000Y-85450
X83000Y-87000
X83500Y-75000
X83500Y-82000
X84100Y-68030
X84375Y-75000
X84500Y-73000
X84500Y-80000
X84500Y-82000
X84500Y-87000
X84500Y-98800
X84500Y-104800
X85000Y-68030
X90550Y-105700
X91500Y-71500
X91500Y-73500
X92000Y-72500
X92000Y-78500
X92000Y-79500
X92000Y-80500
X92000Y-85500
X92000Y-86500
X92000Y-87430
X92150Y-68950
X92500Y-71500
X92500Y-73500
X92500Y-81500
X92500Y-82250
X92500Y-83000
X93000Y-72500
X94150Y-105700
X94375Y-96875
X94900Y-95000
X95000Y-92000
X95000Y-93500
X95100Y-102300
X95500Y-67050
X95800Y-105600
X96700Y-99400
X97750Y-73500
X97750Y-75700
X97750Y-76800
X97750Y-81250
X97750Y-83750
X97750Y-84750
X97800Y-72100
X98500Y-69200
X98500Y-70700
X100250Y-106350
X100700Y-108200
X100700Y-110000
X100900Y-104200
X101000Y-72250
X101000Y-73500
X101000Y-76000
X101000Y-77250
X101000Y-79500
X101000Y-81500
X101000Y-84300
X101000Y-85250
X101000Y-88000
X101000Y-93000
X101250Y-68250
X101450Y-71450
X101500Y-80000
X101800Y-89750
X101800Y-96200
X102000Y-68250
X102000Y-80500
X102000Y-93000
X102250Y-88250
X102400Y-103200
X102400Y-101100
X102400Y-102200
X102400Y-104200
X103000Y-88500
X103050Y-109200
X103300Y-95200
X103500Y-71500
X103600Y-111700
X103700Y-108100
X103750Y-88750
X103750Y-89750
X104000Y-93000
X104050Y-94700
X104300Y-108100
X104300Y-108700
X104300Y-111700
X104450Y-102150
X104494Y-105186
X104500Y-68250
X104500Y-71500
X104500Y-100100
X104500Y-103250
X104550Y-97950
X104750Y-89750
X104800Y-107400
X104900Y-111700
X105050Y-97700
X105500Y-93000
X105500Y-106100
X105600Y-108000
X106000Y-68250
X106000Y-71500
X106000Y-96750
X106242Y-108442
X106250Y-89750
X106748Y-67772
X106800Y-93000
X106900Y-108700
X107000Y-77500
X107000Y-83500
X107000Y-80500
X107250Y-68250
X107600Y-97400
X107600Y-108700
X107750Y-67775
X108250Y-68250
X108300Y-108700
X108750Y-67775
X108898Y-108308
X109000Y-93000
X109250Y-89750
X109281Y-101481
X109281Y-103319
X109500Y-108900
X109800Y-93000
X109900Y-96800
X110000Y-71500
X110000Y-77500
X110000Y-80500
X110000Y-83500
X110000Y-108300
X110250Y-68250
X110250Y-89750
X110500Y-93000
X110724Y-108305
X111119Y-101481
X111119Y-103319
X111200Y-107800
X111250Y-93000
X111750Y-89750
X112000Y-93000
X112100Y-97100
X112500Y-89000
X112900Y-93000
X113000Y-77500
X113000Y-80500
X113000Y-83500
X113100Y-97100
X113100Y-113300
X113200Y-108200
X113500Y-89000
X113700Y-93300
X113700Y-108500
X113700Y-113300
X114300Y-106500
X114300Y-113300
X114500Y-89000
X114500Y-92800
X114674Y-105795
X114900Y-98500
X115200Y-103600
X115250Y-89750
X115292Y-100528
X115500Y-104000
X115700Y-102000
X115900Y-96500
X115900Y-97300
X116500Y-71500
X116850Y-68200
X116900Y-109800
X117250Y-89750
X117300Y-67500
X117400Y-109700
X117500Y-71500
X117750Y-68250
X118400Y-107800
X118400Y-109300
X118500Y-71500
X118500Y-72500
X118500Y-75500
X118500Y-77500
X118500Y-79500
X118500Y-93000
X118750Y-68250
X118750Y-89750
X118900Y-96100
X118900Y-96900
X119000Y-76650
X119000Y-78500
X119000Y-82250
X119000Y-85250
X119100Y-74200
X119250Y-89250
X120800Y-101600
X120800Y-102600
X121000Y-98400
X121350Y-69350
X121800Y-98400
X122000Y-113500
X122200Y-76700
X122200Y-78400
X122250Y-73750
X122300Y-74700
X122300Y-81900
X122300Y-82600
X122300Y-84800
X122300Y-85550
X122300Y-86650
X122300Y-87300
X122300Y-87950
X122300Y-88600
X122300Y-89400
X123000Y-81000
X123050Y-78700
X123100Y-86600
X123300Y-84800
X123400Y-92000
X123550Y-108950
X124000Y-84760
X124300Y-78700
X124300Y-90900
X124300Y-112400
X124500Y-81000
X124800Y-83700
X124800Y-84800
X125200Y-98400
X131750Y-111150
X133800Y-71500
X133800Y-108000
X134200Y-97000
X135100Y-77750
X135500Y-82250
X135900Y-75300
X135900Y-80000
X138000Y-75500
X138200Y-81000
X138350Y-82300
X139480Y-75480
X139500Y-81000
X139700Y-105400
X140750Y-75450
X141800Y-79550
X141950Y-77750
T2
X121600Y-94460
X122620Y-97000
X123630Y-94460
X124650Y-97000
X125660Y-94460
X126680Y-97000
X128720Y-97000
X129740Y-94460
X130750Y-97000
X131770Y-94460
X132780Y-97000
X133800Y-94460
T3
X86600Y-109050
X86920Y-63050
X86920Y-65590
X89460Y-63050
X89460Y-65590
X90000Y-70000
X90000Y-77000
X90000Y-84000
X92000Y-63050
X92000Y-65590
X94540Y-63050
X94540Y-65590
X97080Y-63050
X97080Y-65590
X99620Y-63050
X99620Y-65590
X102160Y-63050
X102160Y-65590
X104700Y-63050
X104700Y-65590
X107240Y-63050
X107240Y-65590
X109780Y-63050
X109780Y-65590
X112320Y-63050
X112320Y-65590
X114860Y-63050
X114860Y-65590
X117400Y-63050
X117400Y-65590
X119940Y-63050
X119940Y-65590
X122480Y-63050
X122480Y-65590
X125020Y-63050
X125020Y-65590
X127560Y-63050
X127560Y-65590
X130100Y-63050
X130100Y-65590
X132640Y-63050
X132640Y-65590
X135180Y-63050
X135180Y-65590
X138770Y-69180
X138770Y-71720
X139260Y-83700
X141310Y-69180
X141310Y-71720
X141800Y-83700
T4
X129650Y-73810
X129650Y-76350
X129650Y-78890
X129650Y-81430
X129650Y-83970
X132190Y-73810
X132190Y-76350
X132190Y-78890
X132190Y-81430
X132190Y-83970
T5
X120180Y-107410
X120180Y-109950
X120180Y-112490
X135220Y-109950
X135220Y-112490
T6
X118910Y-103600
X136490Y-103600
T0
M30
