G04 #@! TF.FileFunction,Copper,L4,Bot,Signal*
%FSLAX45Y45*%
G04 Gerber Fmt 4.5, Leading zero omitted, Abs format (unit mm)*
G04 Created by KiCad (PCBNEW 4.0.7) date 06/19/18 16:53:46*
%MOMM*%
%LPD*%
G01*
G04 APERTURE LIST*
%ADD10C,0.100000*%
%ADD11R,1.727200X1.727200*%
%ADD12O,1.727200X1.727200*%
%ADD13C,1.300000*%
%ADD14C,1.670000*%
%ADD15C,1.970000*%
%ADD16R,0.900000X0.500000*%
%ADD17C,1.000000*%
%ADD18R,0.750000X0.800000*%
%ADD19R,0.800000X0.750000*%
%ADD20R,1.700000X1.700000*%
%ADD21O,1.700000X1.700000*%
%ADD22R,0.500000X0.900000*%
%ADD23C,3.000000*%
%ADD24C,0.500000*%
%ADD25C,0.500000*%
%ADD26C,0.200000*%
%ADD27C,0.250000*%
%ADD28C,0.400000*%
%ADD29C,1.000000*%
%ADD30C,0.254000*%
G04 APERTURE END LIST*
D10*
X7854636Y-6381761D02*
X7854636Y-11381761D01*
X7854636Y-6381761D02*
G75*
G02X8154636Y-6081761I300000J0D01*
G01*
X14054636Y-6081761D02*
X8154636Y-6081761D01*
X14054636Y-6081761D02*
G75*
G02X14354636Y-6381761I0J-300000D01*
G01*
X14354636Y-11381761D02*
X14354636Y-6381761D01*
X8154636Y-11681761D02*
G75*
G02X7854636Y-11381761I0J300000D01*
G01*
X8154636Y-11681761D02*
X14054636Y-11681761D01*
X14354635Y-11382285D02*
G75*
G02X14054636Y-11681761I-300000J524D01*
G01*
D11*
X13340000Y-8395000D03*
D12*
X13086000Y-8395000D03*
X13340000Y-8141000D03*
X13086000Y-8141000D03*
X13340000Y-7887000D03*
X13086000Y-7887000D03*
X13340000Y-7633000D03*
X13086000Y-7633000D03*
X13340000Y-7379000D03*
X13086000Y-7379000D03*
D13*
X12340000Y-9592000D03*
X12340000Y-9795000D03*
X12340000Y-9998000D03*
X12340000Y-10202000D03*
X12340000Y-10405000D03*
X12340000Y-10608000D03*
X12086000Y-9490000D03*
X12086000Y-9693000D03*
X12086000Y-9896000D03*
X12086000Y-10304000D03*
X12086000Y-10507000D03*
X12086000Y-10710000D03*
D14*
X13635000Y-9348000D03*
X13889000Y-9348000D03*
X13381000Y-10852000D03*
X13635000Y-10852000D03*
X13889000Y-10852000D03*
D15*
X13000000Y-10979000D03*
X13000000Y-9221000D03*
D16*
X12910000Y-8105000D03*
X12910000Y-7955000D03*
D17*
X8625000Y-11125000D03*
X13850000Y-7475000D03*
X13485000Y-11248000D03*
D16*
X9000000Y-9105000D03*
X9000000Y-8955000D03*
D18*
X10210000Y-7070000D03*
X10210000Y-6920000D03*
D19*
X11370000Y-9990000D03*
X11520000Y-9990000D03*
D20*
X14131000Y-7172000D03*
D21*
X13877000Y-7172000D03*
X14131000Y-6918000D03*
X13877000Y-6918000D03*
D16*
X13515000Y-7225000D03*
X13515000Y-7375000D03*
D22*
X13145000Y-8600000D03*
X13295000Y-8600000D03*
D16*
X9140000Y-9105000D03*
X9140000Y-8955000D03*
X8620000Y-9255000D03*
X8620000Y-9105000D03*
D22*
X11255000Y-6850000D03*
X11405000Y-6850000D03*
D16*
X10255000Y-7420000D03*
X10255000Y-7270000D03*
D22*
X10175000Y-10500000D03*
X10025000Y-10500000D03*
X10175000Y-10340000D03*
X10025000Y-10340000D03*
X10175000Y-10180000D03*
X10025000Y-10180000D03*
X10175000Y-10020000D03*
X10025000Y-10020000D03*
D16*
X13890000Y-10535000D03*
X13890000Y-10685000D03*
X13630000Y-9665000D03*
X13630000Y-9515000D03*
D22*
X10145000Y-10640000D03*
X10295000Y-10640000D03*
D16*
X13890000Y-9515000D03*
X13890000Y-9665000D03*
X13640000Y-10535000D03*
X13640000Y-10685000D03*
D22*
X8425000Y-7400000D03*
X8275000Y-7400000D03*
D16*
X8200000Y-7075000D03*
X8200000Y-7225000D03*
D22*
X8425000Y-8800000D03*
X8275000Y-8800000D03*
D16*
X8200000Y-8475000D03*
X8200000Y-8625000D03*
D22*
X8425000Y-8100000D03*
X8275000Y-8100000D03*
D16*
X8200000Y-7775000D03*
X8200000Y-7925000D03*
D23*
X8204000Y-6431000D03*
X14004000Y-6433000D03*
X8204000Y-11332000D03*
X14003000Y-11331000D03*
D20*
X8692000Y-6559000D03*
D21*
X8692000Y-6305000D03*
X8946000Y-6559000D03*
X8946000Y-6305000D03*
X9200000Y-6559000D03*
X9200000Y-6305000D03*
X9454000Y-6559000D03*
X9454000Y-6305000D03*
X9708000Y-6559000D03*
X9708000Y-6305000D03*
X9962000Y-6559000D03*
X9962000Y-6305000D03*
X10216000Y-6559000D03*
X10216000Y-6305000D03*
X10470000Y-6559000D03*
X10470000Y-6305000D03*
X10724000Y-6559000D03*
X10724000Y-6305000D03*
X10978000Y-6559000D03*
X10978000Y-6305000D03*
X11232000Y-6559000D03*
X11232000Y-6305000D03*
X11486000Y-6559000D03*
X11486000Y-6305000D03*
X11740000Y-6559000D03*
X11740000Y-6305000D03*
X11994000Y-6559000D03*
X11994000Y-6305000D03*
X12248000Y-6559000D03*
X12248000Y-6305000D03*
X12502000Y-6559000D03*
X12502000Y-6305000D03*
X12756000Y-6559000D03*
X12756000Y-6305000D03*
X13010000Y-6559000D03*
X13010000Y-6305000D03*
X13264000Y-6559000D03*
X13264000Y-6305000D03*
X13518000Y-6559000D03*
X13518000Y-6305000D03*
D20*
X8210000Y-9800000D03*
D21*
X8464000Y-9800000D03*
X8210000Y-10054000D03*
X8464000Y-10054000D03*
X8210000Y-10308000D03*
X8464000Y-10308000D03*
X8210000Y-10562000D03*
X8464000Y-10562000D03*
X8210000Y-10816000D03*
X8464000Y-10816000D03*
D20*
X8400000Y-9110000D03*
D21*
X8400000Y-9364000D03*
D20*
X9000000Y-7000000D03*
X9000000Y-8400000D03*
X9000000Y-7700000D03*
D19*
X9305000Y-10570000D03*
X9155000Y-10570000D03*
X9025000Y-9300000D03*
X8875000Y-9300000D03*
D18*
X9540000Y-10475000D03*
X9540000Y-10325000D03*
X10960000Y-10595000D03*
X10960000Y-10745000D03*
X11100000Y-10555000D03*
X11100000Y-10705000D03*
X11220000Y-10595000D03*
X11220000Y-10745000D03*
X10740000Y-9895000D03*
X10740000Y-9745000D03*
D19*
X11370000Y-10365000D03*
X11520000Y-10365000D03*
D18*
X11200000Y-9895000D03*
X11200000Y-9745000D03*
D19*
X11445000Y-9850000D03*
X11595000Y-9850000D03*
X10675000Y-10200000D03*
X10525000Y-10200000D03*
X11370000Y-10500000D03*
X11520000Y-10500000D03*
D18*
X10990000Y-9900000D03*
X10990000Y-9750000D03*
X12200000Y-10980000D03*
X12200000Y-10830000D03*
X12340000Y-10910000D03*
X12340000Y-10760000D03*
X12340000Y-9315000D03*
X12340000Y-9465000D03*
X12200000Y-9235000D03*
X12200000Y-9385000D03*
X11555000Y-10770000D03*
X11555000Y-10620000D03*
D19*
X10675000Y-10520000D03*
X10525000Y-10520000D03*
X11370000Y-10120000D03*
X11520000Y-10120000D03*
X10675000Y-10340000D03*
X10525000Y-10340000D03*
D18*
X11350000Y-10595000D03*
X11350000Y-10745000D03*
X11340000Y-9895000D03*
X11340000Y-9745000D03*
X10840000Y-10595000D03*
X10840000Y-10745000D03*
D19*
X10675000Y-10010000D03*
X10525000Y-10010000D03*
X10005000Y-7720000D03*
X9855000Y-7720000D03*
D18*
X10510000Y-9065000D03*
X10510000Y-9215000D03*
X11020000Y-7070000D03*
X11020000Y-6920000D03*
X11150000Y-9065000D03*
X11150000Y-9215000D03*
X9935000Y-6920000D03*
X9935000Y-7070000D03*
X10600000Y-7070000D03*
X10600000Y-6920000D03*
D19*
X11985000Y-7360000D03*
X12135000Y-7360000D03*
D18*
X11850000Y-9065000D03*
X11850000Y-9215000D03*
X12310000Y-9095000D03*
X12310000Y-8945000D03*
D19*
X10005000Y-8125000D03*
X9855000Y-8125000D03*
X11990000Y-7850000D03*
X12140000Y-7850000D03*
D18*
X10085000Y-7070000D03*
X10085000Y-6920000D03*
X11890000Y-7055000D03*
X11890000Y-6905000D03*
D19*
X10005000Y-8495000D03*
X9855000Y-8495000D03*
X11995000Y-8290000D03*
X12145000Y-8290000D03*
D18*
X11765000Y-7055000D03*
X11765000Y-6905000D03*
X10095000Y-9065000D03*
X10095000Y-9215000D03*
D19*
X10005000Y-7350000D03*
X9855000Y-7350000D03*
D18*
X10225000Y-9065000D03*
X10225000Y-9215000D03*
X11635000Y-7055000D03*
X11635000Y-6905000D03*
D19*
X11995000Y-8590000D03*
X12145000Y-8590000D03*
D18*
X10445000Y-7070000D03*
X10445000Y-6920000D03*
D19*
X11995000Y-8170000D03*
X12145000Y-8170000D03*
X11705000Y-8890000D03*
X11555000Y-8890000D03*
X10005000Y-7225000D03*
X9855000Y-7225000D03*
X11985000Y-7670000D03*
X12135000Y-7670000D03*
X10005000Y-8370000D03*
X9855000Y-8370000D03*
X11985000Y-7480000D03*
X12135000Y-7480000D03*
D18*
X10675000Y-9065000D03*
X10675000Y-9215000D03*
D19*
X10005000Y-7580000D03*
X9855000Y-7580000D03*
D18*
X10380000Y-9065000D03*
X10380000Y-9215000D03*
X10175000Y-8590000D03*
X10175000Y-8740000D03*
D22*
X11265000Y-9170000D03*
X11415000Y-9170000D03*
X11265000Y-9020000D03*
X11415000Y-9020000D03*
X11415000Y-8800000D03*
X11265000Y-8800000D03*
X10295000Y-10820000D03*
X10145000Y-10820000D03*
X10295000Y-11000000D03*
X10145000Y-11000000D03*
D24*
X8110000Y-8570000D03*
X8105000Y-7175000D03*
X8105000Y-7875000D03*
X8300000Y-8545000D03*
X8300000Y-7150000D03*
X8300000Y-7850000D03*
X8100000Y-7800000D03*
X8100000Y-8500000D03*
X8100000Y-7100000D03*
X8300000Y-8700000D03*
X8300000Y-8400000D03*
X8300000Y-8000000D03*
X8300000Y-7700000D03*
X8250000Y-6800000D03*
X8300000Y-7000000D03*
X8300000Y-7300000D03*
X10150000Y-11100000D03*
X11530000Y-10845000D03*
X9509999Y-10230000D03*
X11595000Y-10205000D03*
X9415001Y-10570000D03*
X10090000Y-10420000D03*
X13050000Y-11213000D03*
X13290000Y-11213000D03*
X13970000Y-7940000D03*
X11450000Y-8900000D03*
X12430000Y-7870000D03*
X12305000Y-7870000D03*
X10100000Y-7950000D03*
X10150000Y-8000000D03*
X10200000Y-8050000D03*
X8760000Y-9720000D03*
X8890000Y-9720000D03*
X9020000Y-9720000D03*
X9140000Y-9300000D03*
X10700000Y-8350000D03*
X11300000Y-8350000D03*
X11300000Y-7750000D03*
X10700000Y-7750000D03*
X11000000Y-7750000D03*
X11000000Y-8350000D03*
X11300000Y-8050000D03*
X10700001Y-8050000D03*
X11000000Y-8050000D03*
X10100000Y-7724999D03*
X10100000Y-8150000D03*
X10375000Y-8975000D03*
X10100000Y-7600000D03*
X10100000Y-8525000D03*
X10100000Y-8430000D03*
X10100000Y-7350000D03*
X9850000Y-6920000D03*
X10100000Y-7225000D03*
X10145000Y-7145000D03*
X10450000Y-7150000D03*
X10600000Y-7150000D03*
X10675000Y-6775000D03*
X10725000Y-6825000D03*
X10875000Y-6775000D03*
X10775000Y-6775000D03*
X10825000Y-6825000D03*
X12300000Y-8100000D03*
X12450000Y-8100000D03*
X11000000Y-7150000D03*
X11750000Y-7150000D03*
X11650000Y-7150000D03*
X11850000Y-7150000D03*
X10900000Y-9300000D03*
X11900000Y-8525000D03*
X11900000Y-8225000D03*
X11900000Y-7665000D03*
X11900000Y-7850000D03*
X11925000Y-8925000D03*
X11875000Y-8975000D03*
X11725000Y-8975000D03*
X10180000Y-8975000D03*
X10625000Y-8975000D03*
X10475000Y-8975000D03*
X11175000Y-8975000D03*
X10925000Y-8975000D03*
X11025000Y-8974998D03*
X10980000Y-9300000D03*
X11910000Y-7420000D03*
X12112500Y-9235000D03*
X12340000Y-9200000D03*
X12100000Y-10980000D03*
X11111875Y-10331875D03*
X10928125Y-10331875D03*
X10928125Y-10148125D03*
X11111875Y-10148125D03*
X8950000Y-11000000D03*
X11470000Y-10690000D03*
X9300000Y-7250000D03*
X9250000Y-7350000D03*
X9150000Y-7350000D03*
X9250000Y-7150000D03*
X9150000Y-7150000D03*
X9200000Y-7250000D03*
X11430000Y-11330000D03*
X11310000Y-11330000D03*
X11370000Y-11330000D03*
X10360000Y-11170000D03*
X10490000Y-11170000D03*
X10430000Y-11170000D03*
X10030000Y-10820000D03*
X9580000Y-10560000D03*
X8820000Y-11525000D03*
X9055000Y-10570000D03*
X9670000Y-9940000D03*
X13680000Y-7940000D03*
X13505000Y-7150000D03*
X9775000Y-7679999D03*
X8759500Y-9299500D03*
X9775000Y-8475000D03*
X9775000Y-8125000D03*
X9775000Y-7350000D03*
X10600000Y-6825000D03*
X12225001Y-7375000D03*
X11125000Y-9300000D03*
X10550000Y-9300000D03*
X12220000Y-7840000D03*
X12230000Y-8260000D03*
X12230000Y-8480000D03*
X11025000Y-6825000D03*
X10025000Y-10635000D03*
X13760000Y-9665000D03*
X13510000Y-10530000D03*
X9700000Y-11000000D03*
X10350000Y-7150000D03*
X11050000Y-9300000D03*
X9250000Y-11000000D03*
X10225000Y-8825000D03*
X9400000Y-11000000D03*
X10300000Y-8850000D03*
X10375000Y-8875000D03*
X9550000Y-11000000D03*
X8500000Y-6803000D03*
X8410000Y-6803000D03*
X8200000Y-6999828D03*
X8205000Y-7705000D03*
X8205000Y-8405000D03*
X8350000Y-7500000D03*
X8437500Y-7500000D03*
X8350000Y-8200000D03*
X8450000Y-8200000D03*
X12230000Y-8665001D03*
X11000001Y-10830000D03*
X10240000Y-10420000D03*
X10240000Y-10320000D03*
X10240000Y-10220000D03*
X10240000Y-10110000D03*
X10305000Y-10920000D03*
X12480000Y-8370000D03*
X10480000Y-10749999D03*
X12480000Y-8480000D03*
X12230000Y-8860005D03*
X10763782Y-10827469D03*
X10550000Y-10800000D03*
X12400000Y-8476000D03*
X10621651Y-10830275D03*
X12330000Y-8480000D03*
X12310000Y-8660000D03*
X10690000Y-10870000D03*
X13430000Y-9570000D03*
X13760000Y-10680000D03*
X9200000Y-8743000D03*
X9250000Y-8150000D03*
X9250000Y-8225000D03*
X9250000Y-8300000D03*
X9200000Y-8550000D03*
X9200000Y-8650000D03*
X10180000Y-9620000D03*
X12430000Y-9090000D03*
X12135000Y-6935000D03*
X10330000Y-9520000D03*
X10405000Y-9470000D03*
X11855000Y-10695000D03*
X11855000Y-10895000D03*
X11890000Y-9610000D03*
X11890000Y-9690000D03*
X10680001Y-9300000D03*
X9775000Y-7569999D03*
X11685000Y-6820000D03*
X12230000Y-7470000D03*
X12230000Y-8555000D03*
X9780001Y-7209999D03*
X10100000Y-8800000D03*
X9775000Y-8375000D03*
X10200000Y-6825000D03*
X10450000Y-6825000D03*
X10400000Y-9300000D03*
X11525000Y-8975000D03*
X12220000Y-7670000D03*
X12230000Y-8190000D03*
X9200000Y-7850000D03*
X9200000Y-8050000D03*
X9200000Y-7950000D03*
X10125000Y-6824999D03*
X11775000Y-6825000D03*
X10200000Y-9300000D03*
X11850000Y-9300000D03*
X9850000Y-7070000D03*
X8205000Y-7995000D03*
X8200000Y-7300000D03*
X8205000Y-8695000D03*
X11880000Y-10130000D03*
X11880000Y-10200000D03*
X11880000Y-9790000D03*
X11880001Y-9870000D03*
X11200000Y-9299999D03*
X11250000Y-8900000D03*
X11350000Y-8900000D03*
X11730000Y-10895000D03*
X11655000Y-10895000D03*
X11150000Y-10830000D03*
X11610000Y-9650000D03*
X11610000Y-9730004D03*
X11595000Y-10015000D03*
X11595000Y-10065000D03*
X11595000Y-10465000D03*
X11595000Y-10415000D03*
X10505000Y-9770000D03*
X10455000Y-9795000D03*
X10450000Y-10325000D03*
X10889999Y-10831276D03*
X10450000Y-10010000D03*
X10990000Y-9670000D03*
X11245000Y-9665000D03*
X11320000Y-10820000D03*
X11380000Y-10840000D03*
X11630000Y-10620000D03*
X11530000Y-9770000D03*
X8450000Y-8000000D03*
X8450000Y-7300000D03*
X8450000Y-8700000D03*
X12230000Y-8795004D03*
X10830000Y-10870001D03*
X10480000Y-10662999D03*
X11290000Y-9300000D03*
X11370000Y-9330001D03*
X10600000Y-9675000D03*
X11074069Y-10829033D03*
X11450000Y-9280000D03*
X9140500Y-8880500D03*
X9020000Y-8880000D03*
X11850000Y-7550000D03*
X11850000Y-7950000D03*
X11850000Y-7750000D03*
X11850000Y-7250000D03*
X12230000Y-8730003D03*
X10900000Y-10900000D03*
X9100000Y-11000000D03*
X11325000Y-6725000D03*
X10449430Y-10518575D03*
X10369999Y-10810000D03*
X10430000Y-10810000D03*
X10430000Y-10870000D03*
X10445000Y-10215000D03*
X10740000Y-9670000D03*
X11370000Y-9665000D03*
X12230000Y-8940000D03*
X11875000Y-6825000D03*
X10100000Y-9300000D03*
D25*
X9025000Y-9300000D02*
X9140000Y-9300000D01*
D26*
X8200000Y-8475000D02*
X8125000Y-8475000D01*
X8125000Y-8475000D02*
X8100000Y-8500000D01*
X8200000Y-7775000D02*
X8125000Y-7775000D01*
X8125000Y-7775000D02*
X8100000Y-7800000D01*
X8200000Y-7075000D02*
X8125000Y-7075000D01*
X8125000Y-7075000D02*
X8100000Y-7100000D01*
D25*
X11900000Y-7850000D02*
X11990000Y-7850000D01*
X10095000Y-9065000D02*
X10095000Y-9060000D01*
X10095000Y-9060000D02*
X10180000Y-8975000D01*
X11890000Y-7055000D02*
X11890000Y-7110000D01*
X11890000Y-7110000D02*
X11850000Y-7150000D01*
D26*
X10145000Y-11095000D02*
X10150000Y-11100000D01*
X10145000Y-11000000D02*
X10145000Y-11095000D01*
D25*
X11555000Y-10770000D02*
X11555000Y-10820000D01*
X11555000Y-10820000D02*
X11530000Y-10845000D01*
X11850000Y-9065000D02*
X11850000Y-9000000D01*
X11850000Y-9000000D02*
X11875000Y-8975000D01*
X9305000Y-10570000D02*
X9415001Y-10570000D01*
X9540000Y-10325000D02*
X9540000Y-10260001D01*
X9540000Y-10260001D02*
X9509999Y-10230000D01*
D26*
X10090000Y-10360000D02*
X10090000Y-10420000D01*
X10025000Y-10340000D02*
X10070000Y-10340000D01*
X10070000Y-10340000D02*
X10090000Y-10360000D01*
X10025000Y-10180000D02*
X10025000Y-10340000D01*
X10025000Y-10020000D02*
X10025000Y-10180000D01*
X13145000Y-8600000D02*
X13145000Y-8454000D01*
X13145000Y-8454000D02*
X13086000Y-8395000D01*
D25*
X11020000Y-7070000D02*
X11020000Y-7130000D01*
X11020000Y-7130000D02*
X11000000Y-7150000D01*
X10600000Y-7070000D02*
X10600000Y-7150000D01*
X10445000Y-7070000D02*
X10445000Y-7145000D01*
X10445000Y-7145000D02*
X10450000Y-7150000D01*
X10210000Y-7070000D02*
X10210000Y-7080000D01*
X10210000Y-7080000D02*
X10145000Y-7145000D01*
X10005000Y-7225000D02*
X10100000Y-7225000D01*
X10085000Y-7070000D02*
X10085000Y-7085000D01*
X10085000Y-7085000D02*
X10145000Y-7145000D01*
X9935000Y-6920000D02*
X9850000Y-6920000D01*
X10005000Y-7350000D02*
X10100000Y-7350000D01*
X10005000Y-7580000D02*
X10080000Y-7580000D01*
X10080000Y-7580000D02*
X10100000Y-7600000D01*
X10005000Y-7720000D02*
X10095001Y-7720000D01*
X10095001Y-7720000D02*
X10100000Y-7724999D01*
X10005000Y-8125000D02*
X10075000Y-8125000D01*
X10075000Y-8125000D02*
X10100000Y-8150000D01*
X10005000Y-8370000D02*
X10040000Y-8370000D01*
X10040000Y-8370000D02*
X10100000Y-8430000D01*
X10175000Y-8590000D02*
X10165000Y-8590000D01*
X10165000Y-8590000D02*
X10100000Y-8525000D01*
X10005000Y-8495000D02*
X10070000Y-8495000D01*
X10070000Y-8495000D02*
X10100000Y-8525000D01*
X10225000Y-9065000D02*
X10225000Y-9020000D01*
X10225000Y-9020000D02*
X10180000Y-8975000D01*
X10380000Y-9065000D02*
X10380000Y-8980000D01*
X10380000Y-8980000D02*
X10375000Y-8975000D01*
X10510000Y-9065000D02*
X10510000Y-9010000D01*
X10510000Y-9010000D02*
X10475000Y-8975000D01*
X10675000Y-9065000D02*
X10675000Y-9025000D01*
X10675000Y-9025000D02*
X10625000Y-8975000D01*
D27*
X11450000Y-8965000D02*
X11450000Y-8900000D01*
X11415000Y-9020000D02*
X11415000Y-9000000D01*
X11415000Y-9000000D02*
X11450000Y-8965000D01*
D25*
X11150000Y-9065000D02*
X11150000Y-9000000D01*
X11150000Y-9000000D02*
X11175000Y-8975000D01*
X11705000Y-8890000D02*
X11705000Y-8955000D01*
X11705000Y-8955000D02*
X11725000Y-8975000D01*
X12310000Y-9095000D02*
X12310000Y-9170000D01*
X12310000Y-9170000D02*
X12340000Y-9200000D01*
X11995000Y-8590000D02*
X11965000Y-8590000D01*
X11965000Y-8590000D02*
X11900000Y-8525000D01*
X11995000Y-8470000D02*
X11955000Y-8470000D01*
X11955000Y-8470000D02*
X11900000Y-8525000D01*
X11995000Y-8170000D02*
X11955000Y-8170000D01*
X11955000Y-8170000D02*
X11900000Y-8225000D01*
X11995000Y-8290000D02*
X11965000Y-8290000D01*
X11965000Y-8290000D02*
X11900000Y-8225000D01*
X11985000Y-7670000D02*
X11905000Y-7670000D01*
X11905000Y-7670000D02*
X11900000Y-7665000D01*
X11985000Y-7480000D02*
X11970000Y-7480000D01*
X11970000Y-7480000D02*
X11910000Y-7420000D01*
X11985000Y-7360000D02*
X11970000Y-7360000D01*
X11970000Y-7360000D02*
X11910000Y-7420000D01*
X11635000Y-7055000D02*
X11635000Y-7135000D01*
X11635000Y-7135000D02*
X11650000Y-7150000D01*
X11765000Y-7055000D02*
X11765000Y-7135000D01*
X11765000Y-7135000D02*
X11750000Y-7150000D01*
D26*
X11265000Y-8800000D02*
X11220000Y-8800000D01*
X11220000Y-8800000D02*
X11175000Y-8845000D01*
X11175000Y-8845000D02*
X11175000Y-8975000D01*
X11415000Y-9020000D02*
X11415000Y-9170000D01*
X11925000Y-7670000D02*
X11905000Y-7670000D01*
D25*
X12200000Y-9235000D02*
X12112500Y-9235000D01*
X12340000Y-9315000D02*
X12340000Y-9200000D01*
X12200000Y-10980000D02*
X12100000Y-10980000D01*
X12340000Y-10910000D02*
X12270000Y-10980000D01*
X12270000Y-10980000D02*
X12200000Y-10980000D01*
D28*
X11445000Y-9850000D02*
X11385000Y-9850000D01*
X11385000Y-9850000D02*
X11340000Y-9895000D01*
X11370000Y-9990000D02*
X11370000Y-9925000D01*
X11370000Y-9925000D02*
X11340000Y-9895000D01*
D25*
X9140000Y-9105000D02*
X9000000Y-9105000D01*
X9155000Y-10570000D02*
X9055000Y-10570000D01*
X9000000Y-9105000D02*
X8995000Y-9105000D01*
X8995000Y-9105000D02*
X8875000Y-9225000D01*
X8875000Y-9225000D02*
X8875000Y-9300000D01*
X8759500Y-9299500D02*
X8664500Y-9299500D01*
X8664500Y-9299500D02*
X8620000Y-9255000D01*
X8759500Y-9299500D02*
X8874500Y-9299500D01*
X8874500Y-9299500D02*
X8875000Y-9300000D01*
X12140000Y-7850000D02*
X12210000Y-7850000D01*
X12210000Y-7850000D02*
X12220000Y-7840000D01*
D26*
X9900000Y-7460000D02*
X9855000Y-7415000D01*
X9855000Y-7415000D02*
X9855000Y-7350000D01*
X10195000Y-7460000D02*
X9900000Y-7460000D01*
X10255000Y-7420000D02*
X10235000Y-7420000D01*
X10235000Y-7420000D02*
X10195000Y-7460000D01*
D25*
X9805000Y-7350000D02*
X9775000Y-7350000D01*
X9855000Y-7350000D02*
X9805000Y-7350000D01*
D26*
X10145000Y-10820000D02*
X10030000Y-10820000D01*
X11255000Y-6850000D02*
X11050000Y-6850000D01*
X11050000Y-6850000D02*
X11025000Y-6825000D01*
D25*
X9540000Y-10475000D02*
X9540000Y-10520000D01*
X9540000Y-10520000D02*
X9580000Y-10560000D01*
D26*
X12910000Y-8105000D02*
X13050000Y-8105000D01*
X13050000Y-8105000D02*
X13086000Y-8141000D01*
X13505000Y-7170000D02*
X13505000Y-7150000D01*
X13515000Y-7225000D02*
X13515000Y-7180000D01*
X13515000Y-7180000D02*
X13505000Y-7170000D01*
D25*
X11020000Y-6920000D02*
X11020000Y-6830000D01*
X10600000Y-6920000D02*
X10600000Y-6825000D01*
X9855000Y-7720000D02*
X9815001Y-7720000D01*
X9815001Y-7720000D02*
X9775000Y-7679999D01*
X9855000Y-8125000D02*
X9775000Y-8125000D01*
X9855000Y-8495000D02*
X9795000Y-8495000D01*
X9795000Y-8495000D02*
X9775000Y-8475000D01*
X10510000Y-9215000D02*
X10510000Y-9260000D01*
X10510000Y-9260000D02*
X10550000Y-9300000D01*
X11150000Y-9215000D02*
X11125000Y-9240000D01*
X11125000Y-9240000D02*
X11125000Y-9300000D01*
X12145000Y-8470000D02*
X12220000Y-8470000D01*
X12220000Y-8470000D02*
X12230000Y-8480000D01*
X12145000Y-8290000D02*
X12200000Y-8290000D01*
X12200000Y-8290000D02*
X12230000Y-8260000D01*
X12135000Y-7360000D02*
X12210001Y-7360000D01*
X12210001Y-7360000D02*
X12225001Y-7375000D01*
X11020000Y-6830000D02*
X11025000Y-6825000D01*
D26*
X10145000Y-10640000D02*
X10030000Y-10640000D01*
X10030000Y-10640000D02*
X10025000Y-10635000D01*
X10025000Y-10500000D02*
X10025000Y-10635000D01*
X13890000Y-10535000D02*
X13575000Y-10535000D01*
X13760000Y-9665000D02*
X13630000Y-9665000D01*
X13575000Y-10535000D02*
X13570000Y-10530000D01*
X13570000Y-10530000D02*
X13545355Y-10530000D01*
X13545355Y-10530000D02*
X13510000Y-10530000D01*
X13640000Y-10535000D02*
X13575000Y-10535000D01*
X13890000Y-9665000D02*
X13760000Y-9665000D01*
X11050000Y-9300000D02*
X11050000Y-9343000D01*
X11050000Y-9343000D02*
X10953000Y-9440000D01*
X10953000Y-9440000D02*
X10645000Y-9440000D01*
X10155000Y-10920000D02*
X10005000Y-10920000D01*
X10645000Y-9440000D02*
X10330000Y-9755000D01*
X10220000Y-10570000D02*
X10220000Y-10855000D01*
X10330000Y-9755000D02*
X10330000Y-10460000D01*
X10330000Y-10460000D02*
X10220000Y-10570000D01*
X10220000Y-10855000D02*
X10155000Y-10920000D01*
X10005000Y-10920000D02*
X9925000Y-11000000D01*
X9925000Y-11000000D02*
X9700000Y-11000000D01*
X10255000Y-7270000D02*
X10255000Y-7205000D01*
X10255000Y-7205000D02*
X10310000Y-7150000D01*
X10310000Y-7150000D02*
X10350000Y-7150000D01*
X10123000Y-6720000D02*
X9962000Y-6559000D01*
X10230000Y-6720000D02*
X10123000Y-6720000D01*
X10350000Y-7150000D02*
X10325000Y-7125000D01*
X10325000Y-7125000D02*
X10325000Y-6815000D01*
X10325000Y-6815000D02*
X10230000Y-6720000D01*
X9820000Y-10760000D02*
X9750000Y-10830000D01*
X9750000Y-10830000D02*
X9420000Y-10830000D01*
X9420000Y-10830000D02*
X9250000Y-11000000D01*
X9930000Y-9550000D02*
X9820000Y-9660000D01*
X9820000Y-9660000D02*
X9820000Y-10760000D01*
X10025000Y-8875000D02*
X9930000Y-8970000D01*
X9930000Y-8970000D02*
X9930000Y-9550000D01*
X10225000Y-8825000D02*
X10175000Y-8875000D01*
X10175000Y-8875000D02*
X10025000Y-8875000D01*
X10225000Y-8825000D02*
X10225000Y-8825000D01*
X9520000Y-10880000D02*
X9400000Y-11000000D01*
X9870000Y-10790000D02*
X9780000Y-10880000D01*
X9780000Y-10880000D02*
X9520000Y-10880000D01*
X9990000Y-9020000D02*
X9990000Y-9590000D01*
X10090000Y-8920000D02*
X9990000Y-9020000D01*
X9990000Y-9590000D02*
X9870000Y-9710000D01*
X9870000Y-9710000D02*
X9870000Y-10790000D01*
X10230000Y-8920000D02*
X10090000Y-8920000D01*
X10300000Y-8850000D02*
X10230000Y-8920000D01*
X9550000Y-11000000D02*
X9620000Y-10930000D01*
X9620000Y-10930000D02*
X9810000Y-10930000D01*
X9810000Y-10930000D02*
X9920000Y-10820000D01*
X9920000Y-10820000D02*
X9920000Y-9760000D01*
X9920000Y-9760000D02*
X10300000Y-9380000D01*
X10300000Y-9380000D02*
X10300000Y-8950000D01*
X10300000Y-8950000D02*
X10375000Y-8875000D01*
X8410000Y-6803000D02*
X8440000Y-6833000D01*
X12230000Y-8665001D02*
X12194645Y-8665001D01*
X11930000Y-9300000D02*
X11680000Y-9550000D01*
X11090001Y-10920000D02*
X11000001Y-10830000D01*
X12194645Y-8665001D02*
X11990000Y-8869646D01*
X11990000Y-8869646D02*
X11990000Y-9010000D01*
X11680000Y-9550000D02*
X11680000Y-10543000D01*
X11990000Y-9010000D02*
X11930000Y-9070000D01*
X11930000Y-9070000D02*
X11930000Y-9300000D01*
X11720000Y-10583000D02*
X11720000Y-10755000D01*
X11680000Y-10543000D02*
X11720000Y-10583000D01*
X11720000Y-10755000D02*
X11555000Y-10920000D01*
X11555000Y-10920000D02*
X11090001Y-10920000D01*
X12230000Y-8670000D02*
X12230000Y-8665001D01*
D25*
X10960000Y-10745000D02*
X10960000Y-10789999D01*
X10960000Y-10789999D02*
X11000001Y-10830000D01*
X12200000Y-10830000D02*
X12200000Y-10824000D01*
X12200000Y-10824000D02*
X12086000Y-10710000D01*
X12340000Y-10760000D02*
X12340000Y-10608000D01*
X12340000Y-9490000D02*
X12340000Y-9592000D01*
X12340000Y-9465000D02*
X12340000Y-9490000D01*
X12200000Y-9385000D02*
X12191000Y-9385000D01*
X12191000Y-9385000D02*
X12086000Y-9490000D01*
D26*
X10175000Y-10500000D02*
X10175000Y-10485000D01*
X10175000Y-10485000D02*
X10240000Y-10420000D01*
X10175000Y-10340000D02*
X10220000Y-10340000D01*
X10220000Y-10340000D02*
X10240000Y-10320000D01*
X10175000Y-10180000D02*
X10200000Y-10180000D01*
X10200000Y-10180000D02*
X10240000Y-10220000D01*
X10175000Y-10020000D02*
X10175000Y-10045000D01*
X10175000Y-10045000D02*
X10240000Y-10110000D01*
X10340356Y-10920000D02*
X10305000Y-10920000D01*
X12540000Y-11260000D02*
X10680356Y-11260000D01*
X10680356Y-11260000D02*
X10340356Y-10920000D01*
X12480000Y-8370000D02*
X12700000Y-8590000D01*
X10295000Y-10910000D02*
X10305000Y-10920000D01*
X10295000Y-10820000D02*
X10295000Y-10910000D01*
X10295000Y-10930000D02*
X10305000Y-10920000D01*
X10295000Y-11000000D02*
X10295000Y-10930000D01*
X12700000Y-8590000D02*
X12700000Y-11100000D01*
X12700000Y-11100000D02*
X12540000Y-11260000D01*
X12480000Y-8480000D02*
X12650000Y-8650000D01*
X10500000Y-10805354D02*
X10480000Y-10785354D01*
X12650000Y-8650000D02*
X12650000Y-11070000D01*
X12650000Y-11070000D02*
X12499998Y-11220002D01*
X12499998Y-11220002D02*
X10810002Y-11220002D01*
X10810002Y-11220002D02*
X10500000Y-10910000D01*
X10500000Y-10910000D02*
X10500000Y-10805354D01*
X10480000Y-10785354D02*
X10480000Y-10749999D01*
X10763782Y-10827469D02*
X10763782Y-10913782D01*
X10763782Y-10913782D02*
X10910000Y-11060000D01*
X10910000Y-11060000D02*
X11829499Y-11060000D01*
X11829499Y-11060000D02*
X11980000Y-10909499D01*
X11980000Y-10909499D02*
X11980000Y-10510000D01*
X11980000Y-10510000D02*
X11800000Y-10330000D01*
X12050000Y-9170000D02*
X12130000Y-9090000D01*
X12194645Y-8860005D02*
X12230000Y-8860005D01*
X11800000Y-10330000D02*
X11800000Y-9600000D01*
X12130000Y-8924650D02*
X12194645Y-8860005D01*
X11800000Y-9600000D02*
X12050000Y-9350000D01*
X12050000Y-9350000D02*
X12050000Y-9170000D01*
X12130000Y-9090000D02*
X12130000Y-8924650D01*
X10550000Y-10890000D02*
X10550000Y-10835355D01*
X10840000Y-11180000D02*
X10550000Y-10890000D01*
X12460000Y-11180000D02*
X10840000Y-11180000D01*
X12400000Y-8476000D02*
X12600000Y-8676000D01*
X12600000Y-8676000D02*
X12600000Y-11040000D01*
X10550000Y-10835355D02*
X10550000Y-10800000D01*
X12600000Y-11040000D02*
X12460000Y-11180000D01*
X10860000Y-11140000D02*
X10621651Y-10901651D01*
X12420000Y-11140000D02*
X10860000Y-11140000D01*
X10621651Y-10865630D02*
X10621651Y-10830275D01*
X12330000Y-8480000D02*
X12550000Y-8700000D01*
X12550000Y-8700000D02*
X12550000Y-11010000D01*
X10621651Y-10901651D02*
X10621651Y-10865630D01*
X12550000Y-11010000D02*
X12420000Y-11140000D01*
X12310000Y-8660000D02*
X12500000Y-8850000D01*
X12500000Y-8850000D02*
X12500000Y-10980000D01*
X12500000Y-10980000D02*
X12380000Y-11100000D01*
X12380000Y-11100000D02*
X10880000Y-11100000D01*
X10880000Y-11100000D02*
X10690000Y-10910000D01*
X10690000Y-10910000D02*
X10690000Y-10870000D01*
X13455000Y-9545000D02*
X13430000Y-9570000D01*
X13485000Y-9515000D02*
X13455000Y-9545000D01*
X13630000Y-9515000D02*
X13485000Y-9515000D01*
X13630000Y-9515000D02*
X13630000Y-9353000D01*
X13630000Y-9353000D02*
X13635000Y-9348000D01*
X13765000Y-10685000D02*
X13760000Y-10680000D01*
X13890000Y-10685000D02*
X13765000Y-10685000D01*
X13890000Y-10685000D02*
X13890000Y-10851000D01*
X13890000Y-10851000D02*
X13889000Y-10852000D01*
X8620000Y-9105000D02*
X8405000Y-9105000D01*
X8405000Y-9105000D02*
X8400000Y-9110000D01*
X8405000Y-9055000D02*
X8400000Y-9060000D01*
D25*
X10445000Y-6920000D02*
X10445000Y-6830000D01*
X10445000Y-6830000D02*
X10450000Y-6825000D01*
X9855000Y-7225000D02*
X9795002Y-7225000D01*
X9795002Y-7225000D02*
X9780001Y-7209999D01*
X10210000Y-6920000D02*
X10210000Y-6835000D01*
X10210000Y-6835000D02*
X10200000Y-6825000D01*
X9855000Y-7580000D02*
X9785001Y-7580000D01*
X9785001Y-7580000D02*
X9775000Y-7569999D01*
X9855000Y-8370000D02*
X9780000Y-8370000D01*
X9780000Y-8370000D02*
X9775000Y-8375000D01*
X10175000Y-8740000D02*
X10160000Y-8740000D01*
X10160000Y-8740000D02*
X10100000Y-8800000D01*
X10675000Y-9215000D02*
X10675000Y-9294999D01*
X10675000Y-9294999D02*
X10680001Y-9300000D01*
X10380000Y-9215000D02*
X10380000Y-9280000D01*
X10380000Y-9280000D02*
X10400000Y-9300000D01*
X11555000Y-8945000D02*
X11525000Y-8975000D01*
X11555000Y-8890000D02*
X11555000Y-8945000D01*
X12145000Y-8590000D02*
X12195000Y-8590000D01*
X12195000Y-8590000D02*
X12230000Y-8555000D01*
X12145000Y-8170000D02*
X12210000Y-8170000D01*
X12210000Y-8170000D02*
X12230000Y-8190000D01*
X12135000Y-7670000D02*
X12220000Y-7670000D01*
X12135000Y-7480000D02*
X12220000Y-7480000D01*
X12220000Y-7480000D02*
X12230000Y-7470000D01*
X11635000Y-6905000D02*
X11635000Y-6870000D01*
X11635000Y-6870000D02*
X11685000Y-6820000D01*
X11850000Y-9215000D02*
X11850000Y-9300000D01*
X10085000Y-6920000D02*
X10085000Y-6864999D01*
X10085000Y-6864999D02*
X10125000Y-6824999D01*
X10225000Y-9215000D02*
X10225000Y-9275000D01*
X10225000Y-9275000D02*
X10200000Y-9300000D01*
X11765000Y-6905000D02*
X11765000Y-6835000D01*
X11765000Y-6835000D02*
X11775000Y-6825000D01*
X9935000Y-7070000D02*
X9850000Y-7070000D01*
D26*
X13889000Y-9348000D02*
X13889000Y-9514000D01*
X13889000Y-9514000D02*
X13890000Y-9515000D01*
X13640000Y-10685000D02*
X13640000Y-10847000D01*
X13640000Y-10847000D02*
X13635000Y-10852000D01*
D29*
X13280000Y-10700000D02*
X13279000Y-10700000D01*
X13279000Y-10700000D02*
X13000000Y-10979000D01*
X13280000Y-9500000D02*
X13280000Y-10700000D01*
X13001000Y-9221000D02*
X13280000Y-9500000D01*
X13000000Y-9221000D02*
X13001000Y-9221000D01*
D26*
X8200000Y-7925000D02*
X8200000Y-7990000D01*
X8200000Y-7990000D02*
X8205000Y-7995000D01*
X8275000Y-8100000D02*
X8250000Y-8100000D01*
X8250000Y-8100000D02*
X8205000Y-8055000D01*
X8205000Y-8055000D02*
X8205000Y-7995000D01*
X8200000Y-7225000D02*
X8200000Y-7300000D01*
X8200000Y-7370000D02*
X8200000Y-7300000D01*
X8275000Y-7400000D02*
X8230000Y-7400000D01*
X8230000Y-7400000D02*
X8200000Y-7370000D01*
X8200000Y-8625000D02*
X8200000Y-8690000D01*
X8200000Y-8690000D02*
X8205000Y-8695000D01*
X8275000Y-8800000D02*
X8250000Y-8800000D01*
X8250000Y-8800000D02*
X8205000Y-8755000D01*
X8205000Y-8755000D02*
X8205000Y-8695000D01*
X12340000Y-10202000D02*
X12212000Y-10202000D01*
X12212000Y-10202000D02*
X12160000Y-10150000D01*
X12160000Y-10150000D02*
X11935355Y-10150000D01*
X11935355Y-10150000D02*
X11915355Y-10130000D01*
X11915355Y-10130000D02*
X11880000Y-10130000D01*
X11910000Y-10130000D02*
X11880000Y-10130000D01*
X12340000Y-10405000D02*
X12340000Y-10390000D01*
X12340000Y-10390000D02*
X12140000Y-10190000D01*
X12140000Y-10190000D02*
X11925355Y-10190000D01*
X11925355Y-10190000D02*
X11915355Y-10200000D01*
X11915355Y-10200000D02*
X11880000Y-10200000D01*
X12086000Y-9693000D02*
X12004500Y-9774500D01*
X12004500Y-9774500D02*
X11918932Y-9774500D01*
X11918932Y-9774500D02*
X11903432Y-9790000D01*
X11903432Y-9790000D02*
X11880000Y-9790000D01*
X11931717Y-9818284D02*
X11880001Y-9870000D01*
X12086000Y-9896000D02*
X12004500Y-9814500D01*
X12004500Y-9814500D02*
X11935501Y-9814500D01*
X11935501Y-9814500D02*
X11931717Y-9818284D01*
X11265000Y-9170000D02*
X11265000Y-9234999D01*
X11265000Y-9234999D02*
X11200000Y-9299999D01*
X11265000Y-9020000D02*
X11265000Y-8915000D01*
X11265000Y-8915000D02*
X11250000Y-8900000D01*
X11415000Y-8800000D02*
X11415000Y-8835000D01*
X11415000Y-8835000D02*
X11350000Y-8900000D01*
D25*
X11150000Y-10745000D02*
X11220000Y-10745000D01*
X11090000Y-10745000D02*
X11150000Y-10745000D01*
X11150000Y-10745000D02*
X11150000Y-10830000D01*
X11520000Y-10120000D02*
X11540000Y-10120000D01*
X11540000Y-10120000D02*
X11595000Y-10065000D01*
X11520000Y-9990000D02*
X11570000Y-9990000D01*
X11570000Y-9990000D02*
X11595000Y-10015000D01*
X11520000Y-10365000D02*
X11545000Y-10365000D01*
X11545000Y-10365000D02*
X11595000Y-10415000D01*
X11520000Y-10500000D02*
X11560000Y-10500000D01*
X11560000Y-10500000D02*
X11595000Y-10465000D01*
X11200000Y-9745000D02*
X11200000Y-9710000D01*
X11200000Y-9710000D02*
X11245000Y-9665000D01*
X10485355Y-10325000D02*
X10450000Y-10325000D01*
X10510000Y-10325000D02*
X10485355Y-10325000D01*
X10525000Y-10340000D02*
X10510000Y-10325000D01*
X10850000Y-10745000D02*
X10850000Y-10791278D01*
X10850000Y-10791278D02*
X10889999Y-10831276D01*
X10525000Y-10010000D02*
X10450000Y-10010000D01*
X10990000Y-9750000D02*
X10990000Y-9670000D01*
X11350000Y-10745000D02*
X11350000Y-10810000D01*
X11350000Y-10810000D02*
X11380000Y-10840000D01*
X11350000Y-10745000D02*
X11350000Y-10790000D01*
X11350000Y-10790000D02*
X11320000Y-10820000D01*
X11555000Y-10620000D02*
X11630000Y-10620000D01*
X11555000Y-9795000D02*
X11530000Y-9770000D01*
X11595000Y-9835000D02*
X11555000Y-9795000D01*
X11595000Y-9850000D02*
X11595000Y-9835000D01*
D26*
X8425000Y-8100000D02*
X8425000Y-8025000D01*
X8425000Y-8025000D02*
X8450000Y-8000000D01*
X8425000Y-7400000D02*
X8425000Y-7325000D01*
X8425000Y-7325000D02*
X8450000Y-7300000D01*
X8425000Y-8800000D02*
X8425000Y-8725000D01*
X8425000Y-8725000D02*
X8450000Y-8700000D01*
X10830000Y-10870001D02*
X10830000Y-10905356D01*
X10830000Y-10905356D02*
X10944644Y-11020000D01*
X10944644Y-11020000D02*
X11820000Y-11020000D01*
X11930000Y-10910000D02*
X11930000Y-10560000D01*
X12010000Y-9150000D02*
X12090000Y-9070000D01*
X11820000Y-11020000D02*
X11930000Y-10910000D01*
X11930000Y-10560000D02*
X11760000Y-10390000D01*
X11760000Y-10390000D02*
X11760000Y-9590000D01*
X12090000Y-8899649D02*
X12194645Y-8795004D01*
X11760000Y-9590000D02*
X12010000Y-9340000D01*
X12010000Y-9340000D02*
X12010000Y-9150000D01*
X12090000Y-9070000D02*
X12090000Y-8899649D01*
X12194645Y-8795004D02*
X12230000Y-8795004D01*
X10455000Y-10637999D02*
X10480000Y-10662999D01*
X10387001Y-10570000D02*
X10455000Y-10637999D01*
X10370000Y-10570000D02*
X10387001Y-10570000D01*
X10370000Y-10570000D02*
X10370000Y-9795000D01*
X10370000Y-9795000D02*
X10680000Y-9485000D01*
X10680000Y-9485000D02*
X11105000Y-9485000D01*
X11105000Y-9485000D02*
X11180000Y-9410000D01*
X11180000Y-9410000D02*
X11290000Y-9300000D01*
X10370000Y-10570000D02*
X10345000Y-10570000D01*
X10345000Y-10570000D02*
X10295000Y-10620000D01*
X10295000Y-10620000D02*
X10295000Y-10640000D01*
X10600000Y-9675000D02*
X10715000Y-9560000D01*
X10715000Y-9560000D02*
X11140001Y-9560000D01*
X11140001Y-9560000D02*
X11260001Y-9440000D01*
X11260001Y-9440000D02*
X11370000Y-9330001D01*
X11074069Y-10829033D02*
X11074069Y-10814069D01*
X11325000Y-9505000D02*
X11450000Y-9380000D01*
X11074069Y-10814069D02*
X11030000Y-10770000D01*
X11030000Y-10040000D02*
X11095000Y-9975000D01*
X11030000Y-10770000D02*
X11030000Y-10040000D01*
X11095000Y-9975000D02*
X11095000Y-9695000D01*
X11095000Y-9695000D02*
X11285000Y-9505000D01*
X11285000Y-9505000D02*
X11325000Y-9505000D01*
X11450000Y-9380000D02*
X11450000Y-9280000D01*
X9140000Y-8955000D02*
X9140000Y-8881000D01*
X9140000Y-8881000D02*
X9140500Y-8880500D01*
X8946000Y-6559000D02*
X9137000Y-6750000D01*
X9137000Y-6750000D02*
X9300000Y-6750000D01*
X9300000Y-6750000D02*
X9450000Y-6900000D01*
X9450000Y-6900000D02*
X9450000Y-8650000D01*
X9450000Y-8650000D02*
X9219500Y-8880500D01*
X9219500Y-8880500D02*
X9140500Y-8880500D01*
X9000000Y-8955000D02*
X9000000Y-8900000D01*
X9000000Y-8900000D02*
X9020000Y-8880000D01*
X9200000Y-6559000D02*
X9500000Y-6859000D01*
X9500000Y-6859000D02*
X9500000Y-8705500D01*
X9500000Y-8705500D02*
X9180500Y-9025000D01*
X9180500Y-9025000D02*
X9050000Y-9025000D01*
X9050000Y-9025000D02*
X9020000Y-8995000D01*
X9020000Y-8995000D02*
X9020000Y-8880000D01*
X11850000Y-7550000D02*
X11875000Y-7575000D01*
X13490000Y-7815000D02*
X13490000Y-8351360D01*
X11875000Y-7575000D02*
X12460000Y-7575000D01*
X12460000Y-7575000D02*
X12640000Y-7755000D01*
X12640000Y-7755000D02*
X13430000Y-7755000D01*
X13430000Y-7755000D02*
X13490000Y-7815000D01*
X13490000Y-8351360D02*
X13446360Y-8395000D01*
X13446360Y-8395000D02*
X13340000Y-8395000D01*
X13295000Y-8600000D02*
X13295000Y-8440000D01*
X13295000Y-8440000D02*
X13340000Y-8395000D01*
X11850000Y-7950000D02*
X12510000Y-7950000D01*
X12510000Y-7950000D02*
X12833000Y-8273000D01*
X12833000Y-8273000D02*
X13208000Y-8273000D01*
X13208000Y-8273000D02*
X13253640Y-8227360D01*
X13253640Y-8227360D02*
X13340000Y-8141000D01*
X13340000Y-7887000D02*
X13231140Y-7995860D01*
X13231140Y-7995860D02*
X13231140Y-7998860D01*
X13231140Y-7998860D02*
X13220000Y-8010000D01*
X13220000Y-8010000D02*
X12990000Y-8010000D01*
X12990000Y-8010000D02*
X12935000Y-7955000D01*
X12935000Y-7955000D02*
X12910000Y-7955000D01*
X11850000Y-7750000D02*
X12445000Y-7750000D01*
X12550000Y-7855000D02*
X12790000Y-7855000D01*
X12445000Y-7750000D02*
X12550000Y-7855000D01*
X12790000Y-7855000D02*
X12890000Y-7955000D01*
X12890000Y-7955000D02*
X12910000Y-7955000D01*
X13515000Y-7375000D02*
X13344000Y-7375000D01*
X13344000Y-7375000D02*
X13340000Y-7379000D01*
X11850000Y-7250000D02*
X13211000Y-7250000D01*
X13211000Y-7250000D02*
X13253640Y-7292640D01*
X13253640Y-7292640D02*
X13340000Y-7379000D01*
X9600000Y-8560000D02*
X9600000Y-8710000D01*
X9600000Y-8710000D02*
X9240000Y-9070000D01*
X9240000Y-9070000D02*
X9240000Y-9786000D01*
X9240000Y-9786000D02*
X8464000Y-10562000D01*
X9600000Y-6700000D02*
X9600000Y-8560000D01*
X9454000Y-6305000D02*
X9575000Y-6426000D01*
X9575000Y-6426000D02*
X9575000Y-6675000D01*
X9575000Y-6675000D02*
X9600000Y-6700000D01*
X9300000Y-9110000D02*
X9300000Y-9980000D01*
X9300000Y-9980000D02*
X8464000Y-10816000D01*
X9650000Y-8760000D02*
X9300000Y-9110000D01*
X9650000Y-6975000D02*
X9650000Y-8560000D01*
X9650000Y-8560000D02*
X9650000Y-8760000D01*
X9708000Y-6305000D02*
X9840000Y-6437000D01*
X9840000Y-6437000D02*
X9840000Y-6785000D01*
X9840000Y-6785000D02*
X9650000Y-6975000D01*
X11486000Y-6679208D02*
X11405000Y-6760208D01*
X11405000Y-6760208D02*
X11405000Y-6850000D01*
X11486000Y-6679208D02*
X11486000Y-6559000D01*
X10900000Y-10900000D02*
X10970000Y-10970000D01*
X10970000Y-10970000D02*
X11755000Y-10970000D01*
X11755000Y-10970000D02*
X11790000Y-10935000D01*
X12040000Y-9034999D02*
X12040000Y-8884647D01*
X12040000Y-8884647D02*
X12194645Y-8730003D01*
X12194645Y-8730003D02*
X12230000Y-8730003D01*
X11790000Y-10935000D02*
X11790000Y-10520000D01*
X11790000Y-10520000D02*
X11720000Y-10450000D01*
X11720000Y-9570000D02*
X11970000Y-9320000D01*
X11970000Y-9320000D02*
X11970000Y-9104999D01*
X11720000Y-10450000D02*
X11720000Y-9570000D01*
X11970000Y-9104999D02*
X12040000Y-9034999D01*
X12230000Y-8730000D02*
X12230000Y-8730003D01*
X11325000Y-6725000D02*
X11030000Y-6725000D01*
X9750000Y-10750000D02*
X9720000Y-10780000D01*
X11030000Y-6725000D02*
X10695000Y-7060000D01*
X10345000Y-8095000D02*
X10185000Y-8255000D01*
X10695000Y-7060000D02*
X10695000Y-7320000D01*
X9320000Y-10780000D02*
X9125000Y-10975000D01*
X10695000Y-7320000D02*
X10345000Y-7670000D01*
X10345000Y-7670000D02*
X10345000Y-8095000D01*
X9695000Y-8315000D02*
X9695000Y-9645000D01*
X9695000Y-9645000D02*
X9750000Y-9700000D01*
X10185000Y-8255000D02*
X9755000Y-8255000D01*
X9755000Y-8255000D02*
X9695000Y-8315000D01*
X9750000Y-9700000D02*
X9750000Y-10750000D01*
X9720000Y-10780000D02*
X9320000Y-10780000D01*
X9125000Y-10975000D02*
X9100000Y-11000000D01*
D25*
X10484785Y-10518575D02*
X10449430Y-10518575D01*
X10525000Y-10520000D02*
X10523575Y-10518575D01*
X10523575Y-10518575D02*
X10484785Y-10518575D01*
X11340000Y-9745000D02*
X11340000Y-9695000D01*
X11340000Y-9695000D02*
X11370000Y-9665000D01*
X10525000Y-10200000D02*
X10510000Y-10215000D01*
X10480355Y-10215000D02*
X10445000Y-10215000D01*
X10510000Y-10215000D02*
X10480355Y-10215000D01*
X10740000Y-9745000D02*
X10740000Y-9670000D01*
X12310000Y-8945000D02*
X12235000Y-8945000D01*
X12235000Y-8945000D02*
X12230000Y-8940000D01*
X11890000Y-6905000D02*
X11890000Y-6840000D01*
X11890000Y-6840000D02*
X11875000Y-6825000D01*
X10095000Y-9215000D02*
X10095000Y-9295000D01*
X10095000Y-9295000D02*
X10100000Y-9300000D01*
D30*
G36*
X10909800Y-9887025D02*
X10920475Y-9897700D01*
X10987700Y-9897700D01*
X10987700Y-9895700D01*
X10992300Y-9895700D01*
X10992300Y-9897700D01*
X10994300Y-9897700D01*
X10994300Y-9902300D01*
X10992300Y-9902300D01*
X10992300Y-9972025D01*
X11002975Y-9982700D01*
X11012771Y-9982700D01*
X10992736Y-10002736D01*
X10981312Y-10019833D01*
X10981312Y-10019833D01*
X10977300Y-10040000D01*
X10977300Y-10512300D01*
X10972975Y-10512300D01*
X10962300Y-10522975D01*
X10962300Y-10592700D01*
X10964300Y-10592700D01*
X10964300Y-10597300D01*
X10962300Y-10597300D01*
X10962300Y-10599300D01*
X10957700Y-10599300D01*
X10957700Y-10597300D01*
X10842300Y-10597300D01*
X10842300Y-10599300D01*
X10837700Y-10599300D01*
X10837700Y-10597300D01*
X10770475Y-10597300D01*
X10759800Y-10607975D01*
X10759800Y-10637300D01*
X10681251Y-10637300D01*
X10673475Y-10635753D01*
X10667943Y-10632057D01*
X10664247Y-10626525D01*
X10662700Y-10618749D01*
X10662700Y-10599525D01*
X10672700Y-10589525D01*
X10672700Y-10522300D01*
X10677300Y-10522300D01*
X10677300Y-10589525D01*
X10687975Y-10600200D01*
X10723494Y-10600200D01*
X10739188Y-10593699D01*
X10751199Y-10581688D01*
X10757700Y-10565994D01*
X10757700Y-10546507D01*
X10759800Y-10546507D01*
X10759800Y-10582025D01*
X10770475Y-10592700D01*
X10837700Y-10592700D01*
X10837700Y-10522975D01*
X10842300Y-10522975D01*
X10842300Y-10592700D01*
X10957700Y-10592700D01*
X10957700Y-10522975D01*
X10947025Y-10512300D01*
X10914006Y-10512300D01*
X10900000Y-10518102D01*
X10885994Y-10512300D01*
X10852975Y-10512300D01*
X10842300Y-10522975D01*
X10837700Y-10522975D01*
X10827025Y-10512300D01*
X10794006Y-10512300D01*
X10778312Y-10518801D01*
X10766301Y-10530812D01*
X10759800Y-10546507D01*
X10757700Y-10546507D01*
X10757700Y-10532975D01*
X10747025Y-10522300D01*
X10677300Y-10522300D01*
X10672700Y-10522300D01*
X10670700Y-10522300D01*
X10670700Y-10517700D01*
X10672700Y-10517700D01*
X10672700Y-10450475D01*
X10677300Y-10450475D01*
X10677300Y-10517700D01*
X10747025Y-10517700D01*
X10757700Y-10507025D01*
X10757700Y-10474006D01*
X10751199Y-10458312D01*
X10739188Y-10446301D01*
X10723494Y-10439800D01*
X10687975Y-10439800D01*
X10677300Y-10450475D01*
X10672700Y-10450475D01*
X10662700Y-10440475D01*
X10662700Y-10419525D01*
X10672700Y-10409525D01*
X10672700Y-10342300D01*
X10677300Y-10342300D01*
X10677300Y-10409525D01*
X10687975Y-10420200D01*
X10723494Y-10420200D01*
X10739188Y-10413699D01*
X10751199Y-10401688D01*
X10757700Y-10385994D01*
X10757700Y-10352975D01*
X10747025Y-10342300D01*
X10677300Y-10342300D01*
X10672700Y-10342300D01*
X10670700Y-10342300D01*
X10670700Y-10337700D01*
X10672700Y-10337700D01*
X10672700Y-10270475D01*
X10672225Y-10270000D01*
X10672700Y-10269525D01*
X10672700Y-10202300D01*
X10677300Y-10202300D01*
X10677300Y-10269525D01*
X10677775Y-10270000D01*
X10677300Y-10270475D01*
X10677300Y-10337700D01*
X10747025Y-10337700D01*
X10757700Y-10327025D01*
X10757700Y-10294006D01*
X10751199Y-10278312D01*
X10742887Y-10270000D01*
X10751199Y-10261688D01*
X10757700Y-10245994D01*
X10757700Y-10212975D01*
X10747025Y-10202300D01*
X10677300Y-10202300D01*
X10672700Y-10202300D01*
X10670700Y-10202300D01*
X10670700Y-10197700D01*
X10672700Y-10197700D01*
X10672700Y-10130475D01*
X10677300Y-10130475D01*
X10677300Y-10197700D01*
X10747025Y-10197700D01*
X10757700Y-10187025D01*
X10757700Y-10154006D01*
X10751199Y-10138312D01*
X10739188Y-10126301D01*
X10723494Y-10119800D01*
X10687975Y-10119800D01*
X10677300Y-10130475D01*
X10672700Y-10130475D01*
X10662700Y-10120475D01*
X10662700Y-10089525D01*
X10672700Y-10079525D01*
X10672700Y-10012300D01*
X10677300Y-10012300D01*
X10677300Y-10079525D01*
X10687975Y-10090200D01*
X10723494Y-10090200D01*
X10739188Y-10083699D01*
X10751199Y-10071688D01*
X10757700Y-10055994D01*
X10757700Y-10022975D01*
X10747025Y-10012300D01*
X10677300Y-10012300D01*
X10672700Y-10012300D01*
X10670700Y-10012300D01*
X10670700Y-10007700D01*
X10672700Y-10007700D01*
X10672700Y-10005700D01*
X10677300Y-10005700D01*
X10677300Y-10007700D01*
X10747025Y-10007700D01*
X10757700Y-9997025D01*
X10757700Y-9977700D01*
X10785994Y-9977700D01*
X10801688Y-9971199D01*
X10813699Y-9959188D01*
X10820200Y-9943494D01*
X10820200Y-9912975D01*
X10909800Y-9912975D01*
X10909800Y-9948494D01*
X10916301Y-9964188D01*
X10928312Y-9976199D01*
X10944006Y-9982700D01*
X10977025Y-9982700D01*
X10987700Y-9972025D01*
X10987700Y-9902300D01*
X10920475Y-9902300D01*
X10909800Y-9912975D01*
X10820200Y-9912975D01*
X10820200Y-9907975D01*
X10809525Y-9897300D01*
X10742300Y-9897300D01*
X10742300Y-9899300D01*
X10737700Y-9899300D01*
X10737700Y-9897300D01*
X10735700Y-9897300D01*
X10735700Y-9892700D01*
X10737700Y-9892700D01*
X10737700Y-9890700D01*
X10742300Y-9890700D01*
X10742300Y-9892700D01*
X10809525Y-9892700D01*
X10820200Y-9882025D01*
X10820200Y-9862700D01*
X10909800Y-9862700D01*
X10909800Y-9887025D01*
X10909800Y-9887025D01*
G37*
X10909800Y-9887025D02*
X10920475Y-9897700D01*
X10987700Y-9897700D01*
X10987700Y-9895700D01*
X10992300Y-9895700D01*
X10992300Y-9897700D01*
X10994300Y-9897700D01*
X10994300Y-9902300D01*
X10992300Y-9902300D01*
X10992300Y-9972025D01*
X11002975Y-9982700D01*
X11012771Y-9982700D01*
X10992736Y-10002736D01*
X10981312Y-10019833D01*
X10981312Y-10019833D01*
X10977300Y-10040000D01*
X10977300Y-10512300D01*
X10972975Y-10512300D01*
X10962300Y-10522975D01*
X10962300Y-10592700D01*
X10964300Y-10592700D01*
X10964300Y-10597300D01*
X10962300Y-10597300D01*
X10962300Y-10599300D01*
X10957700Y-10599300D01*
X10957700Y-10597300D01*
X10842300Y-10597300D01*
X10842300Y-10599300D01*
X10837700Y-10599300D01*
X10837700Y-10597300D01*
X10770475Y-10597300D01*
X10759800Y-10607975D01*
X10759800Y-10637300D01*
X10681251Y-10637300D01*
X10673475Y-10635753D01*
X10667943Y-10632057D01*
X10664247Y-10626525D01*
X10662700Y-10618749D01*
X10662700Y-10599525D01*
X10672700Y-10589525D01*
X10672700Y-10522300D01*
X10677300Y-10522300D01*
X10677300Y-10589525D01*
X10687975Y-10600200D01*
X10723494Y-10600200D01*
X10739188Y-10593699D01*
X10751199Y-10581688D01*
X10757700Y-10565994D01*
X10757700Y-10546507D01*
X10759800Y-10546507D01*
X10759800Y-10582025D01*
X10770475Y-10592700D01*
X10837700Y-10592700D01*
X10837700Y-10522975D01*
X10842300Y-10522975D01*
X10842300Y-10592700D01*
X10957700Y-10592700D01*
X10957700Y-10522975D01*
X10947025Y-10512300D01*
X10914006Y-10512300D01*
X10900000Y-10518102D01*
X10885994Y-10512300D01*
X10852975Y-10512300D01*
X10842300Y-10522975D01*
X10837700Y-10522975D01*
X10827025Y-10512300D01*
X10794006Y-10512300D01*
X10778312Y-10518801D01*
X10766301Y-10530812D01*
X10759800Y-10546507D01*
X10757700Y-10546507D01*
X10757700Y-10532975D01*
X10747025Y-10522300D01*
X10677300Y-10522300D01*
X10672700Y-10522300D01*
X10670700Y-10522300D01*
X10670700Y-10517700D01*
X10672700Y-10517700D01*
X10672700Y-10450475D01*
X10677300Y-10450475D01*
X10677300Y-10517700D01*
X10747025Y-10517700D01*
X10757700Y-10507025D01*
X10757700Y-10474006D01*
X10751199Y-10458312D01*
X10739188Y-10446301D01*
X10723494Y-10439800D01*
X10687975Y-10439800D01*
X10677300Y-10450475D01*
X10672700Y-10450475D01*
X10662700Y-10440475D01*
X10662700Y-10419525D01*
X10672700Y-10409525D01*
X10672700Y-10342300D01*
X10677300Y-10342300D01*
X10677300Y-10409525D01*
X10687975Y-10420200D01*
X10723494Y-10420200D01*
X10739188Y-10413699D01*
X10751199Y-10401688D01*
X10757700Y-10385994D01*
X10757700Y-10352975D01*
X10747025Y-10342300D01*
X10677300Y-10342300D01*
X10672700Y-10342300D01*
X10670700Y-10342300D01*
X10670700Y-10337700D01*
X10672700Y-10337700D01*
X10672700Y-10270475D01*
X10672225Y-10270000D01*
X10672700Y-10269525D01*
X10672700Y-10202300D01*
X10677300Y-10202300D01*
X10677300Y-10269525D01*
X10677775Y-10270000D01*
X10677300Y-10270475D01*
X10677300Y-10337700D01*
X10747025Y-10337700D01*
X10757700Y-10327025D01*
X10757700Y-10294006D01*
X10751199Y-10278312D01*
X10742887Y-10270000D01*
X10751199Y-10261688D01*
X10757700Y-10245994D01*
X10757700Y-10212975D01*
X10747025Y-10202300D01*
X10677300Y-10202300D01*
X10672700Y-10202300D01*
X10670700Y-10202300D01*
X10670700Y-10197700D01*
X10672700Y-10197700D01*
X10672700Y-10130475D01*
X10677300Y-10130475D01*
X10677300Y-10197700D01*
X10747025Y-10197700D01*
X10757700Y-10187025D01*
X10757700Y-10154006D01*
X10751199Y-10138312D01*
X10739188Y-10126301D01*
X10723494Y-10119800D01*
X10687975Y-10119800D01*
X10677300Y-10130475D01*
X10672700Y-10130475D01*
X10662700Y-10120475D01*
X10662700Y-10089525D01*
X10672700Y-10079525D01*
X10672700Y-10012300D01*
X10677300Y-10012300D01*
X10677300Y-10079525D01*
X10687975Y-10090200D01*
X10723494Y-10090200D01*
X10739188Y-10083699D01*
X10751199Y-10071688D01*
X10757700Y-10055994D01*
X10757700Y-10022975D01*
X10747025Y-10012300D01*
X10677300Y-10012300D01*
X10672700Y-10012300D01*
X10670700Y-10012300D01*
X10670700Y-10007700D01*
X10672700Y-10007700D01*
X10672700Y-10005700D01*
X10677300Y-10005700D01*
X10677300Y-10007700D01*
X10747025Y-10007700D01*
X10757700Y-9997025D01*
X10757700Y-9977700D01*
X10785994Y-9977700D01*
X10801688Y-9971199D01*
X10813699Y-9959188D01*
X10820200Y-9943494D01*
X10820200Y-9912975D01*
X10909800Y-9912975D01*
X10909800Y-9948494D01*
X10916301Y-9964188D01*
X10928312Y-9976199D01*
X10944006Y-9982700D01*
X10977025Y-9982700D01*
X10987700Y-9972025D01*
X10987700Y-9902300D01*
X10920475Y-9902300D01*
X10909800Y-9912975D01*
X10820200Y-9912975D01*
X10820200Y-9907975D01*
X10809525Y-9897300D01*
X10742300Y-9897300D01*
X10742300Y-9899300D01*
X10737700Y-9899300D01*
X10737700Y-9897300D01*
X10735700Y-9897300D01*
X10735700Y-9892700D01*
X10737700Y-9892700D01*
X10737700Y-9890700D01*
X10742300Y-9890700D01*
X10742300Y-9892700D01*
X10809525Y-9892700D01*
X10820200Y-9882025D01*
X10820200Y-9862700D01*
X10909800Y-9862700D01*
X10909800Y-9887025D01*
G36*
X11202300Y-9892700D02*
X11269525Y-9892700D01*
X11270000Y-9892225D01*
X11270475Y-9892700D01*
X11337700Y-9892700D01*
X11337700Y-9890700D01*
X11342300Y-9890700D01*
X11342300Y-9892700D01*
X11344300Y-9892700D01*
X11344300Y-9897300D01*
X11342300Y-9897300D01*
X11342300Y-9899300D01*
X11337700Y-9899300D01*
X11337700Y-9897300D01*
X11270475Y-9897300D01*
X11270000Y-9897775D01*
X11269525Y-9897300D01*
X11202300Y-9897300D01*
X11202300Y-9967025D01*
X11212975Y-9977700D01*
X11245994Y-9977700D01*
X11261688Y-9971199D01*
X11270000Y-9962887D01*
X11278312Y-9971199D01*
X11287300Y-9974922D01*
X11287300Y-9977025D01*
X11297975Y-9987700D01*
X11367700Y-9987700D01*
X11367700Y-9985700D01*
X11372300Y-9985700D01*
X11372300Y-9987700D01*
X11374300Y-9987700D01*
X11374300Y-9992300D01*
X11372300Y-9992300D01*
X11372300Y-10117700D01*
X11374300Y-10117700D01*
X11374300Y-10122300D01*
X11372300Y-10122300D01*
X11372300Y-10189525D01*
X11382975Y-10200200D01*
X11387300Y-10200200D01*
X11387300Y-10284800D01*
X11382975Y-10284800D01*
X11372300Y-10295475D01*
X11372300Y-10362700D01*
X11374300Y-10362700D01*
X11374300Y-10367300D01*
X11372300Y-10367300D01*
X11372300Y-10497700D01*
X11374300Y-10497700D01*
X11374300Y-10502300D01*
X11372300Y-10502300D01*
X11372300Y-10504300D01*
X11367700Y-10504300D01*
X11367700Y-10502300D01*
X11297975Y-10502300D01*
X11287300Y-10512975D01*
X11287300Y-10519813D01*
X11285000Y-10522113D01*
X11281688Y-10518801D01*
X11265994Y-10512300D01*
X11232975Y-10512300D01*
X11222300Y-10522975D01*
X11222300Y-10592700D01*
X11347700Y-10592700D01*
X11347700Y-10590700D01*
X11352300Y-10590700D01*
X11352300Y-10592700D01*
X11354300Y-10592700D01*
X11354300Y-10597300D01*
X11352300Y-10597300D01*
X11352300Y-10599300D01*
X11347700Y-10599300D01*
X11347700Y-10597300D01*
X11222300Y-10597300D01*
X11222300Y-10599300D01*
X11217700Y-10599300D01*
X11217700Y-10597300D01*
X11215700Y-10597300D01*
X11215700Y-10592700D01*
X11217700Y-10592700D01*
X11217700Y-10522975D01*
X11207025Y-10512300D01*
X11180200Y-10512300D01*
X11180200Y-10506507D01*
X11173699Y-10490812D01*
X11161688Y-10478801D01*
X11145994Y-10472300D01*
X11112975Y-10472300D01*
X11102300Y-10482975D01*
X11102300Y-10552700D01*
X11104300Y-10552700D01*
X11104300Y-10557300D01*
X11102300Y-10557300D01*
X11102300Y-10559300D01*
X11097700Y-10559300D01*
X11097700Y-10557300D01*
X11095700Y-10557300D01*
X11095700Y-10552700D01*
X11097700Y-10552700D01*
X11097700Y-10482975D01*
X11087025Y-10472300D01*
X11082700Y-10472300D01*
X11082700Y-10377975D01*
X11287300Y-10377975D01*
X11287300Y-10410994D01*
X11293801Y-10426688D01*
X11299613Y-10432500D01*
X11293801Y-10438312D01*
X11287300Y-10454006D01*
X11287300Y-10487025D01*
X11297975Y-10497700D01*
X11367700Y-10497700D01*
X11367700Y-10367300D01*
X11297975Y-10367300D01*
X11287300Y-10377975D01*
X11082700Y-10377975D01*
X11082700Y-10319006D01*
X11287300Y-10319006D01*
X11287300Y-10352025D01*
X11297975Y-10362700D01*
X11367700Y-10362700D01*
X11367700Y-10295475D01*
X11357025Y-10284800D01*
X11321506Y-10284800D01*
X11305812Y-10291301D01*
X11293801Y-10303312D01*
X11287300Y-10319006D01*
X11082700Y-10319006D01*
X11082700Y-10132975D01*
X11287300Y-10132975D01*
X11287300Y-10165994D01*
X11293801Y-10181688D01*
X11305812Y-10193699D01*
X11321506Y-10200200D01*
X11357025Y-10200200D01*
X11367700Y-10189525D01*
X11367700Y-10122300D01*
X11297975Y-10122300D01*
X11287300Y-10132975D01*
X11082700Y-10132975D01*
X11082700Y-10061829D01*
X11132265Y-10012265D01*
X11138472Y-10002975D01*
X11287300Y-10002975D01*
X11287300Y-10035994D01*
X11293801Y-10051688D01*
X11297113Y-10055000D01*
X11293801Y-10058312D01*
X11287300Y-10074006D01*
X11287300Y-10107025D01*
X11297975Y-10117700D01*
X11367700Y-10117700D01*
X11367700Y-9992300D01*
X11297975Y-9992300D01*
X11287300Y-10002975D01*
X11138472Y-10002975D01*
X11143689Y-9995168D01*
X11147684Y-9975081D01*
X11154006Y-9977700D01*
X11187025Y-9977700D01*
X11197700Y-9967025D01*
X11197700Y-9897300D01*
X11195700Y-9897300D01*
X11195700Y-9892700D01*
X11197700Y-9892700D01*
X11197700Y-9890700D01*
X11202300Y-9890700D01*
X11202300Y-9892700D01*
X11202300Y-9892700D01*
G37*
X11202300Y-9892700D02*
X11269525Y-9892700D01*
X11270000Y-9892225D01*
X11270475Y-9892700D01*
X11337700Y-9892700D01*
X11337700Y-9890700D01*
X11342300Y-9890700D01*
X11342300Y-9892700D01*
X11344300Y-9892700D01*
X11344300Y-9897300D01*
X11342300Y-9897300D01*
X11342300Y-9899300D01*
X11337700Y-9899300D01*
X11337700Y-9897300D01*
X11270475Y-9897300D01*
X11270000Y-9897775D01*
X11269525Y-9897300D01*
X11202300Y-9897300D01*
X11202300Y-9967025D01*
X11212975Y-9977700D01*
X11245994Y-9977700D01*
X11261688Y-9971199D01*
X11270000Y-9962887D01*
X11278312Y-9971199D01*
X11287300Y-9974922D01*
X11287300Y-9977025D01*
X11297975Y-9987700D01*
X11367700Y-9987700D01*
X11367700Y-9985700D01*
X11372300Y-9985700D01*
X11372300Y-9987700D01*
X11374300Y-9987700D01*
X11374300Y-9992300D01*
X11372300Y-9992300D01*
X11372300Y-10117700D01*
X11374300Y-10117700D01*
X11374300Y-10122300D01*
X11372300Y-10122300D01*
X11372300Y-10189525D01*
X11382975Y-10200200D01*
X11387300Y-10200200D01*
X11387300Y-10284800D01*
X11382975Y-10284800D01*
X11372300Y-10295475D01*
X11372300Y-10362700D01*
X11374300Y-10362700D01*
X11374300Y-10367300D01*
X11372300Y-10367300D01*
X11372300Y-10497700D01*
X11374300Y-10497700D01*
X11374300Y-10502300D01*
X11372300Y-10502300D01*
X11372300Y-10504300D01*
X11367700Y-10504300D01*
X11367700Y-10502300D01*
X11297975Y-10502300D01*
X11287300Y-10512975D01*
X11287300Y-10519813D01*
X11285000Y-10522113D01*
X11281688Y-10518801D01*
X11265994Y-10512300D01*
X11232975Y-10512300D01*
X11222300Y-10522975D01*
X11222300Y-10592700D01*
X11347700Y-10592700D01*
X11347700Y-10590700D01*
X11352300Y-10590700D01*
X11352300Y-10592700D01*
X11354300Y-10592700D01*
X11354300Y-10597300D01*
X11352300Y-10597300D01*
X11352300Y-10599300D01*
X11347700Y-10599300D01*
X11347700Y-10597300D01*
X11222300Y-10597300D01*
X11222300Y-10599300D01*
X11217700Y-10599300D01*
X11217700Y-10597300D01*
X11215700Y-10597300D01*
X11215700Y-10592700D01*
X11217700Y-10592700D01*
X11217700Y-10522975D01*
X11207025Y-10512300D01*
X11180200Y-10512300D01*
X11180200Y-10506507D01*
X11173699Y-10490812D01*
X11161688Y-10478801D01*
X11145994Y-10472300D01*
X11112975Y-10472300D01*
X11102300Y-10482975D01*
X11102300Y-10552700D01*
X11104300Y-10552700D01*
X11104300Y-10557300D01*
X11102300Y-10557300D01*
X11102300Y-10559300D01*
X11097700Y-10559300D01*
X11097700Y-10557300D01*
X11095700Y-10557300D01*
X11095700Y-10552700D01*
X11097700Y-10552700D01*
X11097700Y-10482975D01*
X11087025Y-10472300D01*
X11082700Y-10472300D01*
X11082700Y-10377975D01*
X11287300Y-10377975D01*
X11287300Y-10410994D01*
X11293801Y-10426688D01*
X11299613Y-10432500D01*
X11293801Y-10438312D01*
X11287300Y-10454006D01*
X11287300Y-10487025D01*
X11297975Y-10497700D01*
X11367700Y-10497700D01*
X11367700Y-10367300D01*
X11297975Y-10367300D01*
X11287300Y-10377975D01*
X11082700Y-10377975D01*
X11082700Y-10319006D01*
X11287300Y-10319006D01*
X11287300Y-10352025D01*
X11297975Y-10362700D01*
X11367700Y-10362700D01*
X11367700Y-10295475D01*
X11357025Y-10284800D01*
X11321506Y-10284800D01*
X11305812Y-10291301D01*
X11293801Y-10303312D01*
X11287300Y-10319006D01*
X11082700Y-10319006D01*
X11082700Y-10132975D01*
X11287300Y-10132975D01*
X11287300Y-10165994D01*
X11293801Y-10181688D01*
X11305812Y-10193699D01*
X11321506Y-10200200D01*
X11357025Y-10200200D01*
X11367700Y-10189525D01*
X11367700Y-10122300D01*
X11297975Y-10122300D01*
X11287300Y-10132975D01*
X11082700Y-10132975D01*
X11082700Y-10061829D01*
X11132265Y-10012265D01*
X11138472Y-10002975D01*
X11287300Y-10002975D01*
X11287300Y-10035994D01*
X11293801Y-10051688D01*
X11297113Y-10055000D01*
X11293801Y-10058312D01*
X11287300Y-10074006D01*
X11287300Y-10107025D01*
X11297975Y-10117700D01*
X11367700Y-10117700D01*
X11367700Y-9992300D01*
X11297975Y-9992300D01*
X11287300Y-10002975D01*
X11138472Y-10002975D01*
X11143689Y-9995168D01*
X11147684Y-9975081D01*
X11154006Y-9977700D01*
X11187025Y-9977700D01*
X11197700Y-9967025D01*
X11197700Y-9897300D01*
X11195700Y-9897300D01*
X11195700Y-9892700D01*
X11197700Y-9892700D01*
X11197700Y-9890700D01*
X11202300Y-9890700D01*
X11202300Y-9892700D01*
G36*
X9082698Y-6163486D02*
X9084986Y-6165014D01*
X9086514Y-6167302D01*
X9087300Y-6171251D01*
X9087300Y-6277557D01*
X9082300Y-6302694D01*
X9082300Y-6307306D01*
X9087300Y-6332442D01*
X9087300Y-6428749D01*
X9086514Y-6432698D01*
X9084986Y-6434986D01*
X9082698Y-6436514D01*
X9078749Y-6437300D01*
X8908284Y-6437300D01*
X8906627Y-6437409D01*
X8901450Y-6438090D01*
X8898248Y-6438948D01*
X8893424Y-6440946D01*
X8890553Y-6442604D01*
X8886411Y-6445782D01*
X8885162Y-6446878D01*
X8821878Y-6510162D01*
X8820782Y-6511411D01*
X8817604Y-6515553D01*
X8815946Y-6518424D01*
X8813948Y-6523248D01*
X8813090Y-6526450D01*
X8812409Y-6531627D01*
X8812300Y-6533284D01*
X8812300Y-8428749D01*
X8811514Y-8432698D01*
X8809986Y-8434986D01*
X8807698Y-8436514D01*
X8803749Y-8437300D01*
X8344306Y-8437300D01*
X8348887Y-8432727D01*
X8357690Y-8411528D01*
X8357710Y-8388573D01*
X8348944Y-8367358D01*
X8332727Y-8351113D01*
X8311528Y-8342310D01*
X8288573Y-8342290D01*
X8267358Y-8351056D01*
X8251113Y-8367273D01*
X8242310Y-8388472D01*
X8242290Y-8411427D01*
X8244452Y-8416659D01*
X8155000Y-8416659D01*
X8142882Y-8418940D01*
X8131753Y-8426101D01*
X8127517Y-8432300D01*
X8125000Y-8432300D01*
X8108659Y-8435550D01*
X8106041Y-8437300D01*
X8021251Y-8437300D01*
X8017302Y-8436514D01*
X8015014Y-8434986D01*
X8013486Y-8432698D01*
X8012700Y-8428749D01*
X8012700Y-7811427D01*
X8042290Y-7811427D01*
X8051056Y-7832642D01*
X8058395Y-7839994D01*
X8056113Y-7842273D01*
X8047310Y-7863472D01*
X8047290Y-7886427D01*
X8056056Y-7907642D01*
X8072273Y-7923887D01*
X8093472Y-7932690D01*
X8116427Y-7932710D01*
X8121659Y-7930548D01*
X8121659Y-7950000D01*
X8123939Y-7962118D01*
X8131101Y-7973247D01*
X8142029Y-7980714D01*
X8147957Y-7981914D01*
X8147310Y-7983472D01*
X8147290Y-8006427D01*
X8156056Y-8027642D01*
X8162300Y-8033897D01*
X8162300Y-8054999D01*
X8162300Y-8055000D01*
X8165550Y-8071341D01*
X8174806Y-8085193D01*
X8216659Y-8127046D01*
X8216659Y-8145000D01*
X8218939Y-8157118D01*
X8226101Y-8168247D01*
X8237029Y-8175714D01*
X8250000Y-8178341D01*
X8300000Y-8178341D01*
X8312118Y-8176060D01*
X8323247Y-8168899D01*
X8330714Y-8157971D01*
X8333341Y-8145000D01*
X8333341Y-8055000D01*
X8366659Y-8055000D01*
X8366659Y-8145000D01*
X8368939Y-8157118D01*
X8376101Y-8168247D01*
X8387029Y-8175714D01*
X8400000Y-8178341D01*
X8450000Y-8178341D01*
X8462118Y-8176060D01*
X8473247Y-8168899D01*
X8480714Y-8157971D01*
X8483341Y-8145000D01*
X8483341Y-8055000D01*
X8482233Y-8049113D01*
X8482642Y-8048944D01*
X8498887Y-8032727D01*
X8507690Y-8011528D01*
X8507710Y-7988573D01*
X8498944Y-7967358D01*
X8482727Y-7951113D01*
X8461528Y-7942310D01*
X8438573Y-7942290D01*
X8417358Y-7951056D01*
X8401113Y-7967273D01*
X8392310Y-7988472D01*
X8392301Y-7998556D01*
X8385550Y-8008659D01*
X8382300Y-8025000D01*
X8382300Y-8025000D01*
X8382300Y-8027531D01*
X8376753Y-8031101D01*
X8369286Y-8042029D01*
X8366659Y-8055000D01*
X8333341Y-8055000D01*
X8332233Y-8049113D01*
X8332642Y-8048944D01*
X8348887Y-8032727D01*
X8357690Y-8011528D01*
X8357710Y-7988573D01*
X8348944Y-7967358D01*
X8332727Y-7951113D01*
X8311528Y-7942310D01*
X8288573Y-7942290D01*
X8278341Y-7946518D01*
X8278341Y-7903483D01*
X8288472Y-7907690D01*
X8311427Y-7907710D01*
X8332642Y-7898944D01*
X8348887Y-7882727D01*
X8357690Y-7861528D01*
X8357710Y-7838573D01*
X8348944Y-7817358D01*
X8332727Y-7801113D01*
X8311528Y-7792310D01*
X8288573Y-7792290D01*
X8278341Y-7796518D01*
X8278341Y-7753483D01*
X8288472Y-7757690D01*
X8311427Y-7757710D01*
X8332642Y-7748944D01*
X8348887Y-7732727D01*
X8357690Y-7711528D01*
X8357710Y-7688573D01*
X8348944Y-7667358D01*
X8332727Y-7651113D01*
X8311528Y-7642310D01*
X8288573Y-7642290D01*
X8267358Y-7651056D01*
X8251113Y-7667273D01*
X8242310Y-7688472D01*
X8242290Y-7711427D01*
X8244452Y-7716659D01*
X8155000Y-7716659D01*
X8142882Y-7718939D01*
X8131753Y-7726101D01*
X8127517Y-7732300D01*
X8125000Y-7732300D01*
X8108659Y-7735550D01*
X8098560Y-7742299D01*
X8088573Y-7742290D01*
X8067358Y-7751056D01*
X8051113Y-7767273D01*
X8042310Y-7788472D01*
X8042290Y-7811427D01*
X8012700Y-7811427D01*
X8012700Y-7111427D01*
X8042290Y-7111427D01*
X8051056Y-7132642D01*
X8058395Y-7139994D01*
X8056113Y-7142273D01*
X8047310Y-7163472D01*
X8047290Y-7186427D01*
X8056056Y-7207642D01*
X8072273Y-7223887D01*
X8093472Y-7232690D01*
X8116427Y-7232710D01*
X8121659Y-7230548D01*
X8121659Y-7250000D01*
X8123939Y-7262118D01*
X8131101Y-7273247D01*
X8142029Y-7280714D01*
X8145260Y-7281368D01*
X8142310Y-7288472D01*
X8142290Y-7311427D01*
X8151056Y-7332642D01*
X8157300Y-7338897D01*
X8157300Y-7369999D01*
X8157300Y-7370000D01*
X8160550Y-7386341D01*
X8169806Y-7400193D01*
X8199806Y-7430193D01*
X8213659Y-7439450D01*
X8216659Y-7440046D01*
X8216659Y-7445000D01*
X8218939Y-7457118D01*
X8226101Y-7468247D01*
X8237029Y-7475714D01*
X8250000Y-7478341D01*
X8300000Y-7478341D01*
X8312118Y-7476060D01*
X8323247Y-7468899D01*
X8330714Y-7457971D01*
X8333341Y-7445000D01*
X8333341Y-7355000D01*
X8366659Y-7355000D01*
X8366659Y-7445000D01*
X8368939Y-7457118D01*
X8376101Y-7468247D01*
X8387029Y-7475714D01*
X8400000Y-7478341D01*
X8450000Y-7478341D01*
X8462118Y-7476060D01*
X8473247Y-7468899D01*
X8480714Y-7457971D01*
X8483341Y-7445000D01*
X8483341Y-7355000D01*
X8482233Y-7349113D01*
X8482642Y-7348944D01*
X8498887Y-7332727D01*
X8507690Y-7311528D01*
X8507710Y-7288573D01*
X8498944Y-7267358D01*
X8482727Y-7251113D01*
X8461528Y-7242310D01*
X8438573Y-7242290D01*
X8417358Y-7251056D01*
X8401113Y-7267273D01*
X8392310Y-7288472D01*
X8392301Y-7298556D01*
X8385550Y-7308659D01*
X8382300Y-7325000D01*
X8382300Y-7325000D01*
X8382300Y-7327531D01*
X8376753Y-7331101D01*
X8369286Y-7342029D01*
X8366659Y-7355000D01*
X8333341Y-7355000D01*
X8332233Y-7349113D01*
X8332642Y-7348944D01*
X8348887Y-7332727D01*
X8357690Y-7311528D01*
X8357710Y-7288573D01*
X8348944Y-7267358D01*
X8332727Y-7251113D01*
X8311528Y-7242310D01*
X8288573Y-7242290D01*
X8278341Y-7246518D01*
X8278341Y-7203483D01*
X8288472Y-7207690D01*
X8311427Y-7207710D01*
X8332642Y-7198944D01*
X8348887Y-7182727D01*
X8357690Y-7161528D01*
X8357710Y-7138573D01*
X8348944Y-7117358D01*
X8332727Y-7101113D01*
X8311528Y-7092310D01*
X8288573Y-7092290D01*
X8278341Y-7096518D01*
X8278341Y-7053483D01*
X8288472Y-7057690D01*
X8311427Y-7057710D01*
X8332642Y-7048944D01*
X8348887Y-7032727D01*
X8357690Y-7011528D01*
X8357710Y-6988573D01*
X8348944Y-6967358D01*
X8332727Y-6951113D01*
X8311528Y-6942310D01*
X8288573Y-6942290D01*
X8267358Y-6951056D01*
X8251113Y-6967273D01*
X8242310Y-6988472D01*
X8242290Y-7011427D01*
X8244452Y-7016659D01*
X8155000Y-7016659D01*
X8142882Y-7018939D01*
X8131753Y-7026101D01*
X8127517Y-7032300D01*
X8125000Y-7032300D01*
X8108659Y-7035550D01*
X8098560Y-7042299D01*
X8088573Y-7042290D01*
X8067358Y-7051056D01*
X8051113Y-7067273D01*
X8042310Y-7088472D01*
X8042290Y-7111427D01*
X8012700Y-7111427D01*
X8012700Y-6746251D01*
X8013486Y-6742302D01*
X8015014Y-6740014D01*
X8017302Y-6738486D01*
X8021251Y-6737700D01*
X8101132Y-6737700D01*
X8139529Y-6753644D01*
X8214700Y-6753709D01*
X8201113Y-6767273D01*
X8192310Y-6788472D01*
X8192290Y-6811427D01*
X8201056Y-6832642D01*
X8217273Y-6848887D01*
X8238472Y-6857690D01*
X8261427Y-6857710D01*
X8282642Y-6848944D01*
X8298887Y-6832727D01*
X8307690Y-6811528D01*
X8307710Y-6788573D01*
X8298944Y-6767358D01*
X8282727Y-6751113D01*
X8278526Y-6749368D01*
X8306766Y-6737700D01*
X8366716Y-6737700D01*
X8368373Y-6737591D01*
X8373550Y-6736910D01*
X8376752Y-6736052D01*
X8381576Y-6734054D01*
X8384447Y-6732396D01*
X8388589Y-6729218D01*
X8389838Y-6728122D01*
X8503122Y-6614838D01*
X8504218Y-6613589D01*
X8507396Y-6609447D01*
X8509054Y-6606576D01*
X8511052Y-6601752D01*
X8511910Y-6598550D01*
X8512591Y-6593373D01*
X8512700Y-6591716D01*
X8512700Y-6529051D01*
X8526644Y-6495471D01*
X8526663Y-6474000D01*
X8573659Y-6474000D01*
X8573659Y-6644000D01*
X8575940Y-6656118D01*
X8583101Y-6667247D01*
X8594029Y-6674714D01*
X8607000Y-6677341D01*
X8777000Y-6677341D01*
X8789118Y-6675060D01*
X8800247Y-6667899D01*
X8807714Y-6656971D01*
X8810341Y-6644000D01*
X8810341Y-6474000D01*
X8808061Y-6461882D01*
X8800899Y-6450753D01*
X8789971Y-6443286D01*
X8777000Y-6440659D01*
X8607000Y-6440659D01*
X8594882Y-6442939D01*
X8583753Y-6450101D01*
X8576286Y-6461029D01*
X8573659Y-6474000D01*
X8526663Y-6474000D01*
X8526756Y-6367093D01*
X8512700Y-6333075D01*
X8512700Y-6327245D01*
X8566252Y-6327245D01*
X8584337Y-6373673D01*
X8618813Y-6409647D01*
X8664430Y-6429689D01*
X8669755Y-6430748D01*
X8689700Y-6422002D01*
X8689700Y-6307300D01*
X8694300Y-6307300D01*
X8694300Y-6422002D01*
X8714245Y-6430748D01*
X8719570Y-6429689D01*
X8765187Y-6409647D01*
X8799663Y-6373673D01*
X8817748Y-6327245D01*
X8820252Y-6327245D01*
X8838337Y-6373673D01*
X8872813Y-6409647D01*
X8918430Y-6429689D01*
X8923755Y-6430748D01*
X8943700Y-6422002D01*
X8943700Y-6307300D01*
X8948300Y-6307300D01*
X8948300Y-6422002D01*
X8968245Y-6430748D01*
X8973570Y-6429689D01*
X9019187Y-6409647D01*
X9053663Y-6373673D01*
X9071748Y-6327245D01*
X9063005Y-6307300D01*
X8948300Y-6307300D01*
X8943700Y-6307300D01*
X8828996Y-6307300D01*
X8820252Y-6327245D01*
X8817748Y-6327245D01*
X8809005Y-6307300D01*
X8694300Y-6307300D01*
X8689700Y-6307300D01*
X8574996Y-6307300D01*
X8566252Y-6327245D01*
X8512700Y-6327245D01*
X8512700Y-6282755D01*
X8566252Y-6282755D01*
X8574996Y-6302700D01*
X8689700Y-6302700D01*
X8689700Y-6187998D01*
X8694300Y-6187998D01*
X8694300Y-6302700D01*
X8809005Y-6302700D01*
X8817748Y-6282755D01*
X8820252Y-6282755D01*
X8828996Y-6302700D01*
X8943700Y-6302700D01*
X8943700Y-6187998D01*
X8948300Y-6187998D01*
X8948300Y-6302700D01*
X9063005Y-6302700D01*
X9071748Y-6282755D01*
X9053663Y-6236326D01*
X9019187Y-6200353D01*
X8973570Y-6180311D01*
X8968245Y-6179252D01*
X8948300Y-6187998D01*
X8943700Y-6187998D01*
X8923755Y-6179252D01*
X8918430Y-6180311D01*
X8872813Y-6200353D01*
X8838337Y-6236326D01*
X8820252Y-6282755D01*
X8817748Y-6282755D01*
X8799663Y-6236326D01*
X8765187Y-6200353D01*
X8719570Y-6180311D01*
X8714245Y-6179252D01*
X8694300Y-6187998D01*
X8689700Y-6187998D01*
X8669755Y-6179252D01*
X8664430Y-6180311D01*
X8618813Y-6200353D01*
X8584337Y-6236326D01*
X8566252Y-6282755D01*
X8512700Y-6282755D01*
X8512700Y-6171251D01*
X8513486Y-6167302D01*
X8515014Y-6165014D01*
X8517302Y-6163486D01*
X8521251Y-6162700D01*
X9078749Y-6162700D01*
X9082698Y-6163486D01*
X9082698Y-6163486D01*
G37*
X9082698Y-6163486D02*
X9084986Y-6165014D01*
X9086514Y-6167302D01*
X9087300Y-6171251D01*
X9087300Y-6277557D01*
X9082300Y-6302694D01*
X9082300Y-6307306D01*
X9087300Y-6332442D01*
X9087300Y-6428749D01*
X9086514Y-6432698D01*
X9084986Y-6434986D01*
X9082698Y-6436514D01*
X9078749Y-6437300D01*
X8908284Y-6437300D01*
X8906627Y-6437409D01*
X8901450Y-6438090D01*
X8898248Y-6438948D01*
X8893424Y-6440946D01*
X8890553Y-6442604D01*
X8886411Y-6445782D01*
X8885162Y-6446878D01*
X8821878Y-6510162D01*
X8820782Y-6511411D01*
X8817604Y-6515553D01*
X8815946Y-6518424D01*
X8813948Y-6523248D01*
X8813090Y-6526450D01*
X8812409Y-6531627D01*
X8812300Y-6533284D01*
X8812300Y-8428749D01*
X8811514Y-8432698D01*
X8809986Y-8434986D01*
X8807698Y-8436514D01*
X8803749Y-8437300D01*
X8344306Y-8437300D01*
X8348887Y-8432727D01*
X8357690Y-8411528D01*
X8357710Y-8388573D01*
X8348944Y-8367358D01*
X8332727Y-8351113D01*
X8311528Y-8342310D01*
X8288573Y-8342290D01*
X8267358Y-8351056D01*
X8251113Y-8367273D01*
X8242310Y-8388472D01*
X8242290Y-8411427D01*
X8244452Y-8416659D01*
X8155000Y-8416659D01*
X8142882Y-8418940D01*
X8131753Y-8426101D01*
X8127517Y-8432300D01*
X8125000Y-8432300D01*
X8108659Y-8435550D01*
X8106041Y-8437300D01*
X8021251Y-8437300D01*
X8017302Y-8436514D01*
X8015014Y-8434986D01*
X8013486Y-8432698D01*
X8012700Y-8428749D01*
X8012700Y-7811427D01*
X8042290Y-7811427D01*
X8051056Y-7832642D01*
X8058395Y-7839994D01*
X8056113Y-7842273D01*
X8047310Y-7863472D01*
X8047290Y-7886427D01*
X8056056Y-7907642D01*
X8072273Y-7923887D01*
X8093472Y-7932690D01*
X8116427Y-7932710D01*
X8121659Y-7930548D01*
X8121659Y-7950000D01*
X8123939Y-7962118D01*
X8131101Y-7973247D01*
X8142029Y-7980714D01*
X8147957Y-7981914D01*
X8147310Y-7983472D01*
X8147290Y-8006427D01*
X8156056Y-8027642D01*
X8162300Y-8033897D01*
X8162300Y-8054999D01*
X8162300Y-8055000D01*
X8165550Y-8071341D01*
X8174806Y-8085193D01*
X8216659Y-8127046D01*
X8216659Y-8145000D01*
X8218939Y-8157118D01*
X8226101Y-8168247D01*
X8237029Y-8175714D01*
X8250000Y-8178341D01*
X8300000Y-8178341D01*
X8312118Y-8176060D01*
X8323247Y-8168899D01*
X8330714Y-8157971D01*
X8333341Y-8145000D01*
X8333341Y-8055000D01*
X8366659Y-8055000D01*
X8366659Y-8145000D01*
X8368939Y-8157118D01*
X8376101Y-8168247D01*
X8387029Y-8175714D01*
X8400000Y-8178341D01*
X8450000Y-8178341D01*
X8462118Y-8176060D01*
X8473247Y-8168899D01*
X8480714Y-8157971D01*
X8483341Y-8145000D01*
X8483341Y-8055000D01*
X8482233Y-8049113D01*
X8482642Y-8048944D01*
X8498887Y-8032727D01*
X8507690Y-8011528D01*
X8507710Y-7988573D01*
X8498944Y-7967358D01*
X8482727Y-7951113D01*
X8461528Y-7942310D01*
X8438573Y-7942290D01*
X8417358Y-7951056D01*
X8401113Y-7967273D01*
X8392310Y-7988472D01*
X8392301Y-7998556D01*
X8385550Y-8008659D01*
X8382300Y-8025000D01*
X8382300Y-8025000D01*
X8382300Y-8027531D01*
X8376753Y-8031101D01*
X8369286Y-8042029D01*
X8366659Y-8055000D01*
X8333341Y-8055000D01*
X8332233Y-8049113D01*
X8332642Y-8048944D01*
X8348887Y-8032727D01*
X8357690Y-8011528D01*
X8357710Y-7988573D01*
X8348944Y-7967358D01*
X8332727Y-7951113D01*
X8311528Y-7942310D01*
X8288573Y-7942290D01*
X8278341Y-7946518D01*
X8278341Y-7903483D01*
X8288472Y-7907690D01*
X8311427Y-7907710D01*
X8332642Y-7898944D01*
X8348887Y-7882727D01*
X8357690Y-7861528D01*
X8357710Y-7838573D01*
X8348944Y-7817358D01*
X8332727Y-7801113D01*
X8311528Y-7792310D01*
X8288573Y-7792290D01*
X8278341Y-7796518D01*
X8278341Y-7753483D01*
X8288472Y-7757690D01*
X8311427Y-7757710D01*
X8332642Y-7748944D01*
X8348887Y-7732727D01*
X8357690Y-7711528D01*
X8357710Y-7688573D01*
X8348944Y-7667358D01*
X8332727Y-7651113D01*
X8311528Y-7642310D01*
X8288573Y-7642290D01*
X8267358Y-7651056D01*
X8251113Y-7667273D01*
X8242310Y-7688472D01*
X8242290Y-7711427D01*
X8244452Y-7716659D01*
X8155000Y-7716659D01*
X8142882Y-7718939D01*
X8131753Y-7726101D01*
X8127517Y-7732300D01*
X8125000Y-7732300D01*
X8108659Y-7735550D01*
X8098560Y-7742299D01*
X8088573Y-7742290D01*
X8067358Y-7751056D01*
X8051113Y-7767273D01*
X8042310Y-7788472D01*
X8042290Y-7811427D01*
X8012700Y-7811427D01*
X8012700Y-7111427D01*
X8042290Y-7111427D01*
X8051056Y-7132642D01*
X8058395Y-7139994D01*
X8056113Y-7142273D01*
X8047310Y-7163472D01*
X8047290Y-7186427D01*
X8056056Y-7207642D01*
X8072273Y-7223887D01*
X8093472Y-7232690D01*
X8116427Y-7232710D01*
X8121659Y-7230548D01*
X8121659Y-7250000D01*
X8123939Y-7262118D01*
X8131101Y-7273247D01*
X8142029Y-7280714D01*
X8145260Y-7281368D01*
X8142310Y-7288472D01*
X8142290Y-7311427D01*
X8151056Y-7332642D01*
X8157300Y-7338897D01*
X8157300Y-7369999D01*
X8157300Y-7370000D01*
X8160550Y-7386341D01*
X8169806Y-7400193D01*
X8199806Y-7430193D01*
X8213659Y-7439450D01*
X8216659Y-7440046D01*
X8216659Y-7445000D01*
X8218939Y-7457118D01*
X8226101Y-7468247D01*
X8237029Y-7475714D01*
X8250000Y-7478341D01*
X8300000Y-7478341D01*
X8312118Y-7476060D01*
X8323247Y-7468899D01*
X8330714Y-7457971D01*
X8333341Y-7445000D01*
X8333341Y-7355000D01*
X8366659Y-7355000D01*
X8366659Y-7445000D01*
X8368939Y-7457118D01*
X8376101Y-7468247D01*
X8387029Y-7475714D01*
X8400000Y-7478341D01*
X8450000Y-7478341D01*
X8462118Y-7476060D01*
X8473247Y-7468899D01*
X8480714Y-7457971D01*
X8483341Y-7445000D01*
X8483341Y-7355000D01*
X8482233Y-7349113D01*
X8482642Y-7348944D01*
X8498887Y-7332727D01*
X8507690Y-7311528D01*
X8507710Y-7288573D01*
X8498944Y-7267358D01*
X8482727Y-7251113D01*
X8461528Y-7242310D01*
X8438573Y-7242290D01*
X8417358Y-7251056D01*
X8401113Y-7267273D01*
X8392310Y-7288472D01*
X8392301Y-7298556D01*
X8385550Y-7308659D01*
X8382300Y-7325000D01*
X8382300Y-7325000D01*
X8382300Y-7327531D01*
X8376753Y-7331101D01*
X8369286Y-7342029D01*
X8366659Y-7355000D01*
X8333341Y-7355000D01*
X8332233Y-7349113D01*
X8332642Y-7348944D01*
X8348887Y-7332727D01*
X8357690Y-7311528D01*
X8357710Y-7288573D01*
X8348944Y-7267358D01*
X8332727Y-7251113D01*
X8311528Y-7242310D01*
X8288573Y-7242290D01*
X8278341Y-7246518D01*
X8278341Y-7203483D01*
X8288472Y-7207690D01*
X8311427Y-7207710D01*
X8332642Y-7198944D01*
X8348887Y-7182727D01*
X8357690Y-7161528D01*
X8357710Y-7138573D01*
X8348944Y-7117358D01*
X8332727Y-7101113D01*
X8311528Y-7092310D01*
X8288573Y-7092290D01*
X8278341Y-7096518D01*
X8278341Y-7053483D01*
X8288472Y-7057690D01*
X8311427Y-7057710D01*
X8332642Y-7048944D01*
X8348887Y-7032727D01*
X8357690Y-7011528D01*
X8357710Y-6988573D01*
X8348944Y-6967358D01*
X8332727Y-6951113D01*
X8311528Y-6942310D01*
X8288573Y-6942290D01*
X8267358Y-6951056D01*
X8251113Y-6967273D01*
X8242310Y-6988472D01*
X8242290Y-7011427D01*
X8244452Y-7016659D01*
X8155000Y-7016659D01*
X8142882Y-7018939D01*
X8131753Y-7026101D01*
X8127517Y-7032300D01*
X8125000Y-7032300D01*
X8108659Y-7035550D01*
X8098560Y-7042299D01*
X8088573Y-7042290D01*
X8067358Y-7051056D01*
X8051113Y-7067273D01*
X8042310Y-7088472D01*
X8042290Y-7111427D01*
X8012700Y-7111427D01*
X8012700Y-6746251D01*
X8013486Y-6742302D01*
X8015014Y-6740014D01*
X8017302Y-6738486D01*
X8021251Y-6737700D01*
X8101132Y-6737700D01*
X8139529Y-6753644D01*
X8214700Y-6753709D01*
X8201113Y-6767273D01*
X8192310Y-6788472D01*
X8192290Y-6811427D01*
X8201056Y-6832642D01*
X8217273Y-6848887D01*
X8238472Y-6857690D01*
X8261427Y-6857710D01*
X8282642Y-6848944D01*
X8298887Y-6832727D01*
X8307690Y-6811528D01*
X8307710Y-6788573D01*
X8298944Y-6767358D01*
X8282727Y-6751113D01*
X8278526Y-6749368D01*
X8306766Y-6737700D01*
X8366716Y-6737700D01*
X8368373Y-6737591D01*
X8373550Y-6736910D01*
X8376752Y-6736052D01*
X8381576Y-6734054D01*
X8384447Y-6732396D01*
X8388589Y-6729218D01*
X8389838Y-6728122D01*
X8503122Y-6614838D01*
X8504218Y-6613589D01*
X8507396Y-6609447D01*
X8509054Y-6606576D01*
X8511052Y-6601752D01*
X8511910Y-6598550D01*
X8512591Y-6593373D01*
X8512700Y-6591716D01*
X8512700Y-6529051D01*
X8526644Y-6495471D01*
X8526663Y-6474000D01*
X8573659Y-6474000D01*
X8573659Y-6644000D01*
X8575940Y-6656118D01*
X8583101Y-6667247D01*
X8594029Y-6674714D01*
X8607000Y-6677341D01*
X8777000Y-6677341D01*
X8789118Y-6675060D01*
X8800247Y-6667899D01*
X8807714Y-6656971D01*
X8810341Y-6644000D01*
X8810341Y-6474000D01*
X8808061Y-6461882D01*
X8800899Y-6450753D01*
X8789971Y-6443286D01*
X8777000Y-6440659D01*
X8607000Y-6440659D01*
X8594882Y-6442939D01*
X8583753Y-6450101D01*
X8576286Y-6461029D01*
X8573659Y-6474000D01*
X8526663Y-6474000D01*
X8526756Y-6367093D01*
X8512700Y-6333075D01*
X8512700Y-6327245D01*
X8566252Y-6327245D01*
X8584337Y-6373673D01*
X8618813Y-6409647D01*
X8664430Y-6429689D01*
X8669755Y-6430748D01*
X8689700Y-6422002D01*
X8689700Y-6307300D01*
X8694300Y-6307300D01*
X8694300Y-6422002D01*
X8714245Y-6430748D01*
X8719570Y-6429689D01*
X8765187Y-6409647D01*
X8799663Y-6373673D01*
X8817748Y-6327245D01*
X8820252Y-6327245D01*
X8838337Y-6373673D01*
X8872813Y-6409647D01*
X8918430Y-6429689D01*
X8923755Y-6430748D01*
X8943700Y-6422002D01*
X8943700Y-6307300D01*
X8948300Y-6307300D01*
X8948300Y-6422002D01*
X8968245Y-6430748D01*
X8973570Y-6429689D01*
X9019187Y-6409647D01*
X9053663Y-6373673D01*
X9071748Y-6327245D01*
X9063005Y-6307300D01*
X8948300Y-6307300D01*
X8943700Y-6307300D01*
X8828996Y-6307300D01*
X8820252Y-6327245D01*
X8817748Y-6327245D01*
X8809005Y-6307300D01*
X8694300Y-6307300D01*
X8689700Y-6307300D01*
X8574996Y-6307300D01*
X8566252Y-6327245D01*
X8512700Y-6327245D01*
X8512700Y-6282755D01*
X8566252Y-6282755D01*
X8574996Y-6302700D01*
X8689700Y-6302700D01*
X8689700Y-6187998D01*
X8694300Y-6187998D01*
X8694300Y-6302700D01*
X8809005Y-6302700D01*
X8817748Y-6282755D01*
X8820252Y-6282755D01*
X8828996Y-6302700D01*
X8943700Y-6302700D01*
X8943700Y-6187998D01*
X8948300Y-6187998D01*
X8948300Y-6302700D01*
X9063005Y-6302700D01*
X9071748Y-6282755D01*
X9053663Y-6236326D01*
X9019187Y-6200353D01*
X8973570Y-6180311D01*
X8968245Y-6179252D01*
X8948300Y-6187998D01*
X8943700Y-6187998D01*
X8923755Y-6179252D01*
X8918430Y-6180311D01*
X8872813Y-6200353D01*
X8838337Y-6236326D01*
X8820252Y-6282755D01*
X8817748Y-6282755D01*
X8799663Y-6236326D01*
X8765187Y-6200353D01*
X8719570Y-6180311D01*
X8714245Y-6179252D01*
X8694300Y-6187998D01*
X8689700Y-6187998D01*
X8669755Y-6179252D01*
X8664430Y-6180311D01*
X8618813Y-6200353D01*
X8584337Y-6236326D01*
X8566252Y-6282755D01*
X8512700Y-6282755D01*
X8512700Y-6171251D01*
X8513486Y-6167302D01*
X8515014Y-6165014D01*
X8517302Y-6163486D01*
X8521251Y-6162700D01*
X9078749Y-6162700D01*
X9082698Y-6163486D01*
M02*
