G04 #@! TF.FileFunction,Legend,Top*
%FSLAX45Y45*%
G04 Gerber Fmt 4.5, Leading zero omitted, Abs format (unit mm)*
G04 Created by KiCad (PCBNEW 4.0.7) date 07/31/18 15:54:45*
%MOMM*%
%LPD*%
G01*
G04 APERTURE LIST*
%ADD10C,0.100000*%
%ADD11C,0.500000*%
%ADD12C,0.200000*%
%ADD13C,0.300000*%
%ADD14C,0.120000*%
%ADD15C,0.150000*%
%ADD16C,0.010000*%
%ADD17C,0.250000*%
G04 APERTURE END LIST*
D10*
D11*
X13730000Y-8550000D02*
X14305000Y-8550000D01*
X13730000Y-10250000D02*
X13730000Y-8550000D01*
X14305000Y-10250000D02*
X13730000Y-10250000D01*
X14305000Y-8550000D02*
X14305000Y-10250000D01*
D12*
X9000000Y-6680000D02*
X9000000Y-6700000D01*
X8380000Y-6680000D02*
X9000000Y-6680000D01*
X8380000Y-6800000D02*
X8380000Y-6680000D01*
D13*
X9522143Y-9837857D02*
X9450714Y-9837857D01*
X9450714Y-9687857D01*
X9572143Y-9759286D02*
X9622143Y-9759286D01*
X9643572Y-9837857D02*
X9572143Y-9837857D01*
X9572143Y-9687857D01*
X9643572Y-9687857D01*
X9707857Y-9837857D02*
X9707857Y-9687857D01*
X9743572Y-9687857D01*
X9765000Y-9695000D01*
X9779286Y-9709286D01*
X9786429Y-9723571D01*
X9793572Y-9752143D01*
X9793572Y-9773571D01*
X9786429Y-9802143D01*
X9779286Y-9816429D01*
X9765000Y-9830714D01*
X9743572Y-9837857D01*
X9707857Y-9837857D01*
X9850714Y-9702143D02*
X9857857Y-9695000D01*
X9872143Y-9687857D01*
X9907857Y-9687857D01*
X9922143Y-9695000D01*
X9929286Y-9702143D01*
X9936429Y-9716429D01*
X9936429Y-9730714D01*
X9929286Y-9752143D01*
X9843572Y-9837857D01*
X9936429Y-9837857D01*
D12*
X8869048Y-10940000D02*
X8861429Y-10934286D01*
X8850000Y-10934286D01*
X8838572Y-10940000D01*
X8830952Y-10951429D01*
X8827143Y-10962857D01*
X8823333Y-10985714D01*
X8823333Y-11002857D01*
X8827143Y-11025714D01*
X8830952Y-11037143D01*
X8838572Y-11048571D01*
X8850000Y-11054286D01*
X8857619Y-11054286D01*
X8869048Y-11048571D01*
X8872857Y-11042857D01*
X8872857Y-11002857D01*
X8857619Y-11002857D01*
X8907143Y-11054286D02*
X8907143Y-10934286D01*
X8952857Y-11054286D01*
X8952857Y-10934286D01*
X8990952Y-11054286D02*
X8990952Y-10934286D01*
X9010000Y-10934286D01*
X9021429Y-10940000D01*
X9029048Y-10951429D01*
X9032857Y-10962857D01*
X9036667Y-10985714D01*
X9036667Y-11002857D01*
X9032857Y-11025714D01*
X9029048Y-11037143D01*
X9021429Y-11048571D01*
X9010000Y-11054286D01*
X8990952Y-11054286D01*
D13*
X8060714Y-10550000D02*
X8067857Y-10528571D01*
X8067857Y-10492857D01*
X8060714Y-10478571D01*
X8053571Y-10471429D01*
X8039286Y-10464286D01*
X8025000Y-10464286D01*
X8010714Y-10471429D01*
X8003571Y-10478571D01*
X7996429Y-10492857D01*
X7989286Y-10521429D01*
X7982143Y-10535714D01*
X7975000Y-10542857D01*
X7960714Y-10550000D01*
X7946429Y-10550000D01*
X7932143Y-10542857D01*
X7925000Y-10535714D01*
X7917857Y-10521429D01*
X7917857Y-10485714D01*
X7925000Y-10464286D01*
X7917857Y-10414286D02*
X8067857Y-10378571D01*
X7960714Y-10350000D01*
X8067857Y-10321429D01*
X7917857Y-10285714D01*
X7932143Y-10235714D02*
X7925000Y-10228571D01*
X7917857Y-10214286D01*
X7917857Y-10178571D01*
X7925000Y-10164286D01*
X7932143Y-10157143D01*
X7946429Y-10150000D01*
X7960714Y-10150000D01*
X7982143Y-10157143D01*
X8067857Y-10242857D01*
X8067857Y-10150000D01*
X8060714Y-9950000D02*
X8067857Y-9928571D01*
X8067857Y-9892857D01*
X8060714Y-9878571D01*
X8053571Y-9871429D01*
X8039286Y-9864286D01*
X8025000Y-9864286D01*
X8010714Y-9871429D01*
X8003571Y-9878571D01*
X7996429Y-9892857D01*
X7989286Y-9921429D01*
X7982143Y-9935714D01*
X7975000Y-9942857D01*
X7960714Y-9950000D01*
X7946429Y-9950000D01*
X7932143Y-9942857D01*
X7925000Y-9935714D01*
X7917857Y-9921429D01*
X7917857Y-9885714D01*
X7925000Y-9864286D01*
X7917857Y-9814286D02*
X8067857Y-9778571D01*
X7960714Y-9750000D01*
X8067857Y-9721429D01*
X7917857Y-9685714D01*
X8067857Y-9550000D02*
X8067857Y-9635714D01*
X8067857Y-9592857D02*
X7917857Y-9592857D01*
X7939286Y-9607143D01*
X7953571Y-9621429D01*
X7960714Y-9635714D01*
X8067857Y-9337857D02*
X8067857Y-9409286D01*
X7917857Y-9409286D01*
X7989286Y-9287857D02*
X7989286Y-9237857D01*
X8067857Y-9216429D02*
X8067857Y-9287857D01*
X7917857Y-9287857D01*
X7917857Y-9216429D01*
X8067857Y-9152143D02*
X7917857Y-9152143D01*
X7917857Y-9116429D01*
X7925000Y-9095000D01*
X7939286Y-9080714D01*
X7953571Y-9073571D01*
X7982143Y-9066429D01*
X8003571Y-9066429D01*
X8032143Y-9073571D01*
X8046429Y-9080714D01*
X8060714Y-9095000D01*
X8067857Y-9116429D01*
X8067857Y-9152143D01*
X8067857Y-8923571D02*
X8067857Y-9009286D01*
X8067857Y-8966429D02*
X7917857Y-8966429D01*
X7939286Y-8980714D01*
X7953571Y-8995000D01*
X7960714Y-9009286D01*
D12*
X8436667Y-6815238D02*
X8436667Y-6715238D01*
X8474762Y-6715238D01*
X8484286Y-6720000D01*
X8489048Y-6724762D01*
X8493810Y-6734286D01*
X8493810Y-6748571D01*
X8489048Y-6758095D01*
X8484286Y-6762857D01*
X8474762Y-6767619D01*
X8436667Y-6767619D01*
X8527143Y-6715238D02*
X8550952Y-6815238D01*
X8570000Y-6743809D01*
X8589048Y-6815238D01*
X8612857Y-6715238D01*
X8708095Y-6815238D02*
X8674762Y-6767619D01*
X8650952Y-6815238D02*
X8650952Y-6715238D01*
X8689048Y-6715238D01*
X8698572Y-6720000D01*
X8703333Y-6724762D01*
X8708095Y-6734286D01*
X8708095Y-6748571D01*
X8703333Y-6758095D01*
X8698572Y-6762857D01*
X8689048Y-6767619D01*
X8650952Y-6767619D01*
X9760000Y-6700000D02*
X9760000Y-6860000D01*
X11000000Y-6700000D02*
X9760000Y-6700000D01*
X11000000Y-6860000D02*
X11000000Y-6700000D01*
X10175238Y-6835714D02*
X10170476Y-6840476D01*
X10156191Y-6845238D01*
X10146667Y-6845238D01*
X10132381Y-6840476D01*
X10122857Y-6830952D01*
X10118095Y-6821429D01*
X10113333Y-6802381D01*
X10113333Y-6788095D01*
X10118095Y-6769048D01*
X10122857Y-6759524D01*
X10132381Y-6750000D01*
X10146667Y-6745238D01*
X10156191Y-6745238D01*
X10170476Y-6750000D01*
X10175238Y-6754762D01*
X10237143Y-6745238D02*
X10256191Y-6745238D01*
X10265714Y-6750000D01*
X10275238Y-6759524D01*
X10280000Y-6778571D01*
X10280000Y-6811905D01*
X10275238Y-6830952D01*
X10265714Y-6840476D01*
X10256191Y-6845238D01*
X10237143Y-6845238D01*
X10227619Y-6840476D01*
X10218095Y-6830952D01*
X10213333Y-6811905D01*
X10213333Y-6778571D01*
X10218095Y-6759524D01*
X10227619Y-6750000D01*
X10237143Y-6745238D01*
X10322857Y-6845238D02*
X10322857Y-6745238D01*
X10380000Y-6845238D01*
X10380000Y-6745238D01*
X10460952Y-6792857D02*
X10427619Y-6792857D01*
X10427619Y-6845238D02*
X10427619Y-6745238D01*
X10475238Y-6745238D01*
X10489524Y-6854762D02*
X10565714Y-6854762D01*
X10589524Y-6845238D02*
X10589524Y-6745238D01*
X10613333Y-6745238D01*
X10627619Y-6750000D01*
X10637143Y-6759524D01*
X10641905Y-6769048D01*
X10646667Y-6788095D01*
X10646667Y-6802381D01*
X10641905Y-6821429D01*
X10637143Y-6830952D01*
X10627619Y-6840476D01*
X10613333Y-6845238D01*
X10589524Y-6845238D01*
X10708571Y-6745238D02*
X10727619Y-6745238D01*
X10737143Y-6750000D01*
X10746667Y-6759524D01*
X10751429Y-6778571D01*
X10751429Y-6811905D01*
X10746667Y-6830952D01*
X10737143Y-6840476D01*
X10727619Y-6845238D01*
X10708571Y-6845238D01*
X10699048Y-6840476D01*
X10689524Y-6830952D01*
X10684762Y-6811905D01*
X10684762Y-6778571D01*
X10689524Y-6759524D01*
X10699048Y-6750000D01*
X10708571Y-6745238D01*
X10794286Y-6845238D02*
X10794286Y-6745238D01*
X10851429Y-6845238D01*
X10851429Y-6745238D01*
X10899048Y-6792857D02*
X10932381Y-6792857D01*
X10946667Y-6845238D02*
X10899048Y-6845238D01*
X10899048Y-6745238D01*
X10946667Y-6745238D01*
X14276586Y-11330000D02*
G75*
G03X14276586Y-11330000I-276586J0D01*
G01*
X8476586Y-11330000D02*
G75*
G03X8476586Y-11330000I-276586J0D01*
G01*
X8476586Y-6430000D02*
G75*
G03X8476586Y-6430000I-276586J0D01*
G01*
X13700000Y-6550000D02*
X13650000Y-6550000D01*
X13700000Y-6125000D02*
X13700000Y-6550000D01*
X12750000Y-6125000D02*
X13700000Y-6125000D01*
X12750000Y-6125000D02*
X12750000Y-6175000D01*
X12250000Y-6125000D02*
X12750000Y-6125000D01*
X12250000Y-6125000D02*
X12250000Y-6175000D01*
X10975000Y-6125000D02*
X12250000Y-6125000D01*
X8700000Y-6175000D02*
X8700000Y-6125000D01*
X10975000Y-6125000D02*
X10975000Y-6175000D01*
X10225000Y-6125000D02*
X10975000Y-6125000D01*
X10225000Y-6125000D02*
X10225000Y-6175000D01*
X9200000Y-6125000D02*
X10225000Y-6125000D01*
X9200000Y-6175000D02*
X9200000Y-6125000D01*
X8950000Y-6125000D02*
X8700000Y-6125000D01*
X8950000Y-6175000D02*
X8950000Y-6125000D01*
X13771548Y-6127500D02*
X13763929Y-6121786D01*
X13752500Y-6121786D01*
X13741071Y-6127500D01*
X13733452Y-6138929D01*
X13729643Y-6150357D01*
X13725833Y-6173214D01*
X13725833Y-6190357D01*
X13729643Y-6213214D01*
X13733452Y-6224643D01*
X13741071Y-6236071D01*
X13752500Y-6241786D01*
X13760119Y-6241786D01*
X13771548Y-6236071D01*
X13775357Y-6230357D01*
X13775357Y-6190357D01*
X13760119Y-6190357D01*
X13809643Y-6241786D02*
X13809643Y-6121786D01*
X13855357Y-6241786D01*
X13855357Y-6121786D01*
X13893452Y-6241786D02*
X13893452Y-6121786D01*
X13912500Y-6121786D01*
X13923929Y-6127500D01*
X13931548Y-6138929D01*
X13935357Y-6150357D01*
X13939167Y-6173214D01*
X13939167Y-6190357D01*
X13935357Y-6213214D01*
X13931548Y-6224643D01*
X13923929Y-6236071D01*
X13912500Y-6241786D01*
X13893452Y-6241786D01*
X8397143Y-6208571D02*
X8458095Y-6208571D01*
X8427619Y-6254286D02*
X8427619Y-6162857D01*
X8534286Y-6134286D02*
X8496191Y-6134286D01*
X8492381Y-6191429D01*
X8496191Y-6185714D01*
X8503810Y-6180000D01*
X8522857Y-6180000D01*
X8530476Y-6185714D01*
X8534286Y-6191429D01*
X8538095Y-6202857D01*
X8538095Y-6231429D01*
X8534286Y-6242857D01*
X8530476Y-6248571D01*
X8522857Y-6254286D01*
X8503810Y-6254286D01*
X8496191Y-6248571D01*
X8492381Y-6242857D01*
X8560952Y-6134286D02*
X8587619Y-6254286D01*
X8614286Y-6134286D01*
X9159048Y-8498571D02*
X9220000Y-8498571D01*
X9189524Y-8544286D02*
X9189524Y-8452857D01*
X9300000Y-8544286D02*
X9254286Y-8544286D01*
X9277143Y-8544286D02*
X9277143Y-8424286D01*
X9269524Y-8441429D01*
X9261905Y-8452857D01*
X9254286Y-8458571D01*
X9322857Y-8424286D02*
X9349524Y-8544286D01*
X9376191Y-8424286D01*
X9399048Y-8435714D02*
X9402857Y-8430000D01*
X9410476Y-8424286D01*
X9429524Y-8424286D01*
X9437143Y-8430000D01*
X9440952Y-8435714D01*
X9444762Y-8447143D01*
X9444762Y-8458571D01*
X9440952Y-8475714D01*
X9395238Y-8544286D01*
X9444762Y-8544286D01*
X9159048Y-7848571D02*
X9220000Y-7848571D01*
X9189524Y-7894286D02*
X9189524Y-7802857D01*
X9254286Y-7785714D02*
X9258095Y-7780000D01*
X9265714Y-7774286D01*
X9284762Y-7774286D01*
X9292381Y-7780000D01*
X9296191Y-7785714D01*
X9300000Y-7797143D01*
X9300000Y-7808571D01*
X9296191Y-7825714D01*
X9250476Y-7894286D01*
X9300000Y-7894286D01*
X9322857Y-7774286D02*
X9349524Y-7894286D01*
X9376191Y-7774286D01*
X9440952Y-7774286D02*
X9402857Y-7774286D01*
X9399048Y-7831429D01*
X9402857Y-7825714D01*
X9410476Y-7820000D01*
X9429524Y-7820000D01*
X9437143Y-7825714D01*
X9440952Y-7831429D01*
X9444762Y-7842857D01*
X9444762Y-7871429D01*
X9440952Y-7882857D01*
X9437143Y-7888571D01*
X9429524Y-7894286D01*
X9410476Y-7894286D01*
X9402857Y-7888571D01*
X9399048Y-7882857D01*
X9159048Y-7138571D02*
X9220000Y-7138571D01*
X9189524Y-7184286D02*
X9189524Y-7092857D01*
X9250476Y-7064286D02*
X9300000Y-7064286D01*
X9273333Y-7110000D01*
X9284762Y-7110000D01*
X9292381Y-7115714D01*
X9296191Y-7121429D01*
X9300000Y-7132857D01*
X9300000Y-7161429D01*
X9296191Y-7172857D01*
X9292381Y-7178571D01*
X9284762Y-7184286D01*
X9261905Y-7184286D01*
X9254286Y-7178571D01*
X9250476Y-7172857D01*
X9322857Y-7064286D02*
X9349524Y-7184286D01*
X9376191Y-7064286D01*
X9395238Y-7064286D02*
X9444762Y-7064286D01*
X9418095Y-7110000D01*
X9429524Y-7110000D01*
X9437143Y-7115714D01*
X9440952Y-7121429D01*
X9444762Y-7132857D01*
X9444762Y-7161429D01*
X9440952Y-7172857D01*
X9437143Y-7178571D01*
X9429524Y-7184286D01*
X9406667Y-7184286D01*
X9399048Y-7178571D01*
X9395238Y-7172857D01*
D13*
X9766429Y-11582857D02*
X9766429Y-11432857D01*
X9830714Y-11582857D02*
X9830714Y-11504286D01*
X9823571Y-11490000D01*
X9809286Y-11482857D01*
X9787857Y-11482857D01*
X9773571Y-11490000D01*
X9766429Y-11497143D01*
X9880714Y-11482857D02*
X9937857Y-11482857D01*
X9902143Y-11432857D02*
X9902143Y-11561429D01*
X9909286Y-11575714D01*
X9923571Y-11582857D01*
X9937857Y-11582857D01*
X9966429Y-11482857D02*
X10023571Y-11482857D01*
X9987857Y-11432857D02*
X9987857Y-11561429D01*
X9995000Y-11575714D01*
X10009286Y-11582857D01*
X10023571Y-11582857D01*
X10073571Y-11482857D02*
X10073571Y-11632857D01*
X10073571Y-11490000D02*
X10087857Y-11482857D01*
X10116429Y-11482857D01*
X10130714Y-11490000D01*
X10137857Y-11497143D01*
X10145000Y-11511429D01*
X10145000Y-11554286D01*
X10137857Y-11568571D01*
X10130714Y-11575714D01*
X10116429Y-11582857D01*
X10087857Y-11582857D01*
X10073571Y-11575714D01*
X10209286Y-11568571D02*
X10216429Y-11575714D01*
X10209286Y-11582857D01*
X10202143Y-11575714D01*
X10209286Y-11568571D01*
X10209286Y-11582857D01*
X10209286Y-11490000D02*
X10216429Y-11497143D01*
X10209286Y-11504286D01*
X10202143Y-11497143D01*
X10209286Y-11490000D01*
X10209286Y-11504286D01*
X10387857Y-11425714D02*
X10259286Y-11618571D01*
X10545000Y-11425714D02*
X10416429Y-11618571D01*
X10659286Y-11482857D02*
X10659286Y-11604286D01*
X10652143Y-11618571D01*
X10645000Y-11625714D01*
X10630714Y-11632857D01*
X10609286Y-11632857D01*
X10595000Y-11625714D01*
X10659286Y-11575714D02*
X10645000Y-11582857D01*
X10616429Y-11582857D01*
X10602143Y-11575714D01*
X10595000Y-11568571D01*
X10587857Y-11554286D01*
X10587857Y-11511429D01*
X10595000Y-11497143D01*
X10602143Y-11490000D01*
X10616429Y-11482857D01*
X10645000Y-11482857D01*
X10659286Y-11490000D01*
X10787857Y-11575714D02*
X10773572Y-11582857D01*
X10745000Y-11582857D01*
X10730714Y-11575714D01*
X10723572Y-11561429D01*
X10723572Y-11504286D01*
X10730714Y-11490000D01*
X10745000Y-11482857D01*
X10773572Y-11482857D01*
X10787857Y-11490000D01*
X10795000Y-11504286D01*
X10795000Y-11518571D01*
X10723572Y-11532857D01*
X10859286Y-11482857D02*
X10859286Y-11582857D01*
X10859286Y-11497143D02*
X10866429Y-11490000D01*
X10880714Y-11482857D01*
X10902143Y-11482857D01*
X10916429Y-11490000D01*
X10923572Y-11504286D01*
X10923572Y-11582857D01*
X10995000Y-11582857D02*
X10995000Y-11482857D01*
X10995000Y-11511429D02*
X11002143Y-11497143D01*
X11009286Y-11490000D01*
X11023572Y-11482857D01*
X11037857Y-11482857D01*
X11087857Y-11482857D02*
X11087857Y-11582857D01*
X11087857Y-11497143D02*
X11095000Y-11490000D01*
X11109286Y-11482857D01*
X11130714Y-11482857D01*
X11145000Y-11490000D01*
X11152143Y-11504286D01*
X11152143Y-11582857D01*
X11287857Y-11582857D02*
X11287857Y-11432857D01*
X11287857Y-11575714D02*
X11273571Y-11582857D01*
X11245000Y-11582857D01*
X11230714Y-11575714D01*
X11223571Y-11568571D01*
X11216429Y-11554286D01*
X11216429Y-11511429D01*
X11223571Y-11497143D01*
X11230714Y-11490000D01*
X11245000Y-11482857D01*
X11273571Y-11482857D01*
X11287857Y-11490000D01*
X11359286Y-11568571D02*
X11366429Y-11575714D01*
X11359286Y-11582857D01*
X11352143Y-11575714D01*
X11359286Y-11568571D01*
X11359286Y-11582857D01*
X11495000Y-11575714D02*
X11480714Y-11582857D01*
X11452143Y-11582857D01*
X11437857Y-11575714D01*
X11430714Y-11568571D01*
X11423571Y-11554286D01*
X11423571Y-11511429D01*
X11430714Y-11497143D01*
X11437857Y-11490000D01*
X11452143Y-11482857D01*
X11480714Y-11482857D01*
X11495000Y-11490000D01*
X11580714Y-11582857D02*
X11566429Y-11575714D01*
X11559286Y-11568571D01*
X11552143Y-11554286D01*
X11552143Y-11511429D01*
X11559286Y-11497143D01*
X11566429Y-11490000D01*
X11580714Y-11482857D01*
X11602143Y-11482857D01*
X11616429Y-11490000D01*
X11623571Y-11497143D01*
X11630714Y-11511429D01*
X11630714Y-11554286D01*
X11623571Y-11568571D01*
X11616429Y-11575714D01*
X11602143Y-11582857D01*
X11580714Y-11582857D01*
X11695000Y-11582857D02*
X11695000Y-11482857D01*
X11695000Y-11497143D02*
X11702143Y-11490000D01*
X11716429Y-11482857D01*
X11737857Y-11482857D01*
X11752143Y-11490000D01*
X11759286Y-11504286D01*
X11759286Y-11582857D01*
X11759286Y-11504286D02*
X11766429Y-11490000D01*
X11780714Y-11482857D01*
X11802143Y-11482857D01*
X11816429Y-11490000D01*
X11823571Y-11504286D01*
X11823571Y-11582857D01*
X13841429Y-9855714D02*
X13841429Y-9787143D01*
X13961429Y-9830000D02*
X13807143Y-9830000D01*
X13790000Y-9821428D01*
X13781429Y-9804286D01*
X13781429Y-9787143D01*
X13961429Y-9727143D02*
X13841429Y-9727143D01*
X13781429Y-9727143D02*
X13790000Y-9735714D01*
X13798571Y-9727143D01*
X13790000Y-9718571D01*
X13781429Y-9727143D01*
X13798571Y-9727143D01*
X13841429Y-9564286D02*
X13987143Y-9564286D01*
X14004286Y-9572857D01*
X14012857Y-9581429D01*
X14021429Y-9598571D01*
X14021429Y-9624286D01*
X14012857Y-9641429D01*
X13952857Y-9564286D02*
X13961429Y-9581429D01*
X13961429Y-9615714D01*
X13952857Y-9632857D01*
X13944286Y-9641429D01*
X13927143Y-9650000D01*
X13875714Y-9650000D01*
X13858571Y-9641429D01*
X13850000Y-9632857D01*
X13841429Y-9615714D01*
X13841429Y-9581429D01*
X13850000Y-9564286D01*
X13961429Y-9401429D02*
X13867143Y-9401429D01*
X13850000Y-9410000D01*
X13841429Y-9427143D01*
X13841429Y-9461429D01*
X13850000Y-9478571D01*
X13952857Y-9401429D02*
X13961429Y-9418571D01*
X13961429Y-9461429D01*
X13952857Y-9478571D01*
X13935714Y-9487143D01*
X13918571Y-9487143D01*
X13901429Y-9478571D01*
X13892857Y-9461429D01*
X13892857Y-9418571D01*
X13884286Y-9401429D01*
X13892857Y-9315714D02*
X13892857Y-9178571D01*
X13841429Y-9092857D02*
X14021429Y-9092857D01*
X13850000Y-9092857D02*
X13841429Y-9075714D01*
X13841429Y-9041429D01*
X13850000Y-9024286D01*
X13858571Y-9015714D01*
X13875714Y-9007143D01*
X13927143Y-9007143D01*
X13944286Y-9015714D01*
X13952857Y-9024286D01*
X13961429Y-9041429D01*
X13961429Y-9075714D01*
X13952857Y-9092857D01*
X13961429Y-8930000D02*
X13841429Y-8930000D01*
X13781429Y-8930000D02*
X13790000Y-8938572D01*
X13798571Y-8930000D01*
X13790000Y-8921429D01*
X13781429Y-8930000D01*
X13798571Y-8930000D01*
X14077857Y-10135714D02*
X14077857Y-10121428D01*
X14085000Y-10107143D01*
X14092143Y-10100000D01*
X14106429Y-10092857D01*
X14135000Y-10085714D01*
X14170714Y-10085714D01*
X14199286Y-10092857D01*
X14213571Y-10100000D01*
X14220714Y-10107143D01*
X14227857Y-10121428D01*
X14227857Y-10135714D01*
X14220714Y-10150000D01*
X14213571Y-10157143D01*
X14199286Y-10164286D01*
X14170714Y-10171428D01*
X14135000Y-10171428D01*
X14106429Y-10164286D01*
X14092143Y-10157143D01*
X14085000Y-10150000D01*
X14077857Y-10135714D01*
X14077857Y-10035714D02*
X14077857Y-9935714D01*
X14227857Y-10000000D01*
X14220714Y-9821429D02*
X14227857Y-9835714D01*
X14227857Y-9864286D01*
X14220714Y-9878571D01*
X14206429Y-9885714D01*
X14149286Y-9885714D01*
X14135000Y-9878571D01*
X14127857Y-9864286D01*
X14127857Y-9835714D01*
X14135000Y-9821429D01*
X14149286Y-9814286D01*
X14163571Y-9814286D01*
X14177857Y-9885714D01*
X14092143Y-9757143D02*
X14085000Y-9750000D01*
X14077857Y-9735714D01*
X14077857Y-9700000D01*
X14085000Y-9685714D01*
X14092143Y-9678571D01*
X14106429Y-9671429D01*
X14120714Y-9671429D01*
X14142143Y-9678571D01*
X14227857Y-9764286D01*
X14227857Y-9671429D01*
X14077857Y-9578571D02*
X14077857Y-9564286D01*
X14085000Y-9550000D01*
X14092143Y-9542857D01*
X14106429Y-9535714D01*
X14135000Y-9528571D01*
X14170714Y-9528571D01*
X14199286Y-9535714D01*
X14213571Y-9542857D01*
X14220714Y-9550000D01*
X14227857Y-9564286D01*
X14227857Y-9578571D01*
X14220714Y-9592857D01*
X14213571Y-9600000D01*
X14199286Y-9607143D01*
X14170714Y-9614286D01*
X14135000Y-9614286D01*
X14106429Y-9607143D01*
X14092143Y-9600000D01*
X14085000Y-9592857D01*
X14077857Y-9578571D01*
X14077857Y-9435714D02*
X14077857Y-9421429D01*
X14085000Y-9407143D01*
X14092143Y-9400000D01*
X14106429Y-9392857D01*
X14135000Y-9385714D01*
X14170714Y-9385714D01*
X14199286Y-9392857D01*
X14213571Y-9400000D01*
X14220714Y-9407143D01*
X14227857Y-9421429D01*
X14227857Y-9435714D01*
X14220714Y-9450000D01*
X14213571Y-9457143D01*
X14199286Y-9464286D01*
X14170714Y-9471429D01*
X14135000Y-9471429D01*
X14106429Y-9464286D01*
X14092143Y-9457143D01*
X14085000Y-9450000D01*
X14077857Y-9435714D01*
X14077857Y-9292857D02*
X14077857Y-9278572D01*
X14085000Y-9264286D01*
X14092143Y-9257143D01*
X14106429Y-9250000D01*
X14135000Y-9242857D01*
X14170714Y-9242857D01*
X14199286Y-9250000D01*
X14213571Y-9257143D01*
X14220714Y-9264286D01*
X14227857Y-9278572D01*
X14227857Y-9292857D01*
X14220714Y-9307143D01*
X14213571Y-9314286D01*
X14199286Y-9321429D01*
X14170714Y-9328572D01*
X14135000Y-9328572D01*
X14106429Y-9321429D01*
X14092143Y-9314286D01*
X14085000Y-9307143D01*
X14077857Y-9292857D01*
X14077857Y-9192857D02*
X14077857Y-9100000D01*
X14135000Y-9150000D01*
X14135000Y-9128572D01*
X14142143Y-9114286D01*
X14149286Y-9107143D01*
X14163571Y-9100000D01*
X14199286Y-9100000D01*
X14213571Y-9107143D01*
X14220714Y-9114286D01*
X14227857Y-9128572D01*
X14227857Y-9171429D01*
X14220714Y-9185714D01*
X14213571Y-9192857D01*
X14170714Y-9035714D02*
X14170714Y-8921429D01*
X14077857Y-8821429D02*
X14077857Y-8807143D01*
X14085000Y-8792857D01*
X14092143Y-8785714D01*
X14106429Y-8778572D01*
X14135000Y-8771429D01*
X14170714Y-8771429D01*
X14199286Y-8778572D01*
X14213571Y-8785714D01*
X14220714Y-8792857D01*
X14227857Y-8807143D01*
X14227857Y-8821429D01*
X14220714Y-8835714D01*
X14213571Y-8842857D01*
X14199286Y-8850000D01*
X14170714Y-8857143D01*
X14135000Y-8857143D01*
X14106429Y-8850000D01*
X14092143Y-8842857D01*
X14085000Y-8835714D01*
X14077857Y-8821429D01*
X14092143Y-8714286D02*
X14085000Y-8707143D01*
X14077857Y-8692857D01*
X14077857Y-8657143D01*
X14085000Y-8642857D01*
X14092143Y-8635714D01*
X14106429Y-8628572D01*
X14120714Y-8628572D01*
X14142143Y-8635714D01*
X14227857Y-8721429D01*
X14227857Y-8628572D01*
D14*
X8990000Y-6830000D02*
X8990000Y-6730000D01*
X8990000Y-6730000D02*
X8780000Y-6730000D01*
X8990000Y-6830000D02*
X8780000Y-6830000D01*
X10050000Y-6850000D02*
X10050000Y-6750000D01*
X10050000Y-6750000D02*
X9840000Y-6750000D01*
X10050000Y-6850000D02*
X9840000Y-6850000D01*
D11*
X12047016Y-6955000D02*
G75*
G03X12047016Y-6955000I-32016J0D01*
G01*
D15*
X12017500Y-7032500D02*
X11920000Y-7032500D01*
X12017500Y-9067500D02*
X11912500Y-9067500D01*
X9982500Y-9067500D02*
X10087500Y-9067500D01*
X9982500Y-7032500D02*
X10087500Y-7032500D01*
X12017500Y-7032500D02*
X12017500Y-7137500D01*
X9982500Y-7032500D02*
X9982500Y-7137500D01*
X9982500Y-9067500D02*
X9982500Y-8962500D01*
X12017500Y-9067500D02*
X12017500Y-8962500D01*
X11920000Y-7032500D02*
X11920000Y-6902500D01*
D11*
X13599500Y-8035000D02*
X13599500Y-7895000D01*
D15*
X13627000Y-7892500D02*
X13632000Y-7892500D01*
X13627000Y-7477500D02*
X13641500Y-7477500D01*
X14142000Y-7477500D02*
X14127500Y-7477500D01*
X14142000Y-7892500D02*
X14127500Y-7892500D01*
X13627000Y-7892500D02*
X13627000Y-7477500D01*
X14142000Y-7892500D02*
X14142000Y-7477500D01*
X13632000Y-7892500D02*
X13632000Y-8032500D01*
D14*
X8600000Y-8982000D02*
X8700000Y-8982000D01*
X8700000Y-9118000D02*
X8600000Y-9118000D01*
D15*
X8800000Y-10905000D02*
G75*
G03X8800000Y-10905000I-140000J0D01*
G01*
X9430000Y-11280000D02*
X9655000Y-11180000D01*
X9280000Y-11180000D02*
X9430000Y-11255000D01*
X9280000Y-11005000D02*
X9280000Y-11205000D01*
X9655000Y-11180000D02*
X9280000Y-11005000D01*
X9655000Y-11480000D02*
X9655000Y-11230000D01*
X9280000Y-11655000D02*
X9655000Y-11480000D01*
X9280000Y-11405000D02*
X9280000Y-11655000D01*
X9655000Y-11230000D02*
X9280000Y-11405000D01*
D16*
G36*
X9655000Y-11230000D02*
X9655000Y-11480000D01*
X9280000Y-11655000D01*
X9280000Y-11405000D01*
X9655000Y-11230000D01*
X9655000Y-11230000D01*
G37*
X9655000Y-11230000D02*
X9655000Y-11480000D01*
X9280000Y-11655000D01*
X9280000Y-11405000D01*
X9655000Y-11230000D01*
G36*
X9430000Y-11280000D02*
X9280000Y-11205000D01*
X9280000Y-11005000D01*
X9655000Y-11180000D01*
X9430000Y-11280000D01*
X9430000Y-11280000D01*
G37*
X9430000Y-11280000D02*
X9280000Y-11205000D01*
X9280000Y-11005000D01*
X9655000Y-11180000D01*
X9430000Y-11280000D01*
D15*
X9430000Y-11280000D02*
X9280000Y-11205000D01*
D14*
X12010000Y-6762000D02*
X12110000Y-6762000D01*
X12110000Y-6898000D02*
X12010000Y-6898000D01*
X12398000Y-8965000D02*
X12398000Y-9065000D01*
X12262000Y-9065000D02*
X12262000Y-8965000D01*
X9818000Y-7010000D02*
X9818000Y-7110000D01*
X9682000Y-7110000D02*
X9682000Y-7010000D01*
X10208000Y-9410000D02*
X10208000Y-9510000D01*
X10072000Y-9510000D02*
X10072000Y-9410000D01*
X11142000Y-11080000D02*
X11142000Y-10980000D01*
X11278000Y-10980000D02*
X11278000Y-11080000D01*
X9587000Y-8295000D02*
X9587000Y-8195000D01*
X9723000Y-8195000D02*
X9723000Y-8295000D01*
X13860000Y-10598000D02*
X13760000Y-10598000D01*
X13760000Y-10462000D02*
X13860000Y-10462000D01*
X10478000Y-9600000D02*
X10478000Y-9700000D01*
X10342000Y-9700000D02*
X10342000Y-9600000D01*
X11830000Y-10918000D02*
X11730000Y-10918000D01*
X11730000Y-10782000D02*
X11830000Y-10782000D01*
X9065000Y-8038000D02*
X8945000Y-8038000D01*
X8945000Y-7862000D02*
X9065000Y-7862000D01*
X9060000Y-8738000D02*
X8940000Y-8738000D01*
X8940000Y-8562000D02*
X9060000Y-8562000D01*
X9060000Y-7338000D02*
X8940000Y-7338000D01*
X8940000Y-7162000D02*
X9060000Y-7162000D01*
X8315000Y-8040000D02*
X8385000Y-8040000D01*
X8385000Y-8160000D02*
X8315000Y-8160000D01*
X8315000Y-8740000D02*
X8385000Y-8740000D01*
X8385000Y-8860000D02*
X8315000Y-8860000D01*
X8315000Y-7340000D02*
X8385000Y-7340000D01*
X8385000Y-7460000D02*
X8315000Y-7460000D01*
X8315000Y-7540000D02*
X8385000Y-7540000D01*
X8385000Y-7660000D02*
X8315000Y-7660000D01*
X8315000Y-8240000D02*
X8385000Y-8240000D01*
X8385000Y-8360000D02*
X8315000Y-8360000D01*
X8315000Y-6840000D02*
X8385000Y-6840000D01*
X8385000Y-6960000D02*
X8315000Y-6960000D01*
X8867000Y-7567000D02*
X8867000Y-7833000D01*
X8873000Y-7567000D02*
X8867000Y-7567000D01*
X8873000Y-7833000D02*
X8867000Y-7833000D01*
X8873000Y-7567000D02*
X8873000Y-7833000D01*
X9000000Y-7567000D02*
X9133000Y-7567000D01*
X9133000Y-7567000D02*
X9133000Y-7700000D01*
X8867000Y-8267000D02*
X8867000Y-8533000D01*
X8873000Y-8267000D02*
X8867000Y-8267000D01*
X8873000Y-8533000D02*
X8867000Y-8533000D01*
X8873000Y-8267000D02*
X8873000Y-8533000D01*
X9000000Y-8267000D02*
X9133000Y-8267000D01*
X9133000Y-8267000D02*
X9133000Y-8400000D01*
X8867000Y-6867000D02*
X8867000Y-7133000D01*
X8873000Y-6867000D02*
X8867000Y-6867000D01*
X8873000Y-7133000D02*
X8867000Y-7133000D01*
X8873000Y-6867000D02*
X8873000Y-7133000D01*
X9000000Y-6867000D02*
X9133000Y-6867000D01*
X9133000Y-6867000D02*
X9133000Y-7000000D01*
X14313000Y-8503000D02*
X14313000Y-8237000D01*
X14053000Y-8503000D02*
X14313000Y-8503000D01*
X14053000Y-8237000D02*
X14313000Y-8237000D01*
X14053000Y-8503000D02*
X14053000Y-8237000D01*
X13926000Y-8503000D02*
X13793000Y-8503000D01*
X13793000Y-8503000D02*
X13793000Y-8370000D01*
X11520000Y-10818000D02*
X11420000Y-10818000D01*
X11420000Y-10682000D02*
X11520000Y-10682000D01*
X10832000Y-11080000D02*
X10832000Y-10980000D01*
X10968000Y-10980000D02*
X10968000Y-11080000D01*
X10682000Y-11080000D02*
X10682000Y-10980000D01*
X10818000Y-10980000D02*
X10818000Y-11080000D01*
X10532000Y-11080000D02*
X10532000Y-10980000D01*
X10668000Y-10980000D02*
X10668000Y-11080000D01*
X11118000Y-10980000D02*
X11118000Y-11080000D01*
X10982000Y-11080000D02*
X10982000Y-10980000D01*
X10362000Y-11080000D02*
X10362000Y-10980000D01*
X10498000Y-10980000D02*
X10498000Y-11080000D01*
X11302000Y-11080000D02*
X11302000Y-10980000D01*
X11438000Y-10980000D02*
X11438000Y-11080000D01*
X11800000Y-9758000D02*
X11700000Y-9758000D01*
X11700000Y-9622000D02*
X11800000Y-9622000D01*
X9575000Y-6732000D02*
X9675000Y-6732000D01*
X9675000Y-6868000D02*
X9575000Y-6868000D01*
X8600000Y-9182000D02*
X8700000Y-9182000D01*
X8700000Y-9318000D02*
X8600000Y-9318000D01*
X9250000Y-9432000D02*
X9350000Y-9432000D01*
X9350000Y-9568000D02*
X9250000Y-9568000D01*
X9250000Y-9282000D02*
X9350000Y-9282000D01*
X9350000Y-9418000D02*
X9250000Y-9418000D01*
X9250000Y-9132000D02*
X9350000Y-9132000D01*
X9350000Y-9268000D02*
X9250000Y-9268000D01*
X9090000Y-6712000D02*
X9190000Y-6712000D01*
X9190000Y-6848000D02*
X9090000Y-6848000D01*
X9185000Y-10782000D02*
X9285000Y-10782000D01*
X9285000Y-10918000D02*
X9185000Y-10918000D01*
X9072500Y-10760000D02*
X9387500Y-10760000D01*
X9387500Y-10760000D02*
X9387500Y-10380000D01*
D10*
X13750000Y-8315000D02*
G75*
G03X13750000Y-8315000I-5000J0D01*
G01*
X13660000Y-8300000D02*
X13660000Y-8160000D01*
X13660000Y-8160000D02*
X13720000Y-8160000D01*
X13720000Y-8160000D02*
X13720000Y-8300000D01*
X13720000Y-8300000D02*
X13660000Y-8300000D01*
D14*
X12624500Y-8932000D02*
X12624500Y-6846000D01*
X12624500Y-6846000D02*
X13559500Y-6846000D01*
X13559500Y-6846000D02*
X13559500Y-8932000D01*
X13559500Y-8932000D02*
X12624500Y-8932000D01*
X13584500Y-8957000D02*
X13584500Y-8703000D01*
X13584500Y-8957000D02*
X13330500Y-8957000D01*
D15*
X9772500Y-10167500D02*
X9762500Y-10167500D01*
X9772500Y-10632500D02*
X9752500Y-10632500D01*
X9447500Y-10632500D02*
X9467500Y-10632500D01*
X9447500Y-10167500D02*
X9467500Y-10167500D01*
X9772500Y-10167500D02*
X9772500Y-10632500D01*
X9447500Y-10167500D02*
X9447500Y-10632500D01*
X9762500Y-10167500D02*
X9762500Y-10032500D01*
D14*
X8760000Y-10000000D02*
X8760000Y-9500000D01*
X8760000Y-10000000D02*
X8140000Y-10000000D01*
X8140000Y-10000000D02*
X8140000Y-9500000D01*
X8140000Y-9500000D02*
X8760000Y-9500000D01*
X8760000Y-10600000D02*
X8760000Y-10100000D01*
X8760000Y-10600000D02*
X8140000Y-10600000D01*
X8140000Y-10600000D02*
X8140000Y-10100000D01*
X8140000Y-10100000D02*
X8760000Y-10100000D01*
D12*
X8240000Y-9000000D02*
X8240000Y-9080000D01*
X8240000Y-9300000D02*
X8240000Y-9230000D01*
X8240000Y-9300000D02*
X8350000Y-9300000D01*
X8240000Y-9000000D02*
X8350000Y-9000000D01*
X8370000Y-9170000D02*
X8370000Y-9120000D01*
D14*
X8350000Y-8657000D02*
X8250000Y-8657000D01*
X8150000Y-8433000D02*
X8350000Y-8433000D01*
X8350000Y-7962000D02*
X8250000Y-7962000D01*
X8150000Y-7738000D02*
X8350000Y-7738000D01*
X8350000Y-7262000D02*
X8250000Y-7262000D01*
X8150000Y-7038000D02*
X8350000Y-7038000D01*
X8800000Y-7040000D02*
X8810000Y-7040000D01*
X8810000Y-7040000D02*
X8810000Y-7340000D01*
X8810000Y-7340000D02*
X8800000Y-7340000D01*
X8500000Y-7040000D02*
X8490000Y-7040000D01*
X8490000Y-7040000D02*
X8490000Y-7340000D01*
X8490000Y-7340000D02*
X8500000Y-7340000D01*
X8800000Y-7740000D02*
X8810000Y-7740000D01*
X8810000Y-7740000D02*
X8810000Y-8040000D01*
X8810000Y-8040000D02*
X8800000Y-8040000D01*
X8500000Y-7740000D02*
X8490000Y-7740000D01*
X8490000Y-7740000D02*
X8490000Y-8040000D01*
X8490000Y-8040000D02*
X8500000Y-8040000D01*
X8800000Y-8430000D02*
X8810000Y-8430000D01*
X8810000Y-8430000D02*
X8810000Y-8730000D01*
X8810000Y-8730000D02*
X8800000Y-8730000D01*
X8500000Y-8430000D02*
X8490000Y-8430000D01*
X8490000Y-8430000D02*
X8490000Y-8730000D01*
X8490000Y-8730000D02*
X8500000Y-8730000D01*
D12*
X8890000Y-9580000D02*
X8890000Y-9730000D01*
X9080000Y-9580000D02*
X8890000Y-9580000D01*
X8920000Y-9610000D02*
X9400000Y-9610000D01*
X8920000Y-9910000D02*
X9400000Y-9910000D01*
X8920000Y-9610000D02*
X8920000Y-9910000D01*
X9400000Y-9610000D02*
X9400000Y-9910000D01*
D17*
X11503000Y-10540000D02*
G75*
G03X11503000Y-10540000I-12500J0D01*
G01*
D12*
X11420000Y-10582000D02*
X11420000Y-10640000D01*
X11420000Y-10640000D02*
X11362000Y-10640000D01*
X11420000Y-9898000D02*
X11420000Y-9840000D01*
X11420000Y-9840000D02*
X11362000Y-9840000D01*
X10620000Y-9898000D02*
X10620000Y-9840000D01*
X10620000Y-9840000D02*
X10678000Y-9840000D01*
X10620000Y-10582000D02*
X10620000Y-10640000D01*
X10620000Y-10640000D02*
X10678000Y-10640000D01*
D10*
X13650000Y-10500000D02*
X13650000Y-10490000D01*
X13650000Y-10230000D02*
X13650000Y-9270000D01*
X13650000Y-9270000D02*
X11890000Y-9270000D01*
X11890000Y-9270000D02*
X11890000Y-10230000D01*
X13650000Y-10500000D02*
X13650000Y-10520000D01*
X13650000Y-10520000D02*
X13650000Y-11680000D01*
X13650000Y-11680000D02*
X11890000Y-11680000D01*
X11890000Y-11680000D02*
X11890000Y-10490000D01*
D12*
X8635238Y-6864286D02*
X8661905Y-6984286D01*
X8688572Y-6864286D01*
X8715238Y-6984286D02*
X8715238Y-6864286D01*
X8734286Y-6864286D01*
X8745714Y-6870000D01*
X8753333Y-6881429D01*
X8757143Y-6892857D01*
X8760952Y-6915714D01*
X8760952Y-6932857D01*
X8757143Y-6955714D01*
X8753333Y-6967143D01*
X8745714Y-6978571D01*
X8734286Y-6984286D01*
X8715238Y-6984286D01*
X8829524Y-6864286D02*
X8814286Y-6864286D01*
X8806667Y-6870000D01*
X8802857Y-6875714D01*
X8795238Y-6892857D01*
X8791429Y-6915714D01*
X8791429Y-6961429D01*
X8795238Y-6972857D01*
X8799048Y-6978571D01*
X8806667Y-6984286D01*
X8821905Y-6984286D01*
X8829524Y-6978571D01*
X8833333Y-6972857D01*
X8837143Y-6961429D01*
X8837143Y-6932857D01*
X8833333Y-6921429D01*
X8829524Y-6915714D01*
X8821905Y-6910000D01*
X8806667Y-6910000D01*
X8799048Y-6915714D01*
X8795238Y-6921429D01*
X8791429Y-6932857D01*
X9865238Y-6874286D02*
X9891905Y-6994286D01*
X9918572Y-6874286D01*
X9945238Y-6994286D02*
X9945238Y-6874286D01*
X9964286Y-6874286D01*
X9975714Y-6880000D01*
X9983333Y-6891429D01*
X9987143Y-6902857D01*
X9990952Y-6925714D01*
X9990952Y-6942857D01*
X9987143Y-6965714D01*
X9983333Y-6977143D01*
X9975714Y-6988571D01*
X9964286Y-6994286D01*
X9945238Y-6994286D01*
X10067143Y-6994286D02*
X10021429Y-6994286D01*
X10044286Y-6994286D02*
X10044286Y-6874286D01*
X10036667Y-6891429D01*
X10029048Y-6902857D01*
X10021429Y-6908571D01*
X12099048Y-6964286D02*
X12099048Y-7061429D01*
X12102857Y-7072857D01*
X12106667Y-7078571D01*
X12114286Y-7084286D01*
X12129524Y-7084286D01*
X12137143Y-7078571D01*
X12140952Y-7072857D01*
X12144762Y-7061429D01*
X12144762Y-6964286D01*
X12220952Y-6964286D02*
X12182857Y-6964286D01*
X12179048Y-7021429D01*
X12182857Y-7015714D01*
X12190476Y-7010000D01*
X12209524Y-7010000D01*
X12217143Y-7015714D01*
X12220952Y-7021429D01*
X12224762Y-7032857D01*
X12224762Y-7061429D01*
X12220952Y-7072857D01*
X12217143Y-7078571D01*
X12209524Y-7084286D01*
X12190476Y-7084286D01*
X12182857Y-7078571D01*
X12179048Y-7072857D01*
X14169048Y-7344286D02*
X14169048Y-7441429D01*
X14172857Y-7452857D01*
X14176667Y-7458571D01*
X14184286Y-7464286D01*
X14199524Y-7464286D01*
X14207143Y-7458571D01*
X14210952Y-7452857D01*
X14214762Y-7441429D01*
X14214762Y-7344286D01*
X14294762Y-7464286D02*
X14249048Y-7464286D01*
X14271905Y-7464286D02*
X14271905Y-7344286D01*
X14264286Y-7361429D01*
X14256667Y-7372857D01*
X14249048Y-7378571D01*
X8838571Y-9104286D02*
X8811905Y-9047143D01*
X8792857Y-9104286D02*
X8792857Y-8984286D01*
X8823333Y-8984286D01*
X8830952Y-8990000D01*
X8834762Y-8995714D01*
X8838571Y-9007143D01*
X8838571Y-9024286D01*
X8834762Y-9035714D01*
X8830952Y-9041429D01*
X8823333Y-9047143D01*
X8792857Y-9047143D01*
X8907143Y-9024286D02*
X8907143Y-9104286D01*
X8888095Y-8978571D02*
X8869048Y-9064286D01*
X8918571Y-9064286D01*
X8941429Y-8984286D02*
X8990952Y-8984286D01*
X8964286Y-9030000D01*
X8975714Y-9030000D01*
X8983333Y-9035714D01*
X8987143Y-9041429D01*
X8990952Y-9052857D01*
X8990952Y-9081429D01*
X8987143Y-9092857D01*
X8983333Y-9098571D01*
X8975714Y-9104286D01*
X8952857Y-9104286D01*
X8945238Y-9098571D01*
X8941429Y-9092857D01*
X8865238Y-10764286D02*
X8865238Y-10850000D01*
X8861429Y-10867143D01*
X8853810Y-10878571D01*
X8842381Y-10884286D01*
X8834762Y-10884286D01*
X8945238Y-10884286D02*
X8899524Y-10884286D01*
X8922381Y-10884286D02*
X8922381Y-10764286D01*
X8914762Y-10781429D01*
X8907143Y-10792857D01*
X8899524Y-10798571D01*
X8994762Y-10764286D02*
X9002381Y-10764286D01*
X9010000Y-10770000D01*
X9013810Y-10775714D01*
X9017619Y-10787143D01*
X9021429Y-10810000D01*
X9021429Y-10838571D01*
X9017619Y-10861429D01*
X9013810Y-10872857D01*
X9010000Y-10878571D01*
X9002381Y-10884286D01*
X8994762Y-10884286D01*
X8987143Y-10878571D01*
X8983333Y-10872857D01*
X8979524Y-10861429D01*
X8975714Y-10838571D01*
X8975714Y-10810000D01*
X8979524Y-10787143D01*
X8983333Y-10775714D01*
X8987143Y-10770000D01*
X8994762Y-10764286D01*
X12228571Y-6884286D02*
X12190476Y-6884286D01*
X12190476Y-6764286D01*
X12297143Y-6884286D02*
X12251429Y-6884286D01*
X12274286Y-6884286D02*
X12274286Y-6764286D01*
X12266667Y-6781429D01*
X12259048Y-6792857D01*
X12251429Y-6798571D01*
X12365714Y-6764286D02*
X12350476Y-6764286D01*
X12342857Y-6770000D01*
X12339048Y-6775714D01*
X12331429Y-6792857D01*
X12327619Y-6815714D01*
X12327619Y-6861429D01*
X12331429Y-6872857D01*
X12335238Y-6878571D01*
X12342857Y-6884286D01*
X12358095Y-6884286D01*
X12365714Y-6878571D01*
X12369524Y-6872857D01*
X12373333Y-6861429D01*
X12373333Y-6832857D01*
X12369524Y-6821429D01*
X12365714Y-6815714D01*
X12358095Y-6810000D01*
X12342857Y-6810000D01*
X12335238Y-6815714D01*
X12331429Y-6821429D01*
X12327619Y-6832857D01*
X12268571Y-9254286D02*
X12230476Y-9254286D01*
X12230476Y-9134286D01*
X12337143Y-9254286D02*
X12291429Y-9254286D01*
X12314286Y-9254286D02*
X12314286Y-9134286D01*
X12306667Y-9151429D01*
X12299048Y-9162857D01*
X12291429Y-9168571D01*
X12409524Y-9134286D02*
X12371429Y-9134286D01*
X12367619Y-9191429D01*
X12371429Y-9185714D01*
X12379048Y-9180000D01*
X12398095Y-9180000D01*
X12405714Y-9185714D01*
X12409524Y-9191429D01*
X12413333Y-9202857D01*
X12413333Y-9231429D01*
X12409524Y-9242857D01*
X12405714Y-9248571D01*
X12398095Y-9254286D01*
X12379048Y-9254286D01*
X12371429Y-9248571D01*
X12367619Y-9242857D01*
X9648572Y-7314286D02*
X9610476Y-7314286D01*
X9610476Y-7194286D01*
X9717143Y-7314286D02*
X9671429Y-7314286D01*
X9694286Y-7314286D02*
X9694286Y-7194286D01*
X9686667Y-7211429D01*
X9679048Y-7222857D01*
X9671429Y-7228571D01*
X9785714Y-7234286D02*
X9785714Y-7314286D01*
X9766667Y-7188571D02*
X9747619Y-7274286D01*
X9797143Y-7274286D01*
X10078572Y-9714286D02*
X10040476Y-9714286D01*
X10040476Y-9594286D01*
X10147143Y-9714286D02*
X10101429Y-9714286D01*
X10124286Y-9714286D02*
X10124286Y-9594286D01*
X10116667Y-9611429D01*
X10109048Y-9622857D01*
X10101429Y-9628571D01*
X10173810Y-9594286D02*
X10223333Y-9594286D01*
X10196667Y-9640000D01*
X10208095Y-9640000D01*
X10215714Y-9645714D01*
X10219524Y-9651429D01*
X10223333Y-9662857D01*
X10223333Y-9691429D01*
X10219524Y-9702857D01*
X10215714Y-9708571D01*
X10208095Y-9714286D01*
X10185238Y-9714286D01*
X10177619Y-9708571D01*
X10173810Y-9702857D01*
X11264286Y-11321429D02*
X11207143Y-11348095D01*
X11264286Y-11367143D02*
X11144286Y-11367143D01*
X11144286Y-11336667D01*
X11150000Y-11329048D01*
X11155714Y-11325238D01*
X11167143Y-11321429D01*
X11184286Y-11321429D01*
X11195714Y-11325238D01*
X11201429Y-11329048D01*
X11207143Y-11336667D01*
X11207143Y-11367143D01*
X11144286Y-11294762D02*
X11144286Y-11245238D01*
X11190000Y-11271905D01*
X11190000Y-11260476D01*
X11195714Y-11252857D01*
X11201429Y-11249048D01*
X11212857Y-11245238D01*
X11241429Y-11245238D01*
X11252857Y-11249048D01*
X11258571Y-11252857D01*
X11264286Y-11260476D01*
X11264286Y-11283333D01*
X11258571Y-11290952D01*
X11252857Y-11294762D01*
X11144286Y-11218571D02*
X11144286Y-11165238D01*
X11264286Y-11199524D01*
X9608571Y-8114286D02*
X9581905Y-8057143D01*
X9562857Y-8114286D02*
X9562857Y-7994286D01*
X9593333Y-7994286D01*
X9600952Y-8000000D01*
X9604762Y-8005714D01*
X9608571Y-8017143D01*
X9608571Y-8034286D01*
X9604762Y-8045714D01*
X9600952Y-8051429D01*
X9593333Y-8057143D01*
X9562857Y-8057143D01*
X9635238Y-7994286D02*
X9684762Y-7994286D01*
X9658095Y-8040000D01*
X9669524Y-8040000D01*
X9677143Y-8045714D01*
X9680952Y-8051429D01*
X9684762Y-8062857D01*
X9684762Y-8091429D01*
X9680952Y-8102857D01*
X9677143Y-8108571D01*
X9669524Y-8114286D01*
X9646667Y-8114286D01*
X9639048Y-8108571D01*
X9635238Y-8102857D01*
X9753333Y-7994286D02*
X9738095Y-7994286D01*
X9730476Y-8000000D01*
X9726667Y-8005714D01*
X9719048Y-8022857D01*
X9715238Y-8045714D01*
X9715238Y-8091429D01*
X9719048Y-8102857D01*
X9722857Y-8108571D01*
X9730476Y-8114286D01*
X9745714Y-8114286D01*
X9753333Y-8108571D01*
X9757143Y-8102857D01*
X9760952Y-8091429D01*
X9760952Y-8062857D01*
X9757143Y-8051429D01*
X9753333Y-8045714D01*
X9745714Y-8040000D01*
X9730476Y-8040000D01*
X9722857Y-8045714D01*
X9719048Y-8051429D01*
X9715238Y-8062857D01*
X13986667Y-10584286D02*
X13948571Y-10584286D01*
X13948571Y-10464286D01*
X14047619Y-10464286D02*
X14032381Y-10464286D01*
X14024762Y-10470000D01*
X14020952Y-10475714D01*
X14013333Y-10492857D01*
X14009524Y-10515714D01*
X14009524Y-10561429D01*
X14013333Y-10572857D01*
X14017143Y-10578571D01*
X14024762Y-10584286D01*
X14040000Y-10584286D01*
X14047619Y-10578571D01*
X14051429Y-10572857D01*
X14055238Y-10561429D01*
X14055238Y-10532857D01*
X14051429Y-10521429D01*
X14047619Y-10515714D01*
X14040000Y-10510000D01*
X14024762Y-10510000D01*
X14017143Y-10515714D01*
X14013333Y-10521429D01*
X14009524Y-10532857D01*
X10396667Y-9514286D02*
X10358571Y-9514286D01*
X10358571Y-9394286D01*
X10461429Y-9394286D02*
X10423333Y-9394286D01*
X10419524Y-9451429D01*
X10423333Y-9445714D01*
X10430952Y-9440000D01*
X10450000Y-9440000D01*
X10457619Y-9445714D01*
X10461429Y-9451429D01*
X10465238Y-9462857D01*
X10465238Y-9491429D01*
X10461429Y-9502857D01*
X10457619Y-9508571D01*
X10450000Y-9514286D01*
X10430952Y-9514286D01*
X10423333Y-9508571D01*
X10419524Y-9502857D01*
X11766667Y-10714286D02*
X11728571Y-10714286D01*
X11728571Y-10594286D01*
X11835238Y-10714286D02*
X11789524Y-10714286D01*
X11812381Y-10714286D02*
X11812381Y-10594286D01*
X11804762Y-10611429D01*
X11797143Y-10622857D01*
X11789524Y-10628571D01*
X8948572Y-8184286D02*
X8910476Y-8184286D01*
X8910476Y-8064286D01*
X9017143Y-8184286D02*
X8971429Y-8184286D01*
X8994286Y-8184286D02*
X8994286Y-8064286D01*
X8986667Y-8081429D01*
X8979048Y-8092857D01*
X8971429Y-8098571D01*
X9066667Y-8064286D02*
X9074286Y-8064286D01*
X9081905Y-8070000D01*
X9085714Y-8075714D01*
X9089524Y-8087143D01*
X9093333Y-8110000D01*
X9093333Y-8138571D01*
X9089524Y-8161429D01*
X9085714Y-8172857D01*
X9081905Y-8178571D01*
X9074286Y-8184286D01*
X9066667Y-8184286D01*
X9059048Y-8178571D01*
X9055238Y-8172857D01*
X9051429Y-8161429D01*
X9047619Y-8138571D01*
X9047619Y-8110000D01*
X9051429Y-8087143D01*
X9055238Y-8075714D01*
X9059048Y-8070000D01*
X9066667Y-8064286D01*
X8948572Y-8894286D02*
X8910476Y-8894286D01*
X8910476Y-8774286D01*
X9017143Y-8894286D02*
X8971429Y-8894286D01*
X8994286Y-8894286D02*
X8994286Y-8774286D01*
X8986667Y-8791429D01*
X8979048Y-8802857D01*
X8971429Y-8808571D01*
X9047619Y-8785714D02*
X9051429Y-8780000D01*
X9059048Y-8774286D01*
X9078095Y-8774286D01*
X9085714Y-8780000D01*
X9089524Y-8785714D01*
X9093333Y-8797143D01*
X9093333Y-8808571D01*
X9089524Y-8825714D01*
X9043810Y-8894286D01*
X9093333Y-8894286D01*
X8948572Y-7494286D02*
X8910476Y-7494286D01*
X8910476Y-7374286D01*
X9017143Y-7494286D02*
X8971429Y-7494286D01*
X8994286Y-7494286D02*
X8994286Y-7374286D01*
X8986667Y-7391429D01*
X8979048Y-7402857D01*
X8971429Y-7408571D01*
X9093333Y-7494286D02*
X9047619Y-7494286D01*
X9070476Y-7494286D02*
X9070476Y-7374286D01*
X9062857Y-7391429D01*
X9055238Y-7402857D01*
X9047619Y-7408571D01*
X8048571Y-8142857D02*
X8044762Y-8148571D01*
X8033333Y-8154286D01*
X8025714Y-8154286D01*
X8014286Y-8148571D01*
X8006667Y-8137143D01*
X8002857Y-8125714D01*
X7999048Y-8102857D01*
X7999048Y-8085714D01*
X8002857Y-8062857D01*
X8006667Y-8051429D01*
X8014286Y-8040000D01*
X8025714Y-8034286D01*
X8033333Y-8034286D01*
X8044762Y-8040000D01*
X8048571Y-8045714D01*
X8075238Y-8034286D02*
X8124762Y-8034286D01*
X8098095Y-8080000D01*
X8109524Y-8080000D01*
X8117143Y-8085714D01*
X8120952Y-8091429D01*
X8124762Y-8102857D01*
X8124762Y-8131429D01*
X8120952Y-8142857D01*
X8117143Y-8148571D01*
X8109524Y-8154286D01*
X8086667Y-8154286D01*
X8079048Y-8148571D01*
X8075238Y-8142857D01*
X8174286Y-8034286D02*
X8181905Y-8034286D01*
X8189524Y-8040000D01*
X8193333Y-8045714D01*
X8197143Y-8057143D01*
X8200952Y-8080000D01*
X8200952Y-8108571D01*
X8197143Y-8131429D01*
X8193333Y-8142857D01*
X8189524Y-8148571D01*
X8181905Y-8154286D01*
X8174286Y-8154286D01*
X8166667Y-8148571D01*
X8162857Y-8142857D01*
X8159048Y-8131429D01*
X8155238Y-8108571D01*
X8155238Y-8080000D01*
X8159048Y-8057143D01*
X8162857Y-8045714D01*
X8166667Y-8040000D01*
X8174286Y-8034286D01*
X8048571Y-8842857D02*
X8044762Y-8848571D01*
X8033333Y-8854286D01*
X8025714Y-8854286D01*
X8014286Y-8848571D01*
X8006667Y-8837143D01*
X8002857Y-8825714D01*
X7999048Y-8802857D01*
X7999048Y-8785714D01*
X8002857Y-8762857D01*
X8006667Y-8751429D01*
X8014286Y-8740000D01*
X8025714Y-8734286D01*
X8033333Y-8734286D01*
X8044762Y-8740000D01*
X8048571Y-8745714D01*
X8075238Y-8734286D02*
X8124762Y-8734286D01*
X8098095Y-8780000D01*
X8109524Y-8780000D01*
X8117143Y-8785714D01*
X8120952Y-8791429D01*
X8124762Y-8802857D01*
X8124762Y-8831429D01*
X8120952Y-8842857D01*
X8117143Y-8848571D01*
X8109524Y-8854286D01*
X8086667Y-8854286D01*
X8079048Y-8848571D01*
X8075238Y-8842857D01*
X8155238Y-8745714D02*
X8159048Y-8740000D01*
X8166667Y-8734286D01*
X8185714Y-8734286D01*
X8193333Y-8740000D01*
X8197143Y-8745714D01*
X8200952Y-8757143D01*
X8200952Y-8768571D01*
X8197143Y-8785714D01*
X8151429Y-8854286D01*
X8200952Y-8854286D01*
X8058571Y-7442857D02*
X8054762Y-7448571D01*
X8043333Y-7454286D01*
X8035714Y-7454286D01*
X8024286Y-7448571D01*
X8016667Y-7437143D01*
X8012857Y-7425714D01*
X8009048Y-7402857D01*
X8009048Y-7385714D01*
X8012857Y-7362857D01*
X8016667Y-7351429D01*
X8024286Y-7340000D01*
X8035714Y-7334286D01*
X8043333Y-7334286D01*
X8054762Y-7340000D01*
X8058571Y-7345714D01*
X8085238Y-7334286D02*
X8134762Y-7334286D01*
X8108095Y-7380000D01*
X8119524Y-7380000D01*
X8127143Y-7385714D01*
X8130952Y-7391429D01*
X8134762Y-7402857D01*
X8134762Y-7431429D01*
X8130952Y-7442857D01*
X8127143Y-7448571D01*
X8119524Y-7454286D01*
X8096667Y-7454286D01*
X8089048Y-7448571D01*
X8085238Y-7442857D01*
X8210952Y-7454286D02*
X8165238Y-7454286D01*
X8188095Y-7454286D02*
X8188095Y-7334286D01*
X8180476Y-7351429D01*
X8172857Y-7362857D01*
X8165238Y-7368571D01*
X8048571Y-7642857D02*
X8044762Y-7648571D01*
X8033333Y-7654286D01*
X8025714Y-7654286D01*
X8014286Y-7648571D01*
X8006667Y-7637143D01*
X8002857Y-7625714D01*
X7999048Y-7602857D01*
X7999048Y-7585714D01*
X8002857Y-7562857D01*
X8006667Y-7551429D01*
X8014286Y-7540000D01*
X8025714Y-7534286D01*
X8033333Y-7534286D01*
X8044762Y-7540000D01*
X8048571Y-7545714D01*
X8079048Y-7545714D02*
X8082857Y-7540000D01*
X8090476Y-7534286D01*
X8109524Y-7534286D01*
X8117143Y-7540000D01*
X8120952Y-7545714D01*
X8124762Y-7557143D01*
X8124762Y-7568571D01*
X8120952Y-7585714D01*
X8075238Y-7654286D01*
X8124762Y-7654286D01*
X8162857Y-7654286D02*
X8178095Y-7654286D01*
X8185714Y-7648571D01*
X8189524Y-7642857D01*
X8197143Y-7625714D01*
X8200952Y-7602857D01*
X8200952Y-7557143D01*
X8197143Y-7545714D01*
X8193333Y-7540000D01*
X8185714Y-7534286D01*
X8170476Y-7534286D01*
X8162857Y-7540000D01*
X8159048Y-7545714D01*
X8155238Y-7557143D01*
X8155238Y-7585714D01*
X8159048Y-7597143D01*
X8162857Y-7602857D01*
X8170476Y-7608571D01*
X8185714Y-7608571D01*
X8193333Y-7602857D01*
X8197143Y-7597143D01*
X8200952Y-7585714D01*
X8048571Y-8342857D02*
X8044762Y-8348571D01*
X8033333Y-8354286D01*
X8025714Y-8354286D01*
X8014286Y-8348571D01*
X8006667Y-8337143D01*
X8002857Y-8325714D01*
X7999048Y-8302857D01*
X7999048Y-8285714D01*
X8002857Y-8262857D01*
X8006667Y-8251429D01*
X8014286Y-8240000D01*
X8025714Y-8234286D01*
X8033333Y-8234286D01*
X8044762Y-8240000D01*
X8048571Y-8245714D01*
X8079048Y-8245714D02*
X8082857Y-8240000D01*
X8090476Y-8234286D01*
X8109524Y-8234286D01*
X8117143Y-8240000D01*
X8120952Y-8245714D01*
X8124762Y-8257143D01*
X8124762Y-8268571D01*
X8120952Y-8285714D01*
X8075238Y-8354286D01*
X8124762Y-8354286D01*
X8170476Y-8285714D02*
X8162857Y-8280000D01*
X8159048Y-8274286D01*
X8155238Y-8262857D01*
X8155238Y-8257143D01*
X8159048Y-8245714D01*
X8162857Y-8240000D01*
X8170476Y-8234286D01*
X8185714Y-8234286D01*
X8193333Y-8240000D01*
X8197143Y-8245714D01*
X8200952Y-8257143D01*
X8200952Y-8262857D01*
X8197143Y-8274286D01*
X8193333Y-8280000D01*
X8185714Y-8285714D01*
X8170476Y-8285714D01*
X8162857Y-8291429D01*
X8159048Y-8297143D01*
X8155238Y-8308571D01*
X8155238Y-8331429D01*
X8159048Y-8342857D01*
X8162857Y-8348571D01*
X8170476Y-8354286D01*
X8185714Y-8354286D01*
X8193333Y-8348571D01*
X8197143Y-8342857D01*
X8200952Y-8331429D01*
X8200952Y-8308571D01*
X8197143Y-8297143D01*
X8193333Y-8291429D01*
X8185714Y-8285714D01*
X8048571Y-6942857D02*
X8044762Y-6948571D01*
X8033333Y-6954286D01*
X8025714Y-6954286D01*
X8014286Y-6948571D01*
X8006667Y-6937143D01*
X8002857Y-6925714D01*
X7999048Y-6902857D01*
X7999048Y-6885714D01*
X8002857Y-6862857D01*
X8006667Y-6851429D01*
X8014286Y-6840000D01*
X8025714Y-6834286D01*
X8033333Y-6834286D01*
X8044762Y-6840000D01*
X8048571Y-6845714D01*
X8079048Y-6845714D02*
X8082857Y-6840000D01*
X8090476Y-6834286D01*
X8109524Y-6834286D01*
X8117143Y-6840000D01*
X8120952Y-6845714D01*
X8124762Y-6857143D01*
X8124762Y-6868571D01*
X8120952Y-6885714D01*
X8075238Y-6954286D01*
X8124762Y-6954286D01*
X8151429Y-6834286D02*
X8204762Y-6834286D01*
X8170476Y-6954286D01*
X9223333Y-7604286D02*
X9223333Y-7690000D01*
X9219524Y-7707143D01*
X9211905Y-7718571D01*
X9200476Y-7724286D01*
X9192857Y-7724286D01*
X9253810Y-7604286D02*
X9307143Y-7604286D01*
X9272857Y-7724286D01*
X9223333Y-8264286D02*
X9223333Y-8350000D01*
X9219524Y-8367143D01*
X9211905Y-8378571D01*
X9200476Y-8384286D01*
X9192857Y-8384286D01*
X9265238Y-8384286D02*
X9280476Y-8384286D01*
X9288095Y-8378571D01*
X9291905Y-8372857D01*
X9299524Y-8355714D01*
X9303333Y-8332857D01*
X9303333Y-8287143D01*
X9299524Y-8275714D01*
X9295714Y-8270000D01*
X9288095Y-8264286D01*
X9272857Y-8264286D01*
X9265238Y-8270000D01*
X9261429Y-8275714D01*
X9257619Y-8287143D01*
X9257619Y-8315714D01*
X9261429Y-8327143D01*
X9265238Y-8332857D01*
X9272857Y-8338571D01*
X9288095Y-8338571D01*
X9295714Y-8332857D01*
X9299524Y-8327143D01*
X9303333Y-8315714D01*
X9213333Y-6904286D02*
X9213333Y-6990000D01*
X9209524Y-7007143D01*
X9201905Y-7018571D01*
X9190476Y-7024286D01*
X9182857Y-7024286D01*
X9262857Y-6955714D02*
X9255238Y-6950000D01*
X9251429Y-6944286D01*
X9247619Y-6932857D01*
X9247619Y-6927143D01*
X9251429Y-6915714D01*
X9255238Y-6910000D01*
X9262857Y-6904286D01*
X9278095Y-6904286D01*
X9285714Y-6910000D01*
X9289524Y-6915714D01*
X9293333Y-6927143D01*
X9293333Y-6932857D01*
X9289524Y-6944286D01*
X9285714Y-6950000D01*
X9278095Y-6955714D01*
X9262857Y-6955714D01*
X9255238Y-6961429D01*
X9251429Y-6967143D01*
X9247619Y-6978571D01*
X9247619Y-7001429D01*
X9251429Y-7012857D01*
X9255238Y-7018571D01*
X9262857Y-7024286D01*
X9278095Y-7024286D01*
X9285714Y-7018571D01*
X9289524Y-7012857D01*
X9293333Y-7001429D01*
X9293333Y-6978571D01*
X9289524Y-6967143D01*
X9285714Y-6961429D01*
X9278095Y-6955714D01*
X14223333Y-8094286D02*
X14223333Y-8180000D01*
X14219524Y-8197143D01*
X14211905Y-8208571D01*
X14200476Y-8214286D01*
X14192857Y-8214286D01*
X14257619Y-8105714D02*
X14261429Y-8100000D01*
X14269048Y-8094286D01*
X14288095Y-8094286D01*
X14295714Y-8100000D01*
X14299524Y-8105714D01*
X14303333Y-8117143D01*
X14303333Y-8128571D01*
X14299524Y-8145714D01*
X14253810Y-8214286D01*
X14303333Y-8214286D01*
X11188571Y-10844286D02*
X11161905Y-10787143D01*
X11142857Y-10844286D02*
X11142857Y-10724286D01*
X11173333Y-10724286D01*
X11180952Y-10730000D01*
X11184762Y-10735714D01*
X11188571Y-10747143D01*
X11188571Y-10764286D01*
X11184762Y-10775714D01*
X11180952Y-10781429D01*
X11173333Y-10787143D01*
X11142857Y-10787143D01*
X11219048Y-10735714D02*
X11222857Y-10730000D01*
X11230476Y-10724286D01*
X11249524Y-10724286D01*
X11257143Y-10730000D01*
X11260952Y-10735714D01*
X11264762Y-10747143D01*
X11264762Y-10758571D01*
X11260952Y-10775714D01*
X11215238Y-10844286D01*
X11264762Y-10844286D01*
X11333333Y-10764286D02*
X11333333Y-10844286D01*
X11314286Y-10718571D02*
X11295238Y-10804286D01*
X11344762Y-10804286D01*
X10964286Y-11321429D02*
X10907143Y-11348095D01*
X10964286Y-11367143D02*
X10844286Y-11367143D01*
X10844286Y-11336667D01*
X10850000Y-11329048D01*
X10855714Y-11325238D01*
X10867143Y-11321429D01*
X10884286Y-11321429D01*
X10895714Y-11325238D01*
X10901429Y-11329048D01*
X10907143Y-11336667D01*
X10907143Y-11367143D01*
X10855714Y-11290952D02*
X10850000Y-11287143D01*
X10844286Y-11279524D01*
X10844286Y-11260476D01*
X10850000Y-11252857D01*
X10855714Y-11249048D01*
X10867143Y-11245238D01*
X10878571Y-11245238D01*
X10895714Y-11249048D01*
X10964286Y-11294762D01*
X10964286Y-11245238D01*
X10844286Y-11218571D02*
X10844286Y-11169048D01*
X10890000Y-11195714D01*
X10890000Y-11184286D01*
X10895714Y-11176667D01*
X10901429Y-11172857D01*
X10912857Y-11169048D01*
X10941429Y-11169048D01*
X10952857Y-11172857D01*
X10958571Y-11176667D01*
X10964286Y-11184286D01*
X10964286Y-11207143D01*
X10958571Y-11214762D01*
X10952857Y-11218571D01*
X10814286Y-11321429D02*
X10757143Y-11348095D01*
X10814286Y-11367143D02*
X10694286Y-11367143D01*
X10694286Y-11336667D01*
X10700000Y-11329048D01*
X10705714Y-11325238D01*
X10717143Y-11321429D01*
X10734286Y-11321429D01*
X10745714Y-11325238D01*
X10751429Y-11329048D01*
X10757143Y-11336667D01*
X10757143Y-11367143D01*
X10705714Y-11290952D02*
X10700000Y-11287143D01*
X10694286Y-11279524D01*
X10694286Y-11260476D01*
X10700000Y-11252857D01*
X10705714Y-11249048D01*
X10717143Y-11245238D01*
X10728571Y-11245238D01*
X10745714Y-11249048D01*
X10814286Y-11294762D01*
X10814286Y-11245238D01*
X10705714Y-11214762D02*
X10700000Y-11210952D01*
X10694286Y-11203333D01*
X10694286Y-11184286D01*
X10700000Y-11176667D01*
X10705714Y-11172857D01*
X10717143Y-11169048D01*
X10728571Y-11169048D01*
X10745714Y-11172857D01*
X10814286Y-11218571D01*
X10814286Y-11169048D01*
X10654286Y-11321429D02*
X10597143Y-11348095D01*
X10654286Y-11367143D02*
X10534286Y-11367143D01*
X10534286Y-11336667D01*
X10540000Y-11329048D01*
X10545714Y-11325238D01*
X10557143Y-11321429D01*
X10574286Y-11321429D01*
X10585714Y-11325238D01*
X10591429Y-11329048D01*
X10597143Y-11336667D01*
X10597143Y-11367143D01*
X10545714Y-11290952D02*
X10540000Y-11287143D01*
X10534286Y-11279524D01*
X10534286Y-11260476D01*
X10540000Y-11252857D01*
X10545714Y-11249048D01*
X10557143Y-11245238D01*
X10568571Y-11245238D01*
X10585714Y-11249048D01*
X10654286Y-11294762D01*
X10654286Y-11245238D01*
X10654286Y-11169048D02*
X10654286Y-11214762D01*
X10654286Y-11191905D02*
X10534286Y-11191905D01*
X10551429Y-11199524D01*
X10562857Y-11207143D01*
X10568571Y-11214762D01*
X11114286Y-11321429D02*
X11057143Y-11348095D01*
X11114286Y-11367143D02*
X10994286Y-11367143D01*
X10994286Y-11336667D01*
X11000000Y-11329048D01*
X11005714Y-11325238D01*
X11017143Y-11321429D01*
X11034286Y-11321429D01*
X11045714Y-11325238D01*
X11051429Y-11329048D01*
X11057143Y-11336667D01*
X11057143Y-11367143D01*
X11114286Y-11245238D02*
X11114286Y-11290952D01*
X11114286Y-11268095D02*
X10994286Y-11268095D01*
X11011429Y-11275714D01*
X11022857Y-11283333D01*
X11028571Y-11290952D01*
X10994286Y-11176667D02*
X10994286Y-11191905D01*
X11000000Y-11199524D01*
X11005714Y-11203333D01*
X11022857Y-11210952D01*
X11045714Y-11214762D01*
X11091429Y-11214762D01*
X11102857Y-11210952D01*
X11108571Y-11207143D01*
X11114286Y-11199524D01*
X11114286Y-11184286D01*
X11108571Y-11176667D01*
X11102857Y-11172857D01*
X11091429Y-11169048D01*
X11062857Y-11169048D01*
X11051429Y-11172857D01*
X11045714Y-11176667D01*
X11040000Y-11184286D01*
X11040000Y-11199524D01*
X11045714Y-11207143D01*
X11051429Y-11210952D01*
X11062857Y-11214762D01*
X10484286Y-11323333D02*
X10484286Y-11361429D01*
X10364286Y-11361429D01*
X10364286Y-11304286D02*
X10364286Y-11254762D01*
X10410000Y-11281429D01*
X10410000Y-11270000D01*
X10415714Y-11262381D01*
X10421429Y-11258571D01*
X10432857Y-11254762D01*
X10461429Y-11254762D01*
X10472857Y-11258571D01*
X10478571Y-11262381D01*
X10484286Y-11270000D01*
X10484286Y-11292857D01*
X10478571Y-11300476D01*
X10472857Y-11304286D01*
X11424286Y-11243333D02*
X11424286Y-11281429D01*
X11304286Y-11281429D01*
X11315714Y-11220476D02*
X11310000Y-11216667D01*
X11304286Y-11209048D01*
X11304286Y-11190000D01*
X11310000Y-11182381D01*
X11315714Y-11178571D01*
X11327143Y-11174762D01*
X11338571Y-11174762D01*
X11355714Y-11178571D01*
X11424286Y-11224286D01*
X11424286Y-11174762D01*
X11736667Y-9584286D02*
X11698571Y-9584286D01*
X11698571Y-9464286D01*
X11797619Y-9504286D02*
X11797619Y-9584286D01*
X11778571Y-9458571D02*
X11759524Y-9544286D01*
X11809048Y-9544286D01*
X9566667Y-7024286D02*
X9540000Y-6967143D01*
X9520952Y-7024286D02*
X9520952Y-6904286D01*
X9551429Y-6904286D01*
X9559048Y-6910000D01*
X9562857Y-6915714D01*
X9566667Y-6927143D01*
X9566667Y-6944286D01*
X9562857Y-6955714D01*
X9559048Y-6961429D01*
X9551429Y-6967143D01*
X9520952Y-6967143D01*
X9642857Y-7024286D02*
X9597143Y-7024286D01*
X9620000Y-7024286D02*
X9620000Y-6904286D01*
X9612381Y-6921429D01*
X9604762Y-6932857D01*
X9597143Y-6938571D01*
X8836667Y-9304286D02*
X8810000Y-9247143D01*
X8790952Y-9304286D02*
X8790952Y-9184286D01*
X8821429Y-9184286D01*
X8829048Y-9190000D01*
X8832857Y-9195714D01*
X8836667Y-9207143D01*
X8836667Y-9224286D01*
X8832857Y-9235714D01*
X8829048Y-9241429D01*
X8821429Y-9247143D01*
X8790952Y-9247143D01*
X8909048Y-9184286D02*
X8870952Y-9184286D01*
X8867143Y-9241429D01*
X8870952Y-9235714D01*
X8878572Y-9230000D01*
X8897619Y-9230000D01*
X8905238Y-9235714D01*
X8909048Y-9241429D01*
X8912857Y-9252857D01*
X8912857Y-9281429D01*
X8909048Y-9292857D01*
X8905238Y-9298571D01*
X8897619Y-9304286D01*
X8878572Y-9304286D01*
X8870952Y-9298571D01*
X8867143Y-9292857D01*
X9486667Y-9554286D02*
X9460000Y-9497143D01*
X9440952Y-9554286D02*
X9440952Y-9434286D01*
X9471429Y-9434286D01*
X9479048Y-9440000D01*
X9482857Y-9445714D01*
X9486667Y-9457143D01*
X9486667Y-9474286D01*
X9482857Y-9485714D01*
X9479048Y-9491429D01*
X9471429Y-9497143D01*
X9440952Y-9497143D01*
X9555238Y-9474286D02*
X9555238Y-9554286D01*
X9536191Y-9428571D02*
X9517143Y-9514286D01*
X9566667Y-9514286D01*
X9486667Y-9404286D02*
X9460000Y-9347143D01*
X9440952Y-9404286D02*
X9440952Y-9284286D01*
X9471429Y-9284286D01*
X9479048Y-9290000D01*
X9482857Y-9295714D01*
X9486667Y-9307143D01*
X9486667Y-9324286D01*
X9482857Y-9335714D01*
X9479048Y-9341429D01*
X9471429Y-9347143D01*
X9440952Y-9347143D01*
X9513333Y-9284286D02*
X9562857Y-9284286D01*
X9536191Y-9330000D01*
X9547619Y-9330000D01*
X9555238Y-9335714D01*
X9559048Y-9341429D01*
X9562857Y-9352857D01*
X9562857Y-9381429D01*
X9559048Y-9392857D01*
X9555238Y-9398571D01*
X9547619Y-9404286D01*
X9524762Y-9404286D01*
X9517143Y-9398571D01*
X9513333Y-9392857D01*
X9486667Y-9254286D02*
X9460000Y-9197143D01*
X9440952Y-9254286D02*
X9440952Y-9134286D01*
X9471429Y-9134286D01*
X9479048Y-9140000D01*
X9482857Y-9145714D01*
X9486667Y-9157143D01*
X9486667Y-9174286D01*
X9482857Y-9185714D01*
X9479048Y-9191429D01*
X9471429Y-9197143D01*
X9440952Y-9197143D01*
X9517143Y-9145714D02*
X9520952Y-9140000D01*
X9528572Y-9134286D01*
X9547619Y-9134286D01*
X9555238Y-9140000D01*
X9559048Y-9145714D01*
X9562857Y-9157143D01*
X9562857Y-9168571D01*
X9559048Y-9185714D01*
X9513333Y-9254286D01*
X9562857Y-9254286D01*
X9326667Y-6834286D02*
X9300000Y-6777143D01*
X9280952Y-6834286D02*
X9280952Y-6714286D01*
X9311429Y-6714286D01*
X9319048Y-6720000D01*
X9322857Y-6725714D01*
X9326667Y-6737143D01*
X9326667Y-6754286D01*
X9322857Y-6765714D01*
X9319048Y-6771429D01*
X9311429Y-6777143D01*
X9280952Y-6777143D01*
X9395238Y-6714286D02*
X9380000Y-6714286D01*
X9372381Y-6720000D01*
X9368572Y-6725714D01*
X9360952Y-6742857D01*
X9357143Y-6765714D01*
X9357143Y-6811429D01*
X9360952Y-6822857D01*
X9364762Y-6828571D01*
X9372381Y-6834286D01*
X9387619Y-6834286D01*
X9395238Y-6828571D01*
X9399048Y-6822857D01*
X9402857Y-6811429D01*
X9402857Y-6782857D01*
X9399048Y-6771429D01*
X9395238Y-6765714D01*
X9387619Y-6760000D01*
X9372381Y-6760000D01*
X9364762Y-6765714D01*
X9360952Y-6771429D01*
X9357143Y-6782857D01*
X9416667Y-10934286D02*
X9390000Y-10877143D01*
X9370952Y-10934286D02*
X9370952Y-10814286D01*
X9401429Y-10814286D01*
X9409048Y-10820000D01*
X9412857Y-10825714D01*
X9416667Y-10837143D01*
X9416667Y-10854286D01*
X9412857Y-10865714D01*
X9409048Y-10871429D01*
X9401429Y-10877143D01*
X9370952Y-10877143D01*
X9462381Y-10865714D02*
X9454762Y-10860000D01*
X9450952Y-10854286D01*
X9447143Y-10842857D01*
X9447143Y-10837143D01*
X9450952Y-10825714D01*
X9454762Y-10820000D01*
X9462381Y-10814286D01*
X9477619Y-10814286D01*
X9485238Y-10820000D01*
X9489048Y-10825714D01*
X9492857Y-10837143D01*
X9492857Y-10842857D01*
X9489048Y-10854286D01*
X9485238Y-10860000D01*
X9477619Y-10865714D01*
X9462381Y-10865714D01*
X9454762Y-10871429D01*
X9450952Y-10877143D01*
X9447143Y-10888571D01*
X9447143Y-10911429D01*
X9450952Y-10922857D01*
X9454762Y-10928571D01*
X9462381Y-10934286D01*
X9477619Y-10934286D01*
X9485238Y-10928571D01*
X9489048Y-10922857D01*
X9492857Y-10911429D01*
X9492857Y-10888571D01*
X9489048Y-10877143D01*
X9485238Y-10871429D01*
X9477619Y-10865714D01*
X9159048Y-10254286D02*
X9159048Y-10351429D01*
X9162857Y-10362857D01*
X9166667Y-10368571D01*
X9174286Y-10374286D01*
X9189524Y-10374286D01*
X9197143Y-10368571D01*
X9200952Y-10362857D01*
X9204762Y-10351429D01*
X9204762Y-10254286D01*
X9239048Y-10265714D02*
X9242857Y-10260000D01*
X9250476Y-10254286D01*
X9269524Y-10254286D01*
X9277143Y-10260000D01*
X9280952Y-10265714D01*
X9284762Y-10277143D01*
X9284762Y-10288571D01*
X9280952Y-10305714D01*
X9235238Y-10374286D01*
X9284762Y-10374286D01*
X13609048Y-8364286D02*
X13609048Y-8461429D01*
X13612857Y-8472857D01*
X13616667Y-8478571D01*
X13624286Y-8484286D01*
X13639524Y-8484286D01*
X13647143Y-8478571D01*
X13650952Y-8472857D01*
X13654762Y-8461429D01*
X13654762Y-8364286D01*
X13685238Y-8364286D02*
X13734762Y-8364286D01*
X13708095Y-8410000D01*
X13719524Y-8410000D01*
X13727143Y-8415714D01*
X13730952Y-8421429D01*
X13734762Y-8432857D01*
X13734762Y-8461429D01*
X13730952Y-8472857D01*
X13727143Y-8478571D01*
X13719524Y-8484286D01*
X13696667Y-8484286D01*
X13689048Y-8478571D01*
X13685238Y-8472857D01*
X13065333Y-8991686D02*
X13065333Y-9077400D01*
X13061524Y-9094543D01*
X13053905Y-9105971D01*
X13042476Y-9111686D01*
X13034857Y-9111686D01*
X13145333Y-9111686D02*
X13099619Y-9111686D01*
X13122476Y-9111686D02*
X13122476Y-8991686D01*
X13114857Y-9008829D01*
X13107238Y-9020257D01*
X13099619Y-9025971D01*
X9799048Y-10034286D02*
X9799048Y-10131429D01*
X9802857Y-10142857D01*
X9806667Y-10148571D01*
X9814286Y-10154286D01*
X9829524Y-10154286D01*
X9837143Y-10148571D01*
X9840952Y-10142857D01*
X9844762Y-10131429D01*
X9844762Y-10034286D01*
X9875238Y-10034286D02*
X9928571Y-10034286D01*
X9894286Y-10154286D01*
X8215238Y-9344286D02*
X8241905Y-9464286D01*
X8268571Y-9344286D01*
X8295238Y-9464286D02*
X8295238Y-9344286D01*
X8314286Y-9344286D01*
X8325714Y-9350000D01*
X8333333Y-9361429D01*
X8337143Y-9372857D01*
X8340952Y-9395714D01*
X8340952Y-9412857D01*
X8337143Y-9435714D01*
X8333333Y-9447143D01*
X8325714Y-9458571D01*
X8314286Y-9464286D01*
X8295238Y-9464286D01*
X8371429Y-9355714D02*
X8375238Y-9350000D01*
X8382857Y-9344286D01*
X8401905Y-9344286D01*
X8409524Y-9350000D01*
X8413333Y-9355714D01*
X8417143Y-9367143D01*
X8417143Y-9378571D01*
X8413333Y-9395714D01*
X8367619Y-9464286D01*
X8417143Y-9464286D01*
X7950952Y-8479286D02*
X7950952Y-8576429D01*
X7954762Y-8587857D01*
X7958571Y-8593571D01*
X7966190Y-8599286D01*
X7981429Y-8599286D01*
X7989048Y-8593571D01*
X7992857Y-8587857D01*
X7996667Y-8576429D01*
X7996667Y-8479286D01*
X8076667Y-8599286D02*
X8030952Y-8599286D01*
X8053809Y-8599286D02*
X8053809Y-8479286D01*
X8046190Y-8496429D01*
X8038571Y-8507857D01*
X8030952Y-8513571D01*
X8152857Y-8599286D02*
X8107143Y-8599286D01*
X8130000Y-8599286D02*
X8130000Y-8479286D01*
X8122381Y-8496429D01*
X8114762Y-8507857D01*
X8107143Y-8513571D01*
X8009048Y-7784286D02*
X8009048Y-7881429D01*
X8012857Y-7892857D01*
X8016667Y-7898571D01*
X8024286Y-7904286D01*
X8039524Y-7904286D01*
X8047143Y-7898571D01*
X8050952Y-7892857D01*
X8054762Y-7881429D01*
X8054762Y-7784286D01*
X8096667Y-7904286D02*
X8111905Y-7904286D01*
X8119524Y-7898571D01*
X8123333Y-7892857D01*
X8130952Y-7875714D01*
X8134762Y-7852857D01*
X8134762Y-7807143D01*
X8130952Y-7795714D01*
X8127143Y-7790000D01*
X8119524Y-7784286D01*
X8104286Y-7784286D01*
X8096667Y-7790000D01*
X8092857Y-7795714D01*
X8089048Y-7807143D01*
X8089048Y-7835714D01*
X8092857Y-7847143D01*
X8096667Y-7852857D01*
X8104286Y-7858571D01*
X8119524Y-7858571D01*
X8127143Y-7852857D01*
X8130952Y-7847143D01*
X8134762Y-7835714D01*
X7930952Y-7084286D02*
X7930952Y-7181429D01*
X7934762Y-7192857D01*
X7938571Y-7198571D01*
X7946190Y-7204286D01*
X7961429Y-7204286D01*
X7969048Y-7198571D01*
X7972857Y-7192857D01*
X7976667Y-7181429D01*
X7976667Y-7084286D01*
X8056667Y-7204286D02*
X8010952Y-7204286D01*
X8033809Y-7204286D02*
X8033809Y-7084286D01*
X8026190Y-7101429D01*
X8018571Y-7112857D01*
X8010952Y-7118571D01*
X8106190Y-7084286D02*
X8113810Y-7084286D01*
X8121429Y-7090000D01*
X8125238Y-7095714D01*
X8129048Y-7107143D01*
X8132857Y-7130000D01*
X8132857Y-7158571D01*
X8129048Y-7181429D01*
X8125238Y-7192857D01*
X8121429Y-7198571D01*
X8113810Y-7204286D01*
X8106190Y-7204286D01*
X8098571Y-7198571D01*
X8094762Y-7192857D01*
X8090952Y-7181429D01*
X8087143Y-7158571D01*
X8087143Y-7130000D01*
X8090952Y-7107143D01*
X8094762Y-7095714D01*
X8098571Y-7090000D01*
X8106190Y-7084286D01*
X8641667Y-7504286D02*
X8603571Y-7504286D01*
X8603571Y-7384286D01*
X8679762Y-7435714D02*
X8672143Y-7430000D01*
X8668333Y-7424286D01*
X8664524Y-7412857D01*
X8664524Y-7407143D01*
X8668333Y-7395714D01*
X8672143Y-7390000D01*
X8679762Y-7384286D01*
X8695000Y-7384286D01*
X8702619Y-7390000D01*
X8706429Y-7395714D01*
X8710238Y-7407143D01*
X8710238Y-7412857D01*
X8706429Y-7424286D01*
X8702619Y-7430000D01*
X8695000Y-7435714D01*
X8679762Y-7435714D01*
X8672143Y-7441429D01*
X8668333Y-7447143D01*
X8664524Y-7458571D01*
X8664524Y-7481429D01*
X8668333Y-7492857D01*
X8672143Y-7498571D01*
X8679762Y-7504286D01*
X8695000Y-7504286D01*
X8702619Y-7498571D01*
X8706429Y-7492857D01*
X8710238Y-7481429D01*
X8710238Y-7458571D01*
X8706429Y-7447143D01*
X8702619Y-7441429D01*
X8695000Y-7435714D01*
X8641667Y-7684286D02*
X8603571Y-7684286D01*
X8603571Y-7564286D01*
X8660714Y-7564286D02*
X8714048Y-7564286D01*
X8679762Y-7684286D01*
X8641667Y-8374286D02*
X8603571Y-8374286D01*
X8603571Y-8254286D01*
X8672143Y-8374286D02*
X8687381Y-8374286D01*
X8695000Y-8368571D01*
X8698810Y-8362857D01*
X8706429Y-8345714D01*
X8710238Y-8322857D01*
X8710238Y-8277143D01*
X8706429Y-8265714D01*
X8702619Y-8260000D01*
X8695000Y-8254286D01*
X8679762Y-8254286D01*
X8672143Y-8260000D01*
X8668333Y-8265714D01*
X8664524Y-8277143D01*
X8664524Y-8305714D01*
X8668333Y-8317143D01*
X8672143Y-8322857D01*
X8679762Y-8328571D01*
X8695000Y-8328571D01*
X8702619Y-8322857D01*
X8706429Y-8317143D01*
X8710238Y-8305714D01*
X8855238Y-9434286D02*
X8881905Y-9554286D01*
X8908572Y-9434286D01*
X8935238Y-9554286D02*
X8935238Y-9434286D01*
X8954286Y-9434286D01*
X8965714Y-9440000D01*
X8973333Y-9451429D01*
X8977143Y-9462857D01*
X8980952Y-9485714D01*
X8980952Y-9502857D01*
X8977143Y-9525714D01*
X8973333Y-9537143D01*
X8965714Y-9548571D01*
X8954286Y-9554286D01*
X8935238Y-9554286D01*
X9026667Y-9485714D02*
X9019048Y-9480000D01*
X9015238Y-9474286D01*
X9011429Y-9462857D01*
X9011429Y-9457143D01*
X9015238Y-9445714D01*
X9019048Y-9440000D01*
X9026667Y-9434286D01*
X9041905Y-9434286D01*
X9049524Y-9440000D01*
X9053333Y-9445714D01*
X9057143Y-9457143D01*
X9057143Y-9462857D01*
X9053333Y-9474286D01*
X9049524Y-9480000D01*
X9041905Y-9485714D01*
X9026667Y-9485714D01*
X9019048Y-9491429D01*
X9015238Y-9497143D01*
X9011429Y-9508571D01*
X9011429Y-9531429D01*
X9015238Y-9542857D01*
X9019048Y-9548571D01*
X9026667Y-9554286D01*
X9041905Y-9554286D01*
X9049524Y-9548571D01*
X9053333Y-9542857D01*
X9057143Y-9531429D01*
X9057143Y-9508571D01*
X9053333Y-9497143D01*
X9049524Y-9491429D01*
X9041905Y-9485714D01*
X8145048Y-6493286D02*
X8145048Y-6373286D01*
X8145048Y-6430429D02*
X8190762Y-6430429D01*
X8190762Y-6493286D02*
X8190762Y-6373286D01*
X8270762Y-6493286D02*
X8225048Y-6493286D01*
X8247905Y-6493286D02*
X8247905Y-6373286D01*
X8240286Y-6390429D01*
X8232667Y-6401857D01*
X8225048Y-6407571D01*
X13945048Y-6463286D02*
X13945048Y-6343286D01*
X13945048Y-6400429D02*
X13990762Y-6400429D01*
X13990762Y-6463286D02*
X13990762Y-6343286D01*
X14025048Y-6354714D02*
X14028857Y-6349000D01*
X14036476Y-6343286D01*
X14055524Y-6343286D01*
X14063143Y-6349000D01*
X14066952Y-6354714D01*
X14070762Y-6366143D01*
X14070762Y-6377571D01*
X14066952Y-6394714D01*
X14021238Y-6463286D01*
X14070762Y-6463286D01*
X8145048Y-11393286D02*
X8145048Y-11273286D01*
X8145048Y-11330429D02*
X8190762Y-11330429D01*
X8190762Y-11393286D02*
X8190762Y-11273286D01*
X8221238Y-11273286D02*
X8270762Y-11273286D01*
X8244095Y-11319000D01*
X8255524Y-11319000D01*
X8263143Y-11324714D01*
X8266952Y-11330429D01*
X8270762Y-11341857D01*
X8270762Y-11370429D01*
X8266952Y-11381857D01*
X8263143Y-11387571D01*
X8255524Y-11393286D01*
X8232667Y-11393286D01*
X8225048Y-11387571D01*
X8221238Y-11381857D01*
X13945048Y-11393286D02*
X13945048Y-11273286D01*
X13945048Y-11330429D02*
X13990762Y-11330429D01*
X13990762Y-11393286D02*
X13990762Y-11273286D01*
X14063143Y-11313286D02*
X14063143Y-11393286D01*
X14044095Y-11267571D02*
X14025048Y-11353286D01*
X14074571Y-11353286D01*
X11529048Y-10364286D02*
X11529048Y-10461429D01*
X11532857Y-10472857D01*
X11536667Y-10478571D01*
X11544286Y-10484286D01*
X11559524Y-10484286D01*
X11567143Y-10478571D01*
X11570952Y-10472857D01*
X11574762Y-10461429D01*
X11574762Y-10364286D01*
X11647143Y-10364286D02*
X11631905Y-10364286D01*
X11624286Y-10370000D01*
X11620476Y-10375714D01*
X11612857Y-10392857D01*
X11609048Y-10415714D01*
X11609048Y-10461429D01*
X11612857Y-10472857D01*
X11616667Y-10478571D01*
X11624286Y-10484286D01*
X11639524Y-10484286D01*
X11647143Y-10478571D01*
X11650952Y-10472857D01*
X11654762Y-10461429D01*
X11654762Y-10432857D01*
X11650952Y-10421429D01*
X11647143Y-10415714D01*
X11639524Y-10410000D01*
X11624286Y-10410000D01*
X11616667Y-10415714D01*
X11612857Y-10421429D01*
X11609048Y-10432857D01*
D15*
X11946667Y-11710238D02*
X11946667Y-11781667D01*
X11941905Y-11795952D01*
X11932381Y-11805476D01*
X11918095Y-11810238D01*
X11908571Y-11810238D01*
X12041905Y-11710238D02*
X11994286Y-11710238D01*
X11989524Y-11757857D01*
X11994286Y-11753095D01*
X12003809Y-11748333D01*
X12027619Y-11748333D01*
X12037143Y-11753095D01*
X12041905Y-11757857D01*
X12046667Y-11767381D01*
X12046667Y-11791190D01*
X12041905Y-11800714D01*
X12037143Y-11805476D01*
X12027619Y-11810238D01*
X12003809Y-11810238D01*
X11994286Y-11805476D01*
X11989524Y-11800714D01*
M02*
