G04 #@! TF.FileFunction,Soldermask,Top*
%FSLAX45Y45*%
G04 Gerber Fmt 4.5, Leading zero omitted, Abs format (unit mm)*
G04 Created by KiCad (PCBNEW 4.0.7) date 06/19/18 16:53:46*
%MOMM*%
%LPD*%
G01*
G04 APERTURE LIST*
%ADD10C,0.100000*%
G04 APERTURE END LIST*
D10*
X7854636Y-6381761D02*
X7854636Y-11381761D01*
X7854636Y-6381761D02*
G75*
G02X8154636Y-6081761I300000J0D01*
G01*
X14054636Y-6081761D02*
X8154636Y-6081761D01*
X14054636Y-6081761D02*
G75*
G02X14354636Y-6381761I0J-300000D01*
G01*
X14354636Y-11381761D02*
X14354636Y-6381761D01*
X8154636Y-11681761D02*
G75*
G02X7854636Y-11381761I0J300000D01*
G01*
X8154636Y-11681761D02*
X14054636Y-11681761D01*
X14354635Y-11382285D02*
G75*
G02X14054636Y-11681761I-300000J524D01*
G01*
G36*
X9000000Y-11555000D02*
X8900000Y-11555000D01*
X8900000Y-11495000D01*
X9000000Y-11495000D01*
X9000000Y-11555000D01*
X9000000Y-11555000D01*
G37*
G36*
X9600000Y-11555000D02*
X9500000Y-11555000D01*
X9500000Y-11495000D01*
X9600000Y-11495000D01*
X9600000Y-11555000D01*
X9600000Y-11555000D01*
G37*
G36*
X9750000Y-11555000D02*
X9650000Y-11555000D01*
X9650000Y-11495000D01*
X9750000Y-11495000D01*
X9750000Y-11555000D01*
X9750000Y-11555000D01*
G37*
G36*
X9450000Y-11555000D02*
X9350000Y-11555000D01*
X9350000Y-11495000D01*
X9450000Y-11495000D01*
X9450000Y-11555000D01*
X9450000Y-11555000D01*
G37*
G36*
X9150000Y-11555000D02*
X9050000Y-11555000D01*
X9050000Y-11495000D01*
X9150000Y-11495000D01*
X9150000Y-11555000D01*
X9150000Y-11555000D01*
G37*
G36*
X9300000Y-11555000D02*
X9200000Y-11555000D01*
X9200000Y-11495000D01*
X9300000Y-11495000D01*
X9300000Y-11555000D01*
X9300000Y-11555000D01*
G37*
G36*
X8220280Y-11177103D02*
X8250056Y-11183215D01*
X8271073Y-11192050D01*
X8278078Y-11194995D01*
X8278079Y-11194995D01*
X8303279Y-11211993D01*
X8324698Y-11233561D01*
X8341519Y-11258880D01*
X8353103Y-11286983D01*
X8359003Y-11316784D01*
X8359003Y-11316784D01*
X8359007Y-11316801D01*
X8358522Y-11351521D01*
X8358518Y-11351537D01*
X8358518Y-11351538D01*
X8351787Y-11381162D01*
X8339424Y-11408931D01*
X8321902Y-11433770D01*
X8299889Y-11454733D01*
X8274224Y-11471020D01*
X8245884Y-11482013D01*
X8215949Y-11487291D01*
X8185558Y-11486654D01*
X8155870Y-11480127D01*
X8128016Y-11467958D01*
X8103055Y-11450609D01*
X8081940Y-11428744D01*
X8065473Y-11403193D01*
X8054283Y-11374931D01*
X8048796Y-11345033D01*
X8049221Y-11314639D01*
X8055540Y-11284906D01*
X8067515Y-11256967D01*
X8084688Y-11231886D01*
X8106407Y-11210618D01*
X8131841Y-11193974D01*
X8160025Y-11182587D01*
X8189884Y-11176891D01*
X8220280Y-11177103D01*
X8220280Y-11177103D01*
G37*
G36*
X14019280Y-11176103D02*
X14049056Y-11182215D01*
X14070073Y-11191050D01*
X14077078Y-11193995D01*
X14078561Y-11194995D01*
X14102279Y-11210993D01*
X14123698Y-11232561D01*
X14140519Y-11257880D01*
X14140519Y-11257880D01*
X14140931Y-11258880D01*
X14152103Y-11285983D01*
X14158003Y-11315784D01*
X14158003Y-11315784D01*
X14158007Y-11315801D01*
X14157522Y-11350521D01*
X14157518Y-11350537D01*
X14157518Y-11350538D01*
X14150787Y-11380162D01*
X14138424Y-11407931D01*
X14120902Y-11432770D01*
X14098889Y-11453733D01*
X14073224Y-11470020D01*
X14044884Y-11481013D01*
X14014949Y-11486291D01*
X13984558Y-11485654D01*
X13954870Y-11479127D01*
X13927016Y-11466958D01*
X13902055Y-11449609D01*
X13880940Y-11427744D01*
X13864473Y-11402193D01*
X13853283Y-11373931D01*
X13847796Y-11344033D01*
X13848221Y-11313639D01*
X13854540Y-11283906D01*
X13866515Y-11255967D01*
X13883688Y-11230886D01*
X13905407Y-11209618D01*
X13930841Y-11192974D01*
X13959025Y-11181587D01*
X13988884Y-11175891D01*
X14019280Y-11176103D01*
X14019280Y-11176103D01*
G37*
G36*
X9600000Y-11405000D02*
X9500000Y-11405000D01*
X9500000Y-11345000D01*
X9600000Y-11345000D01*
X9600000Y-11405000D01*
X9600000Y-11405000D01*
G37*
G36*
X9000000Y-11405000D02*
X8900000Y-11405000D01*
X8900000Y-11345000D01*
X9000000Y-11345000D01*
X9000000Y-11405000D01*
X9000000Y-11405000D01*
G37*
G36*
X9150000Y-11405000D02*
X9050000Y-11405000D01*
X9050000Y-11345000D01*
X9150000Y-11345000D01*
X9150000Y-11405000D01*
X9150000Y-11405000D01*
G37*
G36*
X9300000Y-11405000D02*
X9200000Y-11405000D01*
X9200000Y-11345000D01*
X9300000Y-11345000D01*
X9300000Y-11405000D01*
X9300000Y-11405000D01*
G37*
G36*
X9450000Y-11405000D02*
X9350000Y-11405000D01*
X9350000Y-11345000D01*
X9450000Y-11345000D01*
X9450000Y-11405000D01*
X9450000Y-11405000D01*
G37*
G36*
X9750000Y-11405000D02*
X9650000Y-11405000D01*
X9650000Y-11345000D01*
X9750000Y-11345000D01*
X9750000Y-11405000D01*
X9750000Y-11405000D01*
G37*
G36*
X13498339Y-11121084D02*
X13522736Y-11126092D01*
X13545697Y-11135744D01*
X13566345Y-11149671D01*
X13583894Y-11167344D01*
X13597677Y-11188088D01*
X13607168Y-11211115D01*
X13612002Y-11235530D01*
X13612002Y-11235530D01*
X13612005Y-11235547D01*
X13611608Y-11263994D01*
X13611604Y-11264011D01*
X13611604Y-11264012D01*
X13606090Y-11288281D01*
X13595960Y-11311034D01*
X13581603Y-11331386D01*
X13563568Y-11348562D01*
X13542539Y-11361907D01*
X13519318Y-11370914D01*
X13494791Y-11375238D01*
X13469890Y-11374717D01*
X13445565Y-11369369D01*
X13422742Y-11359398D01*
X13402290Y-11345183D01*
X13384989Y-11327268D01*
X13371497Y-11306332D01*
X13362329Y-11283175D01*
X13357833Y-11258679D01*
X13358181Y-11233775D01*
X13363359Y-11209413D01*
X13373170Y-11186521D01*
X13387241Y-11165971D01*
X13405036Y-11148545D01*
X13425876Y-11134908D01*
X13448969Y-11125577D01*
X13473434Y-11120911D01*
X13498339Y-11121084D01*
X13498339Y-11121084D01*
G37*
G36*
X9145000Y-11325000D02*
X9055000Y-11325000D01*
X9055000Y-11235000D01*
X9145000Y-11235000D01*
X9145000Y-11325000D01*
X9145000Y-11325000D01*
G37*
G36*
X8995000Y-11325000D02*
X8905000Y-11325000D01*
X8905000Y-11235000D01*
X8995000Y-11235000D01*
X8995000Y-11325000D01*
X8995000Y-11325000D01*
G37*
G36*
X9445000Y-11325000D02*
X9355000Y-11325000D01*
X9355000Y-11235000D01*
X9445000Y-11235000D01*
X9445000Y-11325000D01*
X9445000Y-11325000D01*
G37*
G36*
X9595000Y-11325000D02*
X9505000Y-11325000D01*
X9505000Y-11235000D01*
X9595000Y-11235000D01*
X9595000Y-11325000D01*
X9595000Y-11325000D01*
G37*
G36*
X9745000Y-11325000D02*
X9655000Y-11325000D01*
X9655000Y-11235000D01*
X9745000Y-11235000D01*
X9745000Y-11325000D01*
X9745000Y-11325000D01*
G37*
G36*
X9295000Y-11325000D02*
X9205000Y-11325000D01*
X9205000Y-11235000D01*
X9295000Y-11235000D01*
X9295000Y-11325000D01*
X9295000Y-11325000D01*
G37*
G36*
X8638339Y-10998084D02*
X8662736Y-11003092D01*
X8685697Y-11012744D01*
X8706345Y-11026671D01*
X8723894Y-11044344D01*
X8737677Y-11065089D01*
X8747168Y-11088116D01*
X8752002Y-11112530D01*
X8752002Y-11112530D01*
X8752005Y-11112547D01*
X8751608Y-11140994D01*
X8751604Y-11141011D01*
X8751604Y-11141012D01*
X8746090Y-11165282D01*
X8735960Y-11188034D01*
X8721603Y-11208386D01*
X8703568Y-11225562D01*
X8682539Y-11238907D01*
X8659318Y-11247914D01*
X8634791Y-11252238D01*
X8609890Y-11251717D01*
X8585565Y-11246369D01*
X8562742Y-11236398D01*
X8542290Y-11222183D01*
X8524989Y-11204268D01*
X8511497Y-11183332D01*
X8502329Y-11160176D01*
X8497833Y-11135679D01*
X8498181Y-11110775D01*
X8503359Y-11086413D01*
X8513170Y-11063521D01*
X8527241Y-11042971D01*
X8545037Y-11025545D01*
X8565877Y-11011908D01*
X8588969Y-11002577D01*
X8613434Y-10997911D01*
X8638339Y-10998084D01*
X8638339Y-10998084D01*
G37*
G36*
X13220000Y-11238000D02*
X13120000Y-11238000D01*
X13120000Y-11178000D01*
X13220000Y-11178000D01*
X13220000Y-11238000D01*
X13220000Y-11238000D01*
G37*
G36*
X9595000Y-11165000D02*
X9505000Y-11165000D01*
X9505000Y-11075000D01*
X9595000Y-11075000D01*
X9595000Y-11165000D01*
X9595000Y-11165000D01*
G37*
G36*
X8995000Y-11165000D02*
X8905000Y-11165000D01*
X8905000Y-11075000D01*
X8995000Y-11075000D01*
X8995000Y-11165000D01*
X8995000Y-11165000D01*
G37*
G36*
X9445000Y-11165000D02*
X9355000Y-11165000D01*
X9355000Y-11075000D01*
X9445000Y-11075000D01*
X9445000Y-11165000D01*
X9445000Y-11165000D01*
G37*
G36*
X9295000Y-11165000D02*
X9205000Y-11165000D01*
X9205000Y-11075000D01*
X9295000Y-11075000D01*
X9295000Y-11165000D01*
X9295000Y-11165000D01*
G37*
G36*
X9745000Y-11165000D02*
X9655000Y-11165000D01*
X9655000Y-11075000D01*
X9745000Y-11075000D01*
X9745000Y-11165000D01*
X9745000Y-11165000D01*
G37*
G36*
X9145000Y-11165000D02*
X9055000Y-11165000D01*
X9055000Y-11075000D01*
X9145000Y-11075000D01*
X9145000Y-11165000D01*
X9145000Y-11165000D01*
G37*
G36*
X11260000Y-11135000D02*
X11160000Y-11135000D01*
X11160000Y-11075000D01*
X11260000Y-11075000D01*
X11260000Y-11135000D01*
X11260000Y-11135000D01*
G37*
G36*
X10650000Y-11135000D02*
X10550000Y-11135000D01*
X10550000Y-11075000D01*
X10650000Y-11075000D01*
X10650000Y-11135000D01*
X10650000Y-11135000D01*
G37*
G36*
X10800000Y-11135000D02*
X10700000Y-11135000D01*
X10700000Y-11075000D01*
X10800000Y-11075000D01*
X10800000Y-11135000D01*
X10800000Y-11135000D01*
G37*
G36*
X10480000Y-11135000D02*
X10380000Y-11135000D01*
X10380000Y-11075000D01*
X10480000Y-11075000D01*
X10480000Y-11135000D01*
X10480000Y-11135000D01*
G37*
G36*
X10950000Y-11135000D02*
X10850000Y-11135000D01*
X10850000Y-11075000D01*
X10950000Y-11075000D01*
X10950000Y-11135000D01*
X10950000Y-11135000D01*
G37*
G36*
X11420000Y-11135000D02*
X11320000Y-11135000D01*
X11320000Y-11075000D01*
X11420000Y-11075000D01*
X11420000Y-11135000D01*
X11420000Y-11135000D01*
G37*
G36*
X11100000Y-11135000D02*
X11000000Y-11135000D01*
X11000000Y-11075000D01*
X11100000Y-11075000D01*
X11100000Y-11135000D01*
X11100000Y-11135000D01*
G37*
G36*
X13220000Y-11088000D02*
X13120000Y-11088000D01*
X13120000Y-11028000D01*
X13220000Y-11028000D01*
X13220000Y-11088000D01*
X13220000Y-11088000D01*
G37*
G36*
X13010871Y-10875569D02*
X13030753Y-10879650D01*
X13049465Y-10887516D01*
X13066293Y-10898866D01*
X13080595Y-10913268D01*
X13091827Y-10930174D01*
X13099562Y-10948941D01*
X13103501Y-10968834D01*
X13103501Y-10968835D01*
X13103504Y-10968851D01*
X13103181Y-10992035D01*
X13103177Y-10992052D01*
X13103177Y-10992052D01*
X13098684Y-11011828D01*
X13090428Y-11030370D01*
X13078728Y-11046956D01*
X13064029Y-11060954D01*
X13046892Y-11071830D01*
X13027968Y-11079170D01*
X13007979Y-11082694D01*
X12987686Y-11082269D01*
X12967862Y-11077911D01*
X12949262Y-11069785D01*
X12932595Y-11058201D01*
X12918495Y-11043600D01*
X12907500Y-11026538D01*
X12900028Y-11007667D01*
X12896364Y-10987703D01*
X12896647Y-10967407D01*
X12900867Y-10947553D01*
X12908863Y-10928897D01*
X12920331Y-10912150D01*
X12934833Y-10897948D01*
X12951817Y-10886834D01*
X12970636Y-10879230D01*
X12990574Y-10875427D01*
X13010871Y-10875569D01*
X13010871Y-10875569D01*
G37*
G36*
X11420000Y-10985000D02*
X11320000Y-10985000D01*
X11320000Y-10925000D01*
X11420000Y-10925000D01*
X11420000Y-10985000D01*
X11420000Y-10985000D01*
G37*
G36*
X10480000Y-10985000D02*
X10380000Y-10985000D01*
X10380000Y-10925000D01*
X10480000Y-10925000D01*
X10480000Y-10985000D01*
X10480000Y-10985000D01*
G37*
G36*
X11100000Y-10985000D02*
X11000000Y-10985000D01*
X11000000Y-10925000D01*
X11100000Y-10925000D01*
X11100000Y-10985000D01*
X11100000Y-10985000D01*
G37*
G36*
X10650000Y-10985000D02*
X10550000Y-10985000D01*
X10550000Y-10925000D01*
X10650000Y-10925000D01*
X10650000Y-10985000D01*
X10650000Y-10985000D01*
G37*
G36*
X10800000Y-10985000D02*
X10700000Y-10985000D01*
X10700000Y-10925000D01*
X10800000Y-10925000D01*
X10800000Y-10985000D01*
X10800000Y-10985000D01*
G37*
G36*
X10950000Y-10985000D02*
X10850000Y-10985000D01*
X10850000Y-10925000D01*
X10950000Y-10925000D01*
X10950000Y-10985000D01*
X10950000Y-10985000D01*
G37*
G36*
X11260000Y-10985000D02*
X11160000Y-10985000D01*
X11160000Y-10925000D01*
X11260000Y-10925000D01*
X11260000Y-10985000D01*
X11260000Y-10985000D01*
G37*
G36*
X13644295Y-10763559D02*
X13661296Y-10767049D01*
X13671648Y-10771400D01*
X13674939Y-10772783D01*
X13677297Y-10773775D01*
X13691685Y-10783480D01*
X13703914Y-10795795D01*
X13713519Y-10810251D01*
X13720133Y-10826297D01*
X13723259Y-10842087D01*
X13723504Y-10843322D01*
X13723227Y-10863146D01*
X13723223Y-10863162D01*
X13723223Y-10863163D01*
X13719382Y-10880070D01*
X13712323Y-10895925D01*
X13702318Y-10910108D01*
X13689750Y-10922076D01*
X13675096Y-10931376D01*
X13658914Y-10937653D01*
X13641823Y-10940666D01*
X13624470Y-10940303D01*
X13607520Y-10936576D01*
X13591616Y-10929628D01*
X13577364Y-10919722D01*
X13565307Y-10907238D01*
X13555906Y-10892649D01*
X13549517Y-10876512D01*
X13546384Y-10859442D01*
X13546626Y-10842087D01*
X13550234Y-10825111D01*
X13557071Y-10809159D01*
X13566877Y-10794838D01*
X13579277Y-10782695D01*
X13593800Y-10773192D01*
X13609892Y-10766690D01*
X13626940Y-10763438D01*
X13644295Y-10763559D01*
X13644295Y-10763559D01*
G37*
G36*
X13898295Y-10763559D02*
X13915296Y-10767049D01*
X13925648Y-10771400D01*
X13928939Y-10772783D01*
X13931297Y-10773775D01*
X13945685Y-10783480D01*
X13957914Y-10795795D01*
X13967519Y-10810251D01*
X13974133Y-10826297D01*
X13977259Y-10842087D01*
X13977504Y-10843322D01*
X13977227Y-10863146D01*
X13977223Y-10863162D01*
X13977223Y-10863163D01*
X13973382Y-10880070D01*
X13966323Y-10895925D01*
X13956318Y-10910108D01*
X13943750Y-10922076D01*
X13929096Y-10931376D01*
X13912914Y-10937653D01*
X13895823Y-10940666D01*
X13878470Y-10940303D01*
X13861520Y-10936576D01*
X13845616Y-10929628D01*
X13831364Y-10919722D01*
X13819307Y-10907238D01*
X13809906Y-10892649D01*
X13803517Y-10876512D01*
X13800384Y-10859442D01*
X13800626Y-10842087D01*
X13804234Y-10825111D01*
X13811071Y-10809159D01*
X13820877Y-10794838D01*
X13833277Y-10782695D01*
X13847800Y-10773192D01*
X13863892Y-10766690D01*
X13880940Y-10763438D01*
X13898295Y-10763559D01*
X13898295Y-10763559D01*
G37*
G36*
X13390295Y-10763559D02*
X13407296Y-10767049D01*
X13417648Y-10771400D01*
X13420939Y-10772783D01*
X13423297Y-10773775D01*
X13437685Y-10783480D01*
X13449914Y-10795795D01*
X13459519Y-10810251D01*
X13466133Y-10826297D01*
X13469259Y-10842087D01*
X13469504Y-10843322D01*
X13469227Y-10863146D01*
X13469223Y-10863162D01*
X13469223Y-10863163D01*
X13465382Y-10880070D01*
X13458323Y-10895925D01*
X13448318Y-10910108D01*
X13435750Y-10922076D01*
X13421096Y-10931376D01*
X13404914Y-10937653D01*
X13387823Y-10940666D01*
X13370470Y-10940303D01*
X13353520Y-10936576D01*
X13337616Y-10929628D01*
X13323364Y-10919722D01*
X13311307Y-10907238D01*
X13301906Y-10892649D01*
X13295517Y-10876512D01*
X13292384Y-10859442D01*
X13292626Y-10842087D01*
X13296234Y-10825111D01*
X13303071Y-10809159D01*
X13312877Y-10794838D01*
X13325277Y-10782695D01*
X13339800Y-10773192D01*
X13355892Y-10766690D01*
X13372940Y-10763438D01*
X13390295Y-10763559D01*
X13390295Y-10763559D01*
G37*
G36*
X8465590Y-10726008D02*
X8465591Y-10726008D01*
X8465692Y-10726009D01*
X8483148Y-10727967D01*
X8499890Y-10733278D01*
X8515283Y-10741740D01*
X8528738Y-10753030D01*
X8539744Y-10766719D01*
X8547882Y-10782285D01*
X8552841Y-10799136D01*
X8552842Y-10799138D01*
X8552842Y-10799138D01*
X8554433Y-10816628D01*
X8552727Y-10832864D01*
X8552597Y-10834097D01*
X8547403Y-10850876D01*
X8539049Y-10866327D01*
X8527853Y-10879861D01*
X8514241Y-10890963D01*
X8498732Y-10899209D01*
X8481917Y-10904286D01*
X8464436Y-10906000D01*
X8463555Y-10906000D01*
X8462410Y-10905992D01*
X8462409Y-10905992D01*
X8462308Y-10905991D01*
X8444852Y-10904033D01*
X8428110Y-10898722D01*
X8412718Y-10890260D01*
X8399262Y-10878970D01*
X8388256Y-10865281D01*
X8380118Y-10849715D01*
X8375159Y-10832864D01*
X8375158Y-10832862D01*
X8375158Y-10832862D01*
X8373567Y-10815372D01*
X8375402Y-10797906D01*
X8375402Y-10797905D01*
X8375403Y-10797903D01*
X8380597Y-10781124D01*
X8388951Y-10765673D01*
X8400147Y-10752139D01*
X8413759Y-10741037D01*
X8429268Y-10732791D01*
X8446083Y-10727714D01*
X8463565Y-10726000D01*
X8464445Y-10726000D01*
X8465590Y-10726008D01*
X8465590Y-10726008D01*
G37*
G36*
X8211590Y-10726008D02*
X8211591Y-10726008D01*
X8211692Y-10726009D01*
X8229148Y-10727967D01*
X8245890Y-10733278D01*
X8261282Y-10741740D01*
X8274738Y-10753030D01*
X8285744Y-10766719D01*
X8293882Y-10782285D01*
X8298841Y-10799136D01*
X8298842Y-10799138D01*
X8298842Y-10799138D01*
X8300433Y-10816628D01*
X8298727Y-10832864D01*
X8298597Y-10834097D01*
X8293403Y-10850876D01*
X8285049Y-10866327D01*
X8273853Y-10879861D01*
X8260241Y-10890963D01*
X8244732Y-10899209D01*
X8227917Y-10904286D01*
X8210435Y-10906000D01*
X8209555Y-10906000D01*
X8208410Y-10905992D01*
X8208409Y-10905992D01*
X8208308Y-10905991D01*
X8190852Y-10904033D01*
X8174110Y-10898722D01*
X8158717Y-10890260D01*
X8145262Y-10878970D01*
X8134256Y-10865281D01*
X8126118Y-10849715D01*
X8121159Y-10832864D01*
X8121158Y-10832862D01*
X8121158Y-10832862D01*
X8119567Y-10815372D01*
X8121402Y-10797906D01*
X8121402Y-10797905D01*
X8121403Y-10797903D01*
X8126597Y-10781124D01*
X8134951Y-10765673D01*
X8146147Y-10752139D01*
X8159759Y-10741037D01*
X8175268Y-10732791D01*
X8192083Y-10727714D01*
X8209564Y-10726000D01*
X8210444Y-10726000D01*
X8211590Y-10726008D01*
X8211590Y-10726008D01*
G37*
G36*
X9190000Y-10900000D02*
X9130000Y-10900000D01*
X9130000Y-10800000D01*
X9190000Y-10800000D01*
X9190000Y-10900000D01*
X9190000Y-10900000D01*
G37*
G36*
X9340000Y-10900000D02*
X9280000Y-10900000D01*
X9280000Y-10800000D01*
X9340000Y-10800000D01*
X9340000Y-10900000D01*
X9340000Y-10900000D01*
G37*
G36*
X11885000Y-10845000D02*
X11825000Y-10845000D01*
X11825000Y-10745000D01*
X11885000Y-10745000D01*
X11885000Y-10845000D01*
X11885000Y-10845000D01*
G37*
G36*
X11735000Y-10845000D02*
X11675000Y-10845000D01*
X11675000Y-10745000D01*
X11735000Y-10745000D01*
X11735000Y-10845000D01*
X11735000Y-10845000D01*
G37*
G36*
X11635000Y-10840000D02*
X11575000Y-10840000D01*
X11575000Y-10740000D01*
X11635000Y-10740000D01*
X11635000Y-10840000D01*
X11635000Y-10840000D01*
G37*
G36*
X11485000Y-10840000D02*
X11425000Y-10840000D01*
X11425000Y-10740000D01*
X11485000Y-10740000D01*
X11485000Y-10840000D01*
X11485000Y-10840000D01*
G37*
G36*
X12093352Y-10640047D02*
X12106799Y-10642807D01*
X12119455Y-10648127D01*
X12130836Y-10655803D01*
X12140509Y-10665544D01*
X12148105Y-10676978D01*
X12153337Y-10689670D01*
X12156000Y-10703119D01*
X12156003Y-10703136D01*
X12155784Y-10718816D01*
X12155780Y-10718833D01*
X12152743Y-10732203D01*
X12147159Y-10744743D01*
X12139246Y-10755961D01*
X12129305Y-10765428D01*
X12117714Y-10772783D01*
X12104915Y-10777748D01*
X12091397Y-10780132D01*
X12077671Y-10779844D01*
X12064264Y-10776896D01*
X12051685Y-10771400D01*
X12040412Y-10763566D01*
X12030876Y-10753691D01*
X12023439Y-10742152D01*
X12018386Y-10729388D01*
X12015908Y-10715886D01*
X12016100Y-10702159D01*
X12018954Y-10688731D01*
X12024362Y-10676114D01*
X12032117Y-10664787D01*
X12041926Y-10655182D01*
X12053412Y-10647666D01*
X12066141Y-10642523D01*
X12079625Y-10639951D01*
X12093352Y-10640047D01*
X12093352Y-10640047D01*
G37*
G36*
X9540000Y-10772500D02*
X9485000Y-10772500D01*
X9485000Y-10617500D01*
X9540000Y-10617500D01*
X9540000Y-10772500D01*
X9540000Y-10772500D01*
G37*
G36*
X9605000Y-10772500D02*
X9550000Y-10772500D01*
X9550000Y-10617500D01*
X9605000Y-10617500D01*
X9605000Y-10772500D01*
X9605000Y-10772500D01*
G37*
G36*
X9735000Y-10772500D02*
X9680000Y-10772500D01*
X9680000Y-10617500D01*
X9735000Y-10617500D01*
X9735000Y-10772500D01*
X9735000Y-10772500D01*
G37*
G36*
X9670000Y-10772500D02*
X9615000Y-10772500D01*
X9615000Y-10617500D01*
X9670000Y-10617500D01*
X9670000Y-10772500D01*
X9670000Y-10772500D01*
G37*
G36*
X13017541Y-10415611D02*
X13049622Y-10422196D01*
X13079814Y-10434888D01*
X13106965Y-10453202D01*
X13130042Y-10476440D01*
X13137089Y-10487047D01*
X13148166Y-10503719D01*
X13154406Y-10518859D01*
X13160646Y-10533998D01*
X13167004Y-10566107D01*
X13167007Y-10566125D01*
X13166485Y-10603532D01*
X13166481Y-10603549D01*
X13166481Y-10603549D01*
X13159229Y-10635469D01*
X13145908Y-10665387D01*
X13127030Y-10692150D01*
X13103313Y-10714735D01*
X13075661Y-10732283D01*
X13045127Y-10744127D01*
X13012874Y-10749814D01*
X12980131Y-10749128D01*
X12948144Y-10742095D01*
X12918133Y-10728984D01*
X12891240Y-10710292D01*
X12868490Y-10686734D01*
X12850749Y-10659205D01*
X12838692Y-10628754D01*
X12832780Y-10596542D01*
X12833238Y-10563795D01*
X12840047Y-10531760D01*
X12852949Y-10501658D01*
X12871451Y-10474635D01*
X12894851Y-10451721D01*
X12922255Y-10433788D01*
X12952621Y-10421519D01*
X12984791Y-10415383D01*
X13017541Y-10415611D01*
X13017541Y-10415611D01*
G37*
G36*
X9372500Y-10745000D02*
X9252500Y-10745000D01*
X9252500Y-10605000D01*
X9372500Y-10605000D01*
X9372500Y-10745000D01*
X9372500Y-10745000D01*
G37*
G36*
X9207500Y-10745000D02*
X9087500Y-10745000D01*
X9087500Y-10605000D01*
X9207500Y-10605000D01*
X9207500Y-10745000D01*
X9207500Y-10745000D01*
G37*
G36*
X11315000Y-10732500D02*
X11275000Y-10732500D01*
X11275000Y-10637500D01*
X11315000Y-10637500D01*
X11315000Y-10732500D01*
X11315000Y-10732500D01*
G37*
G36*
X11065000Y-10732500D02*
X11025000Y-10732500D01*
X11025000Y-10637500D01*
X11065000Y-10637500D01*
X11065000Y-10732500D01*
X11065000Y-10732500D01*
G37*
G36*
X11115000Y-10732500D02*
X11075000Y-10732500D01*
X11075000Y-10637500D01*
X11115000Y-10637500D01*
X11115000Y-10732500D01*
X11115000Y-10732500D01*
G37*
G36*
X11165000Y-10732500D02*
X11125000Y-10732500D01*
X11125000Y-10637500D01*
X11165000Y-10637500D01*
X11165000Y-10732500D01*
X11165000Y-10732500D01*
G37*
G36*
X11215000Y-10732500D02*
X11175000Y-10732500D01*
X11175000Y-10637500D01*
X11215000Y-10637500D01*
X11215000Y-10732500D01*
X11215000Y-10732500D01*
G37*
G36*
X11265000Y-10732500D02*
X11225000Y-10732500D01*
X11225000Y-10637500D01*
X11265000Y-10637500D01*
X11265000Y-10732500D01*
X11265000Y-10732500D01*
G37*
G36*
X11365000Y-10732500D02*
X11325000Y-10732500D01*
X11325000Y-10637500D01*
X11365000Y-10637500D01*
X11365000Y-10732500D01*
X11365000Y-10732500D01*
G37*
G36*
X11015000Y-10732500D02*
X10975000Y-10732500D01*
X10975000Y-10637500D01*
X11015000Y-10637500D01*
X11015000Y-10732500D01*
X11015000Y-10732500D01*
G37*
G36*
X10965000Y-10732500D02*
X10925000Y-10732500D01*
X10925000Y-10637500D01*
X10965000Y-10637500D01*
X10965000Y-10732500D01*
X10965000Y-10732500D01*
G37*
G36*
X10915000Y-10732500D02*
X10875000Y-10732500D01*
X10875000Y-10637500D01*
X10915000Y-10637500D01*
X10915000Y-10732500D01*
X10915000Y-10732500D01*
G37*
G36*
X10865000Y-10732500D02*
X10825000Y-10732500D01*
X10825000Y-10637500D01*
X10865000Y-10637500D01*
X10865000Y-10732500D01*
X10865000Y-10732500D01*
G37*
G36*
X10815000Y-10732500D02*
X10775000Y-10732500D01*
X10775000Y-10637500D01*
X10815000Y-10637500D01*
X10815000Y-10732500D01*
X10815000Y-10732500D01*
G37*
G36*
X10765000Y-10732500D02*
X10725000Y-10732500D01*
X10725000Y-10637500D01*
X10765000Y-10637500D01*
X10765000Y-10732500D01*
X10765000Y-10732500D01*
G37*
G36*
X10715000Y-10732500D02*
X10675000Y-10732500D01*
X10675000Y-10637500D01*
X10715000Y-10637500D01*
X10715000Y-10732500D01*
X10715000Y-10732500D01*
G37*
G36*
X10665000Y-10732500D02*
X10625000Y-10732500D01*
X10625000Y-10637500D01*
X10665000Y-10637500D01*
X10665000Y-10732500D01*
X10665000Y-10732500D01*
G37*
G36*
X11415000Y-10732500D02*
X11375000Y-10732500D01*
X11375000Y-10637500D01*
X11415000Y-10637500D01*
X11415000Y-10732500D01*
X11415000Y-10732500D01*
G37*
G36*
X12347352Y-10538047D02*
X12360799Y-10540807D01*
X12373455Y-10546127D01*
X12384836Y-10553803D01*
X12394509Y-10563544D01*
X12402105Y-10574978D01*
X12407337Y-10587670D01*
X12410000Y-10601119D01*
X12410003Y-10601136D01*
X12409784Y-10616816D01*
X12409780Y-10616833D01*
X12406743Y-10630203D01*
X12401159Y-10642743D01*
X12393246Y-10653961D01*
X12383305Y-10663428D01*
X12371714Y-10670783D01*
X12358915Y-10675748D01*
X12345397Y-10678132D01*
X12331671Y-10677844D01*
X12318264Y-10674896D01*
X12305685Y-10669400D01*
X12294412Y-10661566D01*
X12284876Y-10651691D01*
X12277439Y-10640152D01*
X12272386Y-10627388D01*
X12269908Y-10613886D01*
X12270100Y-10600159D01*
X12272954Y-10586731D01*
X12278362Y-10574114D01*
X12286117Y-10562787D01*
X12295926Y-10553182D01*
X12307412Y-10545666D01*
X12320141Y-10540523D01*
X12333625Y-10537951D01*
X12347352Y-10538047D01*
X12347352Y-10538047D01*
G37*
G36*
X8211590Y-10472008D02*
X8211591Y-10472008D01*
X8211692Y-10472009D01*
X8229148Y-10473967D01*
X8245890Y-10479278D01*
X8261282Y-10487740D01*
X8274738Y-10499030D01*
X8285744Y-10512719D01*
X8293882Y-10528285D01*
X8298841Y-10545136D01*
X8298842Y-10545138D01*
X8298842Y-10545138D01*
X8300433Y-10562628D01*
X8298727Y-10578864D01*
X8298597Y-10580097D01*
X8293403Y-10596876D01*
X8285049Y-10612327D01*
X8273853Y-10625861D01*
X8260241Y-10636963D01*
X8244732Y-10645209D01*
X8227917Y-10650286D01*
X8210435Y-10652000D01*
X8209555Y-10652000D01*
X8208410Y-10651992D01*
X8208409Y-10651992D01*
X8208308Y-10651991D01*
X8190852Y-10650033D01*
X8174110Y-10644722D01*
X8158717Y-10636260D01*
X8145262Y-10624970D01*
X8134256Y-10611281D01*
X8126118Y-10595715D01*
X8121159Y-10578864D01*
X8121158Y-10578862D01*
X8121158Y-10578862D01*
X8119567Y-10561372D01*
X8121402Y-10543906D01*
X8121402Y-10543905D01*
X8121403Y-10543903D01*
X8126597Y-10527124D01*
X8134951Y-10511673D01*
X8146147Y-10498139D01*
X8159759Y-10487037D01*
X8175268Y-10478791D01*
X8192083Y-10473714D01*
X8209564Y-10472000D01*
X8210444Y-10472000D01*
X8211590Y-10472008D01*
X8211590Y-10472008D01*
G37*
G36*
X8465590Y-10472008D02*
X8465591Y-10472008D01*
X8465692Y-10472009D01*
X8483148Y-10473967D01*
X8499890Y-10479278D01*
X8515283Y-10487740D01*
X8528738Y-10499030D01*
X8539744Y-10512719D01*
X8547882Y-10528285D01*
X8552841Y-10545136D01*
X8552842Y-10545138D01*
X8552842Y-10545138D01*
X8554433Y-10562628D01*
X8552727Y-10578864D01*
X8552597Y-10580097D01*
X8547403Y-10596876D01*
X8539049Y-10612327D01*
X8527853Y-10625861D01*
X8514241Y-10636963D01*
X8498732Y-10645209D01*
X8481917Y-10650286D01*
X8464436Y-10652000D01*
X8463555Y-10652000D01*
X8462410Y-10651992D01*
X8462409Y-10651992D01*
X8462308Y-10651991D01*
X8444852Y-10650033D01*
X8428110Y-10644722D01*
X8412718Y-10636260D01*
X8399262Y-10624970D01*
X8388256Y-10611281D01*
X8380118Y-10595715D01*
X8375159Y-10578864D01*
X8375158Y-10578862D01*
X8375158Y-10578862D01*
X8373567Y-10561372D01*
X8375402Y-10543906D01*
X8375402Y-10543905D01*
X8375403Y-10543903D01*
X8380597Y-10527124D01*
X8388951Y-10511673D01*
X8400147Y-10498139D01*
X8413759Y-10487037D01*
X8429268Y-10478791D01*
X8446083Y-10473714D01*
X8463565Y-10472000D01*
X8464445Y-10472000D01*
X8465590Y-10472008D01*
X8465590Y-10472008D01*
G37*
G36*
X10622500Y-10635000D02*
X10527500Y-10635000D01*
X10527500Y-10595000D01*
X10622500Y-10595000D01*
X10622500Y-10635000D01*
X10622500Y-10635000D01*
G37*
G36*
X11512500Y-10635000D02*
X11417500Y-10635000D01*
X11417500Y-10595000D01*
X11512500Y-10595000D01*
X11512500Y-10635000D01*
X11512500Y-10635000D01*
G37*
G36*
X11392500Y-10612500D02*
X10647500Y-10612500D01*
X10647500Y-9867500D01*
X11392500Y-9867500D01*
X11392500Y-10612500D01*
X11392500Y-10612500D01*
G37*
G36*
X10622500Y-10585000D02*
X10527500Y-10585000D01*
X10527500Y-10545000D01*
X10622500Y-10545000D01*
X10622500Y-10585000D01*
X10622500Y-10585000D01*
G37*
G36*
X11512500Y-10585000D02*
X11417500Y-10585000D01*
X11417500Y-10545000D01*
X11512500Y-10545000D01*
X11512500Y-10585000D01*
X11512500Y-10585000D01*
G37*
G36*
X12093352Y-10437047D02*
X12106799Y-10439807D01*
X12119455Y-10445127D01*
X12130836Y-10452803D01*
X12140509Y-10462544D01*
X12148098Y-10473967D01*
X12148105Y-10473978D01*
X12148376Y-10474635D01*
X12153337Y-10486670D01*
X12156000Y-10500119D01*
X12156003Y-10500136D01*
X12155784Y-10515816D01*
X12155780Y-10515833D01*
X12152743Y-10529203D01*
X12147159Y-10541743D01*
X12139246Y-10552961D01*
X12129305Y-10562428D01*
X12117714Y-10569783D01*
X12104915Y-10574748D01*
X12091397Y-10577132D01*
X12077671Y-10576844D01*
X12064264Y-10573896D01*
X12051685Y-10568400D01*
X12040412Y-10560566D01*
X12030876Y-10550691D01*
X12023439Y-10539152D01*
X12018386Y-10526388D01*
X12015908Y-10512886D01*
X12016100Y-10499159D01*
X12018954Y-10485731D01*
X12024362Y-10473114D01*
X12032117Y-10461787D01*
X12041926Y-10452182D01*
X12053412Y-10444666D01*
X12066141Y-10439523D01*
X12079625Y-10436951D01*
X12093352Y-10437047D01*
X12093352Y-10437047D01*
G37*
G36*
X11512500Y-10535000D02*
X11417500Y-10535000D01*
X11417500Y-10495000D01*
X11512500Y-10495000D01*
X11512500Y-10535000D01*
X11512500Y-10535000D01*
G37*
G36*
X9372500Y-10535000D02*
X9252500Y-10535000D01*
X9252500Y-10395000D01*
X9372500Y-10395000D01*
X9372500Y-10535000D01*
X9372500Y-10535000D01*
G37*
G36*
X9207500Y-10535000D02*
X9087500Y-10535000D01*
X9087500Y-10395000D01*
X9207500Y-10395000D01*
X9207500Y-10535000D01*
X9207500Y-10535000D01*
G37*
G36*
X10622500Y-10535000D02*
X10527500Y-10535000D01*
X10527500Y-10495000D01*
X10622500Y-10495000D01*
X10622500Y-10535000D01*
X10622500Y-10535000D01*
G37*
G36*
X10622500Y-10485000D02*
X10527500Y-10485000D01*
X10527500Y-10445000D01*
X10622500Y-10445000D01*
X10622500Y-10485000D01*
X10622500Y-10485000D01*
G37*
G36*
X11512500Y-10485000D02*
X11417500Y-10485000D01*
X11417500Y-10445000D01*
X11512500Y-10445000D01*
X11512500Y-10485000D01*
X11512500Y-10485000D01*
G37*
G36*
X12347352Y-10335047D02*
X12360799Y-10337807D01*
X12373455Y-10343127D01*
X12384836Y-10350803D01*
X12394509Y-10360544D01*
X12402105Y-10371978D01*
X12407337Y-10384670D01*
X12409974Y-10397992D01*
X12410003Y-10398136D01*
X12409784Y-10413816D01*
X12409780Y-10413833D01*
X12406743Y-10427203D01*
X12401159Y-10439743D01*
X12393246Y-10450961D01*
X12383305Y-10460428D01*
X12371714Y-10467783D01*
X12358915Y-10472748D01*
X12345397Y-10475132D01*
X12331671Y-10474844D01*
X12318264Y-10471896D01*
X12305685Y-10466400D01*
X12294412Y-10458566D01*
X12284876Y-10448691D01*
X12277439Y-10437152D01*
X12272386Y-10424388D01*
X12269908Y-10410886D01*
X12270100Y-10397159D01*
X12272954Y-10383731D01*
X12278362Y-10371114D01*
X12286117Y-10359787D01*
X12295926Y-10350182D01*
X12307412Y-10342666D01*
X12320141Y-10337523D01*
X12333625Y-10334951D01*
X12347352Y-10335047D01*
X12347352Y-10335047D01*
G37*
G36*
X10622500Y-10435000D02*
X10527500Y-10435000D01*
X10527500Y-10395000D01*
X10622500Y-10395000D01*
X10622500Y-10435000D01*
X10622500Y-10435000D01*
G37*
G36*
X11512500Y-10435000D02*
X11417500Y-10435000D01*
X11417500Y-10395000D01*
X11512500Y-10395000D01*
X11512500Y-10435000D01*
X11512500Y-10435000D01*
G37*
G36*
X8465590Y-10218008D02*
X8465591Y-10218008D01*
X8465692Y-10218009D01*
X8483148Y-10219967D01*
X8499890Y-10225278D01*
X8515283Y-10233740D01*
X8528738Y-10245030D01*
X8539744Y-10258719D01*
X8547882Y-10274285D01*
X8552841Y-10291136D01*
X8552842Y-10291138D01*
X8552842Y-10291138D01*
X8554433Y-10308628D01*
X8552727Y-10324864D01*
X8552597Y-10326097D01*
X8547403Y-10342876D01*
X8539049Y-10358327D01*
X8527853Y-10371861D01*
X8514241Y-10382963D01*
X8498732Y-10391209D01*
X8481917Y-10396286D01*
X8464436Y-10398000D01*
X8463555Y-10398000D01*
X8462410Y-10397992D01*
X8462409Y-10397992D01*
X8462308Y-10397991D01*
X8444852Y-10396033D01*
X8428110Y-10390722D01*
X8412718Y-10382260D01*
X8399262Y-10370970D01*
X8388256Y-10357281D01*
X8380118Y-10341715D01*
X8375159Y-10324864D01*
X8375158Y-10324862D01*
X8375158Y-10324862D01*
X8373567Y-10307372D01*
X8375402Y-10289906D01*
X8375402Y-10289905D01*
X8375403Y-10289903D01*
X8380597Y-10273124D01*
X8388951Y-10257673D01*
X8400147Y-10244139D01*
X8413759Y-10233037D01*
X8429268Y-10224791D01*
X8446083Y-10219714D01*
X8463565Y-10218000D01*
X8464445Y-10218000D01*
X8465590Y-10218008D01*
X8465590Y-10218008D01*
G37*
G36*
X8211590Y-10218008D02*
X8211591Y-10218008D01*
X8211692Y-10218009D01*
X8229148Y-10219967D01*
X8245890Y-10225278D01*
X8261282Y-10233740D01*
X8274738Y-10245030D01*
X8285744Y-10258719D01*
X8293882Y-10274285D01*
X8298841Y-10291136D01*
X8298842Y-10291138D01*
X8298842Y-10291138D01*
X8300433Y-10308628D01*
X8298727Y-10324864D01*
X8298597Y-10326097D01*
X8293403Y-10342876D01*
X8285049Y-10358327D01*
X8273853Y-10371861D01*
X8260241Y-10382963D01*
X8244732Y-10391209D01*
X8227917Y-10396286D01*
X8210435Y-10398000D01*
X8209555Y-10398000D01*
X8208410Y-10397992D01*
X8208409Y-10397992D01*
X8208308Y-10397991D01*
X8190852Y-10396033D01*
X8174110Y-10390722D01*
X8158717Y-10382260D01*
X8145262Y-10370970D01*
X8134256Y-10357281D01*
X8126118Y-10341715D01*
X8121159Y-10324864D01*
X8121158Y-10324862D01*
X8121158Y-10324862D01*
X8119567Y-10307372D01*
X8121402Y-10289906D01*
X8121402Y-10289905D01*
X8121403Y-10289903D01*
X8126597Y-10273124D01*
X8134951Y-10257673D01*
X8146147Y-10244139D01*
X8159759Y-10233037D01*
X8175268Y-10224791D01*
X8192083Y-10219714D01*
X8209564Y-10218000D01*
X8210444Y-10218000D01*
X8211590Y-10218008D01*
X8211590Y-10218008D01*
G37*
G36*
X11512500Y-10385000D02*
X11417500Y-10385000D01*
X11417500Y-10345000D01*
X11512500Y-10345000D01*
X11512500Y-10385000D01*
X11512500Y-10385000D01*
G37*
G36*
X10622500Y-10385000D02*
X10527500Y-10385000D01*
X10527500Y-10345000D01*
X10622500Y-10345000D01*
X10622500Y-10385000D01*
X10622500Y-10385000D01*
G37*
G36*
X12093352Y-10234047D02*
X12106799Y-10236807D01*
X12119455Y-10242127D01*
X12130836Y-10249803D01*
X12140509Y-10259544D01*
X12148105Y-10270978D01*
X12153337Y-10283670D01*
X12156000Y-10297119D01*
X12156003Y-10297136D01*
X12155784Y-10312816D01*
X12155780Y-10312833D01*
X12152743Y-10326203D01*
X12147159Y-10338743D01*
X12139246Y-10349961D01*
X12129305Y-10359428D01*
X12117714Y-10366783D01*
X12104915Y-10371748D01*
X12091397Y-10374132D01*
X12077671Y-10373844D01*
X12064264Y-10370896D01*
X12051685Y-10365400D01*
X12040412Y-10357566D01*
X12030876Y-10347691D01*
X12023439Y-10336152D01*
X12018386Y-10323388D01*
X12015908Y-10309886D01*
X12016100Y-10296159D01*
X12018954Y-10282731D01*
X12024362Y-10270114D01*
X12032117Y-10258787D01*
X12041926Y-10249182D01*
X12053412Y-10241666D01*
X12066141Y-10236523D01*
X12079625Y-10233951D01*
X12093352Y-10234047D01*
X12093352Y-10234047D01*
G37*
G36*
X11512500Y-10335000D02*
X11417500Y-10335000D01*
X11417500Y-10295000D01*
X11512500Y-10295000D01*
X11512500Y-10335000D01*
X11512500Y-10335000D01*
G37*
G36*
X10622500Y-10335000D02*
X10527500Y-10335000D01*
X10527500Y-10295000D01*
X10622500Y-10295000D01*
X10622500Y-10335000D01*
X10622500Y-10335000D01*
G37*
G36*
X11512500Y-10285000D02*
X11417500Y-10285000D01*
X11417500Y-10245000D01*
X11512500Y-10245000D01*
X11512500Y-10285000D01*
X11512500Y-10285000D01*
G37*
G36*
X10622500Y-10285000D02*
X10527500Y-10285000D01*
X10527500Y-10245000D01*
X10622500Y-10245000D01*
X10622500Y-10285000D01*
X10622500Y-10285000D01*
G37*
G36*
X12347352Y-10132047D02*
X12360799Y-10134807D01*
X12373455Y-10140127D01*
X12384836Y-10147803D01*
X12394509Y-10157544D01*
X12402105Y-10168978D01*
X12407337Y-10181670D01*
X12409976Y-10195000D01*
X12410003Y-10195136D01*
X12409784Y-10210816D01*
X12409780Y-10210833D01*
X12406743Y-10224203D01*
X12401159Y-10236743D01*
X12393246Y-10247961D01*
X12383305Y-10257428D01*
X12371714Y-10264783D01*
X12358915Y-10269748D01*
X12345397Y-10272132D01*
X12331671Y-10271844D01*
X12318264Y-10268896D01*
X12305685Y-10263400D01*
X12294412Y-10255566D01*
X12284876Y-10245691D01*
X12277439Y-10234152D01*
X12272386Y-10221388D01*
X12269908Y-10207886D01*
X12270100Y-10194159D01*
X12272954Y-10180731D01*
X12278362Y-10168114D01*
X12286117Y-10156787D01*
X12295926Y-10147182D01*
X12307412Y-10139666D01*
X12320141Y-10134523D01*
X12333625Y-10131951D01*
X12347352Y-10132047D01*
X12347352Y-10132047D01*
G37*
G36*
X11512500Y-10235000D02*
X11417500Y-10235000D01*
X11417500Y-10195000D01*
X11512500Y-10195000D01*
X11512500Y-10235000D01*
X11512500Y-10235000D01*
G37*
G36*
X10622500Y-10235000D02*
X10527500Y-10235000D01*
X10527500Y-10195000D01*
X10622500Y-10195000D01*
X10622500Y-10235000D01*
X10622500Y-10235000D01*
G37*
G36*
X10622500Y-10185000D02*
X10527500Y-10185000D01*
X10527500Y-10145000D01*
X10622500Y-10145000D01*
X10622500Y-10185000D01*
X10622500Y-10185000D01*
G37*
G36*
X11512500Y-10185000D02*
X11417500Y-10185000D01*
X11417500Y-10145000D01*
X11512500Y-10145000D01*
X11512500Y-10185000D01*
X11512500Y-10185000D01*
G37*
G36*
X9735000Y-10182500D02*
X9680000Y-10182500D01*
X9680000Y-10027500D01*
X9735000Y-10027500D01*
X9735000Y-10182500D01*
X9735000Y-10182500D01*
G37*
G36*
X9605000Y-10182500D02*
X9550000Y-10182500D01*
X9550000Y-10027500D01*
X9605000Y-10027500D01*
X9605000Y-10182500D01*
X9605000Y-10182500D01*
G37*
G36*
X9540000Y-10182500D02*
X9485000Y-10182500D01*
X9485000Y-10027500D01*
X9540000Y-10027500D01*
X9540000Y-10182500D01*
X9540000Y-10182500D01*
G37*
G36*
X9670000Y-10182500D02*
X9615000Y-10182500D01*
X9615000Y-10027500D01*
X9670000Y-10027500D01*
X9670000Y-10182500D01*
X9670000Y-10182500D01*
G37*
G36*
X8211590Y-9964008D02*
X8211591Y-9964008D01*
X8211692Y-9964009D01*
X8229148Y-9965967D01*
X8245890Y-9971278D01*
X8261282Y-9979740D01*
X8274738Y-9991030D01*
X8285744Y-10004719D01*
X8293882Y-10020285D01*
X8298841Y-10037136D01*
X8298842Y-10037138D01*
X8298842Y-10037138D01*
X8300433Y-10054628D01*
X8298727Y-10070864D01*
X8298597Y-10072097D01*
X8293403Y-10088876D01*
X8285049Y-10104327D01*
X8273853Y-10117861D01*
X8260241Y-10128963D01*
X8244732Y-10137209D01*
X8227917Y-10142286D01*
X8210435Y-10144000D01*
X8209555Y-10144000D01*
X8208410Y-10143992D01*
X8208409Y-10143992D01*
X8208308Y-10143991D01*
X8190852Y-10142033D01*
X8174110Y-10136722D01*
X8158717Y-10128260D01*
X8145262Y-10116970D01*
X8134256Y-10103281D01*
X8126118Y-10087715D01*
X8121159Y-10070864D01*
X8121158Y-10070862D01*
X8121158Y-10070862D01*
X8119567Y-10053372D01*
X8121402Y-10035906D01*
X8121402Y-10035905D01*
X8121403Y-10035903D01*
X8126597Y-10019124D01*
X8134951Y-10003673D01*
X8146147Y-9990139D01*
X8159759Y-9979037D01*
X8175268Y-9970791D01*
X8192083Y-9965714D01*
X8209564Y-9964000D01*
X8210444Y-9964000D01*
X8211590Y-9964008D01*
X8211590Y-9964008D01*
G37*
G36*
X8465590Y-9964008D02*
X8465591Y-9964008D01*
X8465692Y-9964009D01*
X8483148Y-9965967D01*
X8499890Y-9971278D01*
X8515283Y-9979740D01*
X8528738Y-9991030D01*
X8539744Y-10004719D01*
X8547882Y-10020285D01*
X8552841Y-10037136D01*
X8552842Y-10037138D01*
X8552842Y-10037138D01*
X8554433Y-10054628D01*
X8552727Y-10070864D01*
X8552597Y-10072097D01*
X8547403Y-10088876D01*
X8539049Y-10104327D01*
X8527853Y-10117861D01*
X8514241Y-10128963D01*
X8498732Y-10137209D01*
X8481917Y-10142286D01*
X8464436Y-10144000D01*
X8463555Y-10144000D01*
X8462410Y-10143992D01*
X8462409Y-10143992D01*
X8462308Y-10143991D01*
X8444852Y-10142033D01*
X8428110Y-10136722D01*
X8412718Y-10128260D01*
X8399262Y-10116970D01*
X8388256Y-10103281D01*
X8380118Y-10087715D01*
X8375159Y-10070864D01*
X8375158Y-10070862D01*
X8375158Y-10070862D01*
X8373567Y-10053372D01*
X8375402Y-10035906D01*
X8375402Y-10035905D01*
X8375403Y-10035903D01*
X8380597Y-10019124D01*
X8388951Y-10003673D01*
X8400147Y-9990139D01*
X8413759Y-9979037D01*
X8429268Y-9970791D01*
X8446083Y-9965714D01*
X8463565Y-9964000D01*
X8464445Y-9964000D01*
X8465590Y-9964008D01*
X8465590Y-9964008D01*
G37*
G36*
X10622500Y-10135000D02*
X10527500Y-10135000D01*
X10527500Y-10095000D01*
X10622500Y-10095000D01*
X10622500Y-10135000D01*
X10622500Y-10135000D01*
G37*
G36*
X11512500Y-10135000D02*
X11417500Y-10135000D01*
X11417500Y-10095000D01*
X11512500Y-10095000D01*
X11512500Y-10135000D01*
X11512500Y-10135000D01*
G37*
G36*
X10622500Y-10085000D02*
X10527500Y-10085000D01*
X10527500Y-10045000D01*
X10622500Y-10045000D01*
X10622500Y-10085000D01*
X10622500Y-10085000D01*
G37*
G36*
X11512500Y-10085000D02*
X11417500Y-10085000D01*
X11417500Y-10045000D01*
X11512500Y-10045000D01*
X11512500Y-10085000D01*
X11512500Y-10085000D01*
G37*
G36*
X12347352Y-9928047D02*
X12360799Y-9930807D01*
X12373455Y-9936127D01*
X12384836Y-9943803D01*
X12394509Y-9953544D01*
X12402105Y-9964978D01*
X12402105Y-9964978D01*
X12402414Y-9965726D01*
X12407337Y-9977670D01*
X12410000Y-9991119D01*
X12410003Y-9991136D01*
X12409784Y-10006816D01*
X12409780Y-10006833D01*
X12406743Y-10020203D01*
X12401159Y-10032743D01*
X12393246Y-10043961D01*
X12383305Y-10053428D01*
X12371714Y-10060783D01*
X12358915Y-10065748D01*
X12345397Y-10068132D01*
X12331671Y-10067844D01*
X12318264Y-10064896D01*
X12305685Y-10059400D01*
X12294412Y-10051566D01*
X12284876Y-10041691D01*
X12277439Y-10030152D01*
X12272386Y-10017388D01*
X12269908Y-10003886D01*
X12270100Y-9990159D01*
X12272954Y-9976731D01*
X12278362Y-9964114D01*
X12286117Y-9952787D01*
X12295926Y-9943182D01*
X12307412Y-9935666D01*
X12320141Y-9930523D01*
X12333625Y-9927951D01*
X12347352Y-9928047D01*
X12347352Y-9928047D01*
G37*
G36*
X10622500Y-10035000D02*
X10527500Y-10035000D01*
X10527500Y-9995000D01*
X10622500Y-9995000D01*
X10622500Y-10035000D01*
X10622500Y-10035000D01*
G37*
G36*
X11512500Y-10035000D02*
X11417500Y-10035000D01*
X11417500Y-9995000D01*
X11512500Y-9995000D01*
X11512500Y-10035000D01*
X11512500Y-10035000D01*
G37*
G36*
X11512500Y-9985000D02*
X11417500Y-9985000D01*
X11417500Y-9945000D01*
X11512500Y-9945000D01*
X11512500Y-9985000D01*
X11512500Y-9985000D01*
G37*
G36*
X10622500Y-9985000D02*
X10527500Y-9985000D01*
X10527500Y-9945000D01*
X10622500Y-9945000D01*
X10622500Y-9985000D01*
X10622500Y-9985000D01*
G37*
G36*
X12093352Y-9826047D02*
X12106799Y-9828807D01*
X12119455Y-9834127D01*
X12130836Y-9841803D01*
X12140509Y-9851544D01*
X12148105Y-9862978D01*
X12153337Y-9875670D01*
X12155835Y-9888286D01*
X12156003Y-9889136D01*
X12155784Y-9904816D01*
X12155780Y-9904833D01*
X12152743Y-9918203D01*
X12147159Y-9930743D01*
X12139246Y-9941961D01*
X12129305Y-9951428D01*
X12117714Y-9958783D01*
X12104915Y-9963748D01*
X12091397Y-9966132D01*
X12077671Y-9965844D01*
X12064264Y-9962896D01*
X12051685Y-9957400D01*
X12040412Y-9949566D01*
X12030876Y-9939691D01*
X12023439Y-9928152D01*
X12018386Y-9915388D01*
X12015908Y-9901886D01*
X12016100Y-9888159D01*
X12018954Y-9874731D01*
X12024362Y-9862114D01*
X12032117Y-9850787D01*
X12041926Y-9841182D01*
X12053412Y-9833666D01*
X12066141Y-9828523D01*
X12079625Y-9825951D01*
X12093352Y-9826047D01*
X12093352Y-9826047D01*
G37*
G36*
X11512500Y-9935000D02*
X11417500Y-9935000D01*
X11417500Y-9895000D01*
X11512500Y-9895000D01*
X11512500Y-9935000D01*
X11512500Y-9935000D01*
G37*
G36*
X10622500Y-9935000D02*
X10527500Y-9935000D01*
X10527500Y-9895000D01*
X10622500Y-9895000D01*
X10622500Y-9935000D01*
X10622500Y-9935000D01*
G37*
G36*
X8465590Y-9710008D02*
X8465591Y-9710008D01*
X8465692Y-9710009D01*
X8483148Y-9711967D01*
X8499890Y-9717278D01*
X8515283Y-9725740D01*
X8528738Y-9737030D01*
X8539744Y-9750719D01*
X8547882Y-9766285D01*
X8552841Y-9783136D01*
X8552842Y-9783138D01*
X8552842Y-9783138D01*
X8554433Y-9800628D01*
X8552598Y-9818095D01*
X8552597Y-9818097D01*
X8547403Y-9834876D01*
X8539049Y-9850327D01*
X8527853Y-9863861D01*
X8514241Y-9874963D01*
X8498732Y-9883209D01*
X8481917Y-9888286D01*
X8464436Y-9890000D01*
X8463555Y-9890000D01*
X8462410Y-9889992D01*
X8462409Y-9889992D01*
X8462308Y-9889991D01*
X8444852Y-9888033D01*
X8428110Y-9882722D01*
X8412718Y-9874260D01*
X8399262Y-9862970D01*
X8388256Y-9849281D01*
X8380118Y-9833715D01*
X8375159Y-9816864D01*
X8375158Y-9816862D01*
X8375158Y-9816862D01*
X8373567Y-9799372D01*
X8375402Y-9781906D01*
X8375402Y-9781905D01*
X8375403Y-9781903D01*
X8380597Y-9765124D01*
X8388951Y-9749673D01*
X8400147Y-9736139D01*
X8413759Y-9725037D01*
X8429268Y-9716791D01*
X8446083Y-9711714D01*
X8463565Y-9710000D01*
X8464445Y-9710000D01*
X8465590Y-9710008D01*
X8465590Y-9710008D01*
G37*
G36*
X8300000Y-9890000D02*
X8120000Y-9890000D01*
X8120000Y-9710000D01*
X8300000Y-9710000D01*
X8300000Y-9890000D01*
X8300000Y-9890000D01*
G37*
G36*
X10622500Y-9885000D02*
X10527500Y-9885000D01*
X10527500Y-9845000D01*
X10622500Y-9845000D01*
X10622500Y-9885000D01*
X10622500Y-9885000D01*
G37*
G36*
X11512500Y-9885000D02*
X11417500Y-9885000D01*
X11417500Y-9845000D01*
X11512500Y-9845000D01*
X11512500Y-9885000D01*
X11512500Y-9885000D01*
G37*
G36*
X12347352Y-9725047D02*
X12360799Y-9727807D01*
X12373455Y-9733127D01*
X12384836Y-9740803D01*
X12394509Y-9750544D01*
X12402105Y-9761978D01*
X12407337Y-9774670D01*
X12410000Y-9788119D01*
X12410003Y-9788136D01*
X12409784Y-9803816D01*
X12409780Y-9803833D01*
X12406743Y-9817203D01*
X12401159Y-9829743D01*
X12393246Y-9840961D01*
X12383305Y-9850428D01*
X12371714Y-9857783D01*
X12358915Y-9862748D01*
X12345397Y-9865132D01*
X12331671Y-9864844D01*
X12318264Y-9861896D01*
X12305685Y-9856400D01*
X12294412Y-9848566D01*
X12284876Y-9838691D01*
X12277439Y-9827152D01*
X12272386Y-9814388D01*
X12269908Y-9800886D01*
X12270100Y-9787159D01*
X12272954Y-9773731D01*
X12278362Y-9761114D01*
X12286117Y-9749787D01*
X12295926Y-9740182D01*
X12307412Y-9732666D01*
X12320141Y-9727523D01*
X12333625Y-9724951D01*
X12347352Y-9725047D01*
X12347352Y-9725047D01*
G37*
G36*
X11365000Y-9842500D02*
X11325000Y-9842500D01*
X11325000Y-9747500D01*
X11365000Y-9747500D01*
X11365000Y-9842500D01*
X11365000Y-9842500D01*
G37*
G36*
X11415000Y-9842500D02*
X11375000Y-9842500D01*
X11375000Y-9747500D01*
X11415000Y-9747500D01*
X11415000Y-9842500D01*
X11415000Y-9842500D01*
G37*
G36*
X10665000Y-9842500D02*
X10625000Y-9842500D01*
X10625000Y-9747500D01*
X10665000Y-9747500D01*
X10665000Y-9842500D01*
X10665000Y-9842500D01*
G37*
G36*
X10715000Y-9842500D02*
X10675000Y-9842500D01*
X10675000Y-9747500D01*
X10715000Y-9747500D01*
X10715000Y-9842500D01*
X10715000Y-9842500D01*
G37*
G36*
X10865000Y-9842500D02*
X10825000Y-9842500D01*
X10825000Y-9747500D01*
X10865000Y-9747500D01*
X10865000Y-9842500D01*
X10865000Y-9842500D01*
G37*
G36*
X10915000Y-9842500D02*
X10875000Y-9842500D01*
X10875000Y-9747500D01*
X10915000Y-9747500D01*
X10915000Y-9842500D01*
X10915000Y-9842500D01*
G37*
G36*
X10965000Y-9842500D02*
X10925000Y-9842500D01*
X10925000Y-9747500D01*
X10965000Y-9747500D01*
X10965000Y-9842500D01*
X10965000Y-9842500D01*
G37*
G36*
X10815000Y-9842500D02*
X10775000Y-9842500D01*
X10775000Y-9747500D01*
X10815000Y-9747500D01*
X10815000Y-9842500D01*
X10815000Y-9842500D01*
G37*
G36*
X11315000Y-9842500D02*
X11275000Y-9842500D01*
X11275000Y-9747500D01*
X11315000Y-9747500D01*
X11315000Y-9842500D01*
X11315000Y-9842500D01*
G37*
G36*
X11115000Y-9842500D02*
X11075000Y-9842500D01*
X11075000Y-9747500D01*
X11115000Y-9747500D01*
X11115000Y-9842500D01*
X11115000Y-9842500D01*
G37*
G36*
X11165000Y-9842500D02*
X11125000Y-9842500D01*
X11125000Y-9747500D01*
X11165000Y-9747500D01*
X11165000Y-9842500D01*
X11165000Y-9842500D01*
G37*
G36*
X10765000Y-9842500D02*
X10725000Y-9842500D01*
X10725000Y-9747500D01*
X10765000Y-9747500D01*
X10765000Y-9842500D01*
X10765000Y-9842500D01*
G37*
G36*
X11215000Y-9842500D02*
X11175000Y-9842500D01*
X11175000Y-9747500D01*
X11215000Y-9747500D01*
X11215000Y-9842500D01*
X11215000Y-9842500D01*
G37*
G36*
X11265000Y-9842500D02*
X11225000Y-9842500D01*
X11225000Y-9747500D01*
X11265000Y-9747500D01*
X11265000Y-9842500D01*
X11265000Y-9842500D01*
G37*
G36*
X11065000Y-9842500D02*
X11025000Y-9842500D01*
X11025000Y-9747500D01*
X11065000Y-9747500D01*
X11065000Y-9842500D01*
X11065000Y-9842500D01*
G37*
G36*
X11015000Y-9842500D02*
X10975000Y-9842500D01*
X10975000Y-9747500D01*
X11015000Y-9747500D01*
X11015000Y-9842500D01*
X11015000Y-9842500D01*
G37*
G36*
X13017541Y-9450611D02*
X13049622Y-9457196D01*
X13079814Y-9469888D01*
X13106965Y-9488202D01*
X13130042Y-9511440D01*
X13137158Y-9522152D01*
X13148166Y-9538719D01*
X13151803Y-9547544D01*
X13160646Y-9568998D01*
X13167004Y-9601107D01*
X13167007Y-9601125D01*
X13166485Y-9638532D01*
X13166481Y-9638549D01*
X13166481Y-9638549D01*
X13159229Y-9670469D01*
X13145908Y-9700387D01*
X13127030Y-9727150D01*
X13103313Y-9749735D01*
X13075661Y-9767283D01*
X13045127Y-9779127D01*
X13012874Y-9784814D01*
X12980131Y-9784128D01*
X12948144Y-9777095D01*
X12918133Y-9763984D01*
X12891240Y-9745292D01*
X12868490Y-9721734D01*
X12850749Y-9694205D01*
X12838692Y-9663754D01*
X12832780Y-9631542D01*
X12833238Y-9598795D01*
X12840047Y-9566760D01*
X12852949Y-9536658D01*
X12871451Y-9509635D01*
X12894851Y-9486721D01*
X12922255Y-9468788D01*
X12952621Y-9456519D01*
X12984791Y-9450383D01*
X13017541Y-9450611D01*
X13017541Y-9450611D01*
G37*
G36*
X12093352Y-9623047D02*
X12106799Y-9625807D01*
X12119455Y-9631127D01*
X12130836Y-9638803D01*
X12140509Y-9648544D01*
X12148105Y-9659978D01*
X12153337Y-9672670D01*
X12156000Y-9686119D01*
X12156003Y-9686136D01*
X12155784Y-9701816D01*
X12155780Y-9701833D01*
X12152743Y-9715203D01*
X12147159Y-9727743D01*
X12139246Y-9738961D01*
X12129305Y-9748428D01*
X12117714Y-9755783D01*
X12104915Y-9760748D01*
X12091397Y-9763132D01*
X12077671Y-9762844D01*
X12064264Y-9759896D01*
X12051685Y-9754400D01*
X12040412Y-9746566D01*
X12030876Y-9736691D01*
X12023439Y-9725152D01*
X12018386Y-9712388D01*
X12015908Y-9698886D01*
X12016100Y-9685159D01*
X12018954Y-9671731D01*
X12024362Y-9659114D01*
X12032117Y-9647787D01*
X12041926Y-9638182D01*
X12053412Y-9630666D01*
X12066141Y-9625523D01*
X12079625Y-9622951D01*
X12093352Y-9623047D01*
X12093352Y-9623047D01*
G37*
G36*
X10460000Y-9755000D02*
X10360000Y-9755000D01*
X10360000Y-9695000D01*
X10460000Y-9695000D01*
X10460000Y-9755000D01*
X10460000Y-9755000D01*
G37*
G36*
X11855000Y-9740000D02*
X11795000Y-9740000D01*
X11795000Y-9640000D01*
X11855000Y-9640000D01*
X11855000Y-9740000D01*
X11855000Y-9740000D01*
G37*
G36*
X11705000Y-9740000D02*
X11645000Y-9740000D01*
X11645000Y-9640000D01*
X11705000Y-9640000D01*
X11705000Y-9740000D01*
X11705000Y-9740000D01*
G37*
G36*
X12347352Y-9522047D02*
X12360799Y-9524807D01*
X12373455Y-9530127D01*
X12384836Y-9537803D01*
X12394509Y-9547544D01*
X12402105Y-9558978D01*
X12407337Y-9571670D01*
X12410000Y-9585119D01*
X12410003Y-9585136D01*
X12409784Y-9600816D01*
X12409780Y-9600833D01*
X12406743Y-9614203D01*
X12401159Y-9626743D01*
X12393246Y-9637961D01*
X12383305Y-9647428D01*
X12371714Y-9654783D01*
X12358915Y-9659748D01*
X12345397Y-9662132D01*
X12331671Y-9661844D01*
X12318264Y-9658896D01*
X12305685Y-9653400D01*
X12294412Y-9645566D01*
X12284876Y-9635691D01*
X12277439Y-9624152D01*
X12272386Y-9611388D01*
X12269908Y-9597886D01*
X12270100Y-9584159D01*
X12272954Y-9570731D01*
X12278362Y-9558114D01*
X12286117Y-9546787D01*
X12295926Y-9537182D01*
X12307412Y-9529666D01*
X12320141Y-9524523D01*
X12333625Y-9521951D01*
X12347352Y-9522047D01*
X12347352Y-9522047D01*
G37*
G36*
X9048500Y-9652500D02*
X8978500Y-9652500D01*
X8978500Y-9487500D01*
X9048500Y-9487500D01*
X9048500Y-9652500D01*
X9048500Y-9652500D01*
G37*
G36*
X8794500Y-9652500D02*
X8724500Y-9652500D01*
X8724500Y-9487500D01*
X8794500Y-9487500D01*
X8794500Y-9652500D01*
X8794500Y-9652500D01*
G37*
G36*
X8921500Y-9652500D02*
X8851500Y-9652500D01*
X8851500Y-9487500D01*
X8921500Y-9487500D01*
X8921500Y-9652500D01*
X8921500Y-9652500D01*
G37*
G36*
X9175500Y-9652500D02*
X9105500Y-9652500D01*
X9105500Y-9487500D01*
X9175500Y-9487500D01*
X9175500Y-9652500D01*
X9175500Y-9652500D01*
G37*
G36*
X10460000Y-9605000D02*
X10360000Y-9605000D01*
X10360000Y-9545000D01*
X10460000Y-9545000D01*
X10460000Y-9605000D01*
X10460000Y-9605000D01*
G37*
G36*
X10190000Y-9565000D02*
X10090000Y-9565000D01*
X10090000Y-9505000D01*
X10190000Y-9505000D01*
X10190000Y-9565000D01*
X10190000Y-9565000D01*
G37*
G36*
X12093352Y-9420047D02*
X12106799Y-9422807D01*
X12119455Y-9428127D01*
X12130836Y-9435803D01*
X12140509Y-9445544D01*
X12148105Y-9456978D01*
X12153337Y-9469670D01*
X12156000Y-9483119D01*
X12156003Y-9483136D01*
X12155784Y-9498816D01*
X12155780Y-9498833D01*
X12152743Y-9512203D01*
X12147159Y-9524743D01*
X12139246Y-9535961D01*
X12129305Y-9545428D01*
X12117714Y-9552783D01*
X12104915Y-9557748D01*
X12091397Y-9560132D01*
X12077671Y-9559844D01*
X12064264Y-9556896D01*
X12051685Y-9551400D01*
X12040412Y-9543566D01*
X12030876Y-9533691D01*
X12023439Y-9522152D01*
X12018386Y-9509388D01*
X12015908Y-9495886D01*
X12016100Y-9482159D01*
X12018954Y-9468731D01*
X12024362Y-9456114D01*
X12032117Y-9444787D01*
X12041926Y-9435182D01*
X12053412Y-9427666D01*
X12066141Y-9422523D01*
X12079625Y-9419951D01*
X12093352Y-9420047D01*
X12093352Y-9420047D01*
G37*
G36*
X8401590Y-9274008D02*
X8401591Y-9274008D01*
X8401692Y-9274009D01*
X8419148Y-9275967D01*
X8435890Y-9281278D01*
X8451283Y-9289740D01*
X8464738Y-9301030D01*
X8475744Y-9314719D01*
X8483882Y-9330285D01*
X8488841Y-9347136D01*
X8488842Y-9347138D01*
X8488842Y-9347138D01*
X8490433Y-9364628D01*
X8488727Y-9380864D01*
X8488597Y-9382097D01*
X8483403Y-9398876D01*
X8475049Y-9414327D01*
X8463853Y-9427861D01*
X8450241Y-9438963D01*
X8434732Y-9447209D01*
X8417917Y-9452286D01*
X8400436Y-9454000D01*
X8399555Y-9454000D01*
X8398410Y-9453992D01*
X8398409Y-9453992D01*
X8398308Y-9453991D01*
X8380852Y-9452033D01*
X8364110Y-9446722D01*
X8348717Y-9438260D01*
X8335262Y-9426970D01*
X8324256Y-9413281D01*
X8316118Y-9397715D01*
X8311159Y-9380864D01*
X8311158Y-9380862D01*
X8311158Y-9380862D01*
X8309567Y-9363372D01*
X8311402Y-9345906D01*
X8311402Y-9345905D01*
X8311403Y-9345903D01*
X8316597Y-9329124D01*
X8324951Y-9313673D01*
X8336147Y-9300139D01*
X8349759Y-9289037D01*
X8365268Y-9280791D01*
X8382083Y-9275714D01*
X8399565Y-9274000D01*
X8400445Y-9274000D01*
X8401590Y-9274008D01*
X8401590Y-9274008D01*
G37*
G36*
X13898295Y-9259559D02*
X13915296Y-9263049D01*
X13925963Y-9267533D01*
X13928356Y-9268538D01*
X13931297Y-9269775D01*
X13945685Y-9279480D01*
X13957914Y-9291795D01*
X13967519Y-9306251D01*
X13974133Y-9322297D01*
X13977259Y-9338087D01*
X13977504Y-9339322D01*
X13977227Y-9359146D01*
X13977223Y-9359162D01*
X13977223Y-9359163D01*
X13973382Y-9376070D01*
X13966323Y-9391925D01*
X13956318Y-9406108D01*
X13943750Y-9418076D01*
X13929096Y-9427376D01*
X13912914Y-9433653D01*
X13895823Y-9436666D01*
X13878470Y-9436303D01*
X13861520Y-9432576D01*
X13845616Y-9425628D01*
X13831364Y-9415722D01*
X13819307Y-9403238D01*
X13809906Y-9388649D01*
X13803517Y-9372512D01*
X13800384Y-9355442D01*
X13800626Y-9338087D01*
X13804234Y-9321111D01*
X13811071Y-9305159D01*
X13820877Y-9290838D01*
X13833277Y-9278695D01*
X13847800Y-9269192D01*
X13863892Y-9262690D01*
X13880940Y-9259438D01*
X13898295Y-9259559D01*
X13898295Y-9259559D01*
G37*
G36*
X13644295Y-9259559D02*
X13661296Y-9263049D01*
X13671963Y-9267533D01*
X13674356Y-9268538D01*
X13677297Y-9269775D01*
X13691685Y-9279480D01*
X13703914Y-9291795D01*
X13713519Y-9306251D01*
X13720133Y-9322297D01*
X13723259Y-9338087D01*
X13723504Y-9339322D01*
X13723227Y-9359146D01*
X13723223Y-9359162D01*
X13723223Y-9359163D01*
X13719382Y-9376070D01*
X13712323Y-9391925D01*
X13702318Y-9406108D01*
X13689750Y-9418076D01*
X13675096Y-9427376D01*
X13658914Y-9433653D01*
X13641823Y-9436666D01*
X13624470Y-9436303D01*
X13607520Y-9432576D01*
X13591616Y-9425628D01*
X13577364Y-9415722D01*
X13565307Y-9403238D01*
X13555906Y-9388649D01*
X13549517Y-9372512D01*
X13546384Y-9355442D01*
X13546626Y-9338087D01*
X13550234Y-9321111D01*
X13557071Y-9305159D01*
X13566877Y-9290838D01*
X13579277Y-9278695D01*
X13593800Y-9269192D01*
X13609892Y-9262690D01*
X13626940Y-9259438D01*
X13644295Y-9259559D01*
X13644295Y-9259559D01*
G37*
G36*
X10190000Y-9415000D02*
X10090000Y-9415000D01*
X10090000Y-9355000D01*
X10190000Y-9355000D01*
X10190000Y-9415000D01*
X10190000Y-9415000D01*
G37*
G36*
X13010871Y-9117569D02*
X13030753Y-9121650D01*
X13049465Y-9129516D01*
X13066293Y-9140866D01*
X13080595Y-9155268D01*
X13091827Y-9172174D01*
X13099562Y-9190941D01*
X13103501Y-9210834D01*
X13103501Y-9210835D01*
X13103504Y-9210851D01*
X13103181Y-9234035D01*
X13103177Y-9234052D01*
X13103177Y-9234052D01*
X13098684Y-9253828D01*
X13090428Y-9272370D01*
X13078728Y-9288956D01*
X13064029Y-9302954D01*
X13046892Y-9313830D01*
X13027968Y-9321170D01*
X13007979Y-9324694D01*
X12987686Y-9324269D01*
X12967862Y-9319911D01*
X12949262Y-9311785D01*
X12932595Y-9300201D01*
X12918495Y-9285600D01*
X12907500Y-9268538D01*
X12900028Y-9249667D01*
X12896364Y-9229703D01*
X12896647Y-9209407D01*
X12900867Y-9189553D01*
X12908863Y-9170897D01*
X12920331Y-9154150D01*
X12934833Y-9139948D01*
X12951817Y-9128834D01*
X12970636Y-9121230D01*
X12990574Y-9117427D01*
X13010871Y-9117569D01*
X13010871Y-9117569D01*
G37*
G36*
X10345000Y-9202500D02*
X10305000Y-9202500D01*
X10305000Y-9037500D01*
X10345000Y-9037500D01*
X10345000Y-9202500D01*
X10345000Y-9202500D01*
G37*
G36*
X11595000Y-9202500D02*
X11555000Y-9202500D01*
X11555000Y-9037500D01*
X11595000Y-9037500D01*
X11595000Y-9202500D01*
X11595000Y-9202500D01*
G37*
G36*
X11645000Y-9202500D02*
X11605000Y-9202500D01*
X11605000Y-9037500D01*
X11645000Y-9037500D01*
X11645000Y-9202500D01*
X11645000Y-9202500D01*
G37*
G36*
X10595000Y-9202500D02*
X10555000Y-9202500D01*
X10555000Y-9037500D01*
X10595000Y-9037500D01*
X10595000Y-9202500D01*
X10595000Y-9202500D01*
G37*
G36*
X11195000Y-9202500D02*
X11155000Y-9202500D01*
X11155000Y-9037500D01*
X11195000Y-9037500D01*
X11195000Y-9202500D01*
X11195000Y-9202500D01*
G37*
G36*
X10145000Y-9202500D02*
X10105000Y-9202500D01*
X10105000Y-9037500D01*
X10145000Y-9037500D01*
X10145000Y-9202500D01*
X10145000Y-9202500D01*
G37*
G36*
X10195000Y-9202500D02*
X10155000Y-9202500D01*
X10155000Y-9037500D01*
X10195000Y-9037500D01*
X10195000Y-9202500D01*
X10195000Y-9202500D01*
G37*
G36*
X10245000Y-9202500D02*
X10205000Y-9202500D01*
X10205000Y-9037500D01*
X10245000Y-9037500D01*
X10245000Y-9202500D01*
X10245000Y-9202500D01*
G37*
G36*
X10295000Y-9202500D02*
X10255000Y-9202500D01*
X10255000Y-9037500D01*
X10295000Y-9037500D01*
X10295000Y-9202500D01*
X10295000Y-9202500D01*
G37*
G36*
X10745000Y-9202500D02*
X10705000Y-9202500D01*
X10705000Y-9037500D01*
X10745000Y-9037500D01*
X10745000Y-9202500D01*
X10745000Y-9202500D01*
G37*
G36*
X10445000Y-9202500D02*
X10405000Y-9202500D01*
X10405000Y-9037500D01*
X10445000Y-9037500D01*
X10445000Y-9202500D01*
X10445000Y-9202500D01*
G37*
G36*
X10495000Y-9202500D02*
X10455000Y-9202500D01*
X10455000Y-9037500D01*
X10495000Y-9037500D01*
X10495000Y-9202500D01*
X10495000Y-9202500D01*
G37*
G36*
X10545000Y-9202500D02*
X10505000Y-9202500D01*
X10505000Y-9037500D01*
X10545000Y-9037500D01*
X10545000Y-9202500D01*
X10545000Y-9202500D01*
G37*
G36*
X11845000Y-9202500D02*
X11805000Y-9202500D01*
X11805000Y-9037500D01*
X11845000Y-9037500D01*
X11845000Y-9202500D01*
X11845000Y-9202500D01*
G37*
G36*
X11795000Y-9202500D02*
X11755000Y-9202500D01*
X11755000Y-9037500D01*
X11795000Y-9037500D01*
X11795000Y-9202500D01*
X11795000Y-9202500D01*
G37*
G36*
X11745000Y-9202500D02*
X11705000Y-9202500D01*
X11705000Y-9037500D01*
X11745000Y-9037500D01*
X11745000Y-9202500D01*
X11745000Y-9202500D01*
G37*
G36*
X11695000Y-9202500D02*
X11655000Y-9202500D01*
X11655000Y-9037500D01*
X11695000Y-9037500D01*
X11695000Y-9202500D01*
X11695000Y-9202500D01*
G37*
G36*
X11895000Y-9202500D02*
X11855000Y-9202500D01*
X11855000Y-9037500D01*
X11895000Y-9037500D01*
X11895000Y-9202500D01*
X11895000Y-9202500D01*
G37*
G36*
X10395000Y-9202500D02*
X10355000Y-9202500D01*
X10355000Y-9037500D01*
X10395000Y-9037500D01*
X10395000Y-9202500D01*
X10395000Y-9202500D01*
G37*
G36*
X11545000Y-9202500D02*
X11505000Y-9202500D01*
X11505000Y-9037500D01*
X11545000Y-9037500D01*
X11545000Y-9202500D01*
X11545000Y-9202500D01*
G37*
G36*
X10795000Y-9202500D02*
X10755000Y-9202500D01*
X10755000Y-9037500D01*
X10795000Y-9037500D01*
X10795000Y-9202500D01*
X10795000Y-9202500D01*
G37*
G36*
X10695000Y-9202500D02*
X10655000Y-9202500D01*
X10655000Y-9037500D01*
X10695000Y-9037500D01*
X10695000Y-9202500D01*
X10695000Y-9202500D01*
G37*
G36*
X10645000Y-9202500D02*
X10605000Y-9202500D01*
X10605000Y-9037500D01*
X10645000Y-9037500D01*
X10645000Y-9202500D01*
X10645000Y-9202500D01*
G37*
G36*
X10845000Y-9202500D02*
X10805000Y-9202500D01*
X10805000Y-9037500D01*
X10845000Y-9037500D01*
X10845000Y-9202500D01*
X10845000Y-9202500D01*
G37*
G36*
X10895000Y-9202500D02*
X10855000Y-9202500D01*
X10855000Y-9037500D01*
X10895000Y-9037500D01*
X10895000Y-9202500D01*
X10895000Y-9202500D01*
G37*
G36*
X11045000Y-9202500D02*
X11005000Y-9202500D01*
X11005000Y-9037500D01*
X11045000Y-9037500D01*
X11045000Y-9202500D01*
X11045000Y-9202500D01*
G37*
G36*
X10945000Y-9202500D02*
X10905000Y-9202500D01*
X10905000Y-9037500D01*
X10945000Y-9037500D01*
X10945000Y-9202500D01*
X10945000Y-9202500D01*
G37*
G36*
X10995000Y-9202500D02*
X10955000Y-9202500D01*
X10955000Y-9037500D01*
X10995000Y-9037500D01*
X10995000Y-9202500D01*
X10995000Y-9202500D01*
G37*
G36*
X11095000Y-9202500D02*
X11055000Y-9202500D01*
X11055000Y-9037500D01*
X11095000Y-9037500D01*
X11095000Y-9202500D01*
X11095000Y-9202500D01*
G37*
G36*
X11145000Y-9202500D02*
X11105000Y-9202500D01*
X11105000Y-9037500D01*
X11145000Y-9037500D01*
X11145000Y-9202500D01*
X11145000Y-9202500D01*
G37*
G36*
X11245000Y-9202500D02*
X11205000Y-9202500D01*
X11205000Y-9037500D01*
X11245000Y-9037500D01*
X11245000Y-9202500D01*
X11245000Y-9202500D01*
G37*
G36*
X11295000Y-9202500D02*
X11255000Y-9202500D01*
X11255000Y-9037500D01*
X11295000Y-9037500D01*
X11295000Y-9202500D01*
X11295000Y-9202500D01*
G37*
G36*
X11345000Y-9202500D02*
X11305000Y-9202500D01*
X11305000Y-9037500D01*
X11345000Y-9037500D01*
X11345000Y-9202500D01*
X11345000Y-9202500D01*
G37*
G36*
X11395000Y-9202500D02*
X11355000Y-9202500D01*
X11355000Y-9037500D01*
X11395000Y-9037500D01*
X11395000Y-9202500D01*
X11395000Y-9202500D01*
G37*
G36*
X11445000Y-9202500D02*
X11405000Y-9202500D01*
X11405000Y-9037500D01*
X11445000Y-9037500D01*
X11445000Y-9202500D01*
X11445000Y-9202500D01*
G37*
G36*
X11495000Y-9202500D02*
X11455000Y-9202500D01*
X11455000Y-9037500D01*
X11495000Y-9037500D01*
X11495000Y-9202500D01*
X11495000Y-9202500D01*
G37*
G36*
X8490000Y-9200000D02*
X8310000Y-9200000D01*
X8310000Y-9020000D01*
X8490000Y-9020000D01*
X8490000Y-9200000D01*
X8490000Y-9200000D01*
G37*
G36*
X12380000Y-9120000D02*
X12280000Y-9120000D01*
X12280000Y-9060000D01*
X12380000Y-9060000D01*
X12380000Y-9120000D01*
X12380000Y-9120000D01*
G37*
G36*
X9048500Y-9112500D02*
X8978500Y-9112500D01*
X8978500Y-8947500D01*
X9048500Y-8947500D01*
X9048500Y-9112500D01*
X9048500Y-9112500D01*
G37*
G36*
X8921500Y-9112500D02*
X8851500Y-9112500D01*
X8851500Y-8947500D01*
X8921500Y-8947500D01*
X8921500Y-9112500D01*
X8921500Y-9112500D01*
G37*
G36*
X9175500Y-9112500D02*
X9105500Y-9112500D01*
X9105500Y-8947500D01*
X9175500Y-8947500D01*
X9175500Y-9112500D01*
X9175500Y-9112500D01*
G37*
G36*
X8794500Y-9112500D02*
X8724500Y-9112500D01*
X8724500Y-8947500D01*
X8794500Y-8947500D01*
X8794500Y-9112500D01*
X8794500Y-9112500D01*
G37*
G36*
X12380000Y-8970000D02*
X12280000Y-8970000D01*
X12280000Y-8910000D01*
X12380000Y-8910000D01*
X12380000Y-8970000D01*
X12380000Y-8970000D01*
G37*
G36*
X12152500Y-8945000D02*
X11987500Y-8945000D01*
X11987500Y-8905000D01*
X12152500Y-8905000D01*
X12152500Y-8945000D01*
X12152500Y-8945000D01*
G37*
G36*
X10012500Y-8945000D02*
X9847500Y-8945000D01*
X9847500Y-8905000D01*
X10012500Y-8905000D01*
X10012500Y-8945000D01*
X10012500Y-8945000D01*
G37*
G36*
X10012500Y-8895000D02*
X9847500Y-8895000D01*
X9847500Y-8855000D01*
X10012500Y-8855000D01*
X10012500Y-8895000D01*
X10012500Y-8895000D01*
G37*
G36*
X12152500Y-8895000D02*
X11987500Y-8895000D01*
X11987500Y-8855000D01*
X12152500Y-8855000D01*
X12152500Y-8895000D01*
X12152500Y-8895000D01*
G37*
G36*
X12152500Y-8845000D02*
X11987500Y-8845000D01*
X11987500Y-8805000D01*
X12152500Y-8805000D01*
X12152500Y-8845000D01*
X12152500Y-8845000D01*
G37*
G36*
X10012500Y-8845000D02*
X9847500Y-8845000D01*
X9847500Y-8805000D01*
X10012500Y-8805000D01*
X10012500Y-8845000D01*
X10012500Y-8845000D01*
G37*
G36*
X8320000Y-8842500D02*
X8230000Y-8842500D01*
X8230000Y-8757500D01*
X8320000Y-8757500D01*
X8320000Y-8842500D01*
X8320000Y-8842500D01*
G37*
G36*
X8470000Y-8842500D02*
X8380000Y-8842500D01*
X8380000Y-8757500D01*
X8470000Y-8757500D01*
X8470000Y-8842500D01*
X8470000Y-8842500D01*
G37*
G36*
X10012500Y-8795000D02*
X9847500Y-8795000D01*
X9847500Y-8755000D01*
X10012500Y-8755000D01*
X10012500Y-8795000D01*
X10012500Y-8795000D01*
G37*
G36*
X12152500Y-8795000D02*
X11987500Y-8795000D01*
X11987500Y-8755000D01*
X12152500Y-8755000D01*
X12152500Y-8795000D01*
X12152500Y-8795000D01*
G37*
G36*
X8715000Y-8765000D02*
X8585000Y-8765000D01*
X8585000Y-8605000D01*
X8715000Y-8605000D01*
X8715000Y-8765000D01*
X8715000Y-8765000D01*
G37*
G36*
X12152500Y-8745000D02*
X11987500Y-8745000D01*
X11987500Y-8705000D01*
X12152500Y-8705000D01*
X12152500Y-8745000D01*
X12152500Y-8745000D01*
G37*
G36*
X10012500Y-8745000D02*
X9847500Y-8745000D01*
X9847500Y-8705000D01*
X10012500Y-8705000D01*
X10012500Y-8745000D01*
X10012500Y-8745000D01*
G37*
G36*
X8945000Y-8720000D02*
X8865000Y-8720000D01*
X8865000Y-8580000D01*
X8945000Y-8580000D01*
X8945000Y-8720000D01*
X8945000Y-8720000D01*
G37*
G36*
X9135000Y-8720000D02*
X9055000Y-8720000D01*
X9055000Y-8580000D01*
X9135000Y-8580000D01*
X9135000Y-8720000D01*
X9135000Y-8720000D01*
G37*
G36*
X12152500Y-8695000D02*
X11987500Y-8695000D01*
X11987500Y-8655000D01*
X12152500Y-8655000D01*
X12152500Y-8695000D01*
X12152500Y-8695000D01*
G37*
G36*
X10012500Y-8695000D02*
X9847500Y-8695000D01*
X9847500Y-8655000D01*
X10012500Y-8655000D01*
X10012500Y-8695000D01*
X10012500Y-8695000D01*
G37*
G36*
X10012500Y-8645000D02*
X9847500Y-8645000D01*
X9847500Y-8605000D01*
X10012500Y-8605000D01*
X10012500Y-8645000D01*
X10012500Y-8645000D01*
G37*
G36*
X12152500Y-8645000D02*
X11987500Y-8645000D01*
X11987500Y-8605000D01*
X12152500Y-8605000D01*
X12152500Y-8645000D01*
X12152500Y-8645000D01*
G37*
G36*
X8235000Y-8637500D02*
X8175000Y-8637500D01*
X8175000Y-8602500D01*
X8235000Y-8602500D01*
X8235000Y-8637500D01*
X8235000Y-8637500D01*
G37*
G36*
X8425000Y-8637500D02*
X8365000Y-8637500D01*
X8365000Y-8602500D01*
X8425000Y-8602500D01*
X8425000Y-8637500D01*
X8425000Y-8637500D01*
G37*
G36*
X8350000Y-8630000D02*
X8250000Y-8630000D01*
X8250000Y-8460000D01*
X8350000Y-8460000D01*
X8350000Y-8630000D01*
X8350000Y-8630000D01*
G37*
G36*
X12152500Y-8595000D02*
X11987500Y-8595000D01*
X11987500Y-8555000D01*
X12152500Y-8555000D01*
X12152500Y-8595000D01*
X12152500Y-8595000D01*
G37*
G36*
X10012500Y-8595000D02*
X9847500Y-8595000D01*
X9847500Y-8555000D01*
X10012500Y-8555000D01*
X10012500Y-8595000D01*
X10012500Y-8595000D01*
G37*
G36*
X8235000Y-8587500D02*
X8175000Y-8587500D01*
X8175000Y-8552500D01*
X8235000Y-8552500D01*
X8235000Y-8587500D01*
X8235000Y-8587500D01*
G37*
G36*
X8425000Y-8587500D02*
X8365000Y-8587500D01*
X8365000Y-8552500D01*
X8425000Y-8552500D01*
X8425000Y-8587500D01*
X8425000Y-8587500D01*
G37*
G36*
X10012500Y-8545000D02*
X9847500Y-8545000D01*
X9847500Y-8505000D01*
X10012500Y-8505000D01*
X10012500Y-8545000D01*
X10012500Y-8545000D01*
G37*
G36*
X12152500Y-8545000D02*
X11987500Y-8545000D01*
X11987500Y-8505000D01*
X12152500Y-8505000D01*
X12152500Y-8545000D01*
X12152500Y-8545000D01*
G37*
G36*
X8235000Y-8537500D02*
X8175000Y-8537500D01*
X8175000Y-8502500D01*
X8235000Y-8502500D01*
X8235000Y-8537500D01*
X8235000Y-8537500D01*
G37*
G36*
X8425000Y-8537500D02*
X8365000Y-8537500D01*
X8365000Y-8502500D01*
X8425000Y-8502500D01*
X8425000Y-8537500D01*
X8425000Y-8537500D01*
G37*
G36*
X12152500Y-8495000D02*
X11987500Y-8495000D01*
X11987500Y-8455000D01*
X12152500Y-8455000D01*
X12152500Y-8495000D01*
X12152500Y-8495000D01*
G37*
G36*
X8715000Y-8495000D02*
X8585000Y-8495000D01*
X8585000Y-8335000D01*
X8715000Y-8335000D01*
X8715000Y-8495000D01*
X8715000Y-8495000D01*
G37*
G36*
X10012500Y-8495000D02*
X9847500Y-8495000D01*
X9847500Y-8455000D01*
X10012500Y-8455000D01*
X10012500Y-8495000D01*
X10012500Y-8495000D01*
G37*
G36*
X9090000Y-8490000D02*
X8910000Y-8490000D01*
X8910000Y-8310000D01*
X9090000Y-8310000D01*
X9090000Y-8490000D01*
X9090000Y-8490000D01*
G37*
G36*
X8235000Y-8487500D02*
X8175000Y-8487500D01*
X8175000Y-8452500D01*
X8235000Y-8452500D01*
X8235000Y-8487500D01*
X8235000Y-8487500D01*
G37*
G36*
X8425000Y-8487500D02*
X8365000Y-8487500D01*
X8365000Y-8452500D01*
X8425000Y-8452500D01*
X8425000Y-8487500D01*
X8425000Y-8487500D01*
G37*
G36*
X13431360Y-8486360D02*
X13248640Y-8486360D01*
X13248640Y-8303640D01*
X13431360Y-8303640D01*
X13431360Y-8486360D01*
X13431360Y-8486360D01*
G37*
G36*
X13087616Y-8303648D02*
X13087617Y-8303648D01*
X13087718Y-8303649D01*
X13105437Y-8305636D01*
X13122433Y-8311028D01*
X13138057Y-8319618D01*
X13151716Y-8331079D01*
X13162889Y-8344975D01*
X13171150Y-8360776D01*
X13176184Y-8377881D01*
X13177800Y-8395638D01*
X13175936Y-8413371D01*
X13170663Y-8430403D01*
X13162183Y-8446088D01*
X13150817Y-8459826D01*
X13137000Y-8471096D01*
X13121257Y-8479467D01*
X13104187Y-8484620D01*
X13086442Y-8486360D01*
X13085549Y-8486360D01*
X13084384Y-8486352D01*
X13084383Y-8486352D01*
X13084282Y-8486351D01*
X13066563Y-8484364D01*
X13049567Y-8478972D01*
X13033942Y-8470382D01*
X13020284Y-8458921D01*
X13009111Y-8445025D01*
X13000850Y-8429224D01*
X12995816Y-8412119D01*
X12994200Y-8394362D01*
X12996064Y-8376629D01*
X13001336Y-8359597D01*
X13009817Y-8343912D01*
X13021182Y-8330174D01*
X13035000Y-8318904D01*
X13050743Y-8310533D01*
X13067813Y-8305380D01*
X13085558Y-8303640D01*
X13086451Y-8303640D01*
X13087616Y-8303648D01*
X13087616Y-8303648D01*
G37*
G36*
X12152500Y-8445000D02*
X11987500Y-8445000D01*
X11987500Y-8405000D01*
X12152500Y-8405000D01*
X12152500Y-8445000D01*
X12152500Y-8445000D01*
G37*
G36*
X10012500Y-8445000D02*
X9847500Y-8445000D01*
X9847500Y-8405000D01*
X10012500Y-8405000D01*
X10012500Y-8445000D01*
X10012500Y-8445000D01*
G37*
G36*
X10012500Y-8395000D02*
X9847500Y-8395000D01*
X9847500Y-8355000D01*
X10012500Y-8355000D01*
X10012500Y-8395000D01*
X10012500Y-8395000D01*
G37*
G36*
X12152500Y-8395000D02*
X11987500Y-8395000D01*
X11987500Y-8355000D01*
X12152500Y-8355000D01*
X12152500Y-8395000D01*
X12152500Y-8395000D01*
G37*
G36*
X11340000Y-8390000D02*
X10660000Y-8390000D01*
X10660000Y-7710000D01*
X11340000Y-7710000D01*
X11340000Y-8390000D01*
X11340000Y-8390000D01*
G37*
G36*
X9705000Y-8350000D02*
X9605000Y-8350000D01*
X9605000Y-8290000D01*
X9705000Y-8290000D01*
X9705000Y-8350000D01*
X9705000Y-8350000D01*
G37*
G36*
X12152500Y-8345000D02*
X11987500Y-8345000D01*
X11987500Y-8305000D01*
X12152500Y-8305000D01*
X12152500Y-8345000D01*
X12152500Y-8345000D01*
G37*
G36*
X10012500Y-8345000D02*
X9847500Y-8345000D01*
X9847500Y-8305000D01*
X10012500Y-8305000D01*
X10012500Y-8345000D01*
X10012500Y-8345000D01*
G37*
G36*
X8470000Y-8342500D02*
X8380000Y-8342500D01*
X8380000Y-8257500D01*
X8470000Y-8257500D01*
X8470000Y-8342500D01*
X8470000Y-8342500D01*
G37*
G36*
X8320000Y-8342500D02*
X8230000Y-8342500D01*
X8230000Y-8257500D01*
X8320000Y-8257500D01*
X8320000Y-8342500D01*
X8320000Y-8342500D01*
G37*
G36*
X12152500Y-8295000D02*
X11987500Y-8295000D01*
X11987500Y-8255000D01*
X12152500Y-8255000D01*
X12152500Y-8295000D01*
X12152500Y-8295000D01*
G37*
G36*
X10012500Y-8295000D02*
X9847500Y-8295000D01*
X9847500Y-8255000D01*
X10012500Y-8255000D01*
X10012500Y-8295000D01*
X10012500Y-8295000D01*
G37*
G36*
X12152500Y-8245000D02*
X11987500Y-8245000D01*
X11987500Y-8205000D01*
X12152500Y-8205000D01*
X12152500Y-8245000D01*
X12152500Y-8245000D01*
G37*
G36*
X10012500Y-8245000D02*
X9847500Y-8245000D01*
X9847500Y-8205000D01*
X10012500Y-8205000D01*
X10012500Y-8245000D01*
X10012500Y-8245000D01*
G37*
G36*
X13087616Y-8049648D02*
X13087617Y-8049648D01*
X13087718Y-8049649D01*
X13105437Y-8051636D01*
X13122433Y-8057028D01*
X13138057Y-8065618D01*
X13151716Y-8077079D01*
X13162889Y-8090975D01*
X13171150Y-8106776D01*
X13176184Y-8123881D01*
X13176184Y-8123883D01*
X13177651Y-8140000D01*
X13177800Y-8141638D01*
X13175936Y-8159370D01*
X13170663Y-8176403D01*
X13162183Y-8192088D01*
X13150817Y-8205826D01*
X13137000Y-8217096D01*
X13121257Y-8225466D01*
X13104187Y-8230620D01*
X13086442Y-8232360D01*
X13085549Y-8232360D01*
X13084384Y-8232352D01*
X13084383Y-8232352D01*
X13084282Y-8232351D01*
X13066563Y-8230364D01*
X13049567Y-8224972D01*
X13033942Y-8216382D01*
X13020284Y-8204921D01*
X13009111Y-8191025D01*
X13000850Y-8175224D01*
X12995816Y-8158119D01*
X12994602Y-8144775D01*
X12994200Y-8140362D01*
X12994238Y-8140000D01*
X12996064Y-8122629D01*
X13001336Y-8105597D01*
X13009817Y-8089912D01*
X13021182Y-8076174D01*
X13035000Y-8064904D01*
X13050743Y-8056533D01*
X13067813Y-8051380D01*
X13085558Y-8049640D01*
X13086451Y-8049640D01*
X13087616Y-8049648D01*
X13087616Y-8049648D01*
G37*
G36*
X13341616Y-8049648D02*
X13341617Y-8049648D01*
X13341718Y-8049649D01*
X13359437Y-8051636D01*
X13376433Y-8057028D01*
X13392057Y-8065618D01*
X13405716Y-8077079D01*
X13416889Y-8090975D01*
X13425150Y-8106776D01*
X13430184Y-8123881D01*
X13430184Y-8123883D01*
X13431651Y-8140000D01*
X13431800Y-8141638D01*
X13429936Y-8159370D01*
X13424663Y-8176403D01*
X13416183Y-8192088D01*
X13404817Y-8205826D01*
X13391000Y-8217096D01*
X13375257Y-8225466D01*
X13358187Y-8230620D01*
X13340442Y-8232360D01*
X13339549Y-8232360D01*
X13338384Y-8232352D01*
X13338383Y-8232352D01*
X13338282Y-8232351D01*
X13320563Y-8230364D01*
X13303567Y-8224972D01*
X13287942Y-8216382D01*
X13274284Y-8204921D01*
X13263111Y-8191025D01*
X13254850Y-8175224D01*
X13249816Y-8158119D01*
X13248602Y-8144775D01*
X13248200Y-8140362D01*
X13248238Y-8140000D01*
X13250064Y-8122629D01*
X13255336Y-8105597D01*
X13263817Y-8089912D01*
X13275182Y-8076174D01*
X13289000Y-8064904D01*
X13304743Y-8056533D01*
X13321813Y-8051380D01*
X13339558Y-8049640D01*
X13340451Y-8049640D01*
X13341616Y-8049648D01*
X13341616Y-8049648D01*
G37*
G36*
X9705000Y-8200000D02*
X9605000Y-8200000D01*
X9605000Y-8140000D01*
X9705000Y-8140000D01*
X9705000Y-8200000D01*
X9705000Y-8200000D01*
G37*
G36*
X12152500Y-8195000D02*
X11987500Y-8195000D01*
X11987500Y-8155000D01*
X12152500Y-8155000D01*
X12152500Y-8195000D01*
X12152500Y-8195000D01*
G37*
G36*
X10012500Y-8195000D02*
X9847500Y-8195000D01*
X9847500Y-8155000D01*
X10012500Y-8155000D01*
X10012500Y-8195000D01*
X10012500Y-8195000D01*
G37*
G36*
X12152500Y-8145000D02*
X11987500Y-8145000D01*
X11987500Y-8105000D01*
X12152500Y-8105000D01*
X12152500Y-8145000D01*
X12152500Y-8145000D01*
G37*
G36*
X10012500Y-8145000D02*
X9847500Y-8145000D01*
X9847500Y-8105000D01*
X10012500Y-8105000D01*
X10012500Y-8145000D01*
X10012500Y-8145000D01*
G37*
G36*
X8470000Y-8142500D02*
X8380000Y-8142500D01*
X8380000Y-8057500D01*
X8470000Y-8057500D01*
X8470000Y-8142500D01*
X8470000Y-8142500D01*
G37*
G36*
X8320000Y-8142500D02*
X8230000Y-8142500D01*
X8230000Y-8057500D01*
X8320000Y-8057500D01*
X8320000Y-8142500D01*
X8320000Y-8142500D01*
G37*
G36*
X12152500Y-8095000D02*
X11987500Y-8095000D01*
X11987500Y-8055000D01*
X12152500Y-8055000D01*
X12152500Y-8095000D01*
X12152500Y-8095000D01*
G37*
G36*
X10012500Y-8095000D02*
X9847500Y-8095000D01*
X9847500Y-8055000D01*
X10012500Y-8055000D01*
X10012500Y-8095000D01*
X10012500Y-8095000D01*
G37*
G36*
X8715000Y-8065000D02*
X8585000Y-8065000D01*
X8585000Y-7905000D01*
X8715000Y-7905000D01*
X8715000Y-8065000D01*
X8715000Y-8065000D01*
G37*
G36*
X10012500Y-8045000D02*
X9847500Y-8045000D01*
X9847500Y-8005000D01*
X10012500Y-8005000D01*
X10012500Y-8045000D01*
X10012500Y-8045000D01*
G37*
G36*
X12152500Y-8045000D02*
X11987500Y-8045000D01*
X11987500Y-8005000D01*
X12152500Y-8005000D01*
X12152500Y-8045000D01*
X12152500Y-8045000D01*
G37*
G36*
X9140000Y-8020000D02*
X9060000Y-8020000D01*
X9060000Y-7880000D01*
X9140000Y-7880000D01*
X9140000Y-8020000D01*
X9140000Y-8020000D01*
G37*
G36*
X8950000Y-8020000D02*
X8870000Y-8020000D01*
X8870000Y-7880000D01*
X8950000Y-7880000D01*
X8950000Y-8020000D01*
X8950000Y-8020000D01*
G37*
G36*
X13925000Y-8010000D02*
X13870000Y-8010000D01*
X13870000Y-7970000D01*
X13925000Y-7970000D01*
X13925000Y-8010000D01*
X13925000Y-8010000D01*
G37*
G36*
X13790000Y-8010000D02*
X13735000Y-8010000D01*
X13735000Y-7970000D01*
X13790000Y-7970000D01*
X13790000Y-8010000D01*
X13790000Y-8010000D01*
G37*
G36*
X10012500Y-7995000D02*
X9847500Y-7995000D01*
X9847500Y-7955000D01*
X10012500Y-7955000D01*
X10012500Y-7995000D01*
X10012500Y-7995000D01*
G37*
G36*
X12152500Y-7995000D02*
X11987500Y-7995000D01*
X11987500Y-7955000D01*
X12152500Y-7955000D01*
X12152500Y-7995000D01*
X12152500Y-7995000D01*
G37*
G36*
X13087616Y-7795648D02*
X13087617Y-7795648D01*
X13087718Y-7795649D01*
X13105437Y-7797636D01*
X13122433Y-7803028D01*
X13138057Y-7811618D01*
X13151716Y-7823079D01*
X13162889Y-7836975D01*
X13171150Y-7852776D01*
X13176184Y-7869881D01*
X13177800Y-7887638D01*
X13175936Y-7905370D01*
X13170663Y-7922403D01*
X13162183Y-7938088D01*
X13150817Y-7951826D01*
X13137000Y-7963096D01*
X13121257Y-7971466D01*
X13104187Y-7976620D01*
X13086442Y-7978360D01*
X13085549Y-7978360D01*
X13084384Y-7978352D01*
X13084383Y-7978352D01*
X13084282Y-7978351D01*
X13066563Y-7976364D01*
X13049567Y-7970972D01*
X13033942Y-7962382D01*
X13020284Y-7950921D01*
X13009111Y-7937025D01*
X13000850Y-7921224D01*
X12995816Y-7904119D01*
X12994200Y-7886362D01*
X12996064Y-7868629D01*
X13001336Y-7851597D01*
X13009817Y-7835912D01*
X13021182Y-7822174D01*
X13035000Y-7810904D01*
X13050743Y-7802533D01*
X13067813Y-7797380D01*
X13085558Y-7795640D01*
X13086451Y-7795640D01*
X13087616Y-7795648D01*
X13087616Y-7795648D01*
G37*
G36*
X13341616Y-7795648D02*
X13341617Y-7795648D01*
X13341718Y-7795649D01*
X13359437Y-7797636D01*
X13376433Y-7803028D01*
X13392057Y-7811618D01*
X13405716Y-7823079D01*
X13416889Y-7836975D01*
X13425150Y-7852776D01*
X13430184Y-7869881D01*
X13431800Y-7887638D01*
X13429936Y-7905370D01*
X13424663Y-7922403D01*
X13416183Y-7938088D01*
X13404817Y-7951826D01*
X13391000Y-7963096D01*
X13375257Y-7971466D01*
X13358187Y-7976620D01*
X13340442Y-7978360D01*
X13339549Y-7978360D01*
X13338384Y-7978352D01*
X13338383Y-7978352D01*
X13338282Y-7978351D01*
X13320563Y-7976364D01*
X13303567Y-7970972D01*
X13287942Y-7962382D01*
X13274284Y-7950921D01*
X13263111Y-7937025D01*
X13254850Y-7921224D01*
X13249816Y-7904119D01*
X13248200Y-7886362D01*
X13250064Y-7868629D01*
X13255336Y-7851597D01*
X13263817Y-7835912D01*
X13275182Y-7822174D01*
X13289000Y-7810904D01*
X13304743Y-7802533D01*
X13321813Y-7797380D01*
X13339558Y-7795640D01*
X13340451Y-7795640D01*
X13341616Y-7795648D01*
X13341616Y-7795648D01*
G37*
G36*
X13790000Y-7960000D02*
X13735000Y-7960000D01*
X13735000Y-7920000D01*
X13790000Y-7920000D01*
X13790000Y-7960000D01*
X13790000Y-7960000D01*
G37*
G36*
X13925000Y-7960000D02*
X13870000Y-7960000D01*
X13870000Y-7920000D01*
X13925000Y-7920000D01*
X13925000Y-7960000D01*
X13925000Y-7960000D01*
G37*
G36*
X10012500Y-7945000D02*
X9847500Y-7945000D01*
X9847500Y-7905000D01*
X10012500Y-7905000D01*
X10012500Y-7945000D01*
X10012500Y-7945000D01*
G37*
G36*
X12152500Y-7945000D02*
X11987500Y-7945000D01*
X11987500Y-7905000D01*
X12152500Y-7905000D01*
X12152500Y-7945000D01*
X12152500Y-7945000D01*
G37*
G36*
X8425000Y-7942500D02*
X8365000Y-7942500D01*
X8365000Y-7907500D01*
X8425000Y-7907500D01*
X8425000Y-7942500D01*
X8425000Y-7942500D01*
G37*
G36*
X8235000Y-7942500D02*
X8175000Y-7942500D01*
X8175000Y-7907500D01*
X8235000Y-7907500D01*
X8235000Y-7942500D01*
X8235000Y-7942500D01*
G37*
G36*
X8350000Y-7935000D02*
X8250000Y-7935000D01*
X8250000Y-7765000D01*
X8350000Y-7765000D01*
X8350000Y-7935000D01*
X8350000Y-7935000D01*
G37*
G36*
X13790000Y-7910000D02*
X13735000Y-7910000D01*
X13735000Y-7870000D01*
X13790000Y-7870000D01*
X13790000Y-7910000D01*
X13790000Y-7910000D01*
G37*
G36*
X13925000Y-7910000D02*
X13870000Y-7910000D01*
X13870000Y-7870000D01*
X13925000Y-7870000D01*
X13925000Y-7910000D01*
X13925000Y-7910000D01*
G37*
G36*
X10012500Y-7895000D02*
X9847500Y-7895000D01*
X9847500Y-7855000D01*
X10012500Y-7855000D01*
X10012500Y-7895000D01*
X10012500Y-7895000D01*
G37*
G36*
X12152500Y-7895000D02*
X11987500Y-7895000D01*
X11987500Y-7855000D01*
X12152500Y-7855000D01*
X12152500Y-7895000D01*
X12152500Y-7895000D01*
G37*
G36*
X8425000Y-7892500D02*
X8365000Y-7892500D01*
X8365000Y-7857500D01*
X8425000Y-7857500D01*
X8425000Y-7892500D01*
X8425000Y-7892500D01*
G37*
G36*
X8235000Y-7892500D02*
X8175000Y-7892500D01*
X8175000Y-7857500D01*
X8235000Y-7857500D01*
X8235000Y-7892500D01*
X8235000Y-7892500D01*
G37*
G36*
X10012500Y-7845000D02*
X9847500Y-7845000D01*
X9847500Y-7805000D01*
X10012500Y-7805000D01*
X10012500Y-7845000D01*
X10012500Y-7845000D01*
G37*
G36*
X12152500Y-7845000D02*
X11987500Y-7845000D01*
X11987500Y-7805000D01*
X12152500Y-7805000D01*
X12152500Y-7845000D01*
X12152500Y-7845000D01*
G37*
G36*
X8235000Y-7842500D02*
X8175000Y-7842500D01*
X8175000Y-7807500D01*
X8235000Y-7807500D01*
X8235000Y-7842500D01*
X8235000Y-7842500D01*
G37*
G36*
X8425000Y-7842500D02*
X8365000Y-7842500D01*
X8365000Y-7807500D01*
X8425000Y-7807500D01*
X8425000Y-7842500D01*
X8425000Y-7842500D01*
G37*
G36*
X12152500Y-7795000D02*
X11987500Y-7795000D01*
X11987500Y-7755000D01*
X12152500Y-7755000D01*
X12152500Y-7795000D01*
X12152500Y-7795000D01*
G37*
G36*
X10012500Y-7795000D02*
X9847500Y-7795000D01*
X9847500Y-7755000D01*
X10012500Y-7755000D01*
X10012500Y-7795000D01*
X10012500Y-7795000D01*
G37*
G36*
X8715000Y-7795000D02*
X8585000Y-7795000D01*
X8585000Y-7635000D01*
X8715000Y-7635000D01*
X8715000Y-7795000D01*
X8715000Y-7795000D01*
G37*
G36*
X8235000Y-7792500D02*
X8175000Y-7792500D01*
X8175000Y-7757500D01*
X8235000Y-7757500D01*
X8235000Y-7792500D01*
X8235000Y-7792500D01*
G37*
G36*
X8425000Y-7792500D02*
X8365000Y-7792500D01*
X8365000Y-7757500D01*
X8425000Y-7757500D01*
X8425000Y-7792500D01*
X8425000Y-7792500D01*
G37*
G36*
X9090000Y-7790000D02*
X8910000Y-7790000D01*
X8910000Y-7610000D01*
X9090000Y-7610000D01*
X9090000Y-7790000D01*
X9090000Y-7790000D01*
G37*
G36*
X10012500Y-7745000D02*
X9847500Y-7745000D01*
X9847500Y-7705000D01*
X10012500Y-7705000D01*
X10012500Y-7745000D01*
X10012500Y-7745000D01*
G37*
G36*
X12152500Y-7745000D02*
X11987500Y-7745000D01*
X11987500Y-7705000D01*
X12152500Y-7705000D01*
X12152500Y-7745000D01*
X12152500Y-7745000D01*
G37*
G36*
X13087616Y-7541648D02*
X13087617Y-7541648D01*
X13087718Y-7541649D01*
X13105437Y-7543636D01*
X13122433Y-7549028D01*
X13138057Y-7557618D01*
X13151716Y-7569079D01*
X13162889Y-7582975D01*
X13171150Y-7598776D01*
X13176184Y-7615881D01*
X13177800Y-7633638D01*
X13175936Y-7651370D01*
X13170663Y-7668403D01*
X13162183Y-7684088D01*
X13150817Y-7697826D01*
X13137000Y-7709096D01*
X13121257Y-7717466D01*
X13104187Y-7722620D01*
X13086442Y-7724360D01*
X13085549Y-7724360D01*
X13084384Y-7724352D01*
X13084383Y-7724352D01*
X13084282Y-7724351D01*
X13066563Y-7722364D01*
X13049567Y-7716972D01*
X13033942Y-7708382D01*
X13020284Y-7696921D01*
X13009111Y-7683025D01*
X13000850Y-7667224D01*
X12995816Y-7650119D01*
X12994200Y-7632362D01*
X12996064Y-7614629D01*
X13001336Y-7597597D01*
X13009817Y-7581912D01*
X13021182Y-7568174D01*
X13035000Y-7556904D01*
X13050743Y-7548533D01*
X13067813Y-7543380D01*
X13085558Y-7541640D01*
X13086451Y-7541640D01*
X13087616Y-7541648D01*
X13087616Y-7541648D01*
G37*
G36*
X13341616Y-7541648D02*
X13341617Y-7541648D01*
X13341718Y-7541649D01*
X13359437Y-7543636D01*
X13376433Y-7549028D01*
X13392057Y-7557618D01*
X13405716Y-7569079D01*
X13416889Y-7582975D01*
X13425150Y-7598776D01*
X13430184Y-7615881D01*
X13431800Y-7633638D01*
X13429936Y-7651370D01*
X13424663Y-7668403D01*
X13416183Y-7684088D01*
X13404817Y-7697826D01*
X13391000Y-7709096D01*
X13375257Y-7717466D01*
X13358187Y-7722620D01*
X13340442Y-7724360D01*
X13339549Y-7724360D01*
X13338384Y-7724352D01*
X13338383Y-7724352D01*
X13338282Y-7724351D01*
X13320563Y-7722364D01*
X13303567Y-7716972D01*
X13287942Y-7708382D01*
X13274284Y-7696921D01*
X13263111Y-7683025D01*
X13254850Y-7667224D01*
X13249816Y-7650119D01*
X13248200Y-7632362D01*
X13250064Y-7614629D01*
X13255336Y-7597597D01*
X13263817Y-7581912D01*
X13275182Y-7568174D01*
X13289000Y-7556904D01*
X13304743Y-7548533D01*
X13321813Y-7543380D01*
X13339558Y-7541640D01*
X13340451Y-7541640D01*
X13341616Y-7541648D01*
X13341616Y-7541648D01*
G37*
G36*
X10012500Y-7695000D02*
X9847500Y-7695000D01*
X9847500Y-7655000D01*
X10012500Y-7655000D01*
X10012500Y-7695000D01*
X10012500Y-7695000D01*
G37*
G36*
X12152500Y-7695000D02*
X11987500Y-7695000D01*
X11987500Y-7655000D01*
X12152500Y-7655000D01*
X12152500Y-7695000D01*
X12152500Y-7695000D01*
G37*
G36*
X10012500Y-7645000D02*
X9847500Y-7645000D01*
X9847500Y-7605000D01*
X10012500Y-7605000D01*
X10012500Y-7645000D01*
X10012500Y-7645000D01*
G37*
G36*
X12152500Y-7645000D02*
X11987500Y-7645000D01*
X11987500Y-7605000D01*
X12152500Y-7605000D01*
X12152500Y-7645000D01*
X12152500Y-7645000D01*
G37*
G36*
X8320000Y-7642500D02*
X8230000Y-7642500D01*
X8230000Y-7557500D01*
X8320000Y-7557500D01*
X8320000Y-7642500D01*
X8320000Y-7642500D01*
G37*
G36*
X8470000Y-7642500D02*
X8380000Y-7642500D01*
X8380000Y-7557500D01*
X8470000Y-7557500D01*
X8470000Y-7642500D01*
X8470000Y-7642500D01*
G37*
G36*
X13863339Y-7348084D02*
X13887736Y-7353092D01*
X13910697Y-7362744D01*
X13931345Y-7376671D01*
X13948894Y-7394344D01*
X13962677Y-7415088D01*
X13972168Y-7438115D01*
X13977002Y-7462530D01*
X13977002Y-7462530D01*
X13977005Y-7462547D01*
X13976608Y-7490994D01*
X13976604Y-7491011D01*
X13976604Y-7491012D01*
X13971090Y-7515281D01*
X13960960Y-7538034D01*
X13946603Y-7558386D01*
X13928568Y-7575562D01*
X13907539Y-7588907D01*
X13884318Y-7597914D01*
X13859791Y-7602238D01*
X13834890Y-7601717D01*
X13810565Y-7596369D01*
X13787742Y-7586398D01*
X13767290Y-7572183D01*
X13749989Y-7554268D01*
X13736497Y-7533332D01*
X13727329Y-7510175D01*
X13722833Y-7485679D01*
X13723181Y-7460775D01*
X13728359Y-7436413D01*
X13738170Y-7413521D01*
X13752241Y-7392971D01*
X13770036Y-7375545D01*
X13790876Y-7361907D01*
X13813969Y-7352577D01*
X13838434Y-7347910D01*
X13863339Y-7348084D01*
X13863339Y-7348084D01*
G37*
G36*
X12152500Y-7595000D02*
X11987500Y-7595000D01*
X11987500Y-7555000D01*
X12152500Y-7555000D01*
X12152500Y-7595000D01*
X12152500Y-7595000D01*
G37*
G36*
X10012500Y-7595000D02*
X9847500Y-7595000D01*
X9847500Y-7555000D01*
X10012500Y-7555000D01*
X10012500Y-7595000D01*
X10012500Y-7595000D01*
G37*
G36*
X10012500Y-7545000D02*
X9847500Y-7545000D01*
X9847500Y-7505000D01*
X10012500Y-7505000D01*
X10012500Y-7545000D01*
X10012500Y-7545000D01*
G37*
G36*
X12152500Y-7545000D02*
X11987500Y-7545000D01*
X11987500Y-7505000D01*
X12152500Y-7505000D01*
X12152500Y-7545000D01*
X12152500Y-7545000D01*
G37*
G36*
X10012500Y-7495000D02*
X9847500Y-7495000D01*
X9847500Y-7455000D01*
X10012500Y-7455000D01*
X10012500Y-7495000D01*
X10012500Y-7495000D01*
G37*
G36*
X12152500Y-7495000D02*
X11987500Y-7495000D01*
X11987500Y-7455000D01*
X12152500Y-7455000D01*
X12152500Y-7495000D01*
X12152500Y-7495000D01*
G37*
G36*
X13341616Y-7287648D02*
X13341617Y-7287648D01*
X13341718Y-7287649D01*
X13359437Y-7289636D01*
X13376433Y-7295028D01*
X13392057Y-7303618D01*
X13405716Y-7315079D01*
X13416889Y-7328975D01*
X13425150Y-7344776D01*
X13430184Y-7361881D01*
X13431800Y-7379638D01*
X13429936Y-7397370D01*
X13424663Y-7414403D01*
X13416183Y-7430088D01*
X13404817Y-7443826D01*
X13391000Y-7455096D01*
X13375257Y-7463466D01*
X13358187Y-7468620D01*
X13340442Y-7470360D01*
X13339549Y-7470360D01*
X13338384Y-7470352D01*
X13338383Y-7470352D01*
X13338282Y-7470351D01*
X13320563Y-7468364D01*
X13303567Y-7462972D01*
X13287942Y-7454382D01*
X13274284Y-7442921D01*
X13263111Y-7429025D01*
X13254850Y-7413224D01*
X13249816Y-7396119D01*
X13248200Y-7378362D01*
X13250064Y-7360629D01*
X13255336Y-7343597D01*
X13263817Y-7327912D01*
X13275182Y-7314174D01*
X13289000Y-7302904D01*
X13304743Y-7294533D01*
X13321813Y-7289380D01*
X13339558Y-7287640D01*
X13340451Y-7287640D01*
X13341616Y-7287648D01*
X13341616Y-7287648D01*
G37*
G36*
X13087616Y-7287648D02*
X13087617Y-7287648D01*
X13087718Y-7287649D01*
X13105437Y-7289636D01*
X13122433Y-7295028D01*
X13138057Y-7303618D01*
X13151716Y-7315079D01*
X13162889Y-7328975D01*
X13171150Y-7344776D01*
X13176184Y-7361881D01*
X13177800Y-7379638D01*
X13175936Y-7397370D01*
X13170663Y-7414403D01*
X13162183Y-7430088D01*
X13150817Y-7443826D01*
X13137000Y-7455096D01*
X13121257Y-7463466D01*
X13104187Y-7468620D01*
X13086442Y-7470360D01*
X13085549Y-7470360D01*
X13084384Y-7470352D01*
X13084383Y-7470352D01*
X13084282Y-7470351D01*
X13066563Y-7468364D01*
X13049567Y-7462972D01*
X13033942Y-7454382D01*
X13020284Y-7442921D01*
X13009111Y-7429025D01*
X13000850Y-7413224D01*
X12995816Y-7396119D01*
X12994200Y-7378362D01*
X12996064Y-7360629D01*
X13001336Y-7343597D01*
X13009817Y-7327912D01*
X13021182Y-7314174D01*
X13035000Y-7302904D01*
X13050743Y-7294533D01*
X13067813Y-7289380D01*
X13085558Y-7287640D01*
X13086451Y-7287640D01*
X13087616Y-7287648D01*
X13087616Y-7287648D01*
G37*
G36*
X10012500Y-7445000D02*
X9847500Y-7445000D01*
X9847500Y-7405000D01*
X10012500Y-7405000D01*
X10012500Y-7445000D01*
X10012500Y-7445000D01*
G37*
G36*
X12152500Y-7445000D02*
X11987500Y-7445000D01*
X11987500Y-7405000D01*
X12152500Y-7405000D01*
X12152500Y-7445000D01*
X12152500Y-7445000D01*
G37*
G36*
X8320000Y-7442500D02*
X8230000Y-7442500D01*
X8230000Y-7357500D01*
X8320000Y-7357500D01*
X8320000Y-7442500D01*
X8320000Y-7442500D01*
G37*
G36*
X8470000Y-7442500D02*
X8380000Y-7442500D01*
X8380000Y-7357500D01*
X8470000Y-7357500D01*
X8470000Y-7442500D01*
X8470000Y-7442500D01*
G37*
G36*
X10012500Y-7395000D02*
X9847500Y-7395000D01*
X9847500Y-7355000D01*
X10012500Y-7355000D01*
X10012500Y-7395000D01*
X10012500Y-7395000D01*
G37*
G36*
X12152500Y-7395000D02*
X11987500Y-7395000D01*
X11987500Y-7355000D01*
X12152500Y-7355000D01*
X12152500Y-7395000D01*
X12152500Y-7395000D01*
G37*
G36*
X8715000Y-7365000D02*
X8585000Y-7365000D01*
X8585000Y-7205000D01*
X8715000Y-7205000D01*
X8715000Y-7365000D01*
X8715000Y-7365000D01*
G37*
G36*
X10012500Y-7345000D02*
X9847500Y-7345000D01*
X9847500Y-7305000D01*
X10012500Y-7305000D01*
X10012500Y-7345000D01*
X10012500Y-7345000D01*
G37*
G36*
X12152500Y-7345000D02*
X11987500Y-7345000D01*
X11987500Y-7305000D01*
X12152500Y-7305000D01*
X12152500Y-7345000D01*
X12152500Y-7345000D01*
G37*
G36*
X9135000Y-7320000D02*
X9055000Y-7320000D01*
X9055000Y-7180000D01*
X9135000Y-7180000D01*
X9135000Y-7320000D01*
X9135000Y-7320000D01*
G37*
G36*
X8945000Y-7320000D02*
X8865000Y-7320000D01*
X8865000Y-7180000D01*
X8945000Y-7180000D01*
X8945000Y-7320000D01*
X8945000Y-7320000D01*
G37*
G36*
X10012500Y-7295000D02*
X9847500Y-7295000D01*
X9847500Y-7255000D01*
X10012500Y-7255000D01*
X10012500Y-7295000D01*
X10012500Y-7295000D01*
G37*
G36*
X12152500Y-7295000D02*
X11987500Y-7295000D01*
X11987500Y-7255000D01*
X12152500Y-7255000D01*
X12152500Y-7295000D01*
X12152500Y-7295000D01*
G37*
G36*
X14221000Y-7262000D02*
X14041000Y-7262000D01*
X14041000Y-7082000D01*
X14221000Y-7082000D01*
X14221000Y-7262000D01*
X14221000Y-7262000D01*
G37*
G36*
X13878590Y-7082008D02*
X13878591Y-7082008D01*
X13878692Y-7082009D01*
X13896148Y-7083967D01*
X13912890Y-7089278D01*
X13928282Y-7097740D01*
X13941738Y-7109030D01*
X13952744Y-7122719D01*
X13960882Y-7138285D01*
X13965841Y-7155136D01*
X13965842Y-7155138D01*
X13965842Y-7155138D01*
X13967433Y-7172628D01*
X13965727Y-7188864D01*
X13965597Y-7190097D01*
X13960403Y-7206876D01*
X13952049Y-7222327D01*
X13940853Y-7235861D01*
X13927241Y-7246963D01*
X13911732Y-7255209D01*
X13894917Y-7260286D01*
X13877435Y-7262000D01*
X13876555Y-7262000D01*
X13875410Y-7261992D01*
X13875409Y-7261992D01*
X13875308Y-7261991D01*
X13857852Y-7260033D01*
X13841110Y-7254722D01*
X13825717Y-7246260D01*
X13812262Y-7234970D01*
X13801256Y-7221281D01*
X13793118Y-7205715D01*
X13788159Y-7188864D01*
X13788158Y-7188862D01*
X13788158Y-7188862D01*
X13786567Y-7171372D01*
X13788402Y-7153905D01*
X13788402Y-7153905D01*
X13788403Y-7153903D01*
X13793597Y-7137124D01*
X13801951Y-7121673D01*
X13813147Y-7108139D01*
X13826759Y-7097037D01*
X13842268Y-7088791D01*
X13859083Y-7083714D01*
X13876564Y-7082000D01*
X13877444Y-7082000D01*
X13878590Y-7082008D01*
X13878590Y-7082008D01*
G37*
G36*
X12152500Y-7245000D02*
X11987500Y-7245000D01*
X11987500Y-7205000D01*
X12152500Y-7205000D01*
X12152500Y-7245000D01*
X12152500Y-7245000D01*
G37*
G36*
X10012500Y-7245000D02*
X9847500Y-7245000D01*
X9847500Y-7205000D01*
X10012500Y-7205000D01*
X10012500Y-7245000D01*
X10012500Y-7245000D01*
G37*
G36*
X8235000Y-7242500D02*
X8175000Y-7242500D01*
X8175000Y-7207500D01*
X8235000Y-7207500D01*
X8235000Y-7242500D01*
X8235000Y-7242500D01*
G37*
G36*
X8425000Y-7242500D02*
X8365000Y-7242500D01*
X8365000Y-7207500D01*
X8425000Y-7207500D01*
X8425000Y-7242500D01*
X8425000Y-7242500D01*
G37*
G36*
X8350000Y-7235000D02*
X8250000Y-7235000D01*
X8250000Y-7065000D01*
X8350000Y-7065000D01*
X8350000Y-7235000D01*
X8350000Y-7235000D01*
G37*
G36*
X12152500Y-7195000D02*
X11987500Y-7195000D01*
X11987500Y-7155000D01*
X12152500Y-7155000D01*
X12152500Y-7195000D01*
X12152500Y-7195000D01*
G37*
G36*
X10012500Y-7195000D02*
X9847500Y-7195000D01*
X9847500Y-7155000D01*
X10012500Y-7155000D01*
X10012500Y-7195000D01*
X10012500Y-7195000D01*
G37*
G36*
X8235000Y-7192500D02*
X8175000Y-7192500D01*
X8175000Y-7157500D01*
X8235000Y-7157500D01*
X8235000Y-7192500D01*
X8235000Y-7192500D01*
G37*
G36*
X8425000Y-7192500D02*
X8365000Y-7192500D01*
X8365000Y-7157500D01*
X8425000Y-7157500D01*
X8425000Y-7192500D01*
X8425000Y-7192500D01*
G37*
G36*
X9800000Y-7165000D02*
X9700000Y-7165000D01*
X9700000Y-7105000D01*
X9800000Y-7105000D01*
X9800000Y-7165000D01*
X9800000Y-7165000D01*
G37*
G36*
X8235000Y-7142500D02*
X8175000Y-7142500D01*
X8175000Y-7107500D01*
X8235000Y-7107500D01*
X8235000Y-7142500D01*
X8235000Y-7142500D01*
G37*
G36*
X8425000Y-7142500D02*
X8365000Y-7142500D01*
X8365000Y-7107500D01*
X8425000Y-7107500D01*
X8425000Y-7142500D01*
X8425000Y-7142500D01*
G37*
G36*
X8715000Y-7095000D02*
X8585000Y-7095000D01*
X8585000Y-6935000D01*
X8715000Y-6935000D01*
X8715000Y-7095000D01*
X8715000Y-7095000D01*
G37*
G36*
X8425000Y-7092500D02*
X8365000Y-7092500D01*
X8365000Y-7057500D01*
X8425000Y-7057500D01*
X8425000Y-7092500D01*
X8425000Y-7092500D01*
G37*
G36*
X8235000Y-7092500D02*
X8175000Y-7092500D01*
X8175000Y-7057500D01*
X8235000Y-7057500D01*
X8235000Y-7092500D01*
X8235000Y-7092500D01*
G37*
G36*
X9090000Y-7090000D02*
X8910000Y-7090000D01*
X8910000Y-6910000D01*
X9090000Y-6910000D01*
X9090000Y-7090000D01*
X9090000Y-7090000D01*
G37*
G36*
X10695000Y-7062500D02*
X10655000Y-7062500D01*
X10655000Y-6897500D01*
X10695000Y-6897500D01*
X10695000Y-7062500D01*
X10695000Y-7062500D01*
G37*
G36*
X10645000Y-7062500D02*
X10605000Y-7062500D01*
X10605000Y-6897500D01*
X10645000Y-6897500D01*
X10645000Y-7062500D01*
X10645000Y-7062500D01*
G37*
G36*
X10595000Y-7062500D02*
X10555000Y-7062500D01*
X10555000Y-6897500D01*
X10595000Y-6897500D01*
X10595000Y-7062500D01*
X10595000Y-7062500D01*
G37*
G36*
X10545000Y-7062500D02*
X10505000Y-7062500D01*
X10505000Y-6897500D01*
X10545000Y-6897500D01*
X10545000Y-7062500D01*
X10545000Y-7062500D01*
G37*
G36*
X11045000Y-7062500D02*
X11005000Y-7062500D01*
X11005000Y-6897500D01*
X11045000Y-6897500D01*
X11045000Y-7062500D01*
X11045000Y-7062500D01*
G37*
G36*
X10445000Y-7062500D02*
X10405000Y-7062500D01*
X10405000Y-6897500D01*
X10445000Y-6897500D01*
X10445000Y-7062500D01*
X10445000Y-7062500D01*
G37*
G36*
X10395000Y-7062500D02*
X10355000Y-7062500D01*
X10355000Y-6897500D01*
X10395000Y-6897500D01*
X10395000Y-7062500D01*
X10395000Y-7062500D01*
G37*
G36*
X10345000Y-7062500D02*
X10305000Y-7062500D01*
X10305000Y-6897500D01*
X10345000Y-6897500D01*
X10345000Y-7062500D01*
X10345000Y-7062500D01*
G37*
G36*
X10295000Y-7062500D02*
X10255000Y-7062500D01*
X10255000Y-6897500D01*
X10295000Y-6897500D01*
X10295000Y-7062500D01*
X10295000Y-7062500D01*
G37*
G36*
X10245000Y-7062500D02*
X10205000Y-7062500D01*
X10205000Y-6897500D01*
X10245000Y-6897500D01*
X10245000Y-7062500D01*
X10245000Y-7062500D01*
G37*
G36*
X10195000Y-7062500D02*
X10155000Y-7062500D01*
X10155000Y-6897500D01*
X10195000Y-6897500D01*
X10195000Y-7062500D01*
X10195000Y-7062500D01*
G37*
G36*
X11495000Y-7062500D02*
X11455000Y-7062500D01*
X11455000Y-6897500D01*
X11495000Y-6897500D01*
X11495000Y-7062500D01*
X11495000Y-7062500D01*
G37*
G36*
X10945000Y-7062500D02*
X10905000Y-7062500D01*
X10905000Y-6897500D01*
X10945000Y-6897500D01*
X10945000Y-7062500D01*
X10945000Y-7062500D01*
G37*
G36*
X11545000Y-7062500D02*
X11505000Y-7062500D01*
X11505000Y-6897500D01*
X11545000Y-6897500D01*
X11545000Y-7062500D01*
X11545000Y-7062500D01*
G37*
G36*
X11445000Y-7062500D02*
X11405000Y-7062500D01*
X11405000Y-6897500D01*
X11445000Y-6897500D01*
X11445000Y-7062500D01*
X11445000Y-7062500D01*
G37*
G36*
X11395000Y-7062500D02*
X11355000Y-7062500D01*
X11355000Y-6897500D01*
X11395000Y-6897500D01*
X11395000Y-7062500D01*
X11395000Y-7062500D01*
G37*
G36*
X11345000Y-7062500D02*
X11305000Y-7062500D01*
X11305000Y-6897500D01*
X11345000Y-6897500D01*
X11345000Y-7062500D01*
X11345000Y-7062500D01*
G37*
G36*
X11295000Y-7062500D02*
X11255000Y-7062500D01*
X11255000Y-6897500D01*
X11295000Y-6897500D01*
X11295000Y-7062500D01*
X11295000Y-7062500D01*
G37*
G36*
X10795000Y-7062500D02*
X10755000Y-7062500D01*
X10755000Y-6897500D01*
X10795000Y-6897500D01*
X10795000Y-7062500D01*
X10795000Y-7062500D01*
G37*
G36*
X10745000Y-7062500D02*
X10705000Y-7062500D01*
X10705000Y-6897500D01*
X10745000Y-6897500D01*
X10745000Y-7062500D01*
X10745000Y-7062500D01*
G37*
G36*
X11195000Y-7062500D02*
X11155000Y-7062500D01*
X11155000Y-6897500D01*
X11195000Y-6897500D01*
X11195000Y-7062500D01*
X11195000Y-7062500D01*
G37*
G36*
X11095000Y-7062500D02*
X11055000Y-7062500D01*
X11055000Y-6897500D01*
X11095000Y-6897500D01*
X11095000Y-7062500D01*
X11095000Y-7062500D01*
G37*
G36*
X11145000Y-7062500D02*
X11105000Y-7062500D01*
X11105000Y-6897500D01*
X11145000Y-6897500D01*
X11145000Y-7062500D01*
X11145000Y-7062500D01*
G37*
G36*
X10995000Y-7062500D02*
X10955000Y-7062500D01*
X10955000Y-6897500D01*
X10995000Y-6897500D01*
X10995000Y-7062500D01*
X10995000Y-7062500D01*
G37*
G36*
X11245000Y-7062500D02*
X11205000Y-7062500D01*
X11205000Y-6897500D01*
X11245000Y-6897500D01*
X11245000Y-7062500D01*
X11245000Y-7062500D01*
G37*
G36*
X11895000Y-7062500D02*
X11855000Y-7062500D01*
X11855000Y-6897500D01*
X11895000Y-6897500D01*
X11895000Y-7062500D01*
X11895000Y-7062500D01*
G37*
G36*
X11845000Y-7062500D02*
X11805000Y-7062500D01*
X11805000Y-6897500D01*
X11845000Y-6897500D01*
X11845000Y-7062500D01*
X11845000Y-7062500D01*
G37*
G36*
X11795000Y-7062500D02*
X11755000Y-7062500D01*
X11755000Y-6897500D01*
X11795000Y-6897500D01*
X11795000Y-7062500D01*
X11795000Y-7062500D01*
G37*
G36*
X11695000Y-7062500D02*
X11655000Y-7062500D01*
X11655000Y-6897500D01*
X11695000Y-6897500D01*
X11695000Y-7062500D01*
X11695000Y-7062500D01*
G37*
G36*
X11645000Y-7062500D02*
X11605000Y-7062500D01*
X11605000Y-6897500D01*
X11645000Y-6897500D01*
X11645000Y-7062500D01*
X11645000Y-7062500D01*
G37*
G36*
X11595000Y-7062500D02*
X11555000Y-7062500D01*
X11555000Y-6897500D01*
X11595000Y-6897500D01*
X11595000Y-7062500D01*
X11595000Y-7062500D01*
G37*
G36*
X10145000Y-7062500D02*
X10105000Y-7062500D01*
X10105000Y-6897500D01*
X10145000Y-6897500D01*
X10145000Y-7062500D01*
X10145000Y-7062500D01*
G37*
G36*
X10495000Y-7062500D02*
X10455000Y-7062500D01*
X10455000Y-6897500D01*
X10495000Y-6897500D01*
X10495000Y-7062500D01*
X10495000Y-7062500D01*
G37*
G36*
X10895000Y-7062500D02*
X10855000Y-7062500D01*
X10855000Y-6897500D01*
X10895000Y-6897500D01*
X10895000Y-7062500D01*
X10895000Y-7062500D01*
G37*
G36*
X10845000Y-7062500D02*
X10805000Y-7062500D01*
X10805000Y-6897500D01*
X10845000Y-6897500D01*
X10845000Y-7062500D01*
X10845000Y-7062500D01*
G37*
G36*
X11745000Y-7062500D02*
X11705000Y-7062500D01*
X11705000Y-6897500D01*
X11745000Y-6897500D01*
X11745000Y-7062500D01*
X11745000Y-7062500D01*
G37*
G36*
X9800000Y-7015000D02*
X9700000Y-7015000D01*
X9700000Y-6955000D01*
X9800000Y-6955000D01*
X9800000Y-7015000D01*
X9800000Y-7015000D01*
G37*
G36*
X14132590Y-6828008D02*
X14132591Y-6828008D01*
X14132692Y-6828009D01*
X14150148Y-6829967D01*
X14166890Y-6835278D01*
X14182282Y-6843740D01*
X14195738Y-6855030D01*
X14206744Y-6868719D01*
X14214882Y-6884285D01*
X14219841Y-6901136D01*
X14219842Y-6901138D01*
X14219842Y-6901138D01*
X14221433Y-6918628D01*
X14219727Y-6934864D01*
X14219597Y-6936097D01*
X14214403Y-6952876D01*
X14206049Y-6968327D01*
X14194853Y-6981861D01*
X14181241Y-6992963D01*
X14165732Y-7001209D01*
X14148917Y-7006286D01*
X14131435Y-7008000D01*
X14130555Y-7008000D01*
X14129410Y-7007992D01*
X14129409Y-7007992D01*
X14129308Y-7007991D01*
X14111852Y-7006033D01*
X14095110Y-7000722D01*
X14079717Y-6992260D01*
X14066262Y-6980970D01*
X14055256Y-6967281D01*
X14047118Y-6951715D01*
X14042159Y-6934864D01*
X14042158Y-6934862D01*
X14042158Y-6934862D01*
X14040567Y-6917372D01*
X14042402Y-6899905D01*
X14042402Y-6899905D01*
X14042403Y-6899903D01*
X14047597Y-6883124D01*
X14055951Y-6867673D01*
X14067147Y-6854139D01*
X14080759Y-6843037D01*
X14096268Y-6834791D01*
X14113083Y-6829714D01*
X14130564Y-6828000D01*
X14131444Y-6828000D01*
X14132590Y-6828008D01*
X14132590Y-6828008D01*
G37*
G36*
X13878590Y-6828008D02*
X13878591Y-6828008D01*
X13878692Y-6828009D01*
X13896148Y-6829967D01*
X13912890Y-6835278D01*
X13928282Y-6843740D01*
X13941738Y-6855030D01*
X13952744Y-6868719D01*
X13960882Y-6884285D01*
X13965841Y-6901136D01*
X13965842Y-6901138D01*
X13965842Y-6901138D01*
X13967433Y-6918628D01*
X13965727Y-6934864D01*
X13965597Y-6936097D01*
X13960403Y-6952876D01*
X13952049Y-6968327D01*
X13940853Y-6981861D01*
X13927241Y-6992963D01*
X13911732Y-7001209D01*
X13894917Y-7006286D01*
X13877435Y-7008000D01*
X13876555Y-7008000D01*
X13875410Y-7007992D01*
X13875409Y-7007992D01*
X13875308Y-7007991D01*
X13857852Y-7006033D01*
X13841110Y-7000722D01*
X13825717Y-6992260D01*
X13812262Y-6980970D01*
X13801256Y-6967281D01*
X13793118Y-6951715D01*
X13788159Y-6934864D01*
X13788158Y-6934862D01*
X13788158Y-6934862D01*
X13786567Y-6917372D01*
X13788402Y-6899905D01*
X13788402Y-6899905D01*
X13788403Y-6899903D01*
X13793597Y-6883124D01*
X13801951Y-6867673D01*
X13813147Y-6854139D01*
X13826759Y-6843037D01*
X13842268Y-6834791D01*
X13859083Y-6829714D01*
X13876564Y-6828000D01*
X13877444Y-6828000D01*
X13878590Y-6828008D01*
X13878590Y-6828008D01*
G37*
G36*
X8320000Y-6942500D02*
X8230000Y-6942500D01*
X8230000Y-6857500D01*
X8320000Y-6857500D01*
X8320000Y-6942500D01*
X8320000Y-6942500D01*
G37*
G36*
X8470000Y-6942500D02*
X8380000Y-6942500D01*
X8380000Y-6857500D01*
X8470000Y-6857500D01*
X8470000Y-6942500D01*
X8470000Y-6942500D01*
G37*
G36*
X12015000Y-6880000D02*
X11955000Y-6880000D01*
X11955000Y-6780000D01*
X12015000Y-6780000D01*
X12015000Y-6880000D01*
X12015000Y-6880000D01*
G37*
G36*
X12165000Y-6880000D02*
X12105000Y-6880000D01*
X12105000Y-6780000D01*
X12165000Y-6780000D01*
X12165000Y-6880000D01*
X12165000Y-6880000D01*
G37*
G36*
X11250094Y-6470402D02*
X11250095Y-6470402D01*
X11250097Y-6470403D01*
X11266876Y-6475597D01*
X11282327Y-6483951D01*
X11295861Y-6495147D01*
X11306963Y-6508759D01*
X11315209Y-6524268D01*
X11320286Y-6541083D01*
X11322000Y-6558564D01*
X11322000Y-6559448D01*
X11321992Y-6560590D01*
X11321992Y-6560591D01*
X11321991Y-6560692D01*
X11320033Y-6578148D01*
X11314722Y-6594890D01*
X11306260Y-6610282D01*
X11294970Y-6623738D01*
X11281281Y-6634744D01*
X11265715Y-6642882D01*
X11248864Y-6647841D01*
X11248862Y-6647842D01*
X11248862Y-6647842D01*
X11231372Y-6649433D01*
X11213905Y-6647598D01*
X11213905Y-6647597D01*
X11213903Y-6647597D01*
X11197124Y-6642403D01*
X11181673Y-6634049D01*
X11168139Y-6622853D01*
X11157037Y-6609241D01*
X11148791Y-6593732D01*
X11143714Y-6576917D01*
X11142000Y-6559435D01*
X11142000Y-6558552D01*
X11142008Y-6557410D01*
X11142008Y-6557409D01*
X11142009Y-6557308D01*
X11143967Y-6539852D01*
X11149278Y-6523110D01*
X11157740Y-6507717D01*
X11169030Y-6494262D01*
X11182719Y-6483256D01*
X11198285Y-6475118D01*
X11215136Y-6470159D01*
X11215138Y-6470158D01*
X11215138Y-6470158D01*
X11232628Y-6468567D01*
X11250094Y-6470402D01*
X11250094Y-6470402D01*
G37*
G36*
X13536094Y-6470402D02*
X13536095Y-6470402D01*
X13536097Y-6470403D01*
X13552876Y-6475597D01*
X13568327Y-6483951D01*
X13581861Y-6495147D01*
X13592963Y-6508759D01*
X13601209Y-6524268D01*
X13606286Y-6541083D01*
X13608000Y-6558564D01*
X13608000Y-6559448D01*
X13607992Y-6560590D01*
X13607992Y-6560591D01*
X13607991Y-6560692D01*
X13606033Y-6578148D01*
X13600722Y-6594890D01*
X13592260Y-6610282D01*
X13580970Y-6623738D01*
X13567281Y-6634744D01*
X13551715Y-6642882D01*
X13534864Y-6647841D01*
X13534862Y-6647842D01*
X13534862Y-6647842D01*
X13517372Y-6649433D01*
X13499905Y-6647598D01*
X13499905Y-6647597D01*
X13499903Y-6647597D01*
X13483124Y-6642403D01*
X13467673Y-6634049D01*
X13454139Y-6622853D01*
X13443037Y-6609241D01*
X13434791Y-6593732D01*
X13429714Y-6576917D01*
X13428000Y-6559435D01*
X13428000Y-6558552D01*
X13428008Y-6557410D01*
X13428008Y-6557409D01*
X13428009Y-6557308D01*
X13429967Y-6539852D01*
X13435278Y-6523110D01*
X13443740Y-6507717D01*
X13455030Y-6494262D01*
X13468719Y-6483256D01*
X13484285Y-6475118D01*
X13501136Y-6470159D01*
X13501138Y-6470158D01*
X13501138Y-6470158D01*
X13518628Y-6468567D01*
X13536094Y-6470402D01*
X13536094Y-6470402D01*
G37*
G36*
X13282094Y-6470402D02*
X13282095Y-6470402D01*
X13282097Y-6470403D01*
X13298876Y-6475597D01*
X13314327Y-6483951D01*
X13327861Y-6495147D01*
X13338963Y-6508759D01*
X13347209Y-6524268D01*
X13352286Y-6541083D01*
X13354000Y-6558564D01*
X13354000Y-6559448D01*
X13353992Y-6560590D01*
X13353992Y-6560591D01*
X13353991Y-6560692D01*
X13352033Y-6578148D01*
X13346722Y-6594890D01*
X13338260Y-6610282D01*
X13326970Y-6623738D01*
X13313281Y-6634744D01*
X13297715Y-6642882D01*
X13280864Y-6647841D01*
X13280862Y-6647842D01*
X13280862Y-6647842D01*
X13263372Y-6649433D01*
X13245905Y-6647598D01*
X13245905Y-6647597D01*
X13245903Y-6647597D01*
X13229124Y-6642403D01*
X13213673Y-6634049D01*
X13200139Y-6622853D01*
X13189037Y-6609241D01*
X13180791Y-6593732D01*
X13175714Y-6576917D01*
X13174000Y-6559435D01*
X13174000Y-6558552D01*
X13174008Y-6557410D01*
X13174008Y-6557409D01*
X13174009Y-6557308D01*
X13175967Y-6539852D01*
X13181278Y-6523110D01*
X13189740Y-6507717D01*
X13201030Y-6494262D01*
X13214719Y-6483256D01*
X13230285Y-6475118D01*
X13247136Y-6470159D01*
X13247138Y-6470158D01*
X13247138Y-6470158D01*
X13264628Y-6468567D01*
X13282094Y-6470402D01*
X13282094Y-6470402D01*
G37*
G36*
X13028094Y-6470402D02*
X13028095Y-6470402D01*
X13028097Y-6470403D01*
X13044876Y-6475597D01*
X13060327Y-6483951D01*
X13073861Y-6495147D01*
X13084963Y-6508759D01*
X13093209Y-6524268D01*
X13098286Y-6541083D01*
X13100000Y-6558564D01*
X13100000Y-6559448D01*
X13099992Y-6560590D01*
X13099992Y-6560591D01*
X13099991Y-6560692D01*
X13098033Y-6578148D01*
X13092722Y-6594890D01*
X13084260Y-6610282D01*
X13072970Y-6623738D01*
X13059281Y-6634744D01*
X13043715Y-6642882D01*
X13026864Y-6647841D01*
X13026862Y-6647842D01*
X13026862Y-6647842D01*
X13009372Y-6649433D01*
X12991905Y-6647598D01*
X12991905Y-6647597D01*
X12991903Y-6647597D01*
X12975124Y-6642403D01*
X12959673Y-6634049D01*
X12946139Y-6622853D01*
X12935037Y-6609241D01*
X12926791Y-6593732D01*
X12921714Y-6576917D01*
X12920000Y-6559435D01*
X12920000Y-6558552D01*
X12920008Y-6557410D01*
X12920008Y-6557409D01*
X12920009Y-6557308D01*
X12921967Y-6539852D01*
X12927278Y-6523110D01*
X12935740Y-6507717D01*
X12947030Y-6494262D01*
X12960719Y-6483256D01*
X12976285Y-6475118D01*
X12993136Y-6470159D01*
X12993138Y-6470158D01*
X12993138Y-6470158D01*
X13010628Y-6468567D01*
X13028094Y-6470402D01*
X13028094Y-6470402D01*
G37*
G36*
X12774094Y-6470402D02*
X12774095Y-6470402D01*
X12774097Y-6470403D01*
X12790876Y-6475597D01*
X12806327Y-6483951D01*
X12819861Y-6495147D01*
X12830963Y-6508759D01*
X12839209Y-6524268D01*
X12844286Y-6541083D01*
X12846000Y-6558564D01*
X12846000Y-6559448D01*
X12845992Y-6560590D01*
X12845992Y-6560591D01*
X12845991Y-6560692D01*
X12844033Y-6578148D01*
X12838722Y-6594890D01*
X12830260Y-6610282D01*
X12818970Y-6623738D01*
X12805281Y-6634744D01*
X12789715Y-6642882D01*
X12772864Y-6647841D01*
X12772862Y-6647842D01*
X12772862Y-6647842D01*
X12755372Y-6649433D01*
X12737905Y-6647598D01*
X12737905Y-6647597D01*
X12737903Y-6647597D01*
X12721124Y-6642403D01*
X12705673Y-6634049D01*
X12692139Y-6622853D01*
X12681037Y-6609241D01*
X12672791Y-6593732D01*
X12667714Y-6576917D01*
X12666000Y-6559435D01*
X12666000Y-6558552D01*
X12666008Y-6557410D01*
X12666008Y-6557409D01*
X12666009Y-6557308D01*
X12667967Y-6539852D01*
X12673278Y-6523110D01*
X12681740Y-6507717D01*
X12693030Y-6494262D01*
X12706719Y-6483256D01*
X12722285Y-6475118D01*
X12739136Y-6470159D01*
X12739138Y-6470158D01*
X12739138Y-6470158D01*
X12756628Y-6468567D01*
X12774094Y-6470402D01*
X12774094Y-6470402D01*
G37*
G36*
X12520094Y-6470402D02*
X12520095Y-6470402D01*
X12520097Y-6470403D01*
X12536876Y-6475597D01*
X12552327Y-6483951D01*
X12565861Y-6495147D01*
X12576963Y-6508759D01*
X12585209Y-6524268D01*
X12590286Y-6541083D01*
X12592000Y-6558564D01*
X12592000Y-6559448D01*
X12591992Y-6560590D01*
X12591992Y-6560591D01*
X12591991Y-6560692D01*
X12590033Y-6578148D01*
X12584722Y-6594890D01*
X12576260Y-6610282D01*
X12564970Y-6623738D01*
X12551281Y-6634744D01*
X12535715Y-6642882D01*
X12518864Y-6647841D01*
X12518862Y-6647842D01*
X12518862Y-6647842D01*
X12501372Y-6649433D01*
X12483905Y-6647598D01*
X12483905Y-6647597D01*
X12483903Y-6647597D01*
X12467124Y-6642403D01*
X12451673Y-6634049D01*
X12438139Y-6622853D01*
X12427037Y-6609241D01*
X12418791Y-6593732D01*
X12413714Y-6576917D01*
X12412000Y-6559435D01*
X12412000Y-6558552D01*
X12412008Y-6557410D01*
X12412008Y-6557409D01*
X12412009Y-6557308D01*
X12413967Y-6539852D01*
X12419278Y-6523110D01*
X12427740Y-6507717D01*
X12439030Y-6494262D01*
X12452719Y-6483256D01*
X12468285Y-6475118D01*
X12485136Y-6470159D01*
X12485138Y-6470158D01*
X12485138Y-6470158D01*
X12502628Y-6468567D01*
X12520094Y-6470402D01*
X12520094Y-6470402D01*
G37*
G36*
X12266094Y-6470402D02*
X12266095Y-6470402D01*
X12266097Y-6470403D01*
X12282876Y-6475597D01*
X12298327Y-6483951D01*
X12311861Y-6495147D01*
X12322963Y-6508759D01*
X12331209Y-6524268D01*
X12336286Y-6541083D01*
X12338000Y-6558564D01*
X12338000Y-6559448D01*
X12337992Y-6560590D01*
X12337992Y-6560591D01*
X12337991Y-6560692D01*
X12336033Y-6578148D01*
X12330722Y-6594890D01*
X12322260Y-6610282D01*
X12310970Y-6623738D01*
X12297281Y-6634744D01*
X12281715Y-6642882D01*
X12264864Y-6647841D01*
X12264862Y-6647842D01*
X12264862Y-6647842D01*
X12247372Y-6649433D01*
X12229905Y-6647598D01*
X12229905Y-6647597D01*
X12229903Y-6647597D01*
X12213124Y-6642403D01*
X12197673Y-6634049D01*
X12184139Y-6622853D01*
X12173037Y-6609241D01*
X12164791Y-6593732D01*
X12159714Y-6576917D01*
X12158000Y-6559435D01*
X12158000Y-6558552D01*
X12158008Y-6557410D01*
X12158008Y-6557409D01*
X12158009Y-6557308D01*
X12159967Y-6539852D01*
X12165278Y-6523110D01*
X12173740Y-6507717D01*
X12185030Y-6494262D01*
X12198719Y-6483256D01*
X12214285Y-6475118D01*
X12231136Y-6470159D01*
X12231138Y-6470158D01*
X12231138Y-6470158D01*
X12248628Y-6468567D01*
X12266094Y-6470402D01*
X12266094Y-6470402D01*
G37*
G36*
X12012094Y-6470402D02*
X12012095Y-6470402D01*
X12012097Y-6470403D01*
X12028876Y-6475597D01*
X12044327Y-6483951D01*
X12057861Y-6495147D01*
X12068963Y-6508759D01*
X12077209Y-6524268D01*
X12082286Y-6541083D01*
X12084000Y-6558564D01*
X12084000Y-6559448D01*
X12083992Y-6560590D01*
X12083992Y-6560591D01*
X12083991Y-6560692D01*
X12082033Y-6578148D01*
X12076722Y-6594890D01*
X12068260Y-6610282D01*
X12056970Y-6623738D01*
X12043281Y-6634744D01*
X12027715Y-6642882D01*
X12010864Y-6647841D01*
X12010862Y-6647842D01*
X12010862Y-6647842D01*
X11993372Y-6649433D01*
X11975905Y-6647598D01*
X11975905Y-6647597D01*
X11975903Y-6647597D01*
X11959124Y-6642403D01*
X11943673Y-6634049D01*
X11930139Y-6622853D01*
X11919037Y-6609241D01*
X11910791Y-6593732D01*
X11905714Y-6576917D01*
X11904000Y-6559435D01*
X11904000Y-6558552D01*
X11904008Y-6557410D01*
X11904008Y-6557409D01*
X11904009Y-6557308D01*
X11905967Y-6539852D01*
X11911278Y-6523110D01*
X11919740Y-6507717D01*
X11931030Y-6494262D01*
X11944719Y-6483256D01*
X11960285Y-6475118D01*
X11977136Y-6470159D01*
X11977138Y-6470158D01*
X11977138Y-6470158D01*
X11994628Y-6468567D01*
X12012094Y-6470402D01*
X12012094Y-6470402D01*
G37*
G36*
X8964095Y-6470402D02*
X8964095Y-6470402D01*
X8964097Y-6470403D01*
X8980876Y-6475597D01*
X8996327Y-6483951D01*
X9009861Y-6495147D01*
X9020963Y-6508759D01*
X9029209Y-6524268D01*
X9034286Y-6541083D01*
X9036000Y-6558564D01*
X9036000Y-6559448D01*
X9035992Y-6560590D01*
X9035992Y-6560591D01*
X9035991Y-6560692D01*
X9034033Y-6578148D01*
X9028722Y-6594890D01*
X9020260Y-6610282D01*
X9008970Y-6623738D01*
X8995281Y-6634744D01*
X8979715Y-6642882D01*
X8962864Y-6647841D01*
X8962862Y-6647842D01*
X8962862Y-6647842D01*
X8945372Y-6649433D01*
X8927906Y-6647598D01*
X8927905Y-6647597D01*
X8927903Y-6647597D01*
X8911124Y-6642403D01*
X8895673Y-6634049D01*
X8882139Y-6622853D01*
X8871037Y-6609241D01*
X8862791Y-6593732D01*
X8857714Y-6576917D01*
X8856000Y-6559435D01*
X8856000Y-6558552D01*
X8856008Y-6557410D01*
X8856008Y-6557409D01*
X8856009Y-6557308D01*
X8857967Y-6539852D01*
X8863278Y-6523110D01*
X8871740Y-6507717D01*
X8883030Y-6494262D01*
X8896719Y-6483256D01*
X8912285Y-6475118D01*
X8929136Y-6470159D01*
X8929138Y-6470158D01*
X8929138Y-6470158D01*
X8946628Y-6468567D01*
X8964095Y-6470402D01*
X8964095Y-6470402D01*
G37*
G36*
X11758094Y-6470402D02*
X11758095Y-6470402D01*
X11758097Y-6470403D01*
X11774876Y-6475597D01*
X11790327Y-6483951D01*
X11803861Y-6495147D01*
X11814963Y-6508759D01*
X11823209Y-6524268D01*
X11828286Y-6541083D01*
X11830000Y-6558564D01*
X11830000Y-6559448D01*
X11829992Y-6560590D01*
X11829992Y-6560591D01*
X11829991Y-6560692D01*
X11828033Y-6578148D01*
X11822722Y-6594890D01*
X11814260Y-6610282D01*
X11802970Y-6623738D01*
X11789281Y-6634744D01*
X11773715Y-6642882D01*
X11756864Y-6647841D01*
X11756862Y-6647842D01*
X11756862Y-6647842D01*
X11739372Y-6649433D01*
X11721905Y-6647598D01*
X11721905Y-6647597D01*
X11721903Y-6647597D01*
X11705124Y-6642403D01*
X11689673Y-6634049D01*
X11676139Y-6622853D01*
X11665037Y-6609241D01*
X11656791Y-6593732D01*
X11651714Y-6576917D01*
X11650000Y-6559435D01*
X11650000Y-6558552D01*
X11650008Y-6557410D01*
X11650008Y-6557409D01*
X11650009Y-6557308D01*
X11651967Y-6539852D01*
X11657278Y-6523110D01*
X11665740Y-6507717D01*
X11677030Y-6494262D01*
X11690719Y-6483256D01*
X11706285Y-6475118D01*
X11723136Y-6470159D01*
X11723138Y-6470158D01*
X11723138Y-6470158D01*
X11740628Y-6468567D01*
X11758094Y-6470402D01*
X11758094Y-6470402D01*
G37*
G36*
X10996095Y-6470402D02*
X10996095Y-6470402D01*
X10996097Y-6470403D01*
X11012876Y-6475597D01*
X11028327Y-6483951D01*
X11041861Y-6495147D01*
X11052963Y-6508759D01*
X11061209Y-6524268D01*
X11066286Y-6541083D01*
X11068000Y-6558564D01*
X11068000Y-6559448D01*
X11067992Y-6560590D01*
X11067992Y-6560591D01*
X11067991Y-6560692D01*
X11066033Y-6578148D01*
X11060722Y-6594890D01*
X11052260Y-6610282D01*
X11040970Y-6623738D01*
X11027281Y-6634744D01*
X11011715Y-6642882D01*
X10994864Y-6647841D01*
X10994862Y-6647842D01*
X10994862Y-6647842D01*
X10977372Y-6649433D01*
X10959906Y-6647598D01*
X10959905Y-6647597D01*
X10959903Y-6647597D01*
X10943124Y-6642403D01*
X10927673Y-6634049D01*
X10914139Y-6622853D01*
X10903037Y-6609241D01*
X10894791Y-6593732D01*
X10889714Y-6576917D01*
X10888000Y-6559435D01*
X10888000Y-6558552D01*
X10888008Y-6557410D01*
X10888008Y-6557409D01*
X10888009Y-6557308D01*
X10889967Y-6539852D01*
X10895278Y-6523110D01*
X10903740Y-6507717D01*
X10915030Y-6494262D01*
X10928719Y-6483256D01*
X10944285Y-6475118D01*
X10961136Y-6470159D01*
X10961138Y-6470158D01*
X10961138Y-6470158D01*
X10978628Y-6468567D01*
X10996095Y-6470402D01*
X10996095Y-6470402D01*
G37*
G36*
X10742095Y-6470402D02*
X10742095Y-6470402D01*
X10742097Y-6470403D01*
X10758876Y-6475597D01*
X10774327Y-6483951D01*
X10787861Y-6495147D01*
X10798963Y-6508759D01*
X10807209Y-6524268D01*
X10812286Y-6541083D01*
X10814000Y-6558564D01*
X10814000Y-6559448D01*
X10813992Y-6560590D01*
X10813992Y-6560591D01*
X10813991Y-6560692D01*
X10812033Y-6578148D01*
X10806722Y-6594890D01*
X10798260Y-6610282D01*
X10786970Y-6623738D01*
X10773281Y-6634744D01*
X10757715Y-6642882D01*
X10740864Y-6647841D01*
X10740862Y-6647842D01*
X10740862Y-6647842D01*
X10723372Y-6649433D01*
X10705906Y-6647598D01*
X10705905Y-6647597D01*
X10705903Y-6647597D01*
X10689124Y-6642403D01*
X10673673Y-6634049D01*
X10660139Y-6622853D01*
X10649037Y-6609241D01*
X10640791Y-6593732D01*
X10635714Y-6576917D01*
X10634000Y-6559435D01*
X10634000Y-6558552D01*
X10634008Y-6557410D01*
X10634008Y-6557409D01*
X10634009Y-6557308D01*
X10635967Y-6539852D01*
X10641278Y-6523110D01*
X10649740Y-6507717D01*
X10661030Y-6494262D01*
X10674719Y-6483256D01*
X10690285Y-6475118D01*
X10707136Y-6470159D01*
X10707138Y-6470158D01*
X10707138Y-6470158D01*
X10724628Y-6468567D01*
X10742095Y-6470402D01*
X10742095Y-6470402D01*
G37*
G36*
X10488095Y-6470402D02*
X10488095Y-6470402D01*
X10488097Y-6470403D01*
X10504876Y-6475597D01*
X10520327Y-6483951D01*
X10533861Y-6495147D01*
X10544963Y-6508759D01*
X10553209Y-6524268D01*
X10558286Y-6541083D01*
X10560000Y-6558564D01*
X10560000Y-6559448D01*
X10559992Y-6560590D01*
X10559992Y-6560591D01*
X10559991Y-6560692D01*
X10558033Y-6578148D01*
X10552722Y-6594890D01*
X10544260Y-6610282D01*
X10532970Y-6623738D01*
X10519281Y-6634744D01*
X10503715Y-6642882D01*
X10486864Y-6647841D01*
X10486862Y-6647842D01*
X10486862Y-6647842D01*
X10469372Y-6649433D01*
X10451906Y-6647598D01*
X10451905Y-6647597D01*
X10451903Y-6647597D01*
X10435124Y-6642403D01*
X10419673Y-6634049D01*
X10406139Y-6622853D01*
X10395037Y-6609241D01*
X10386791Y-6593732D01*
X10381714Y-6576917D01*
X10380000Y-6559435D01*
X10380000Y-6558552D01*
X10380008Y-6557410D01*
X10380008Y-6557409D01*
X10380009Y-6557308D01*
X10381967Y-6539852D01*
X10387278Y-6523110D01*
X10395740Y-6507717D01*
X10407030Y-6494262D01*
X10420719Y-6483256D01*
X10436285Y-6475118D01*
X10453136Y-6470159D01*
X10453138Y-6470158D01*
X10453138Y-6470158D01*
X10470628Y-6468567D01*
X10488095Y-6470402D01*
X10488095Y-6470402D01*
G37*
G36*
X10234095Y-6470402D02*
X10234095Y-6470402D01*
X10234097Y-6470403D01*
X10250876Y-6475597D01*
X10266327Y-6483951D01*
X10279861Y-6495147D01*
X10290963Y-6508759D01*
X10299209Y-6524268D01*
X10304286Y-6541083D01*
X10306000Y-6558564D01*
X10306000Y-6559448D01*
X10305992Y-6560590D01*
X10305992Y-6560591D01*
X10305991Y-6560692D01*
X10304033Y-6578148D01*
X10298722Y-6594890D01*
X10290260Y-6610282D01*
X10278970Y-6623738D01*
X10265281Y-6634744D01*
X10249715Y-6642882D01*
X10232864Y-6647841D01*
X10232862Y-6647842D01*
X10232862Y-6647842D01*
X10215372Y-6649433D01*
X10197906Y-6647598D01*
X10197905Y-6647597D01*
X10197903Y-6647597D01*
X10181124Y-6642403D01*
X10165673Y-6634049D01*
X10152139Y-6622853D01*
X10141037Y-6609241D01*
X10132791Y-6593732D01*
X10127714Y-6576917D01*
X10126000Y-6559435D01*
X10126000Y-6558552D01*
X10126008Y-6557410D01*
X10126008Y-6557409D01*
X10126009Y-6557308D01*
X10127967Y-6539852D01*
X10133278Y-6523110D01*
X10141740Y-6507717D01*
X10153030Y-6494262D01*
X10166719Y-6483256D01*
X10182285Y-6475118D01*
X10199136Y-6470159D01*
X10199138Y-6470158D01*
X10199138Y-6470158D01*
X10216628Y-6468567D01*
X10234095Y-6470402D01*
X10234095Y-6470402D01*
G37*
G36*
X9980095Y-6470402D02*
X9980095Y-6470402D01*
X9980097Y-6470403D01*
X9996876Y-6475597D01*
X10012327Y-6483951D01*
X10025861Y-6495147D01*
X10036963Y-6508759D01*
X10045209Y-6524268D01*
X10050286Y-6541083D01*
X10052000Y-6558564D01*
X10052000Y-6559448D01*
X10051992Y-6560590D01*
X10051992Y-6560591D01*
X10051991Y-6560692D01*
X10050033Y-6578148D01*
X10044722Y-6594890D01*
X10036260Y-6610282D01*
X10024970Y-6623738D01*
X10011281Y-6634744D01*
X9995715Y-6642882D01*
X9978864Y-6647841D01*
X9978862Y-6647842D01*
X9978862Y-6647842D01*
X9961372Y-6649433D01*
X9943906Y-6647598D01*
X9943905Y-6647597D01*
X9943903Y-6647597D01*
X9927124Y-6642403D01*
X9911673Y-6634049D01*
X9898139Y-6622853D01*
X9887037Y-6609241D01*
X9878791Y-6593732D01*
X9873714Y-6576917D01*
X9872000Y-6559435D01*
X9872000Y-6558552D01*
X9872008Y-6557410D01*
X9872008Y-6557409D01*
X9872009Y-6557308D01*
X9873967Y-6539852D01*
X9879278Y-6523110D01*
X9887740Y-6507717D01*
X9899030Y-6494262D01*
X9912719Y-6483256D01*
X9928285Y-6475118D01*
X9945136Y-6470159D01*
X9945138Y-6470158D01*
X9945138Y-6470158D01*
X9962628Y-6468567D01*
X9980095Y-6470402D01*
X9980095Y-6470402D01*
G37*
G36*
X9726095Y-6470402D02*
X9726095Y-6470402D01*
X9726097Y-6470403D01*
X9742876Y-6475597D01*
X9758327Y-6483951D01*
X9771861Y-6495147D01*
X9782963Y-6508759D01*
X9791209Y-6524268D01*
X9796286Y-6541083D01*
X9798000Y-6558564D01*
X9798000Y-6559448D01*
X9797992Y-6560590D01*
X9797992Y-6560591D01*
X9797991Y-6560692D01*
X9796033Y-6578148D01*
X9790722Y-6594890D01*
X9782260Y-6610282D01*
X9770970Y-6623738D01*
X9757281Y-6634744D01*
X9741715Y-6642882D01*
X9724864Y-6647841D01*
X9724862Y-6647842D01*
X9724862Y-6647842D01*
X9707372Y-6649433D01*
X9689906Y-6647598D01*
X9689905Y-6647597D01*
X9689903Y-6647597D01*
X9673124Y-6642403D01*
X9657673Y-6634049D01*
X9644139Y-6622853D01*
X9633037Y-6609241D01*
X9624791Y-6593732D01*
X9619714Y-6576917D01*
X9618000Y-6559435D01*
X9618000Y-6558552D01*
X9618008Y-6557410D01*
X9618008Y-6557409D01*
X9618009Y-6557308D01*
X9619967Y-6539852D01*
X9625278Y-6523110D01*
X9633740Y-6507717D01*
X9645030Y-6494262D01*
X9658719Y-6483256D01*
X9674285Y-6475118D01*
X9691136Y-6470159D01*
X9691138Y-6470158D01*
X9691138Y-6470158D01*
X9708628Y-6468567D01*
X9726095Y-6470402D01*
X9726095Y-6470402D01*
G37*
G36*
X9472095Y-6470402D02*
X9472095Y-6470402D01*
X9472097Y-6470403D01*
X9488876Y-6475597D01*
X9504327Y-6483951D01*
X9517861Y-6495147D01*
X9528963Y-6508759D01*
X9537209Y-6524268D01*
X9542286Y-6541083D01*
X9544000Y-6558564D01*
X9544000Y-6559448D01*
X9543992Y-6560590D01*
X9543992Y-6560591D01*
X9543991Y-6560692D01*
X9542033Y-6578148D01*
X9536722Y-6594890D01*
X9528260Y-6610282D01*
X9516970Y-6623738D01*
X9503281Y-6634744D01*
X9487715Y-6642882D01*
X9470864Y-6647841D01*
X9470862Y-6647842D01*
X9470862Y-6647842D01*
X9453372Y-6649433D01*
X9435906Y-6647598D01*
X9435905Y-6647597D01*
X9435903Y-6647597D01*
X9419124Y-6642403D01*
X9403673Y-6634049D01*
X9390139Y-6622853D01*
X9379037Y-6609241D01*
X9370791Y-6593732D01*
X9365714Y-6576917D01*
X9364000Y-6559435D01*
X9364000Y-6558552D01*
X9364008Y-6557410D01*
X9364008Y-6557409D01*
X9364009Y-6557308D01*
X9365967Y-6539852D01*
X9371278Y-6523110D01*
X9379740Y-6507717D01*
X9391030Y-6494262D01*
X9404719Y-6483256D01*
X9420285Y-6475118D01*
X9437136Y-6470159D01*
X9437138Y-6470158D01*
X9437138Y-6470158D01*
X9454628Y-6468567D01*
X9472095Y-6470402D01*
X9472095Y-6470402D01*
G37*
G36*
X9218095Y-6470402D02*
X9218095Y-6470402D01*
X9218097Y-6470403D01*
X9234876Y-6475597D01*
X9250327Y-6483951D01*
X9263861Y-6495147D01*
X9274963Y-6508759D01*
X9283209Y-6524268D01*
X9288286Y-6541083D01*
X9290000Y-6558564D01*
X9290000Y-6559448D01*
X9289992Y-6560590D01*
X9289992Y-6560591D01*
X9289991Y-6560692D01*
X9288033Y-6578148D01*
X9282722Y-6594890D01*
X9274260Y-6610282D01*
X9262970Y-6623738D01*
X9249281Y-6634744D01*
X9233715Y-6642882D01*
X9216864Y-6647841D01*
X9216862Y-6647842D01*
X9216862Y-6647842D01*
X9199372Y-6649433D01*
X9181906Y-6647598D01*
X9181905Y-6647597D01*
X9181903Y-6647597D01*
X9165124Y-6642403D01*
X9149673Y-6634049D01*
X9136139Y-6622853D01*
X9125037Y-6609241D01*
X9116791Y-6593732D01*
X9111714Y-6576917D01*
X9110000Y-6559435D01*
X9110000Y-6558552D01*
X9110008Y-6557410D01*
X9110008Y-6557409D01*
X9110009Y-6557308D01*
X9111967Y-6539852D01*
X9117278Y-6523110D01*
X9125740Y-6507717D01*
X9137030Y-6494262D01*
X9150719Y-6483256D01*
X9166285Y-6475118D01*
X9183136Y-6470159D01*
X9183138Y-6470158D01*
X9183138Y-6470158D01*
X9200628Y-6468567D01*
X9218095Y-6470402D01*
X9218095Y-6470402D01*
G37*
G36*
X11504094Y-6470402D02*
X11504095Y-6470402D01*
X11504097Y-6470403D01*
X11520876Y-6475597D01*
X11536327Y-6483951D01*
X11549861Y-6495147D01*
X11560963Y-6508759D01*
X11569209Y-6524268D01*
X11574286Y-6541083D01*
X11576000Y-6558564D01*
X11576000Y-6559448D01*
X11575992Y-6560590D01*
X11575992Y-6560591D01*
X11575991Y-6560692D01*
X11574033Y-6578148D01*
X11568722Y-6594890D01*
X11560260Y-6610282D01*
X11548970Y-6623738D01*
X11535281Y-6634744D01*
X11519715Y-6642882D01*
X11502864Y-6647841D01*
X11502862Y-6647842D01*
X11502862Y-6647842D01*
X11485372Y-6649433D01*
X11467905Y-6647598D01*
X11467905Y-6647597D01*
X11467903Y-6647597D01*
X11451124Y-6642403D01*
X11435673Y-6634049D01*
X11422139Y-6622853D01*
X11411037Y-6609241D01*
X11402791Y-6593732D01*
X11397714Y-6576917D01*
X11396000Y-6559435D01*
X11396000Y-6558552D01*
X11396008Y-6557410D01*
X11396008Y-6557409D01*
X11396009Y-6557308D01*
X11397967Y-6539852D01*
X11403278Y-6523110D01*
X11411740Y-6507717D01*
X11423030Y-6494262D01*
X11436719Y-6483256D01*
X11452285Y-6475118D01*
X11469136Y-6470159D01*
X11469138Y-6470158D01*
X11469138Y-6470158D01*
X11486628Y-6468567D01*
X11504094Y-6470402D01*
X11504094Y-6470402D01*
G37*
G36*
X8782000Y-6649000D02*
X8602000Y-6649000D01*
X8602000Y-6469000D01*
X8782000Y-6469000D01*
X8782000Y-6649000D01*
X8782000Y-6649000D01*
G37*
G36*
X14020280Y-6278103D02*
X14050056Y-6284215D01*
X14070892Y-6292974D01*
X14078078Y-6295995D01*
X14078079Y-6295995D01*
X14103279Y-6312993D01*
X14124698Y-6334561D01*
X14141519Y-6359880D01*
X14153103Y-6387983D01*
X14159003Y-6417784D01*
X14159003Y-6417784D01*
X14159007Y-6417801D01*
X14158522Y-6452521D01*
X14158518Y-6452537D01*
X14158518Y-6452538D01*
X14151787Y-6482162D01*
X14139424Y-6509931D01*
X14121902Y-6534770D01*
X14099889Y-6555733D01*
X14074224Y-6572020D01*
X14045884Y-6583013D01*
X14015949Y-6588291D01*
X13985558Y-6587654D01*
X13955870Y-6581127D01*
X13928016Y-6568958D01*
X13903055Y-6551609D01*
X13881940Y-6529744D01*
X13865473Y-6504193D01*
X13854283Y-6475931D01*
X13848796Y-6446033D01*
X13849221Y-6415639D01*
X13855540Y-6385906D01*
X13867515Y-6357967D01*
X13884688Y-6332886D01*
X13906407Y-6311618D01*
X13931841Y-6294974D01*
X13960025Y-6283587D01*
X13989884Y-6277891D01*
X14020280Y-6278103D01*
X14020280Y-6278103D01*
G37*
G36*
X8220280Y-6276103D02*
X8250056Y-6282215D01*
X8271073Y-6291050D01*
X8278078Y-6293995D01*
X8282977Y-6297299D01*
X8303279Y-6310993D01*
X8324698Y-6332561D01*
X8341519Y-6357880D01*
X8341519Y-6357880D01*
X8342343Y-6359880D01*
X8353103Y-6385983D01*
X8359003Y-6415784D01*
X8359003Y-6415784D01*
X8359007Y-6415801D01*
X8358522Y-6450521D01*
X8358518Y-6450537D01*
X8358518Y-6450538D01*
X8351787Y-6480162D01*
X8339424Y-6507931D01*
X8321902Y-6532770D01*
X8299889Y-6553733D01*
X8274224Y-6570020D01*
X8245884Y-6581013D01*
X8215949Y-6586291D01*
X8185558Y-6585654D01*
X8155870Y-6579127D01*
X8128016Y-6566958D01*
X8103055Y-6549609D01*
X8081940Y-6527744D01*
X8065473Y-6502193D01*
X8054283Y-6473931D01*
X8048796Y-6444033D01*
X8049221Y-6413639D01*
X8055540Y-6383906D01*
X8067515Y-6355967D01*
X8084688Y-6330886D01*
X8106407Y-6309618D01*
X8131841Y-6292974D01*
X8160025Y-6281587D01*
X8189884Y-6275891D01*
X8220280Y-6276103D01*
X8220280Y-6276103D01*
G37*
G36*
X9980095Y-6216402D02*
X9980095Y-6216402D01*
X9980097Y-6216403D01*
X9996876Y-6221597D01*
X10012327Y-6229951D01*
X10025861Y-6241147D01*
X10036963Y-6254759D01*
X10045209Y-6270268D01*
X10050286Y-6287083D01*
X10052000Y-6304564D01*
X10052000Y-6305448D01*
X10051992Y-6306590D01*
X10051992Y-6306591D01*
X10051991Y-6306692D01*
X10050033Y-6324148D01*
X10044722Y-6340890D01*
X10036260Y-6356282D01*
X10024970Y-6369738D01*
X10011281Y-6380744D01*
X9995715Y-6388882D01*
X9978864Y-6393841D01*
X9978862Y-6393842D01*
X9978862Y-6393842D01*
X9961372Y-6395433D01*
X9943906Y-6393598D01*
X9943905Y-6393597D01*
X9943903Y-6393597D01*
X9927124Y-6388403D01*
X9911673Y-6380049D01*
X9898139Y-6368853D01*
X9887037Y-6355241D01*
X9878791Y-6339732D01*
X9873714Y-6322917D01*
X9872000Y-6305435D01*
X9872000Y-6304552D01*
X9872008Y-6303410D01*
X9872008Y-6303409D01*
X9872009Y-6303308D01*
X9873967Y-6285852D01*
X9879278Y-6269110D01*
X9887740Y-6253717D01*
X9899030Y-6240262D01*
X9912719Y-6229256D01*
X9928285Y-6221118D01*
X9945136Y-6216159D01*
X9945138Y-6216158D01*
X9945138Y-6216158D01*
X9962628Y-6214567D01*
X9980095Y-6216402D01*
X9980095Y-6216402D01*
G37*
G36*
X10234095Y-6216402D02*
X10234095Y-6216402D01*
X10234097Y-6216403D01*
X10250876Y-6221597D01*
X10266327Y-6229951D01*
X10279861Y-6241147D01*
X10290963Y-6254759D01*
X10299209Y-6270268D01*
X10304286Y-6287083D01*
X10306000Y-6304564D01*
X10306000Y-6305448D01*
X10305992Y-6306590D01*
X10305992Y-6306591D01*
X10305991Y-6306692D01*
X10304033Y-6324148D01*
X10298722Y-6340890D01*
X10290260Y-6356282D01*
X10278970Y-6369738D01*
X10265281Y-6380744D01*
X10249715Y-6388882D01*
X10232864Y-6393841D01*
X10232862Y-6393842D01*
X10232862Y-6393842D01*
X10215372Y-6395433D01*
X10197906Y-6393598D01*
X10197905Y-6393597D01*
X10197903Y-6393597D01*
X10181124Y-6388403D01*
X10165673Y-6380049D01*
X10152139Y-6368853D01*
X10141037Y-6355241D01*
X10132791Y-6339732D01*
X10127714Y-6322917D01*
X10126000Y-6305435D01*
X10126000Y-6304552D01*
X10126008Y-6303410D01*
X10126008Y-6303409D01*
X10126009Y-6303308D01*
X10127967Y-6285852D01*
X10133278Y-6269110D01*
X10141740Y-6253717D01*
X10153030Y-6240262D01*
X10166719Y-6229256D01*
X10182285Y-6221118D01*
X10199136Y-6216159D01*
X10199138Y-6216158D01*
X10199138Y-6216158D01*
X10216628Y-6214567D01*
X10234095Y-6216402D01*
X10234095Y-6216402D01*
G37*
G36*
X9472095Y-6216402D02*
X9472095Y-6216402D01*
X9472097Y-6216403D01*
X9488876Y-6221597D01*
X9504327Y-6229951D01*
X9517861Y-6241147D01*
X9528963Y-6254759D01*
X9537209Y-6270268D01*
X9542286Y-6287083D01*
X9544000Y-6304564D01*
X9544000Y-6305448D01*
X9543992Y-6306590D01*
X9543992Y-6306591D01*
X9543991Y-6306692D01*
X9542033Y-6324148D01*
X9536722Y-6340890D01*
X9528260Y-6356282D01*
X9516970Y-6369738D01*
X9503281Y-6380744D01*
X9487715Y-6388882D01*
X9470864Y-6393841D01*
X9470862Y-6393842D01*
X9470862Y-6393842D01*
X9453372Y-6395433D01*
X9435906Y-6393598D01*
X9435905Y-6393597D01*
X9435903Y-6393597D01*
X9419124Y-6388403D01*
X9403673Y-6380049D01*
X9390139Y-6368853D01*
X9379037Y-6355241D01*
X9370791Y-6339732D01*
X9365714Y-6322917D01*
X9364000Y-6305435D01*
X9364000Y-6304552D01*
X9364008Y-6303410D01*
X9364008Y-6303409D01*
X9364009Y-6303308D01*
X9365967Y-6285852D01*
X9371278Y-6269110D01*
X9379740Y-6253717D01*
X9391030Y-6240262D01*
X9404719Y-6229256D01*
X9420285Y-6221118D01*
X9437136Y-6216159D01*
X9437138Y-6216158D01*
X9437138Y-6216158D01*
X9454628Y-6214567D01*
X9472095Y-6216402D01*
X9472095Y-6216402D01*
G37*
G36*
X9218095Y-6216402D02*
X9218095Y-6216402D01*
X9218097Y-6216403D01*
X9234876Y-6221597D01*
X9250327Y-6229951D01*
X9263861Y-6241147D01*
X9274963Y-6254759D01*
X9283209Y-6270268D01*
X9288286Y-6287083D01*
X9290000Y-6304564D01*
X9290000Y-6305448D01*
X9289992Y-6306590D01*
X9289992Y-6306591D01*
X9289991Y-6306692D01*
X9288033Y-6324148D01*
X9282722Y-6340890D01*
X9274260Y-6356282D01*
X9262970Y-6369738D01*
X9249281Y-6380744D01*
X9233715Y-6388882D01*
X9216864Y-6393841D01*
X9216862Y-6393842D01*
X9216862Y-6393842D01*
X9199372Y-6395433D01*
X9181906Y-6393598D01*
X9181905Y-6393597D01*
X9181903Y-6393597D01*
X9165124Y-6388403D01*
X9149673Y-6380049D01*
X9136139Y-6368853D01*
X9125037Y-6355241D01*
X9116791Y-6339732D01*
X9111714Y-6322917D01*
X9110000Y-6305435D01*
X9110000Y-6304552D01*
X9110008Y-6303410D01*
X9110008Y-6303409D01*
X9110009Y-6303308D01*
X9111967Y-6285852D01*
X9117278Y-6269110D01*
X9125740Y-6253717D01*
X9137030Y-6240262D01*
X9150719Y-6229256D01*
X9166285Y-6221118D01*
X9183136Y-6216159D01*
X9183138Y-6216158D01*
X9183138Y-6216158D01*
X9200628Y-6214567D01*
X9218095Y-6216402D01*
X9218095Y-6216402D01*
G37*
G36*
X9726095Y-6216402D02*
X9726095Y-6216402D01*
X9726097Y-6216403D01*
X9742876Y-6221597D01*
X9758327Y-6229951D01*
X9771861Y-6241147D01*
X9782963Y-6254759D01*
X9791209Y-6270268D01*
X9796286Y-6287083D01*
X9798000Y-6304564D01*
X9798000Y-6305448D01*
X9797992Y-6306590D01*
X9797992Y-6306591D01*
X9797991Y-6306692D01*
X9796033Y-6324148D01*
X9790722Y-6340890D01*
X9782260Y-6356282D01*
X9770970Y-6369738D01*
X9757281Y-6380744D01*
X9741715Y-6388882D01*
X9724864Y-6393841D01*
X9724862Y-6393842D01*
X9724862Y-6393842D01*
X9707372Y-6395433D01*
X9689906Y-6393598D01*
X9689905Y-6393597D01*
X9689903Y-6393597D01*
X9673124Y-6388403D01*
X9657673Y-6380049D01*
X9644139Y-6368853D01*
X9633037Y-6355241D01*
X9624791Y-6339732D01*
X9619714Y-6322917D01*
X9618000Y-6305435D01*
X9618000Y-6304552D01*
X9618008Y-6303410D01*
X9618008Y-6303409D01*
X9618009Y-6303308D01*
X9619967Y-6285852D01*
X9625278Y-6269110D01*
X9633740Y-6253717D01*
X9645030Y-6240262D01*
X9658719Y-6229256D01*
X9674285Y-6221118D01*
X9691136Y-6216159D01*
X9691138Y-6216158D01*
X9691138Y-6216158D01*
X9708628Y-6214567D01*
X9726095Y-6216402D01*
X9726095Y-6216402D01*
G37*
G36*
X10488095Y-6216402D02*
X10488095Y-6216402D01*
X10488097Y-6216403D01*
X10504876Y-6221597D01*
X10520327Y-6229951D01*
X10533861Y-6241147D01*
X10544963Y-6254759D01*
X10553209Y-6270268D01*
X10558286Y-6287083D01*
X10560000Y-6304564D01*
X10560000Y-6305448D01*
X10559992Y-6306590D01*
X10559992Y-6306591D01*
X10559991Y-6306692D01*
X10558033Y-6324148D01*
X10552722Y-6340890D01*
X10544260Y-6356282D01*
X10532970Y-6369738D01*
X10519281Y-6380744D01*
X10503715Y-6388882D01*
X10486864Y-6393841D01*
X10486862Y-6393842D01*
X10486862Y-6393842D01*
X10469372Y-6395433D01*
X10451906Y-6393598D01*
X10451905Y-6393597D01*
X10451903Y-6393597D01*
X10435124Y-6388403D01*
X10419673Y-6380049D01*
X10406139Y-6368853D01*
X10395037Y-6355241D01*
X10386791Y-6339732D01*
X10381714Y-6322917D01*
X10380000Y-6305435D01*
X10380000Y-6304552D01*
X10380008Y-6303410D01*
X10380008Y-6303409D01*
X10380009Y-6303308D01*
X10381967Y-6285852D01*
X10387278Y-6269110D01*
X10395740Y-6253717D01*
X10407030Y-6240262D01*
X10420719Y-6229256D01*
X10436285Y-6221118D01*
X10453136Y-6216159D01*
X10453138Y-6216158D01*
X10453138Y-6216158D01*
X10470628Y-6214567D01*
X10488095Y-6216402D01*
X10488095Y-6216402D01*
G37*
G36*
X10742095Y-6216402D02*
X10742095Y-6216402D01*
X10742097Y-6216403D01*
X10758876Y-6221597D01*
X10774327Y-6229951D01*
X10787861Y-6241147D01*
X10798963Y-6254759D01*
X10807209Y-6270268D01*
X10812286Y-6287083D01*
X10814000Y-6304564D01*
X10814000Y-6305448D01*
X10813992Y-6306590D01*
X10813992Y-6306591D01*
X10813991Y-6306692D01*
X10812033Y-6324148D01*
X10806722Y-6340890D01*
X10798260Y-6356282D01*
X10786970Y-6369738D01*
X10773281Y-6380744D01*
X10757715Y-6388882D01*
X10740864Y-6393841D01*
X10740862Y-6393842D01*
X10740862Y-6393842D01*
X10723372Y-6395433D01*
X10705906Y-6393598D01*
X10705905Y-6393597D01*
X10705903Y-6393597D01*
X10689124Y-6388403D01*
X10673673Y-6380049D01*
X10660139Y-6368853D01*
X10649037Y-6355241D01*
X10640791Y-6339732D01*
X10635714Y-6322917D01*
X10634000Y-6305435D01*
X10634000Y-6304552D01*
X10634008Y-6303410D01*
X10634008Y-6303409D01*
X10634009Y-6303308D01*
X10635967Y-6285852D01*
X10641278Y-6269110D01*
X10649740Y-6253717D01*
X10661030Y-6240262D01*
X10674719Y-6229256D01*
X10690285Y-6221118D01*
X10707136Y-6216159D01*
X10707138Y-6216158D01*
X10707138Y-6216158D01*
X10724628Y-6214567D01*
X10742095Y-6216402D01*
X10742095Y-6216402D01*
G37*
G36*
X8964095Y-6216402D02*
X8964095Y-6216402D01*
X8964097Y-6216403D01*
X8980876Y-6221597D01*
X8996327Y-6229951D01*
X9009861Y-6241147D01*
X9020963Y-6254759D01*
X9029209Y-6270268D01*
X9034286Y-6287083D01*
X9036000Y-6304564D01*
X9036000Y-6305448D01*
X9035992Y-6306590D01*
X9035992Y-6306591D01*
X9035991Y-6306692D01*
X9034033Y-6324148D01*
X9028722Y-6340890D01*
X9020260Y-6356282D01*
X9008970Y-6369738D01*
X8995281Y-6380744D01*
X8979715Y-6388882D01*
X8962864Y-6393841D01*
X8962862Y-6393842D01*
X8962862Y-6393842D01*
X8945372Y-6395433D01*
X8927906Y-6393598D01*
X8927905Y-6393597D01*
X8927903Y-6393597D01*
X8911124Y-6388403D01*
X8895673Y-6380049D01*
X8882139Y-6368853D01*
X8871037Y-6355241D01*
X8862791Y-6339732D01*
X8857714Y-6322917D01*
X8856000Y-6305435D01*
X8856000Y-6304552D01*
X8856008Y-6303410D01*
X8856008Y-6303409D01*
X8856009Y-6303308D01*
X8857967Y-6285852D01*
X8863278Y-6269110D01*
X8871740Y-6253717D01*
X8883030Y-6240262D01*
X8896719Y-6229256D01*
X8912285Y-6221118D01*
X8929136Y-6216159D01*
X8929138Y-6216158D01*
X8929138Y-6216158D01*
X8946628Y-6214567D01*
X8964095Y-6216402D01*
X8964095Y-6216402D01*
G37*
G36*
X10996095Y-6216402D02*
X10996095Y-6216402D01*
X10996097Y-6216403D01*
X11012876Y-6221597D01*
X11028327Y-6229951D01*
X11041861Y-6241147D01*
X11052963Y-6254759D01*
X11061209Y-6270268D01*
X11066286Y-6287083D01*
X11068000Y-6304564D01*
X11068000Y-6305448D01*
X11067992Y-6306590D01*
X11067992Y-6306591D01*
X11067991Y-6306692D01*
X11066033Y-6324148D01*
X11060722Y-6340890D01*
X11052260Y-6356282D01*
X11040970Y-6369738D01*
X11027281Y-6380744D01*
X11011715Y-6388882D01*
X10994864Y-6393841D01*
X10994862Y-6393842D01*
X10994862Y-6393842D01*
X10977372Y-6395433D01*
X10959906Y-6393598D01*
X10959905Y-6393597D01*
X10959903Y-6393597D01*
X10943124Y-6388403D01*
X10927673Y-6380049D01*
X10914139Y-6368853D01*
X10903037Y-6355241D01*
X10894791Y-6339732D01*
X10889714Y-6322917D01*
X10888000Y-6305435D01*
X10888000Y-6304552D01*
X10888008Y-6303410D01*
X10888008Y-6303409D01*
X10888009Y-6303308D01*
X10889967Y-6285852D01*
X10895278Y-6269110D01*
X10903740Y-6253717D01*
X10915030Y-6240262D01*
X10928719Y-6229256D01*
X10944285Y-6221118D01*
X10961136Y-6216159D01*
X10961138Y-6216158D01*
X10961138Y-6216158D01*
X10978628Y-6214567D01*
X10996095Y-6216402D01*
X10996095Y-6216402D01*
G37*
G36*
X8710095Y-6216402D02*
X8710095Y-6216402D01*
X8710097Y-6216403D01*
X8726876Y-6221597D01*
X8742327Y-6229951D01*
X8755861Y-6241147D01*
X8766963Y-6254759D01*
X8775209Y-6270268D01*
X8780286Y-6287083D01*
X8782000Y-6304564D01*
X8782000Y-6305448D01*
X8781992Y-6306590D01*
X8781992Y-6306591D01*
X8781991Y-6306692D01*
X8780033Y-6324148D01*
X8774722Y-6340890D01*
X8766260Y-6356282D01*
X8754970Y-6369738D01*
X8741281Y-6380744D01*
X8725715Y-6388882D01*
X8708864Y-6393841D01*
X8708862Y-6393842D01*
X8708862Y-6393842D01*
X8691372Y-6395433D01*
X8673906Y-6393598D01*
X8673905Y-6393597D01*
X8673903Y-6393597D01*
X8657124Y-6388403D01*
X8641673Y-6380049D01*
X8628139Y-6368853D01*
X8617037Y-6355241D01*
X8608791Y-6339732D01*
X8603714Y-6322917D01*
X8602000Y-6305435D01*
X8602000Y-6304552D01*
X8602008Y-6303410D01*
X8602008Y-6303409D01*
X8602009Y-6303308D01*
X8603967Y-6285852D01*
X8609278Y-6269110D01*
X8617740Y-6253717D01*
X8629030Y-6240262D01*
X8642719Y-6229256D01*
X8658285Y-6221118D01*
X8675136Y-6216159D01*
X8675138Y-6216158D01*
X8675138Y-6216158D01*
X8692628Y-6214567D01*
X8710095Y-6216402D01*
X8710095Y-6216402D01*
G37*
G36*
X11758094Y-6216402D02*
X11758095Y-6216402D01*
X11758097Y-6216403D01*
X11774876Y-6221597D01*
X11790327Y-6229951D01*
X11803861Y-6241147D01*
X11814963Y-6254759D01*
X11823209Y-6270268D01*
X11828286Y-6287083D01*
X11830000Y-6304564D01*
X11830000Y-6305448D01*
X11829992Y-6306590D01*
X11829992Y-6306591D01*
X11829991Y-6306692D01*
X11828033Y-6324148D01*
X11822722Y-6340890D01*
X11814260Y-6356282D01*
X11802970Y-6369738D01*
X11789281Y-6380744D01*
X11773715Y-6388882D01*
X11756864Y-6393841D01*
X11756862Y-6393842D01*
X11756862Y-6393842D01*
X11739372Y-6395433D01*
X11721905Y-6393598D01*
X11721905Y-6393597D01*
X11721903Y-6393597D01*
X11705124Y-6388403D01*
X11689673Y-6380049D01*
X11676139Y-6368853D01*
X11665037Y-6355241D01*
X11656791Y-6339732D01*
X11651714Y-6322917D01*
X11650000Y-6305435D01*
X11650000Y-6304552D01*
X11650008Y-6303410D01*
X11650008Y-6303409D01*
X11650009Y-6303308D01*
X11651967Y-6285852D01*
X11657278Y-6269110D01*
X11665740Y-6253717D01*
X11677030Y-6240262D01*
X11690719Y-6229256D01*
X11706285Y-6221118D01*
X11723136Y-6216159D01*
X11723138Y-6216158D01*
X11723138Y-6216158D01*
X11740628Y-6214567D01*
X11758094Y-6216402D01*
X11758094Y-6216402D01*
G37*
G36*
X12012094Y-6216402D02*
X12012095Y-6216402D01*
X12012097Y-6216403D01*
X12028876Y-6221597D01*
X12044327Y-6229951D01*
X12057861Y-6241147D01*
X12068963Y-6254759D01*
X12077209Y-6270268D01*
X12082286Y-6287083D01*
X12084000Y-6304564D01*
X12084000Y-6305448D01*
X12083992Y-6306590D01*
X12083992Y-6306591D01*
X12083991Y-6306692D01*
X12082033Y-6324148D01*
X12076722Y-6340890D01*
X12068260Y-6356282D01*
X12056970Y-6369738D01*
X12043281Y-6380744D01*
X12027715Y-6388882D01*
X12010864Y-6393841D01*
X12010862Y-6393842D01*
X12010862Y-6393842D01*
X11993372Y-6395433D01*
X11975905Y-6393598D01*
X11975905Y-6393597D01*
X11975903Y-6393597D01*
X11959124Y-6388403D01*
X11943673Y-6380049D01*
X11930139Y-6368853D01*
X11919037Y-6355241D01*
X11910791Y-6339732D01*
X11905714Y-6322917D01*
X11904000Y-6305435D01*
X11904000Y-6304552D01*
X11904008Y-6303410D01*
X11904008Y-6303409D01*
X11904009Y-6303308D01*
X11905967Y-6285852D01*
X11911278Y-6269110D01*
X11919740Y-6253717D01*
X11931030Y-6240262D01*
X11944719Y-6229256D01*
X11960285Y-6221118D01*
X11977136Y-6216159D01*
X11977138Y-6216158D01*
X11977138Y-6216158D01*
X11994628Y-6214567D01*
X12012094Y-6216402D01*
X12012094Y-6216402D01*
G37*
G36*
X12266094Y-6216402D02*
X12266095Y-6216402D01*
X12266097Y-6216403D01*
X12282876Y-6221597D01*
X12298327Y-6229951D01*
X12311861Y-6241147D01*
X12322963Y-6254759D01*
X12331209Y-6270268D01*
X12336286Y-6287083D01*
X12338000Y-6304564D01*
X12338000Y-6305448D01*
X12337992Y-6306590D01*
X12337992Y-6306591D01*
X12337991Y-6306692D01*
X12336033Y-6324148D01*
X12330722Y-6340890D01*
X12322260Y-6356282D01*
X12310970Y-6369738D01*
X12297281Y-6380744D01*
X12281715Y-6388882D01*
X12264864Y-6393841D01*
X12264862Y-6393842D01*
X12264862Y-6393842D01*
X12247372Y-6395433D01*
X12229905Y-6393598D01*
X12229905Y-6393597D01*
X12229903Y-6393597D01*
X12213124Y-6388403D01*
X12197673Y-6380049D01*
X12184139Y-6368853D01*
X12173037Y-6355241D01*
X12164791Y-6339732D01*
X12159714Y-6322917D01*
X12158000Y-6305435D01*
X12158000Y-6304552D01*
X12158008Y-6303410D01*
X12158008Y-6303409D01*
X12158009Y-6303308D01*
X12159967Y-6285852D01*
X12165278Y-6269110D01*
X12173740Y-6253717D01*
X12185030Y-6240262D01*
X12198719Y-6229256D01*
X12214285Y-6221118D01*
X12231136Y-6216159D01*
X12231138Y-6216158D01*
X12231138Y-6216158D01*
X12248628Y-6214567D01*
X12266094Y-6216402D01*
X12266094Y-6216402D01*
G37*
G36*
X12520094Y-6216402D02*
X12520095Y-6216402D01*
X12520097Y-6216403D01*
X12536876Y-6221597D01*
X12552327Y-6229951D01*
X12565861Y-6241147D01*
X12576963Y-6254759D01*
X12585209Y-6270268D01*
X12590286Y-6287083D01*
X12592000Y-6304564D01*
X12592000Y-6305448D01*
X12591992Y-6306590D01*
X12591992Y-6306591D01*
X12591991Y-6306692D01*
X12590033Y-6324148D01*
X12584722Y-6340890D01*
X12576260Y-6356282D01*
X12564970Y-6369738D01*
X12551281Y-6380744D01*
X12535715Y-6388882D01*
X12518864Y-6393841D01*
X12518862Y-6393842D01*
X12518862Y-6393842D01*
X12501372Y-6395433D01*
X12483905Y-6393598D01*
X12483905Y-6393597D01*
X12483903Y-6393597D01*
X12467124Y-6388403D01*
X12451673Y-6380049D01*
X12438139Y-6368853D01*
X12427037Y-6355241D01*
X12418791Y-6339732D01*
X12413714Y-6322917D01*
X12412000Y-6305435D01*
X12412000Y-6304552D01*
X12412008Y-6303410D01*
X12412008Y-6303409D01*
X12412009Y-6303308D01*
X12413967Y-6285852D01*
X12419278Y-6269110D01*
X12427740Y-6253717D01*
X12439030Y-6240262D01*
X12452719Y-6229256D01*
X12468285Y-6221118D01*
X12485136Y-6216159D01*
X12485138Y-6216158D01*
X12485138Y-6216158D01*
X12502628Y-6214567D01*
X12520094Y-6216402D01*
X12520094Y-6216402D01*
G37*
G36*
X12774094Y-6216402D02*
X12774095Y-6216402D01*
X12774097Y-6216403D01*
X12790876Y-6221597D01*
X12806327Y-6229951D01*
X12819861Y-6241147D01*
X12830963Y-6254759D01*
X12839209Y-6270268D01*
X12844286Y-6287083D01*
X12846000Y-6304564D01*
X12846000Y-6305448D01*
X12845992Y-6306590D01*
X12845992Y-6306591D01*
X12845991Y-6306692D01*
X12844033Y-6324148D01*
X12838722Y-6340890D01*
X12830260Y-6356282D01*
X12818970Y-6369738D01*
X12805281Y-6380744D01*
X12789715Y-6388882D01*
X12772864Y-6393841D01*
X12772862Y-6393842D01*
X12772862Y-6393842D01*
X12755372Y-6395433D01*
X12737905Y-6393598D01*
X12737905Y-6393597D01*
X12737903Y-6393597D01*
X12721124Y-6388403D01*
X12705673Y-6380049D01*
X12692139Y-6368853D01*
X12681037Y-6355241D01*
X12672791Y-6339732D01*
X12667714Y-6322917D01*
X12666000Y-6305435D01*
X12666000Y-6304552D01*
X12666008Y-6303410D01*
X12666008Y-6303409D01*
X12666009Y-6303308D01*
X12667967Y-6285852D01*
X12673278Y-6269110D01*
X12681740Y-6253717D01*
X12693030Y-6240262D01*
X12706719Y-6229256D01*
X12722285Y-6221118D01*
X12739136Y-6216159D01*
X12739138Y-6216158D01*
X12739138Y-6216158D01*
X12756628Y-6214567D01*
X12774094Y-6216402D01*
X12774094Y-6216402D01*
G37*
G36*
X13028094Y-6216402D02*
X13028095Y-6216402D01*
X13028097Y-6216403D01*
X13044876Y-6221597D01*
X13060327Y-6229951D01*
X13073861Y-6241147D01*
X13084963Y-6254759D01*
X13093209Y-6270268D01*
X13098286Y-6287083D01*
X13100000Y-6304564D01*
X13100000Y-6305448D01*
X13099992Y-6306590D01*
X13099992Y-6306591D01*
X13099991Y-6306692D01*
X13098033Y-6324148D01*
X13092722Y-6340890D01*
X13084260Y-6356282D01*
X13072970Y-6369738D01*
X13059281Y-6380744D01*
X13043715Y-6388882D01*
X13026864Y-6393841D01*
X13026862Y-6393842D01*
X13026862Y-6393842D01*
X13009372Y-6395433D01*
X12991905Y-6393598D01*
X12991905Y-6393597D01*
X12991903Y-6393597D01*
X12975124Y-6388403D01*
X12959673Y-6380049D01*
X12946139Y-6368853D01*
X12935037Y-6355241D01*
X12926791Y-6339732D01*
X12921714Y-6322917D01*
X12920000Y-6305435D01*
X12920000Y-6304552D01*
X12920008Y-6303410D01*
X12920008Y-6303409D01*
X12920009Y-6303308D01*
X12921967Y-6285852D01*
X12927278Y-6269110D01*
X12935740Y-6253717D01*
X12947030Y-6240262D01*
X12960719Y-6229256D01*
X12976285Y-6221118D01*
X12993136Y-6216159D01*
X12993138Y-6216158D01*
X12993138Y-6216158D01*
X13010628Y-6214567D01*
X13028094Y-6216402D01*
X13028094Y-6216402D01*
G37*
G36*
X13282094Y-6216402D02*
X13282095Y-6216402D01*
X13282097Y-6216403D01*
X13298876Y-6221597D01*
X13314327Y-6229951D01*
X13327861Y-6241147D01*
X13338963Y-6254759D01*
X13347209Y-6270268D01*
X13352286Y-6287083D01*
X13354000Y-6304564D01*
X13354000Y-6305448D01*
X13353992Y-6306590D01*
X13353992Y-6306591D01*
X13353991Y-6306692D01*
X13352033Y-6324148D01*
X13346722Y-6340890D01*
X13338260Y-6356282D01*
X13326970Y-6369738D01*
X13313281Y-6380744D01*
X13297715Y-6388882D01*
X13280864Y-6393841D01*
X13280862Y-6393842D01*
X13280862Y-6393842D01*
X13263372Y-6395433D01*
X13245905Y-6393598D01*
X13245905Y-6393597D01*
X13245903Y-6393597D01*
X13229124Y-6388403D01*
X13213673Y-6380049D01*
X13200139Y-6368853D01*
X13189037Y-6355241D01*
X13180791Y-6339732D01*
X13175714Y-6322917D01*
X13174000Y-6305435D01*
X13174000Y-6304552D01*
X13174008Y-6303410D01*
X13174008Y-6303409D01*
X13174009Y-6303308D01*
X13175967Y-6285852D01*
X13181278Y-6269110D01*
X13189740Y-6253717D01*
X13201030Y-6240262D01*
X13214719Y-6229256D01*
X13230285Y-6221118D01*
X13247136Y-6216159D01*
X13247138Y-6216158D01*
X13247138Y-6216158D01*
X13264628Y-6214567D01*
X13282094Y-6216402D01*
X13282094Y-6216402D01*
G37*
G36*
X13536094Y-6216402D02*
X13536095Y-6216402D01*
X13536097Y-6216403D01*
X13552876Y-6221597D01*
X13568327Y-6229951D01*
X13581861Y-6241147D01*
X13592963Y-6254759D01*
X13601209Y-6270268D01*
X13606286Y-6287083D01*
X13608000Y-6304564D01*
X13608000Y-6305448D01*
X13607992Y-6306590D01*
X13607992Y-6306591D01*
X13607991Y-6306692D01*
X13606033Y-6324148D01*
X13600722Y-6340890D01*
X13592260Y-6356282D01*
X13580970Y-6369738D01*
X13567281Y-6380744D01*
X13551715Y-6388882D01*
X13534864Y-6393841D01*
X13534862Y-6393842D01*
X13534862Y-6393842D01*
X13517372Y-6395433D01*
X13499905Y-6393598D01*
X13499905Y-6393597D01*
X13499903Y-6393597D01*
X13483124Y-6388403D01*
X13467673Y-6380049D01*
X13454139Y-6368853D01*
X13443037Y-6355241D01*
X13434791Y-6339732D01*
X13429714Y-6322917D01*
X13428000Y-6305435D01*
X13428000Y-6304552D01*
X13428008Y-6303410D01*
X13428008Y-6303409D01*
X13428009Y-6303308D01*
X13429967Y-6285852D01*
X13435278Y-6269110D01*
X13443740Y-6253717D01*
X13455030Y-6240262D01*
X13468719Y-6229256D01*
X13484285Y-6221118D01*
X13501136Y-6216159D01*
X13501138Y-6216158D01*
X13501138Y-6216158D01*
X13518628Y-6214567D01*
X13536094Y-6216402D01*
X13536094Y-6216402D01*
G37*
G36*
X11250094Y-6216402D02*
X11250095Y-6216402D01*
X11250097Y-6216403D01*
X11266876Y-6221597D01*
X11282327Y-6229951D01*
X11295861Y-6241147D01*
X11306963Y-6254759D01*
X11315209Y-6270268D01*
X11320286Y-6287083D01*
X11322000Y-6304564D01*
X11322000Y-6305448D01*
X11321992Y-6306590D01*
X11321992Y-6306591D01*
X11321991Y-6306692D01*
X11320033Y-6324148D01*
X11314722Y-6340890D01*
X11306260Y-6356282D01*
X11294970Y-6369738D01*
X11281281Y-6380744D01*
X11265715Y-6388882D01*
X11248864Y-6393841D01*
X11248862Y-6393842D01*
X11248862Y-6393842D01*
X11231372Y-6395433D01*
X11213905Y-6393598D01*
X11213905Y-6393597D01*
X11213903Y-6393597D01*
X11197124Y-6388403D01*
X11181673Y-6380049D01*
X11168139Y-6368853D01*
X11157037Y-6355241D01*
X11148791Y-6339732D01*
X11143714Y-6322917D01*
X11142000Y-6305435D01*
X11142000Y-6304552D01*
X11142008Y-6303410D01*
X11142008Y-6303409D01*
X11142009Y-6303308D01*
X11143967Y-6285852D01*
X11149278Y-6269110D01*
X11157740Y-6253717D01*
X11169030Y-6240262D01*
X11182719Y-6229256D01*
X11198285Y-6221118D01*
X11215136Y-6216159D01*
X11215138Y-6216158D01*
X11215138Y-6216158D01*
X11232628Y-6214567D01*
X11250094Y-6216402D01*
X11250094Y-6216402D01*
G37*
G36*
X11504094Y-6216402D02*
X11504095Y-6216402D01*
X11504097Y-6216403D01*
X11520876Y-6221597D01*
X11536327Y-6229951D01*
X11549861Y-6241147D01*
X11560963Y-6254759D01*
X11569209Y-6270268D01*
X11574286Y-6287083D01*
X11576000Y-6304564D01*
X11576000Y-6305448D01*
X11575992Y-6306590D01*
X11575992Y-6306591D01*
X11575991Y-6306692D01*
X11574033Y-6324148D01*
X11568722Y-6340890D01*
X11560260Y-6356282D01*
X11548970Y-6369738D01*
X11535281Y-6380744D01*
X11519715Y-6388882D01*
X11502864Y-6393841D01*
X11502862Y-6393842D01*
X11502862Y-6393842D01*
X11485372Y-6395433D01*
X11467905Y-6393598D01*
X11467905Y-6393597D01*
X11467903Y-6393597D01*
X11451124Y-6388403D01*
X11435673Y-6380049D01*
X11422139Y-6368853D01*
X11411037Y-6355241D01*
X11402791Y-6339732D01*
X11397714Y-6322917D01*
X11396000Y-6305435D01*
X11396000Y-6304552D01*
X11396008Y-6303410D01*
X11396008Y-6303409D01*
X11396009Y-6303308D01*
X11397967Y-6285852D01*
X11403278Y-6269110D01*
X11411740Y-6253717D01*
X11423030Y-6240262D01*
X11436719Y-6229256D01*
X11452285Y-6221118D01*
X11469136Y-6216159D01*
X11469138Y-6216158D01*
X11469138Y-6216158D01*
X11486628Y-6214567D01*
X11504094Y-6216402D01*
X11504094Y-6216402D01*
G37*
M02*
