G04 #@! TF.FileFunction,Paste,Top*
%FSLAX45Y45*%
G04 Gerber Fmt 4.5, Leading zero omitted, Abs format (unit mm)*
G04 Created by KiCad (PCBNEW 4.0.7) date 07/31/18 15:54:45*
%MOMM*%
%LPD*%
G01*
G04 APERTURE LIST*
%ADD10C,0.100000*%
%ADD11R,0.700000X0.700000*%
%ADD12R,0.200000X1.450000*%
%ADD13R,1.450000X0.200000*%
%ADD14R,6.600000X6.600000*%
%ADD15R,0.500000X1.450000*%
%ADD16R,0.400000X0.800000*%
%ADD17R,0.800000X0.400000*%
%ADD18R,0.600000X1.200000*%
%ADD19R,0.700000X0.650000*%
%ADD20R,1.000000X1.200000*%
%ADD21R,0.350000X0.200000*%
%ADD22R,0.350000X1.350000*%
%ADD23R,1.680000X1.170000*%
%ADD24R,1.680000X1.180000*%
%ADD25R,0.800000X0.900000*%
%ADD26R,0.400000X0.150000*%
%ADD27R,0.800000X0.600000*%
%ADD28R,2.600000X0.800000*%
%ADD29R,1.100000X0.800000*%
%ADD30R,0.610000X0.130000*%
%ADD31R,0.130000X0.610000*%
%ADD32R,1.202000X1.202000*%
G04 APERTURE END LIST*
D10*
D11*
X8780000Y-6780000D03*
X8940000Y-6780000D03*
X9840000Y-6800000D03*
X10000000Y-6800000D03*
D12*
X11875000Y-6980000D03*
X11825000Y-6980000D03*
X11775000Y-6980000D03*
X11725000Y-6980000D03*
X11675000Y-6980000D03*
X11625000Y-6980000D03*
X11575000Y-6980000D03*
X11525000Y-6980000D03*
X11475000Y-6980000D03*
X11425000Y-6980000D03*
X11375000Y-6980000D03*
X11325000Y-6980000D03*
X11275000Y-6980000D03*
X11225000Y-6980000D03*
X11175000Y-6980000D03*
X11125000Y-6980000D03*
X11075000Y-6980000D03*
X11025000Y-6980000D03*
X10975000Y-6980000D03*
X10925000Y-6980000D03*
X10875000Y-6980000D03*
X10825000Y-6980000D03*
X10775000Y-6980000D03*
X10725000Y-6980000D03*
X10675000Y-6980000D03*
X10625000Y-6980000D03*
X10575000Y-6980000D03*
X10525000Y-6980000D03*
X10475000Y-6980000D03*
X10425000Y-6980000D03*
X10375000Y-6980000D03*
X10325000Y-6980000D03*
X10275000Y-6980000D03*
X10225000Y-6980000D03*
X10175000Y-6980000D03*
X10125000Y-6980000D03*
D13*
X9930000Y-7175000D03*
X9930000Y-7225000D03*
X9930000Y-7275000D03*
X9930000Y-7325000D03*
X9930000Y-7375000D03*
X9930000Y-7425000D03*
X9930000Y-7475000D03*
X9930000Y-7525000D03*
X9930000Y-7575000D03*
X9930000Y-7625000D03*
X9930000Y-7675000D03*
X9930000Y-7725000D03*
X9930000Y-7775000D03*
X9930000Y-7825000D03*
X9930000Y-7875000D03*
X9930000Y-7925000D03*
X9930000Y-7975000D03*
X9930000Y-8025000D03*
X9930000Y-8075000D03*
X9930000Y-8125000D03*
X9930000Y-8175000D03*
X9930000Y-8225000D03*
X9930000Y-8275000D03*
X9930000Y-8325000D03*
X9930000Y-8375000D03*
X9930000Y-8425000D03*
X9930000Y-8475000D03*
X9930000Y-8525000D03*
X9930000Y-8575000D03*
X9930000Y-8625000D03*
X9930000Y-8675000D03*
X9930000Y-8725000D03*
X9930000Y-8775000D03*
X9930000Y-8825000D03*
X9930000Y-8875000D03*
X9930000Y-8925000D03*
D12*
X10125000Y-9120000D03*
X10175000Y-9120000D03*
X10225000Y-9120000D03*
X10275000Y-9120000D03*
X10325000Y-9120000D03*
X10375000Y-9120000D03*
X10425000Y-9120000D03*
X10475000Y-9120000D03*
X10525000Y-9120000D03*
X10575000Y-9120000D03*
X10625000Y-9120000D03*
X10675000Y-9120000D03*
X10725000Y-9120000D03*
X10775000Y-9120000D03*
X10825000Y-9120000D03*
X10875000Y-9120000D03*
X10925000Y-9120000D03*
X10975000Y-9120000D03*
X11025000Y-9120000D03*
X11075000Y-9120000D03*
X11125000Y-9120000D03*
X11175000Y-9120000D03*
X11225000Y-9120000D03*
X11275000Y-9120000D03*
X11325000Y-9120000D03*
X11375000Y-9120000D03*
X11425000Y-9120000D03*
X11475000Y-9120000D03*
X11525000Y-9120000D03*
X11575000Y-9120000D03*
X11625000Y-9120000D03*
X11675000Y-9120000D03*
X11725000Y-9120000D03*
X11775000Y-9120000D03*
X11825000Y-9120000D03*
X11875000Y-9120000D03*
D13*
X12070000Y-8925000D03*
X12070000Y-8875000D03*
X12070000Y-8825000D03*
X12070000Y-8775000D03*
X12070000Y-8725000D03*
X12070000Y-8675000D03*
X12070000Y-8625000D03*
X12070000Y-8575000D03*
X12070000Y-8525000D03*
X12070000Y-8475000D03*
X12070000Y-8425000D03*
X12070000Y-8375000D03*
X12070000Y-8325000D03*
X12070000Y-8275000D03*
X12070000Y-8225000D03*
X12070000Y-8175000D03*
X12070000Y-8125000D03*
X12070000Y-8075000D03*
X12070000Y-8025000D03*
X12070000Y-7975000D03*
X12070000Y-7925000D03*
X12070000Y-7875000D03*
X12070000Y-7825000D03*
X12070000Y-7775000D03*
X12070000Y-7725000D03*
X12070000Y-7675000D03*
X12070000Y-7625000D03*
X12070000Y-7575000D03*
X12070000Y-7525000D03*
X12070000Y-7475000D03*
X12070000Y-7425000D03*
X12070000Y-7375000D03*
X12070000Y-7325000D03*
X12070000Y-7275000D03*
X12070000Y-7225000D03*
X12070000Y-7175000D03*
D14*
X11000000Y-8050000D03*
D15*
X13694000Y-7955000D03*
X13821000Y-7955000D03*
X13948000Y-7955000D03*
X14075000Y-7955000D03*
X14075000Y-7415000D03*
X13948000Y-7415000D03*
X13821000Y-7415000D03*
X13694000Y-7415000D03*
D16*
X8725000Y-9050000D03*
X8575000Y-9050000D03*
X12135000Y-6830000D03*
X11985000Y-6830000D03*
D17*
X12330000Y-9090000D03*
X12330000Y-8940000D03*
X9750000Y-7135000D03*
X9750000Y-6985000D03*
X10140000Y-9535000D03*
X10140000Y-9385000D03*
X11210000Y-10955000D03*
X11210000Y-11105000D03*
X9655000Y-8170000D03*
X9655000Y-8320000D03*
D16*
X13735000Y-10530000D03*
X13885000Y-10530000D03*
D17*
X10410000Y-9725000D03*
X10410000Y-9575000D03*
D16*
X11705000Y-10850000D03*
X11855000Y-10850000D03*
D18*
X8910000Y-7950000D03*
X9100000Y-7950000D03*
X8905000Y-8650000D03*
X9095000Y-8650000D03*
X8905000Y-7250000D03*
X9095000Y-7250000D03*
D19*
X8275000Y-8100000D03*
X8425000Y-8100000D03*
X8275000Y-8800000D03*
X8425000Y-8800000D03*
X8275000Y-7400000D03*
X8425000Y-7400000D03*
X8275000Y-7600000D03*
X8425000Y-7600000D03*
X8275000Y-8300000D03*
X8425000Y-8300000D03*
X8275000Y-6900000D03*
X8425000Y-6900000D03*
D16*
X11395000Y-10750000D03*
X11545000Y-10750000D03*
D17*
X10900000Y-10955000D03*
X10900000Y-11105000D03*
X10750000Y-10955000D03*
X10750000Y-11105000D03*
X10600000Y-10955000D03*
X10600000Y-11105000D03*
X11050000Y-11105000D03*
X11050000Y-10955000D03*
X10430000Y-10955000D03*
X10430000Y-11105000D03*
X11370000Y-10955000D03*
X11370000Y-11105000D03*
D16*
X11675000Y-9690000D03*
X11825000Y-9690000D03*
X9700000Y-6800000D03*
X9550000Y-6800000D03*
X8725000Y-9250000D03*
X8575000Y-9250000D03*
X9375000Y-9500000D03*
X9225000Y-9500000D03*
X9375000Y-9350000D03*
X9225000Y-9350000D03*
X9375000Y-9200000D03*
X9225000Y-9200000D03*
X9215000Y-6780000D03*
X9065000Y-6780000D03*
X9310000Y-10850000D03*
X9160000Y-10850000D03*
D20*
X9312500Y-10675000D03*
X9312500Y-10465000D03*
X9147500Y-10465000D03*
X9147500Y-10675000D03*
D21*
X13757500Y-8280000D03*
X13757500Y-8230000D03*
X13757500Y-8180000D03*
X13622500Y-8180000D03*
X13622500Y-8230000D03*
X13622500Y-8280000D03*
D22*
X9707500Y-10105000D03*
X9642500Y-10105000D03*
X9577500Y-10105000D03*
X9512500Y-10105000D03*
X9512500Y-10695000D03*
X9577500Y-10695000D03*
X9642500Y-10695000D03*
X9707500Y-10695000D03*
D23*
X8259500Y-9623000D03*
D24*
X8259500Y-9877000D03*
D23*
X8640500Y-9877000D03*
X8640500Y-9623000D03*
X8259500Y-10223000D03*
D24*
X8259500Y-10477000D03*
D23*
X8640500Y-10477000D03*
X8640500Y-10223000D03*
D25*
X8430000Y-9255000D03*
X8430000Y-9045000D03*
X8190000Y-9150000D03*
D26*
X8205000Y-8570000D03*
X8395000Y-8520000D03*
X8395000Y-8470000D03*
X8205000Y-8470000D03*
X8205000Y-8520000D03*
X8205000Y-8620000D03*
X8395000Y-8620000D03*
X8395000Y-8570000D03*
D27*
X8300000Y-8590000D03*
X8300000Y-8500000D03*
D26*
X8205000Y-7875000D03*
X8395000Y-7825000D03*
X8395000Y-7775000D03*
X8205000Y-7775000D03*
X8205000Y-7825000D03*
X8205000Y-7925000D03*
X8395000Y-7925000D03*
X8395000Y-7875000D03*
D27*
X8300000Y-7895000D03*
X8300000Y-7805000D03*
D26*
X8205000Y-7175000D03*
X8395000Y-7125000D03*
X8395000Y-7075000D03*
X8205000Y-7075000D03*
X8205000Y-7125000D03*
X8205000Y-7225000D03*
X8395000Y-7225000D03*
X8395000Y-7175000D03*
D27*
X8300000Y-7195000D03*
X8300000Y-7105000D03*
D28*
X8650000Y-7075000D03*
X8650000Y-7305000D03*
X8650000Y-7775000D03*
X8650000Y-8005000D03*
X8650000Y-8465000D03*
X8650000Y-8695000D03*
D29*
X9300000Y-9832500D03*
X9300000Y-9687500D03*
X9020000Y-9832500D03*
X9020000Y-9687500D03*
D30*
X11410000Y-10540000D03*
D31*
X11320000Y-9850000D03*
D30*
X10630000Y-9940000D03*
D31*
X10720000Y-10630000D03*
D32*
X11236000Y-10024000D03*
X11020000Y-10024000D03*
X10804000Y-10024000D03*
X11236000Y-10240000D03*
X11020000Y-10240000D03*
X10804000Y-10240000D03*
X11236000Y-10456000D03*
X11020000Y-10456000D03*
X10804000Y-10456000D03*
D30*
X11410000Y-10500000D03*
X11410000Y-10460000D03*
X11410000Y-10420000D03*
X11410000Y-10380000D03*
X11410000Y-10340000D03*
X11410000Y-10300000D03*
X11410000Y-10260000D03*
X11410000Y-10220000D03*
X11410000Y-10180000D03*
X11410000Y-10140000D03*
X11410000Y-10100000D03*
X11410000Y-10060000D03*
X11410000Y-10020000D03*
X11410000Y-9980000D03*
X11410000Y-9940000D03*
X10630000Y-9980000D03*
X10630000Y-10020000D03*
X10630000Y-10060000D03*
X10630000Y-10100000D03*
X10630000Y-10140000D03*
X10630000Y-10180000D03*
X10630000Y-10220000D03*
X10630000Y-10260000D03*
X10630000Y-10300000D03*
X10630000Y-10340000D03*
X10630000Y-10380000D03*
X10630000Y-10420000D03*
X10630000Y-10460000D03*
X10630000Y-10500000D03*
X10630000Y-10540000D03*
D31*
X11280000Y-9850000D03*
X11240000Y-9850000D03*
X11200000Y-9850000D03*
X11160000Y-9850000D03*
X11120000Y-9850000D03*
X11080000Y-9850000D03*
X11040000Y-9850000D03*
X11000000Y-9850000D03*
X10960000Y-9850000D03*
X10920000Y-9850000D03*
X10880000Y-9850000D03*
X10840000Y-9850000D03*
X10800000Y-9850000D03*
X10760000Y-9850000D03*
X10720000Y-9850000D03*
X10760000Y-10630000D03*
X10800000Y-10630000D03*
X10840000Y-10630000D03*
X10880000Y-10630000D03*
X10920000Y-10630000D03*
X10960000Y-10630000D03*
X11000000Y-10630000D03*
X11040000Y-10630000D03*
X11080000Y-10630000D03*
X11120000Y-10630000D03*
X11160000Y-10630000D03*
X11200000Y-10630000D03*
X11240000Y-10630000D03*
X11280000Y-10630000D03*
X11320000Y-10630000D03*
M02*
