G04 #@! TF.FileFunction,Soldermask,Bot*
%FSLAX45Y45*%
G04 Gerber Fmt 4.5, Leading zero omitted, Abs format (unit mm)*
G04 Created by KiCad (PCBNEW 4.0.7) date 07/31/18 15:54:45*
%MOMM*%
%LPD*%
G01*
G04 APERTURE LIST*
%ADD10C,0.100000*%
G04 APERTURE END LIST*
D10*
G36*
X8216280Y-11175103D02*
X8246056Y-11181215D01*
X8266954Y-11190000D01*
X8274078Y-11192995D01*
X8274079Y-11192995D01*
X8299279Y-11209993D01*
X8320698Y-11231561D01*
X8337519Y-11256880D01*
X8349103Y-11284983D01*
X8355003Y-11314784D01*
X8355003Y-11314784D01*
X8355007Y-11314801D01*
X8354522Y-11349521D01*
X8354518Y-11349537D01*
X8354518Y-11349538D01*
X8347787Y-11379162D01*
X8335424Y-11406931D01*
X8317902Y-11431770D01*
X8295889Y-11452733D01*
X8270224Y-11469020D01*
X8241884Y-11480013D01*
X8211949Y-11485291D01*
X8181558Y-11484654D01*
X8151870Y-11478127D01*
X8124016Y-11465958D01*
X8099055Y-11448609D01*
X8077940Y-11426744D01*
X8061473Y-11401193D01*
X8050283Y-11372931D01*
X8044796Y-11343033D01*
X8045221Y-11312639D01*
X8051540Y-11282906D01*
X8063515Y-11254967D01*
X8080688Y-11229886D01*
X8102407Y-11208618D01*
X8127841Y-11191974D01*
X8156025Y-11180587D01*
X8185884Y-11174891D01*
X8216280Y-11175103D01*
X8216280Y-11175103D01*
G37*
G36*
X14016280Y-11175103D02*
X14046056Y-11181215D01*
X14066954Y-11190000D01*
X14074078Y-11192995D01*
X14074079Y-11192995D01*
X14099279Y-11209993D01*
X14120698Y-11231561D01*
X14137519Y-11256880D01*
X14149103Y-11284983D01*
X14155003Y-11314784D01*
X14155003Y-11314784D01*
X14155007Y-11314801D01*
X14154522Y-11349521D01*
X14154518Y-11349537D01*
X14154518Y-11349538D01*
X14147787Y-11379162D01*
X14135424Y-11406931D01*
X14117902Y-11431770D01*
X14095889Y-11452733D01*
X14070224Y-11469020D01*
X14041884Y-11480013D01*
X14011949Y-11485291D01*
X13981558Y-11484654D01*
X13951870Y-11478127D01*
X13924016Y-11465958D01*
X13899055Y-11448609D01*
X13877940Y-11426744D01*
X13861473Y-11401193D01*
X13850283Y-11372931D01*
X13844796Y-11343033D01*
X13845221Y-11312639D01*
X13851540Y-11282906D01*
X13863515Y-11254967D01*
X13880688Y-11229886D01*
X13902407Y-11208618D01*
X13927841Y-11191974D01*
X13956025Y-11180587D01*
X13985884Y-11174891D01*
X14016280Y-11175103D01*
X14016280Y-11175103D01*
G37*
G36*
X12027295Y-11160559D02*
X12044296Y-11164049D01*
X12060297Y-11170775D01*
X12074685Y-11180480D01*
X12086914Y-11192795D01*
X12096519Y-11207251D01*
X12103133Y-11223297D01*
X12106259Y-11239087D01*
X12106504Y-11240322D01*
X12106227Y-11260146D01*
X12106223Y-11260162D01*
X12106223Y-11260163D01*
X12102382Y-11277070D01*
X12095323Y-11292925D01*
X12085318Y-11307108D01*
X12072750Y-11319076D01*
X12058096Y-11328376D01*
X12041914Y-11334652D01*
X12024823Y-11337666D01*
X12007470Y-11337303D01*
X11990520Y-11333576D01*
X11974616Y-11326628D01*
X11960364Y-11316722D01*
X11948307Y-11304238D01*
X11938906Y-11289649D01*
X11932517Y-11273512D01*
X11929384Y-11256442D01*
X11929626Y-11239087D01*
X11933234Y-11222110D01*
X11940071Y-11206158D01*
X11949877Y-11191838D01*
X11962277Y-11179695D01*
X11976800Y-11170192D01*
X11992892Y-11163690D01*
X12009940Y-11160438D01*
X12027295Y-11160559D01*
X12027295Y-11160559D01*
G37*
G36*
X13531295Y-11160559D02*
X13548296Y-11164049D01*
X13564297Y-11170775D01*
X13578685Y-11180480D01*
X13590914Y-11192795D01*
X13600519Y-11207251D01*
X13607133Y-11223297D01*
X13610259Y-11239087D01*
X13610504Y-11240322D01*
X13610227Y-11260146D01*
X13610223Y-11260162D01*
X13610223Y-11260163D01*
X13606382Y-11277070D01*
X13599323Y-11292925D01*
X13589318Y-11307108D01*
X13576750Y-11319076D01*
X13562096Y-11328376D01*
X13545914Y-11334652D01*
X13528823Y-11337666D01*
X13511470Y-11337303D01*
X13494520Y-11333576D01*
X13478616Y-11326628D01*
X13464364Y-11316722D01*
X13452307Y-11304238D01*
X13442906Y-11289649D01*
X13436517Y-11273512D01*
X13433384Y-11256442D01*
X13433626Y-11239087D01*
X13437234Y-11222110D01*
X13444071Y-11206158D01*
X13453877Y-11191838D01*
X13466277Y-11179695D01*
X13480800Y-11170192D01*
X13496892Y-11163690D01*
X13513940Y-11160438D01*
X13531295Y-11160559D01*
X13531295Y-11160559D01*
G37*
G36*
X13355000Y-11300000D02*
X13295000Y-11300000D01*
X13295000Y-11200000D01*
X13355000Y-11200000D01*
X13355000Y-11300000D01*
X13355000Y-11300000D01*
G37*
G36*
X13205000Y-11300000D02*
X13145000Y-11300000D01*
X13145000Y-11200000D01*
X13205000Y-11200000D01*
X13205000Y-11300000D01*
X13205000Y-11300000D01*
G37*
G36*
X12385000Y-11290000D02*
X12325000Y-11290000D01*
X12325000Y-11190000D01*
X12385000Y-11190000D01*
X12385000Y-11290000D01*
X12385000Y-11290000D01*
G37*
G36*
X12235000Y-11290000D02*
X12175000Y-11290000D01*
X12175000Y-11190000D01*
X12235000Y-11190000D01*
X12235000Y-11290000D01*
X12235000Y-11290000D01*
G37*
G36*
X12027295Y-10906559D02*
X12044296Y-10910049D01*
X12053290Y-10913829D01*
X12058482Y-10916012D01*
X12060297Y-10916775D01*
X12074685Y-10926480D01*
X12086914Y-10938795D01*
X12096519Y-10953251D01*
X12103133Y-10969297D01*
X12106500Y-10986305D01*
X12106504Y-10986322D01*
X12106227Y-11006146D01*
X12106223Y-11006162D01*
X12106223Y-11006163D01*
X12102382Y-11023070D01*
X12095323Y-11038925D01*
X12085318Y-11053108D01*
X12072750Y-11065076D01*
X12058096Y-11074376D01*
X12041914Y-11080653D01*
X12024823Y-11083666D01*
X12007470Y-11083303D01*
X11990520Y-11079576D01*
X11974616Y-11072628D01*
X11960364Y-11062722D01*
X11948307Y-11050238D01*
X11938906Y-11035649D01*
X11932517Y-11019512D01*
X11929384Y-11002442D01*
X11929626Y-10985087D01*
X11933234Y-10968111D01*
X11940071Y-10952159D01*
X11949877Y-10937838D01*
X11962277Y-10925695D01*
X11976800Y-10916192D01*
X11992892Y-10909690D01*
X12009940Y-10906438D01*
X12027295Y-10906559D01*
X12027295Y-10906559D01*
G37*
G36*
X13531295Y-10906559D02*
X13548296Y-10910049D01*
X13557290Y-10913829D01*
X13562482Y-10916012D01*
X13564297Y-10916775D01*
X13578685Y-10926480D01*
X13590914Y-10938795D01*
X13600519Y-10953251D01*
X13607133Y-10969297D01*
X13610500Y-10986305D01*
X13610504Y-10986322D01*
X13610227Y-11006146D01*
X13610223Y-11006162D01*
X13610223Y-11006163D01*
X13606382Y-11023070D01*
X13599323Y-11038925D01*
X13589318Y-11053108D01*
X13576750Y-11065076D01*
X13562096Y-11074376D01*
X13545914Y-11080653D01*
X13528823Y-11083666D01*
X13511470Y-11083303D01*
X13494520Y-11079576D01*
X13478616Y-11072628D01*
X13464364Y-11062722D01*
X13452307Y-11050238D01*
X13442906Y-11035649D01*
X13436517Y-11019512D01*
X13433384Y-11002442D01*
X13433626Y-10985087D01*
X13437234Y-10968111D01*
X13444071Y-10952159D01*
X13453877Y-10937838D01*
X13466277Y-10925695D01*
X13480800Y-10916192D01*
X13496892Y-10909690D01*
X13513940Y-10906438D01*
X13531295Y-10906559D01*
X13531295Y-10906559D01*
G37*
G36*
X10175000Y-11050000D02*
X10115000Y-11050000D01*
X10115000Y-10950000D01*
X10175000Y-10950000D01*
X10175000Y-11050000D01*
X10175000Y-11050000D01*
G37*
G36*
X10325000Y-11050000D02*
X10265000Y-11050000D01*
X10265000Y-10950000D01*
X10325000Y-10950000D01*
X10325000Y-11050000D01*
X10325000Y-11050000D01*
G37*
G36*
X13205000Y-11050000D02*
X13145000Y-11050000D01*
X13145000Y-10950000D01*
X13205000Y-10950000D01*
X13205000Y-11050000D01*
X13205000Y-11050000D01*
G37*
G36*
X13355000Y-11050000D02*
X13295000Y-11050000D01*
X13295000Y-10950000D01*
X13355000Y-10950000D01*
X13355000Y-11050000D01*
X13355000Y-11050000D01*
G37*
G36*
X12385000Y-11040000D02*
X12325000Y-11040000D01*
X12325000Y-10940000D01*
X12385000Y-10940000D01*
X12385000Y-11040000D01*
X12385000Y-11040000D01*
G37*
G36*
X12235000Y-11040000D02*
X12175000Y-11040000D01*
X12175000Y-10940000D01*
X12235000Y-10940000D01*
X12235000Y-11040000D01*
X12235000Y-11040000D01*
G37*
G36*
X14213339Y-10773084D02*
X14237736Y-10778092D01*
X14260697Y-10787744D01*
X14281345Y-10801671D01*
X14298894Y-10819344D01*
X14312677Y-10840089D01*
X14322168Y-10863116D01*
X14327002Y-10887530D01*
X14327002Y-10887530D01*
X14327005Y-10887547D01*
X14326608Y-10915994D01*
X14326604Y-10916011D01*
X14326604Y-10916012D01*
X14321090Y-10940282D01*
X14310960Y-10963034D01*
X14296603Y-10983386D01*
X14278568Y-11000562D01*
X14257539Y-11013907D01*
X14234318Y-11022914D01*
X14209791Y-11027239D01*
X14184890Y-11026717D01*
X14160565Y-11021369D01*
X14137742Y-11011398D01*
X14117290Y-10997183D01*
X14099989Y-10979268D01*
X14086497Y-10958332D01*
X14077329Y-10935176D01*
X14072833Y-10910679D01*
X14073181Y-10885775D01*
X14078359Y-10861413D01*
X14088170Y-10838521D01*
X14102241Y-10817971D01*
X14120036Y-10800545D01*
X14140876Y-10786908D01*
X14163969Y-10777577D01*
X14188434Y-10772911D01*
X14213339Y-10773084D01*
X14213339Y-10773084D01*
G37*
G36*
X8313339Y-10773084D02*
X8337736Y-10778092D01*
X8360697Y-10787744D01*
X8381345Y-10801671D01*
X8398894Y-10819344D01*
X8412677Y-10840089D01*
X8422168Y-10863116D01*
X8427002Y-10887530D01*
X8427002Y-10887530D01*
X8427005Y-10887547D01*
X8426608Y-10915994D01*
X8426604Y-10916011D01*
X8426604Y-10916012D01*
X8421090Y-10940282D01*
X8410960Y-10963034D01*
X8396603Y-10983386D01*
X8378568Y-11000562D01*
X8357539Y-11013907D01*
X8334318Y-11022914D01*
X8309791Y-11027239D01*
X8284890Y-11026717D01*
X8260565Y-11021369D01*
X8237742Y-11011398D01*
X8217290Y-10997183D01*
X8199989Y-10979268D01*
X8186497Y-10958332D01*
X8177329Y-10935176D01*
X8172833Y-10910679D01*
X8173181Y-10885775D01*
X8178359Y-10861413D01*
X8188170Y-10838521D01*
X8202241Y-10817971D01*
X8220036Y-10800545D01*
X8240876Y-10786908D01*
X8263969Y-10777577D01*
X8288434Y-10772911D01*
X8313339Y-10773084D01*
X8313339Y-10773084D01*
G37*
G36*
X8671029Y-10800070D02*
X8691199Y-10804210D01*
X8697932Y-10807040D01*
X8710182Y-10812190D01*
X8727253Y-10823705D01*
X8727254Y-10823705D01*
X8741763Y-10838316D01*
X8749334Y-10849711D01*
X8753158Y-10855467D01*
X8761005Y-10874505D01*
X8765005Y-10894704D01*
X8764676Y-10918224D01*
X8764672Y-10918241D01*
X8760114Y-10938304D01*
X8757322Y-10944574D01*
X8751739Y-10957115D01*
X8743982Y-10968111D01*
X8739869Y-10973942D01*
X8724958Y-10988141D01*
X8710710Y-10997183D01*
X8707571Y-10999175D01*
X8688373Y-11006622D01*
X8680262Y-11008052D01*
X8668095Y-11010197D01*
X8668095Y-11010197D01*
X8647507Y-11009766D01*
X8627396Y-11005344D01*
X8613276Y-10999175D01*
X8608527Y-10997100D01*
X8605324Y-10994874D01*
X8591618Y-10985349D01*
X8577314Y-10970536D01*
X8569449Y-10958332D01*
X8566159Y-10953227D01*
X8558579Y-10934082D01*
X8554862Y-10913829D01*
X8554963Y-10906559D01*
X8555149Y-10893239D01*
X8559132Y-10874505D01*
X8559431Y-10873097D01*
X8564839Y-10860480D01*
X8567543Y-10854171D01*
X8577185Y-10840089D01*
X8579176Y-10837181D01*
X8579176Y-10837181D01*
X8593888Y-10822774D01*
X8610061Y-10812190D01*
X8611118Y-10811498D01*
X8612163Y-10811076D01*
X8630211Y-10803785D01*
X8630211Y-10803785D01*
X8630211Y-10803785D01*
X8647194Y-10800545D01*
X8650438Y-10799926D01*
X8671029Y-10800070D01*
X8671029Y-10800070D01*
G37*
G36*
X10325000Y-10870000D02*
X10265000Y-10870000D01*
X10265000Y-10770000D01*
X10325000Y-10770000D01*
X10325000Y-10870000D01*
X10325000Y-10870000D01*
G37*
G36*
X10175000Y-10870000D02*
X10115000Y-10870000D01*
X10115000Y-10770000D01*
X10175000Y-10770000D01*
X10175000Y-10870000D01*
X10175000Y-10870000D01*
G37*
G36*
X12027295Y-10652559D02*
X12044296Y-10656049D01*
X12060297Y-10662775D01*
X12074685Y-10672480D01*
X12086914Y-10684795D01*
X12096519Y-10699251D01*
X12103133Y-10715297D01*
X12106259Y-10731087D01*
X12106504Y-10732322D01*
X12106227Y-10752146D01*
X12106223Y-10752162D01*
X12106223Y-10752163D01*
X12102382Y-10769070D01*
X12095323Y-10784925D01*
X12085318Y-10799108D01*
X12072750Y-10811076D01*
X12058096Y-10820376D01*
X12041914Y-10826653D01*
X12024823Y-10829666D01*
X12007470Y-10829303D01*
X11990520Y-10825576D01*
X11974616Y-10818628D01*
X11960364Y-10808722D01*
X11948307Y-10796238D01*
X11938906Y-10781649D01*
X11932517Y-10765512D01*
X11929384Y-10748442D01*
X11929626Y-10731087D01*
X11933234Y-10714111D01*
X11940071Y-10698159D01*
X11949877Y-10683838D01*
X11962277Y-10671695D01*
X11976800Y-10662192D01*
X11992892Y-10655690D01*
X12009940Y-10652438D01*
X12027295Y-10652559D01*
X12027295Y-10652559D01*
G37*
G36*
X10882500Y-10790000D02*
X10797500Y-10790000D01*
X10797500Y-10700000D01*
X10882500Y-10700000D01*
X10882500Y-10790000D01*
X10882500Y-10790000D01*
G37*
G36*
X11002500Y-10790000D02*
X10917500Y-10790000D01*
X10917500Y-10700000D01*
X11002500Y-10700000D01*
X11002500Y-10790000D01*
X11002500Y-10790000D01*
G37*
G36*
X11142500Y-10750000D02*
X11057500Y-10750000D01*
X11057500Y-10660000D01*
X11142500Y-10660000D01*
X11142500Y-10750000D01*
X11142500Y-10750000D01*
G37*
G36*
X11262500Y-10750000D02*
X11177500Y-10750000D01*
X11177500Y-10660000D01*
X11262500Y-10660000D01*
X11262500Y-10750000D01*
X11262500Y-10750000D01*
G37*
G36*
X11382500Y-10750000D02*
X11297500Y-10750000D01*
X11297500Y-10660000D01*
X11382500Y-10660000D01*
X11382500Y-10750000D01*
X11382500Y-10750000D01*
G37*
G36*
X11602500Y-10705000D02*
X11517500Y-10705000D01*
X11517500Y-10615000D01*
X11602500Y-10615000D01*
X11602500Y-10705000D01*
X11602500Y-10705000D01*
G37*
G36*
X10175000Y-10690000D02*
X10115000Y-10690000D01*
X10115000Y-10590000D01*
X10175000Y-10590000D01*
X10175000Y-10690000D01*
X10175000Y-10690000D01*
G37*
G36*
X10325000Y-10690000D02*
X10265000Y-10690000D01*
X10265000Y-10590000D01*
X10325000Y-10590000D01*
X10325000Y-10690000D01*
X10325000Y-10690000D01*
G37*
G36*
X11002500Y-10640000D02*
X10917500Y-10640000D01*
X10917500Y-10550000D01*
X11002500Y-10550000D01*
X11002500Y-10640000D01*
X11002500Y-10640000D01*
G37*
G36*
X10882500Y-10640000D02*
X10797500Y-10640000D01*
X10797500Y-10550000D01*
X10882500Y-10550000D01*
X10882500Y-10640000D01*
X10882500Y-10640000D01*
G37*
G36*
X9350000Y-10612500D02*
X9260000Y-10612500D01*
X9260000Y-10527500D01*
X9350000Y-10527500D01*
X9350000Y-10612500D01*
X9350000Y-10612500D01*
G37*
G36*
X9200000Y-10612500D02*
X9110000Y-10612500D01*
X9110000Y-10527500D01*
X9200000Y-10527500D01*
X9200000Y-10612500D01*
X9200000Y-10612500D01*
G37*
G36*
X11262500Y-10600000D02*
X11177500Y-10600000D01*
X11177500Y-10510000D01*
X11262500Y-10510000D01*
X11262500Y-10600000D01*
X11262500Y-10600000D01*
G37*
G36*
X11142500Y-10600000D02*
X11057500Y-10600000D01*
X11057500Y-10510000D01*
X11142500Y-10510000D01*
X11142500Y-10600000D01*
X11142500Y-10600000D01*
G37*
G36*
X11382500Y-10600000D02*
X11297500Y-10600000D01*
X11297500Y-10510000D01*
X11382500Y-10510000D01*
X11382500Y-10600000D01*
X11382500Y-10600000D01*
G37*
G36*
X10720000Y-10562500D02*
X10630000Y-10562500D01*
X10630000Y-10477500D01*
X10720000Y-10477500D01*
X10720000Y-10562500D01*
X10720000Y-10562500D01*
G37*
G36*
X10570000Y-10562500D02*
X10480000Y-10562500D01*
X10480000Y-10477500D01*
X10570000Y-10477500D01*
X10570000Y-10562500D01*
X10570000Y-10562500D01*
G37*
G36*
X11602500Y-10555000D02*
X11517500Y-10555000D01*
X11517500Y-10465000D01*
X11602500Y-10465000D01*
X11602500Y-10555000D01*
X11602500Y-10555000D01*
G37*
G36*
X10055000Y-10550000D02*
X9995000Y-10550000D01*
X9995000Y-10450000D01*
X10055000Y-10450000D01*
X10055000Y-10550000D01*
X10055000Y-10550000D01*
G37*
G36*
X10205000Y-10550000D02*
X10145000Y-10550000D01*
X10145000Y-10450000D01*
X10205000Y-10450000D01*
X10205000Y-10550000D01*
X10205000Y-10550000D01*
G37*
G36*
X13270041Y-10193111D02*
X13302122Y-10199696D01*
X13332314Y-10212388D01*
X13359465Y-10230702D01*
X13382542Y-10253940D01*
X13394583Y-10272064D01*
X13400666Y-10281219D01*
X13404285Y-10290000D01*
X13413146Y-10311498D01*
X13419284Y-10342500D01*
X13419507Y-10343625D01*
X13418985Y-10381032D01*
X13418981Y-10381049D01*
X13418981Y-10381049D01*
X13411729Y-10412969D01*
X13398408Y-10442887D01*
X13379530Y-10469650D01*
X13355813Y-10492235D01*
X13328161Y-10509783D01*
X13297627Y-10521627D01*
X13265374Y-10527314D01*
X13232631Y-10526628D01*
X13200644Y-10519595D01*
X13170633Y-10506484D01*
X13143740Y-10487792D01*
X13120990Y-10464234D01*
X13103249Y-10436705D01*
X13091192Y-10406254D01*
X13085280Y-10374042D01*
X13085738Y-10341295D01*
X13092547Y-10309260D01*
X13105449Y-10279158D01*
X13123951Y-10252135D01*
X13147351Y-10229221D01*
X13174755Y-10211288D01*
X13205121Y-10199019D01*
X13237291Y-10192883D01*
X13270041Y-10193111D01*
X13270041Y-10193111D01*
G37*
G36*
X12305041Y-10193111D02*
X12337122Y-10199696D01*
X12367314Y-10212388D01*
X12394465Y-10230702D01*
X12417542Y-10253940D01*
X12429583Y-10272064D01*
X12435666Y-10281219D01*
X12439285Y-10290000D01*
X12448146Y-10311498D01*
X12454284Y-10342500D01*
X12454507Y-10343625D01*
X12453985Y-10381032D01*
X12453981Y-10381049D01*
X12453981Y-10381049D01*
X12446729Y-10412969D01*
X12433408Y-10442887D01*
X12414530Y-10469650D01*
X12390813Y-10492235D01*
X12363161Y-10509783D01*
X12332627Y-10521627D01*
X12300374Y-10527314D01*
X12267631Y-10526628D01*
X12235644Y-10519595D01*
X12205633Y-10506484D01*
X12178740Y-10487792D01*
X12155990Y-10464234D01*
X12138249Y-10436705D01*
X12126192Y-10406254D01*
X12120280Y-10374042D01*
X12120738Y-10341295D01*
X12127547Y-10309260D01*
X12140449Y-10279158D01*
X12158951Y-10252135D01*
X12182351Y-10229221D01*
X12209755Y-10211288D01*
X12240121Y-10199019D01*
X12272291Y-10192883D01*
X12305041Y-10193111D01*
X12305041Y-10193111D01*
G37*
G36*
X9582500Y-10520000D02*
X9497500Y-10520000D01*
X9497500Y-10430000D01*
X9582500Y-10430000D01*
X9582500Y-10520000D01*
X9582500Y-10520000D01*
G37*
G36*
X11901871Y-10256569D02*
X11921753Y-10260650D01*
X11940465Y-10268516D01*
X11957293Y-10279866D01*
X11971595Y-10294268D01*
X11982827Y-10311174D01*
X11990562Y-10329941D01*
X11994501Y-10349834D01*
X11994501Y-10349835D01*
X11994504Y-10349851D01*
X11994181Y-10373035D01*
X11994177Y-10373052D01*
X11994177Y-10373052D01*
X11989684Y-10392828D01*
X11981428Y-10411370D01*
X11969728Y-10427956D01*
X11955029Y-10441954D01*
X11937892Y-10452830D01*
X11918968Y-10460170D01*
X11898979Y-10463694D01*
X11878686Y-10463269D01*
X11858862Y-10458911D01*
X11840262Y-10450785D01*
X11823595Y-10439201D01*
X11809495Y-10424600D01*
X11798500Y-10407538D01*
X11791028Y-10388667D01*
X11787364Y-10368703D01*
X11787647Y-10348407D01*
X11791867Y-10328553D01*
X11799863Y-10309897D01*
X11811331Y-10293150D01*
X11825833Y-10278948D01*
X11842817Y-10267834D01*
X11861636Y-10260230D01*
X11881574Y-10256427D01*
X11901871Y-10256569D01*
X11901871Y-10256569D01*
G37*
G36*
X13659871Y-10256569D02*
X13679753Y-10260650D01*
X13698465Y-10268516D01*
X13715293Y-10279866D01*
X13729595Y-10294268D01*
X13740827Y-10311174D01*
X13748562Y-10329941D01*
X13752501Y-10349834D01*
X13752501Y-10349835D01*
X13752504Y-10349851D01*
X13752181Y-10373035D01*
X13752177Y-10373052D01*
X13752177Y-10373052D01*
X13747684Y-10392828D01*
X13739428Y-10411370D01*
X13727728Y-10427956D01*
X13713029Y-10441954D01*
X13695892Y-10452830D01*
X13676968Y-10460170D01*
X13656979Y-10463694D01*
X13636686Y-10463269D01*
X13616862Y-10458911D01*
X13598262Y-10450785D01*
X13581595Y-10439201D01*
X13567495Y-10424600D01*
X13556500Y-10407538D01*
X13549028Y-10388667D01*
X13545364Y-10368703D01*
X13545647Y-10348407D01*
X13549867Y-10328553D01*
X13557863Y-10309897D01*
X13569331Y-10293150D01*
X13583833Y-10278948D01*
X13600817Y-10267834D01*
X13619636Y-10260230D01*
X13639574Y-10256427D01*
X13659871Y-10256569D01*
X13659871Y-10256569D01*
G37*
G36*
X11460000Y-10462500D02*
X11370000Y-10462500D01*
X11370000Y-10377500D01*
X11460000Y-10377500D01*
X11460000Y-10462500D01*
X11460000Y-10462500D01*
G37*
G36*
X11310000Y-10462500D02*
X11220000Y-10462500D01*
X11220000Y-10377500D01*
X11310000Y-10377500D01*
X11310000Y-10462500D01*
X11310000Y-10462500D01*
G37*
G36*
X10205000Y-10390000D02*
X10145000Y-10390000D01*
X10145000Y-10290000D01*
X10205000Y-10290000D01*
X10205000Y-10390000D01*
X10205000Y-10390000D01*
G37*
G36*
X10055000Y-10390000D02*
X9995000Y-10390000D01*
X9995000Y-10290000D01*
X10055000Y-10290000D01*
X10055000Y-10390000D01*
X10055000Y-10390000D01*
G37*
G36*
X10720000Y-10382500D02*
X10630000Y-10382500D01*
X10630000Y-10297500D01*
X10720000Y-10297500D01*
X10720000Y-10382500D01*
X10720000Y-10382500D01*
G37*
G36*
X10570000Y-10382500D02*
X10480000Y-10382500D01*
X10480000Y-10297500D01*
X10570000Y-10297500D01*
X10570000Y-10382500D01*
X10570000Y-10382500D01*
G37*
G36*
X9582500Y-10370000D02*
X9497500Y-10370000D01*
X9497500Y-10280000D01*
X9582500Y-10280000D01*
X9582500Y-10370000D01*
X9582500Y-10370000D01*
G37*
G36*
X11310000Y-10342500D02*
X11220000Y-10342500D01*
X11220000Y-10257500D01*
X11310000Y-10257500D01*
X11310000Y-10342500D01*
X11310000Y-10342500D01*
G37*
G36*
X11460000Y-10342500D02*
X11370000Y-10342500D01*
X11370000Y-10257500D01*
X11460000Y-10257500D01*
X11460000Y-10342500D01*
X11460000Y-10342500D01*
G37*
G36*
X10720000Y-10242500D02*
X10630000Y-10242500D01*
X10630000Y-10157500D01*
X10720000Y-10157500D01*
X10720000Y-10242500D01*
X10720000Y-10242500D01*
G37*
G36*
X10570000Y-10242500D02*
X10480000Y-10242500D01*
X10480000Y-10157500D01*
X10570000Y-10157500D01*
X10570000Y-10242500D01*
X10570000Y-10242500D01*
G37*
G36*
X10205000Y-10230000D02*
X10145000Y-10230000D01*
X10145000Y-10130000D01*
X10205000Y-10130000D01*
X10205000Y-10230000D01*
X10205000Y-10230000D01*
G37*
G36*
X10055000Y-10230000D02*
X9995000Y-10230000D01*
X9995000Y-10130000D01*
X10055000Y-10130000D01*
X10055000Y-10230000D01*
X10055000Y-10230000D01*
G37*
G36*
X11310000Y-10222500D02*
X11220000Y-10222500D01*
X11220000Y-10137500D01*
X11310000Y-10137500D01*
X11310000Y-10222500D01*
X11310000Y-10222500D01*
G37*
G36*
X11460000Y-10222500D02*
X11370000Y-10222500D01*
X11370000Y-10137500D01*
X11460000Y-10137500D01*
X11460000Y-10222500D01*
X11460000Y-10222500D01*
G37*
G36*
X11310000Y-10102500D02*
X11220000Y-10102500D01*
X11220000Y-10017500D01*
X11310000Y-10017500D01*
X11310000Y-10102500D01*
X11310000Y-10102500D01*
G37*
G36*
X11460000Y-10102500D02*
X11370000Y-10102500D01*
X11370000Y-10017500D01*
X11460000Y-10017500D01*
X11460000Y-10102500D01*
X11460000Y-10102500D01*
G37*
G36*
X10055000Y-10070000D02*
X9995000Y-10070000D01*
X9995000Y-9970000D01*
X10055000Y-9970000D01*
X10055000Y-10070000D01*
X10055000Y-10070000D01*
G37*
G36*
X10205000Y-10070000D02*
X10145000Y-10070000D01*
X10145000Y-9970000D01*
X10205000Y-9970000D01*
X10205000Y-10070000D01*
X10205000Y-10070000D01*
G37*
G36*
X10570000Y-10052500D02*
X10480000Y-10052500D01*
X10480000Y-9967500D01*
X10570000Y-9967500D01*
X10570000Y-10052500D01*
X10570000Y-10052500D01*
G37*
G36*
X10720000Y-10052500D02*
X10630000Y-10052500D01*
X10630000Y-9967500D01*
X10720000Y-9967500D01*
X10720000Y-10052500D01*
X10720000Y-10052500D01*
G37*
G36*
X11052500Y-9990000D02*
X10967500Y-9990000D01*
X10967500Y-9900000D01*
X11052500Y-9900000D01*
X11052500Y-9990000D01*
X11052500Y-9990000D01*
G37*
G36*
X11222500Y-9990000D02*
X11137500Y-9990000D01*
X11137500Y-9900000D01*
X11222500Y-9900000D01*
X11222500Y-9990000D01*
X11222500Y-9990000D01*
G37*
G36*
X10902500Y-9990000D02*
X10817500Y-9990000D01*
X10817500Y-9900000D01*
X10902500Y-9900000D01*
X10902500Y-9990000D01*
X10902500Y-9990000D01*
G37*
G36*
X11342500Y-9990000D02*
X11257500Y-9990000D01*
X11257500Y-9900000D01*
X11342500Y-9900000D01*
X11342500Y-9990000D01*
X11342500Y-9990000D01*
G37*
G36*
X11460000Y-9982500D02*
X11370000Y-9982500D01*
X11370000Y-9897500D01*
X11460000Y-9897500D01*
X11460000Y-9982500D01*
X11460000Y-9982500D01*
G37*
G36*
X11610000Y-9982500D02*
X11520000Y-9982500D01*
X11520000Y-9897500D01*
X11610000Y-9897500D01*
X11610000Y-9982500D01*
X11610000Y-9982500D01*
G37*
G36*
X13310000Y-9902500D02*
X13220000Y-9902500D01*
X13220000Y-9817500D01*
X13310000Y-9817500D01*
X13310000Y-9902500D01*
X13310000Y-9902500D01*
G37*
G36*
X13460000Y-9902500D02*
X13370000Y-9902500D01*
X13370000Y-9817500D01*
X13460000Y-9817500D01*
X13460000Y-9902500D01*
X13460000Y-9902500D01*
G37*
G36*
X12330000Y-9882500D02*
X12240000Y-9882500D01*
X12240000Y-9797500D01*
X12330000Y-9797500D01*
X12330000Y-9882500D01*
X12330000Y-9882500D01*
G37*
G36*
X12480000Y-9882500D02*
X12390000Y-9882500D01*
X12390000Y-9797500D01*
X12480000Y-9797500D01*
X12480000Y-9882500D01*
X12480000Y-9882500D01*
G37*
G36*
X11222500Y-9840000D02*
X11137500Y-9840000D01*
X11137500Y-9750000D01*
X11222500Y-9750000D01*
X11222500Y-9840000D01*
X11222500Y-9840000D01*
G37*
G36*
X10902500Y-9840000D02*
X10817500Y-9840000D01*
X10817500Y-9750000D01*
X10902500Y-9750000D01*
X10902500Y-9840000D01*
X10902500Y-9840000D01*
G37*
G36*
X11052500Y-9840000D02*
X10967500Y-9840000D01*
X10967500Y-9750000D01*
X11052500Y-9750000D01*
X11052500Y-9840000D01*
X11052500Y-9840000D01*
G37*
G36*
X11342500Y-9840000D02*
X11257500Y-9840000D01*
X11257500Y-9750000D01*
X11342500Y-9750000D01*
X11342500Y-9840000D01*
X11342500Y-9840000D01*
G37*
G36*
X13082352Y-9630047D02*
X13095799Y-9632807D01*
X13108455Y-9638127D01*
X13119836Y-9645803D01*
X13129509Y-9655544D01*
X13137105Y-9666978D01*
X13142337Y-9679670D01*
X13145000Y-9693119D01*
X13145003Y-9693136D01*
X13144784Y-9708816D01*
X13144780Y-9708833D01*
X13141743Y-9722203D01*
X13136159Y-9734743D01*
X13128246Y-9745961D01*
X13118305Y-9755428D01*
X13106714Y-9762783D01*
X13093915Y-9767748D01*
X13080397Y-9770132D01*
X13066671Y-9769844D01*
X13053264Y-9766896D01*
X13040685Y-9761400D01*
X13029412Y-9753566D01*
X13019876Y-9743691D01*
X13012439Y-9732152D01*
X13007386Y-9719388D01*
X13004908Y-9705886D01*
X13005100Y-9692159D01*
X13007954Y-9678731D01*
X13013362Y-9666114D01*
X13021117Y-9654787D01*
X13030926Y-9645182D01*
X13042412Y-9637666D01*
X13055141Y-9632523D01*
X13068625Y-9629951D01*
X13082352Y-9630047D01*
X13082352Y-9630047D01*
G37*
G36*
X13285352Y-9630047D02*
X13298799Y-9632807D01*
X13311455Y-9638127D01*
X13322836Y-9645803D01*
X13332509Y-9655544D01*
X13340105Y-9666978D01*
X13345337Y-9679670D01*
X13348000Y-9693119D01*
X13348003Y-9693136D01*
X13347784Y-9708816D01*
X13347780Y-9708833D01*
X13344743Y-9722203D01*
X13339159Y-9734743D01*
X13331246Y-9745961D01*
X13321305Y-9755428D01*
X13309714Y-9762783D01*
X13296915Y-9767748D01*
X13283397Y-9770132D01*
X13269671Y-9769844D01*
X13256264Y-9766896D01*
X13243685Y-9761400D01*
X13232412Y-9753566D01*
X13222876Y-9743691D01*
X13215439Y-9732152D01*
X13210386Y-9719388D01*
X13207908Y-9705886D01*
X13208100Y-9692159D01*
X13210954Y-9678731D01*
X13216362Y-9666114D01*
X13224117Y-9654787D01*
X13233926Y-9645182D01*
X13245412Y-9637666D01*
X13258141Y-9632523D01*
X13271625Y-9629951D01*
X13285352Y-9630047D01*
X13285352Y-9630047D01*
G37*
G36*
X12269352Y-9630047D02*
X12282799Y-9632807D01*
X12295455Y-9638127D01*
X12306836Y-9645803D01*
X12316509Y-9655544D01*
X12324105Y-9666978D01*
X12329337Y-9679670D01*
X12332000Y-9693119D01*
X12332003Y-9693136D01*
X12331784Y-9708816D01*
X12331780Y-9708833D01*
X12328743Y-9722203D01*
X12323159Y-9734743D01*
X12315246Y-9745961D01*
X12305305Y-9755428D01*
X12293714Y-9762783D01*
X12280915Y-9767748D01*
X12267397Y-9770132D01*
X12253671Y-9769844D01*
X12240264Y-9766896D01*
X12227685Y-9761400D01*
X12216412Y-9753566D01*
X12206876Y-9743691D01*
X12199439Y-9732152D01*
X12194386Y-9719388D01*
X12191908Y-9705886D01*
X12192100Y-9692159D01*
X12194954Y-9678731D01*
X12200362Y-9666114D01*
X12208117Y-9654787D01*
X12217926Y-9645182D01*
X12229412Y-9637666D01*
X12242141Y-9632523D01*
X12255625Y-9629951D01*
X12269352Y-9630047D01*
X12269352Y-9630047D01*
G37*
G36*
X12472352Y-9630047D02*
X12485799Y-9632807D01*
X12498455Y-9638127D01*
X12509836Y-9645803D01*
X12519509Y-9655544D01*
X12527105Y-9666978D01*
X12532337Y-9679670D01*
X12535000Y-9693119D01*
X12535003Y-9693136D01*
X12534784Y-9708816D01*
X12534780Y-9708833D01*
X12531743Y-9722203D01*
X12526159Y-9734743D01*
X12518246Y-9745961D01*
X12508305Y-9755428D01*
X12496714Y-9762783D01*
X12483915Y-9767748D01*
X12470397Y-9770132D01*
X12456671Y-9769844D01*
X12443264Y-9766896D01*
X12430685Y-9761400D01*
X12419412Y-9753566D01*
X12409876Y-9743691D01*
X12402439Y-9732152D01*
X12397386Y-9719388D01*
X12394908Y-9705886D01*
X12395100Y-9692159D01*
X12397954Y-9678731D01*
X12403362Y-9666114D01*
X12411117Y-9654787D01*
X12420926Y-9645182D01*
X12432412Y-9637666D01*
X12445141Y-9632523D01*
X12458625Y-9629951D01*
X12472352Y-9630047D01*
X12472352Y-9630047D01*
G37*
G36*
X12879352Y-9630047D02*
X12892799Y-9632807D01*
X12905455Y-9638127D01*
X12916836Y-9645803D01*
X12926509Y-9655544D01*
X12934105Y-9666978D01*
X12939337Y-9679670D01*
X12942000Y-9693119D01*
X12942003Y-9693136D01*
X12941784Y-9708816D01*
X12941780Y-9708833D01*
X12938743Y-9722203D01*
X12933159Y-9734743D01*
X12925246Y-9745961D01*
X12915305Y-9755428D01*
X12903714Y-9762783D01*
X12890915Y-9767748D01*
X12877397Y-9770132D01*
X12863671Y-9769844D01*
X12850264Y-9766896D01*
X12837685Y-9761400D01*
X12826412Y-9753566D01*
X12816876Y-9743691D01*
X12809439Y-9732152D01*
X12804386Y-9719388D01*
X12801908Y-9705886D01*
X12802100Y-9692159D01*
X12804954Y-9678731D01*
X12810362Y-9666114D01*
X12818117Y-9654787D01*
X12827926Y-9645182D01*
X12839412Y-9637666D01*
X12852141Y-9632523D01*
X12865625Y-9629951D01*
X12879352Y-9630047D01*
X12879352Y-9630047D01*
G37*
G36*
X12675352Y-9630047D02*
X12688799Y-9632807D01*
X12701455Y-9638127D01*
X12712836Y-9645803D01*
X12722509Y-9655544D01*
X12730105Y-9666978D01*
X12735337Y-9679670D01*
X12738000Y-9693119D01*
X12738003Y-9693136D01*
X12737784Y-9708816D01*
X12737780Y-9708833D01*
X12734743Y-9722203D01*
X12729159Y-9734743D01*
X12721246Y-9745961D01*
X12711305Y-9755428D01*
X12699714Y-9762783D01*
X12686915Y-9767748D01*
X12673397Y-9770132D01*
X12659671Y-9769844D01*
X12646264Y-9766896D01*
X12633685Y-9761400D01*
X12622412Y-9753566D01*
X12612876Y-9743691D01*
X12605439Y-9732152D01*
X12600386Y-9719388D01*
X12597908Y-9705886D01*
X12598100Y-9692159D01*
X12600954Y-9678731D01*
X12606362Y-9666114D01*
X12614117Y-9654787D01*
X12623926Y-9645182D01*
X12635412Y-9637666D01*
X12648141Y-9632523D01*
X12661625Y-9629951D01*
X12675352Y-9630047D01*
X12675352Y-9630047D01*
G37*
G36*
X13562500Y-9740000D02*
X13477500Y-9740000D01*
X13477500Y-9650000D01*
X13562500Y-9650000D01*
X13562500Y-9740000D01*
X13562500Y-9740000D01*
G37*
G36*
X13562500Y-9590000D02*
X13477500Y-9590000D01*
X13477500Y-9500000D01*
X13562500Y-9500000D01*
X13562500Y-9590000D01*
X13562500Y-9590000D01*
G37*
G36*
X13387352Y-9376047D02*
X13400799Y-9378807D01*
X13413455Y-9384127D01*
X13424836Y-9391803D01*
X13434509Y-9401544D01*
X13442105Y-9412978D01*
X13447337Y-9425670D01*
X13450000Y-9439119D01*
X13450003Y-9439136D01*
X13449784Y-9454816D01*
X13449780Y-9454833D01*
X13446743Y-9468203D01*
X13441159Y-9480743D01*
X13433246Y-9491961D01*
X13423305Y-9501428D01*
X13411714Y-9508783D01*
X13398915Y-9513748D01*
X13385397Y-9516132D01*
X13371671Y-9515844D01*
X13358264Y-9512896D01*
X13345685Y-9507400D01*
X13334412Y-9499566D01*
X13324876Y-9489691D01*
X13317439Y-9478152D01*
X13312386Y-9465388D01*
X13309908Y-9451886D01*
X13310100Y-9438159D01*
X13312954Y-9424731D01*
X13318362Y-9412114D01*
X13326117Y-9400787D01*
X13335926Y-9391182D01*
X13347412Y-9383666D01*
X13360141Y-9378523D01*
X13373625Y-9375951D01*
X13387352Y-9376047D01*
X13387352Y-9376047D01*
G37*
G36*
X12167352Y-9376047D02*
X12180799Y-9378807D01*
X12193455Y-9384127D01*
X12204836Y-9391803D01*
X12214509Y-9401544D01*
X12222105Y-9412978D01*
X12227337Y-9425670D01*
X12230000Y-9439119D01*
X12230003Y-9439136D01*
X12229784Y-9454816D01*
X12229780Y-9454833D01*
X12226743Y-9468203D01*
X12221159Y-9480743D01*
X12213246Y-9491961D01*
X12203305Y-9501428D01*
X12191714Y-9508783D01*
X12178915Y-9513748D01*
X12165397Y-9516132D01*
X12151671Y-9515844D01*
X12138264Y-9512896D01*
X12125685Y-9507400D01*
X12114412Y-9499566D01*
X12104876Y-9489691D01*
X12097439Y-9478152D01*
X12092386Y-9465388D01*
X12089908Y-9451886D01*
X12090100Y-9438159D01*
X12092954Y-9424731D01*
X12098362Y-9412114D01*
X12106117Y-9400787D01*
X12115926Y-9391182D01*
X12127412Y-9383666D01*
X12140141Y-9378523D01*
X12153625Y-9375951D01*
X12167352Y-9376047D01*
X12167352Y-9376047D01*
G37*
G36*
X12370352Y-9376047D02*
X12383799Y-9378807D01*
X12396455Y-9384127D01*
X12407836Y-9391803D01*
X12417509Y-9401544D01*
X12425105Y-9412978D01*
X12430337Y-9425670D01*
X12433000Y-9439119D01*
X12433003Y-9439136D01*
X12432784Y-9454816D01*
X12432780Y-9454833D01*
X12429743Y-9468203D01*
X12424159Y-9480743D01*
X12416246Y-9491961D01*
X12406305Y-9501428D01*
X12394714Y-9508783D01*
X12381915Y-9513748D01*
X12368397Y-9516132D01*
X12354671Y-9515844D01*
X12341264Y-9512896D01*
X12328685Y-9507400D01*
X12317412Y-9499566D01*
X12307876Y-9489691D01*
X12300439Y-9478152D01*
X12295386Y-9465388D01*
X12292908Y-9451886D01*
X12293100Y-9438159D01*
X12295954Y-9424731D01*
X12301362Y-9412114D01*
X12309117Y-9400787D01*
X12318926Y-9391182D01*
X12330412Y-9383666D01*
X12343141Y-9378523D01*
X12356625Y-9375951D01*
X12370352Y-9376047D01*
X12370352Y-9376047D01*
G37*
G36*
X12573352Y-9376047D02*
X12586799Y-9378807D01*
X12599455Y-9384127D01*
X12610836Y-9391803D01*
X12620509Y-9401544D01*
X12628105Y-9412978D01*
X12633337Y-9425670D01*
X12636000Y-9439119D01*
X12636003Y-9439136D01*
X12635784Y-9454816D01*
X12635780Y-9454833D01*
X12632743Y-9468203D01*
X12627159Y-9480743D01*
X12619246Y-9491961D01*
X12609305Y-9501428D01*
X12597714Y-9508783D01*
X12584915Y-9513748D01*
X12571397Y-9516132D01*
X12557671Y-9515844D01*
X12544264Y-9512896D01*
X12531685Y-9507400D01*
X12520412Y-9499566D01*
X12510876Y-9489691D01*
X12503439Y-9478152D01*
X12498386Y-9465388D01*
X12495908Y-9451886D01*
X12496100Y-9438159D01*
X12498954Y-9424731D01*
X12504362Y-9412114D01*
X12512117Y-9400787D01*
X12521926Y-9391182D01*
X12533412Y-9383666D01*
X12546141Y-9378523D01*
X12559625Y-9375951D01*
X12573352Y-9376047D01*
X12573352Y-9376047D01*
G37*
G36*
X12981352Y-9376047D02*
X12994799Y-9378807D01*
X13007455Y-9384127D01*
X13018836Y-9391803D01*
X13028509Y-9401544D01*
X13036105Y-9412978D01*
X13041337Y-9425670D01*
X13044000Y-9439119D01*
X13044003Y-9439136D01*
X13043784Y-9454816D01*
X13043780Y-9454833D01*
X13040743Y-9468203D01*
X13035159Y-9480743D01*
X13027246Y-9491961D01*
X13017305Y-9501428D01*
X13005714Y-9508783D01*
X12992915Y-9513748D01*
X12979397Y-9516132D01*
X12965671Y-9515844D01*
X12952264Y-9512896D01*
X12939685Y-9507400D01*
X12928412Y-9499566D01*
X12918876Y-9489691D01*
X12911439Y-9478152D01*
X12906386Y-9465388D01*
X12903908Y-9451886D01*
X12904100Y-9438159D01*
X12906954Y-9424731D01*
X12912362Y-9412114D01*
X12920117Y-9400787D01*
X12929926Y-9391182D01*
X12941412Y-9383666D01*
X12954141Y-9378523D01*
X12967625Y-9375951D01*
X12981352Y-9376047D01*
X12981352Y-9376047D01*
G37*
G36*
X13184352Y-9376047D02*
X13197799Y-9378807D01*
X13210455Y-9384127D01*
X13221836Y-9391803D01*
X13231509Y-9401544D01*
X13239105Y-9412978D01*
X13244337Y-9425670D01*
X13247000Y-9439119D01*
X13247003Y-9439136D01*
X13246784Y-9454816D01*
X13246780Y-9454833D01*
X13243743Y-9468203D01*
X13238159Y-9480743D01*
X13230246Y-9491961D01*
X13220305Y-9501428D01*
X13208714Y-9508783D01*
X13195915Y-9513748D01*
X13182397Y-9516132D01*
X13168671Y-9515844D01*
X13155264Y-9512896D01*
X13142685Y-9507400D01*
X13131412Y-9499566D01*
X13121876Y-9489691D01*
X13114439Y-9478152D01*
X13109386Y-9465388D01*
X13106908Y-9451886D01*
X13107100Y-9438159D01*
X13109954Y-9424731D01*
X13115362Y-9412114D01*
X13123117Y-9400787D01*
X13132926Y-9391182D01*
X13144412Y-9383666D01*
X13157141Y-9378523D01*
X13170625Y-9375951D01*
X13184352Y-9376047D01*
X13184352Y-9376047D01*
G37*
G36*
X12420000Y-9342500D02*
X12330000Y-9342500D01*
X12330000Y-9257500D01*
X12420000Y-9257500D01*
X12420000Y-9342500D01*
X12420000Y-9342500D01*
G37*
G36*
X12270000Y-9342500D02*
X12180000Y-9342500D01*
X12180000Y-9257500D01*
X12270000Y-9257500D01*
X12270000Y-9342500D01*
X12270000Y-9342500D01*
G37*
G36*
X10552500Y-9260000D02*
X10467500Y-9260000D01*
X10467500Y-9170000D01*
X10552500Y-9170000D01*
X10552500Y-9260000D01*
X10552500Y-9260000D01*
G37*
G36*
X11192500Y-9260000D02*
X11107500Y-9260000D01*
X11107500Y-9170000D01*
X11192500Y-9170000D01*
X11192500Y-9260000D01*
X11192500Y-9260000D01*
G37*
G36*
X10422500Y-9260000D02*
X10337500Y-9260000D01*
X10337500Y-9170000D01*
X10422500Y-9170000D01*
X10422500Y-9260000D01*
X10422500Y-9260000D01*
G37*
G36*
X10137500Y-9260000D02*
X10052500Y-9260000D01*
X10052500Y-9170000D01*
X10137500Y-9170000D01*
X10137500Y-9260000D01*
X10137500Y-9260000D01*
G37*
G36*
X10267500Y-9260000D02*
X10182500Y-9260000D01*
X10182500Y-9170000D01*
X10267500Y-9170000D01*
X10267500Y-9260000D01*
X10267500Y-9260000D01*
G37*
G36*
X10717500Y-9260000D02*
X10632500Y-9260000D01*
X10632500Y-9170000D01*
X10717500Y-9170000D01*
X10717500Y-9260000D01*
X10717500Y-9260000D01*
G37*
G36*
X11892500Y-9260000D02*
X11807500Y-9260000D01*
X11807500Y-9170000D01*
X11892500Y-9170000D01*
X11892500Y-9260000D01*
X11892500Y-9260000D01*
G37*
G36*
X11445000Y-9220000D02*
X11385000Y-9220000D01*
X11385000Y-9120000D01*
X11445000Y-9120000D01*
X11445000Y-9220000D01*
X11445000Y-9220000D01*
G37*
G36*
X11295000Y-9220000D02*
X11235000Y-9220000D01*
X11235000Y-9120000D01*
X11295000Y-9120000D01*
X11295000Y-9220000D01*
X11295000Y-9220000D01*
G37*
G36*
X12352500Y-9140000D02*
X12267500Y-9140000D01*
X12267500Y-9050000D01*
X12352500Y-9050000D01*
X12352500Y-9140000D01*
X12352500Y-9140000D01*
G37*
G36*
X10137500Y-9110000D02*
X10052500Y-9110000D01*
X10052500Y-9020000D01*
X10137500Y-9020000D01*
X10137500Y-9110000D01*
X10137500Y-9110000D01*
G37*
G36*
X10267500Y-9110000D02*
X10182500Y-9110000D01*
X10182500Y-9020000D01*
X10267500Y-9020000D01*
X10267500Y-9110000D01*
X10267500Y-9110000D01*
G37*
G36*
X11892500Y-9110000D02*
X11807500Y-9110000D01*
X11807500Y-9020000D01*
X11892500Y-9020000D01*
X11892500Y-9110000D01*
X11892500Y-9110000D01*
G37*
G36*
X10552500Y-9110000D02*
X10467500Y-9110000D01*
X10467500Y-9020000D01*
X10552500Y-9020000D01*
X10552500Y-9110000D01*
X10552500Y-9110000D01*
G37*
G36*
X10717500Y-9110000D02*
X10632500Y-9110000D01*
X10632500Y-9020000D01*
X10717500Y-9020000D01*
X10717500Y-9110000D01*
X10717500Y-9110000D01*
G37*
G36*
X10422500Y-9110000D02*
X10337500Y-9110000D01*
X10337500Y-9020000D01*
X10422500Y-9020000D01*
X10422500Y-9110000D01*
X10422500Y-9110000D01*
G37*
G36*
X11192500Y-9110000D02*
X11107500Y-9110000D01*
X11107500Y-9020000D01*
X11192500Y-9020000D01*
X11192500Y-9110000D01*
X11192500Y-9110000D01*
G37*
G36*
X11295000Y-9070000D02*
X11235000Y-9070000D01*
X11235000Y-8970000D01*
X11295000Y-8970000D01*
X11295000Y-9070000D01*
X11295000Y-9070000D01*
G37*
G36*
X11445000Y-9070000D02*
X11385000Y-9070000D01*
X11385000Y-8970000D01*
X11445000Y-8970000D01*
X11445000Y-9070000D01*
X11445000Y-9070000D01*
G37*
G36*
X12352500Y-8990000D02*
X12267500Y-8990000D01*
X12267500Y-8900000D01*
X12352500Y-8900000D01*
X12352500Y-8990000D01*
X12352500Y-8990000D01*
G37*
G36*
X11600000Y-8932500D02*
X11510000Y-8932500D01*
X11510000Y-8847500D01*
X11600000Y-8847500D01*
X11600000Y-8932500D01*
X11600000Y-8932500D01*
G37*
G36*
X11750000Y-8932500D02*
X11660000Y-8932500D01*
X11660000Y-8847500D01*
X11750000Y-8847500D01*
X11750000Y-8932500D01*
X11750000Y-8932500D01*
G37*
G36*
X11295000Y-8850000D02*
X11235000Y-8850000D01*
X11235000Y-8750000D01*
X11295000Y-8750000D01*
X11295000Y-8850000D01*
X11295000Y-8850000D01*
G37*
G36*
X11445000Y-8850000D02*
X11385000Y-8850000D01*
X11385000Y-8750000D01*
X11445000Y-8750000D01*
X11445000Y-8850000D01*
X11445000Y-8850000D01*
G37*
G36*
X8455000Y-8850000D02*
X8395000Y-8850000D01*
X8395000Y-8750000D01*
X8455000Y-8750000D01*
X8455000Y-8850000D01*
X8455000Y-8850000D01*
G37*
G36*
X8305000Y-8850000D02*
X8245000Y-8850000D01*
X8245000Y-8750000D01*
X8305000Y-8750000D01*
X8305000Y-8850000D01*
X8305000Y-8850000D01*
G37*
G36*
X10217500Y-8785000D02*
X10132500Y-8785000D01*
X10132500Y-8695000D01*
X10217500Y-8695000D01*
X10217500Y-8785000D01*
X10217500Y-8785000D01*
G37*
G36*
X8250000Y-8655000D02*
X8150000Y-8655000D01*
X8150000Y-8595000D01*
X8250000Y-8595000D01*
X8250000Y-8655000D01*
X8250000Y-8655000D01*
G37*
G36*
X10217500Y-8635000D02*
X10132500Y-8635000D01*
X10132500Y-8545000D01*
X10217500Y-8545000D01*
X10217500Y-8635000D01*
X10217500Y-8635000D01*
G37*
G36*
X12040000Y-8632500D02*
X11950000Y-8632500D01*
X11950000Y-8547500D01*
X12040000Y-8547500D01*
X12040000Y-8632500D01*
X12040000Y-8632500D01*
G37*
G36*
X12190000Y-8632500D02*
X12100000Y-8632500D01*
X12100000Y-8547500D01*
X12190000Y-8547500D01*
X12190000Y-8632500D01*
X12190000Y-8632500D01*
G37*
G36*
X13180000Y-8630000D02*
X13120000Y-8630000D01*
X13120000Y-8530000D01*
X13180000Y-8530000D01*
X13180000Y-8630000D01*
X13180000Y-8630000D01*
G37*
G36*
X13030000Y-8630000D02*
X12970000Y-8630000D01*
X12970000Y-8530000D01*
X13030000Y-8530000D01*
X13030000Y-8630000D01*
X13030000Y-8630000D01*
G37*
G36*
X9900000Y-8537500D02*
X9810000Y-8537500D01*
X9810000Y-8452500D01*
X9900000Y-8452500D01*
X9900000Y-8537500D01*
X9900000Y-8537500D01*
G37*
G36*
X10050000Y-8537500D02*
X9960000Y-8537500D01*
X9960000Y-8452500D01*
X10050000Y-8452500D01*
X10050000Y-8537500D01*
X10050000Y-8537500D01*
G37*
G36*
X8250000Y-8505000D02*
X8150000Y-8505000D01*
X8150000Y-8445000D01*
X8250000Y-8445000D01*
X8250000Y-8505000D01*
X8250000Y-8505000D01*
G37*
G36*
X9090000Y-8490000D02*
X8910000Y-8490000D01*
X8910000Y-8310000D01*
X9090000Y-8310000D01*
X9090000Y-8490000D01*
X9090000Y-8490000D01*
G37*
G36*
X12966616Y-8305648D02*
X12966617Y-8305648D01*
X12966718Y-8305649D01*
X12984437Y-8307636D01*
X13001433Y-8313028D01*
X13017057Y-8321618D01*
X13030716Y-8333079D01*
X13041889Y-8346975D01*
X13050150Y-8362776D01*
X13055184Y-8379881D01*
X13056800Y-8397638D01*
X13054936Y-8415371D01*
X13049663Y-8432403D01*
X13041183Y-8448088D01*
X13029817Y-8461826D01*
X13016000Y-8473096D01*
X13000257Y-8481467D01*
X12983187Y-8486620D01*
X12965442Y-8488360D01*
X12964549Y-8488360D01*
X12963384Y-8488352D01*
X12963383Y-8488352D01*
X12963282Y-8488351D01*
X12945563Y-8486364D01*
X12928567Y-8480972D01*
X12912942Y-8472382D01*
X12899284Y-8460921D01*
X12888111Y-8447025D01*
X12879850Y-8431224D01*
X12874816Y-8414119D01*
X12873200Y-8396362D01*
X12875064Y-8378629D01*
X12880336Y-8361597D01*
X12888817Y-8345912D01*
X12900182Y-8332174D01*
X12914000Y-8320904D01*
X12929743Y-8312533D01*
X12946813Y-8307380D01*
X12964558Y-8305640D01*
X12965451Y-8305640D01*
X12966616Y-8305648D01*
X12966616Y-8305648D01*
G37*
G36*
X13310360Y-8488360D02*
X13127640Y-8488360D01*
X13127640Y-8305640D01*
X13310360Y-8305640D01*
X13310360Y-8488360D01*
X13310360Y-8488360D01*
G37*
G36*
X14198094Y-8281402D02*
X14198095Y-8281402D01*
X14198097Y-8281403D01*
X14214876Y-8286597D01*
X14230327Y-8294951D01*
X14243861Y-8306147D01*
X14254963Y-8319759D01*
X14263209Y-8335268D01*
X14268286Y-8352083D01*
X14270000Y-8369564D01*
X14270000Y-8370448D01*
X14269992Y-8371590D01*
X14269992Y-8371591D01*
X14269991Y-8371692D01*
X14268033Y-8389148D01*
X14262722Y-8405890D01*
X14254260Y-8421283D01*
X14242970Y-8434738D01*
X14229281Y-8445744D01*
X14213715Y-8453882D01*
X14196864Y-8458841D01*
X14196862Y-8458842D01*
X14196862Y-8458842D01*
X14179372Y-8460433D01*
X14161905Y-8458598D01*
X14161905Y-8458598D01*
X14161903Y-8458597D01*
X14145124Y-8453403D01*
X14129673Y-8445049D01*
X14116139Y-8433853D01*
X14105037Y-8420241D01*
X14096791Y-8404732D01*
X14091714Y-8387917D01*
X14090000Y-8370435D01*
X14090000Y-8369552D01*
X14090008Y-8368410D01*
X14090008Y-8368409D01*
X14090009Y-8368308D01*
X14091967Y-8350852D01*
X14097278Y-8334110D01*
X14105740Y-8318717D01*
X14117030Y-8305262D01*
X14130719Y-8294256D01*
X14146285Y-8286118D01*
X14163136Y-8281159D01*
X14163138Y-8281158D01*
X14163138Y-8281158D01*
X14180628Y-8279567D01*
X14198094Y-8281402D01*
X14198094Y-8281402D01*
G37*
G36*
X14016000Y-8460000D02*
X13836000Y-8460000D01*
X13836000Y-8280000D01*
X14016000Y-8280000D01*
X14016000Y-8460000D01*
X14016000Y-8460000D01*
G37*
G36*
X10050000Y-8412500D02*
X9960000Y-8412500D01*
X9960000Y-8327500D01*
X10050000Y-8327500D01*
X10050000Y-8412500D01*
X10050000Y-8412500D01*
G37*
G36*
X9900000Y-8412500D02*
X9810000Y-8412500D01*
X9810000Y-8327500D01*
X9900000Y-8327500D01*
X9900000Y-8412500D01*
X9900000Y-8412500D01*
G37*
G36*
X12190000Y-8332500D02*
X12100000Y-8332500D01*
X12100000Y-8247500D01*
X12190000Y-8247500D01*
X12190000Y-8332500D01*
X12190000Y-8332500D01*
G37*
G36*
X12040000Y-8332500D02*
X11950000Y-8332500D01*
X11950000Y-8247500D01*
X12040000Y-8247500D01*
X12040000Y-8332500D01*
X12040000Y-8332500D01*
G37*
G36*
X12966616Y-8051648D02*
X12966617Y-8051648D01*
X12966718Y-8051649D01*
X12984437Y-8053636D01*
X13001433Y-8059028D01*
X13017057Y-8067618D01*
X13030716Y-8079079D01*
X13041889Y-8092975D01*
X13050150Y-8108776D01*
X13055184Y-8125881D01*
X13056800Y-8143638D01*
X13054936Y-8161370D01*
X13049663Y-8178403D01*
X13041183Y-8194088D01*
X13029817Y-8207826D01*
X13016000Y-8219096D01*
X13000257Y-8227466D01*
X12983187Y-8232620D01*
X12965442Y-8234360D01*
X12964549Y-8234360D01*
X12963384Y-8234352D01*
X12963383Y-8234352D01*
X12963282Y-8234351D01*
X12945563Y-8232364D01*
X12928567Y-8226972D01*
X12912942Y-8218382D01*
X12899284Y-8206921D01*
X12888111Y-8193025D01*
X12879850Y-8177224D01*
X12874816Y-8160119D01*
X12873200Y-8142362D01*
X12875064Y-8124629D01*
X12880336Y-8107597D01*
X12888817Y-8091912D01*
X12900182Y-8078174D01*
X12914000Y-8066904D01*
X12929743Y-8058533D01*
X12946813Y-8053380D01*
X12964558Y-8051640D01*
X12965451Y-8051640D01*
X12966616Y-8051648D01*
X12966616Y-8051648D01*
G37*
G36*
X13220616Y-8051648D02*
X13220617Y-8051648D01*
X13220718Y-8051649D01*
X13238437Y-8053636D01*
X13255433Y-8059028D01*
X13271057Y-8067618D01*
X13284716Y-8079079D01*
X13295889Y-8092975D01*
X13304150Y-8108776D01*
X13309184Y-8125881D01*
X13310800Y-8143638D01*
X13308936Y-8161370D01*
X13303663Y-8178403D01*
X13295183Y-8194088D01*
X13283817Y-8207826D01*
X13270000Y-8219096D01*
X13254257Y-8227466D01*
X13237187Y-8232620D01*
X13219442Y-8234360D01*
X13218549Y-8234360D01*
X13217384Y-8234352D01*
X13217383Y-8234352D01*
X13217282Y-8234351D01*
X13199563Y-8232364D01*
X13182567Y-8226972D01*
X13166942Y-8218382D01*
X13153284Y-8206921D01*
X13142111Y-8193025D01*
X13133850Y-8177224D01*
X13128816Y-8160119D01*
X13127200Y-8142362D01*
X13129064Y-8124629D01*
X13134336Y-8107597D01*
X13142817Y-8091912D01*
X13154182Y-8078174D01*
X13168000Y-8066904D01*
X13183743Y-8058533D01*
X13200813Y-8053380D01*
X13218558Y-8051640D01*
X13219451Y-8051640D01*
X13220616Y-8051648D01*
X13220616Y-8051648D01*
G37*
G36*
X12040000Y-8212500D02*
X11950000Y-8212500D01*
X11950000Y-8127500D01*
X12040000Y-8127500D01*
X12040000Y-8212500D01*
X12040000Y-8212500D01*
G37*
G36*
X12190000Y-8212500D02*
X12100000Y-8212500D01*
X12100000Y-8127500D01*
X12190000Y-8127500D01*
X12190000Y-8212500D01*
X12190000Y-8212500D01*
G37*
G36*
X9900000Y-8167500D02*
X9810000Y-8167500D01*
X9810000Y-8082500D01*
X9900000Y-8082500D01*
X9900000Y-8167500D01*
X9900000Y-8167500D01*
G37*
G36*
X10050000Y-8167500D02*
X9960000Y-8167500D01*
X9960000Y-8082500D01*
X10050000Y-8082500D01*
X10050000Y-8167500D01*
X10050000Y-8167500D01*
G37*
G36*
X8455000Y-8150000D02*
X8395000Y-8150000D01*
X8395000Y-8050000D01*
X8455000Y-8050000D01*
X8455000Y-8150000D01*
X8455000Y-8150000D01*
G37*
G36*
X8305000Y-8150000D02*
X8245000Y-8150000D01*
X8245000Y-8050000D01*
X8305000Y-8050000D01*
X8305000Y-8150000D01*
X8305000Y-8150000D01*
G37*
G36*
X12840000Y-8125000D02*
X12740000Y-8125000D01*
X12740000Y-8065000D01*
X12840000Y-8065000D01*
X12840000Y-8125000D01*
X12840000Y-8125000D01*
G37*
G36*
X12966616Y-7797648D02*
X12966617Y-7797648D01*
X12966718Y-7797649D01*
X12984437Y-7799636D01*
X13001433Y-7805028D01*
X13017057Y-7813618D01*
X13030716Y-7825079D01*
X13041889Y-7838975D01*
X13050150Y-7854776D01*
X13055184Y-7871881D01*
X13056800Y-7889638D01*
X13054936Y-7907370D01*
X13049663Y-7924403D01*
X13041183Y-7940088D01*
X13029817Y-7953826D01*
X13016000Y-7965096D01*
X13000257Y-7973466D01*
X12983187Y-7978620D01*
X12965442Y-7980360D01*
X12964549Y-7980360D01*
X12963384Y-7980352D01*
X12963383Y-7980352D01*
X12963282Y-7980351D01*
X12945563Y-7978364D01*
X12928567Y-7972972D01*
X12912942Y-7964382D01*
X12899284Y-7952921D01*
X12888111Y-7939025D01*
X12879850Y-7923224D01*
X12874816Y-7906119D01*
X12873200Y-7888362D01*
X12875064Y-7870629D01*
X12880336Y-7853597D01*
X12888817Y-7837912D01*
X12900182Y-7824174D01*
X12914000Y-7812904D01*
X12929743Y-7804533D01*
X12946813Y-7799380D01*
X12964558Y-7797640D01*
X12965451Y-7797640D01*
X12966616Y-7797648D01*
X12966616Y-7797648D01*
G37*
G36*
X13220616Y-7797648D02*
X13220617Y-7797648D01*
X13220718Y-7797649D01*
X13238437Y-7799636D01*
X13255433Y-7805028D01*
X13271057Y-7813618D01*
X13284716Y-7825079D01*
X13295889Y-7838975D01*
X13304150Y-7854776D01*
X13309184Y-7871881D01*
X13310800Y-7889638D01*
X13308936Y-7907370D01*
X13303663Y-7924403D01*
X13295183Y-7940088D01*
X13283817Y-7953826D01*
X13270000Y-7965096D01*
X13254257Y-7973466D01*
X13237187Y-7978620D01*
X13219442Y-7980360D01*
X13218549Y-7980360D01*
X13217384Y-7980352D01*
X13217383Y-7980352D01*
X13217282Y-7980351D01*
X13199563Y-7978364D01*
X13182567Y-7972972D01*
X13166942Y-7964382D01*
X13153284Y-7952921D01*
X13142111Y-7939025D01*
X13133850Y-7923224D01*
X13128816Y-7906119D01*
X13127200Y-7888362D01*
X13129064Y-7870629D01*
X13134336Y-7853597D01*
X13142817Y-7837912D01*
X13154182Y-7824174D01*
X13168000Y-7812904D01*
X13183743Y-7804533D01*
X13200813Y-7799380D01*
X13218558Y-7797640D01*
X13219451Y-7797640D01*
X13220616Y-7797648D01*
X13220616Y-7797648D01*
G37*
G36*
X12840000Y-7975000D02*
X12740000Y-7975000D01*
X12740000Y-7915000D01*
X12840000Y-7915000D01*
X12840000Y-7975000D01*
X12840000Y-7975000D01*
G37*
G36*
X8250000Y-7955000D02*
X8150000Y-7955000D01*
X8150000Y-7895000D01*
X8250000Y-7895000D01*
X8250000Y-7955000D01*
X8250000Y-7955000D01*
G37*
G36*
X12035000Y-7892500D02*
X11945000Y-7892500D01*
X11945000Y-7807500D01*
X12035000Y-7807500D01*
X12035000Y-7892500D01*
X12035000Y-7892500D01*
G37*
G36*
X12185000Y-7892500D02*
X12095000Y-7892500D01*
X12095000Y-7807500D01*
X12185000Y-7807500D01*
X12185000Y-7892500D01*
X12185000Y-7892500D01*
G37*
G36*
X14110000Y-7805000D02*
X14010000Y-7805000D01*
X14010000Y-7745000D01*
X14110000Y-7745000D01*
X14110000Y-7805000D01*
X14110000Y-7805000D01*
G37*
G36*
X8250000Y-7805000D02*
X8150000Y-7805000D01*
X8150000Y-7745000D01*
X8250000Y-7745000D01*
X8250000Y-7805000D01*
X8250000Y-7805000D01*
G37*
G36*
X13790000Y-7805000D02*
X13690000Y-7805000D01*
X13690000Y-7745000D01*
X13790000Y-7745000D01*
X13790000Y-7805000D01*
X13790000Y-7805000D01*
G37*
G36*
X13950000Y-7805000D02*
X13850000Y-7805000D01*
X13850000Y-7745000D01*
X13950000Y-7745000D01*
X13950000Y-7805000D01*
X13950000Y-7805000D01*
G37*
G36*
X9090000Y-7790000D02*
X8910000Y-7790000D01*
X8910000Y-7610000D01*
X9090000Y-7610000D01*
X9090000Y-7790000D01*
X9090000Y-7790000D01*
G37*
G36*
X10050000Y-7762500D02*
X9960000Y-7762500D01*
X9960000Y-7677500D01*
X10050000Y-7677500D01*
X10050000Y-7762500D01*
X10050000Y-7762500D01*
G37*
G36*
X9900000Y-7762500D02*
X9810000Y-7762500D01*
X9810000Y-7677500D01*
X9900000Y-7677500D01*
X9900000Y-7762500D01*
X9900000Y-7762500D01*
G37*
G36*
X13220616Y-7543648D02*
X13220617Y-7543648D01*
X13220718Y-7543649D01*
X13238437Y-7545636D01*
X13255433Y-7551028D01*
X13271057Y-7559618D01*
X13284716Y-7571079D01*
X13295889Y-7584975D01*
X13304150Y-7600776D01*
X13309184Y-7617881D01*
X13310800Y-7635638D01*
X13308936Y-7653370D01*
X13303663Y-7670403D01*
X13295183Y-7686088D01*
X13283817Y-7699826D01*
X13270000Y-7711096D01*
X13254257Y-7719466D01*
X13237187Y-7724620D01*
X13219442Y-7726360D01*
X13218549Y-7726360D01*
X13217384Y-7726352D01*
X13217383Y-7726352D01*
X13217282Y-7726351D01*
X13199563Y-7724364D01*
X13182567Y-7718972D01*
X13166942Y-7710382D01*
X13153284Y-7698921D01*
X13142111Y-7685025D01*
X13133850Y-7669224D01*
X13128816Y-7652119D01*
X13127200Y-7634362D01*
X13129064Y-7616629D01*
X13134336Y-7599597D01*
X13142817Y-7583912D01*
X13154182Y-7570174D01*
X13168000Y-7558904D01*
X13183743Y-7550533D01*
X13200813Y-7545380D01*
X13218558Y-7543640D01*
X13219451Y-7543640D01*
X13220616Y-7543648D01*
X13220616Y-7543648D01*
G37*
G36*
X12966616Y-7543648D02*
X12966617Y-7543648D01*
X12966718Y-7543649D01*
X12984437Y-7545636D01*
X13001433Y-7551028D01*
X13017057Y-7559618D01*
X13030716Y-7571079D01*
X13041889Y-7584975D01*
X13050150Y-7600776D01*
X13055184Y-7617881D01*
X13056800Y-7635638D01*
X13054936Y-7653370D01*
X13049663Y-7670403D01*
X13041183Y-7686088D01*
X13029817Y-7699826D01*
X13016000Y-7711096D01*
X13000257Y-7719466D01*
X12983187Y-7724620D01*
X12965442Y-7726360D01*
X12964549Y-7726360D01*
X12963384Y-7726352D01*
X12963383Y-7726352D01*
X12963282Y-7726351D01*
X12945563Y-7724364D01*
X12928567Y-7718972D01*
X12912942Y-7710382D01*
X12899284Y-7698921D01*
X12888111Y-7685025D01*
X12879850Y-7669224D01*
X12874816Y-7652119D01*
X12873200Y-7634362D01*
X12875064Y-7616629D01*
X12880336Y-7599597D01*
X12888817Y-7583912D01*
X12900182Y-7570174D01*
X12914000Y-7558904D01*
X12929743Y-7550533D01*
X12946813Y-7545380D01*
X12964558Y-7543640D01*
X12965451Y-7543640D01*
X12966616Y-7543648D01*
X12966616Y-7543648D01*
G37*
G36*
X13552500Y-7725000D02*
X13467500Y-7725000D01*
X13467500Y-7635000D01*
X13552500Y-7635000D01*
X13552500Y-7725000D01*
X13552500Y-7725000D01*
G37*
G36*
X12180000Y-7712500D02*
X12090000Y-7712500D01*
X12090000Y-7627500D01*
X12180000Y-7627500D01*
X12180000Y-7712500D01*
X12180000Y-7712500D01*
G37*
G36*
X12030000Y-7712500D02*
X11940000Y-7712500D01*
X11940000Y-7627500D01*
X12030000Y-7627500D01*
X12030000Y-7712500D01*
X12030000Y-7712500D01*
G37*
G36*
X13950000Y-7655000D02*
X13850000Y-7655000D01*
X13850000Y-7595000D01*
X13950000Y-7595000D01*
X13950000Y-7655000D01*
X13950000Y-7655000D01*
G37*
G36*
X14110000Y-7655000D02*
X14010000Y-7655000D01*
X14010000Y-7595000D01*
X14110000Y-7595000D01*
X14110000Y-7655000D01*
X14110000Y-7655000D01*
G37*
G36*
X13790000Y-7655000D02*
X13690000Y-7655000D01*
X13690000Y-7595000D01*
X13790000Y-7595000D01*
X13790000Y-7655000D01*
X13790000Y-7655000D01*
G37*
G36*
X9900000Y-7622500D02*
X9810000Y-7622500D01*
X9810000Y-7537500D01*
X9900000Y-7537500D01*
X9900000Y-7622500D01*
X9900000Y-7622500D01*
G37*
G36*
X10050000Y-7622500D02*
X9960000Y-7622500D01*
X9960000Y-7537500D01*
X10050000Y-7537500D01*
X10050000Y-7622500D01*
X10050000Y-7622500D01*
G37*
G36*
X13552500Y-7575000D02*
X13467500Y-7575000D01*
X13467500Y-7485000D01*
X13552500Y-7485000D01*
X13552500Y-7575000D01*
X13552500Y-7575000D01*
G37*
G36*
X12030000Y-7522500D02*
X11940000Y-7522500D01*
X11940000Y-7437500D01*
X12030000Y-7437500D01*
X12030000Y-7522500D01*
X12030000Y-7522500D01*
G37*
G36*
X12180000Y-7522500D02*
X12090000Y-7522500D01*
X12090000Y-7437500D01*
X12180000Y-7437500D01*
X12180000Y-7522500D01*
X12180000Y-7522500D01*
G37*
G36*
X13220616Y-7289648D02*
X13220617Y-7289648D01*
X13220718Y-7289649D01*
X13238437Y-7291636D01*
X13255433Y-7297028D01*
X13271057Y-7305618D01*
X13284716Y-7317079D01*
X13295889Y-7330975D01*
X13304150Y-7346776D01*
X13309184Y-7363881D01*
X13310800Y-7381638D01*
X13308936Y-7399370D01*
X13303663Y-7416403D01*
X13295183Y-7432088D01*
X13283817Y-7445826D01*
X13270000Y-7457096D01*
X13254257Y-7465466D01*
X13237187Y-7470620D01*
X13219442Y-7472360D01*
X13218549Y-7472360D01*
X13217384Y-7472352D01*
X13217383Y-7472352D01*
X13217282Y-7472351D01*
X13199563Y-7470364D01*
X13182567Y-7464972D01*
X13166942Y-7456382D01*
X13153284Y-7444921D01*
X13142111Y-7431025D01*
X13133850Y-7415224D01*
X13128816Y-7398119D01*
X13127200Y-7380362D01*
X13129064Y-7362629D01*
X13134336Y-7345597D01*
X13142817Y-7329912D01*
X13154182Y-7316174D01*
X13168000Y-7304904D01*
X13183743Y-7296533D01*
X13200813Y-7291380D01*
X13218558Y-7289640D01*
X13219451Y-7289640D01*
X13220616Y-7289648D01*
X13220616Y-7289648D01*
G37*
G36*
X12966616Y-7289648D02*
X12966617Y-7289648D01*
X12966718Y-7289649D01*
X12984437Y-7291636D01*
X13001433Y-7297028D01*
X13017057Y-7305618D01*
X13030716Y-7317079D01*
X13041889Y-7330975D01*
X13050150Y-7346776D01*
X13055184Y-7363881D01*
X13056800Y-7381638D01*
X13054936Y-7399370D01*
X13049663Y-7416403D01*
X13041183Y-7432088D01*
X13029817Y-7445826D01*
X13016000Y-7457096D01*
X13000257Y-7465466D01*
X12983187Y-7470620D01*
X12965442Y-7472360D01*
X12964549Y-7472360D01*
X12963384Y-7472352D01*
X12963383Y-7472352D01*
X12963282Y-7472351D01*
X12945563Y-7470364D01*
X12928567Y-7464972D01*
X12912942Y-7456382D01*
X12899284Y-7444921D01*
X12888111Y-7431025D01*
X12879850Y-7415224D01*
X12874816Y-7398119D01*
X12873200Y-7380362D01*
X12875064Y-7362629D01*
X12880336Y-7345597D01*
X12888817Y-7329912D01*
X12900182Y-7316174D01*
X12914000Y-7304904D01*
X12929743Y-7296533D01*
X12946813Y-7291380D01*
X12964558Y-7289640D01*
X12965451Y-7289640D01*
X12966616Y-7289648D01*
X12966616Y-7289648D01*
G37*
G36*
X8305000Y-7450000D02*
X8245000Y-7450000D01*
X8245000Y-7350000D01*
X8305000Y-7350000D01*
X8305000Y-7450000D01*
X8305000Y-7450000D01*
G37*
G36*
X10305000Y-7450000D02*
X10205000Y-7450000D01*
X10205000Y-7390000D01*
X10305000Y-7390000D01*
X10305000Y-7450000D01*
X10305000Y-7450000D01*
G37*
G36*
X8455000Y-7450000D02*
X8395000Y-7450000D01*
X8395000Y-7350000D01*
X8455000Y-7350000D01*
X8455000Y-7450000D01*
X8455000Y-7450000D01*
G37*
G36*
X13430000Y-7410000D02*
X13330000Y-7410000D01*
X13330000Y-7350000D01*
X13430000Y-7350000D01*
X13430000Y-7410000D01*
X13430000Y-7410000D01*
G37*
G36*
X12180000Y-7402500D02*
X12090000Y-7402500D01*
X12090000Y-7317500D01*
X12180000Y-7317500D01*
X12180000Y-7402500D01*
X12180000Y-7402500D01*
G37*
G36*
X12030000Y-7402500D02*
X11940000Y-7402500D01*
X11940000Y-7317500D01*
X12030000Y-7317500D01*
X12030000Y-7402500D01*
X12030000Y-7402500D01*
G37*
G36*
X10050000Y-7392500D02*
X9960000Y-7392500D01*
X9960000Y-7307500D01*
X10050000Y-7307500D01*
X10050000Y-7392500D01*
X10050000Y-7392500D01*
G37*
G36*
X9900000Y-7392500D02*
X9810000Y-7392500D01*
X9810000Y-7307500D01*
X9900000Y-7307500D01*
X9900000Y-7392500D01*
X9900000Y-7392500D01*
G37*
G36*
X10305000Y-7300000D02*
X10205000Y-7300000D01*
X10205000Y-7240000D01*
X10305000Y-7240000D01*
X10305000Y-7300000D01*
X10305000Y-7300000D01*
G37*
G36*
X9900000Y-7267500D02*
X9810000Y-7267500D01*
X9810000Y-7182500D01*
X9900000Y-7182500D01*
X9900000Y-7267500D01*
X9900000Y-7267500D01*
G37*
G36*
X10050000Y-7267500D02*
X9960000Y-7267500D01*
X9960000Y-7182500D01*
X10050000Y-7182500D01*
X10050000Y-7267500D01*
X10050000Y-7267500D01*
G37*
G36*
X14221000Y-7262000D02*
X14041000Y-7262000D01*
X14041000Y-7082000D01*
X14221000Y-7082000D01*
X14221000Y-7262000D01*
X14221000Y-7262000D01*
G37*
G36*
X13878590Y-7082008D02*
X13878591Y-7082008D01*
X13878692Y-7082009D01*
X13896148Y-7083967D01*
X13912890Y-7089278D01*
X13928282Y-7097740D01*
X13941738Y-7109030D01*
X13952744Y-7122719D01*
X13960882Y-7138285D01*
X13965841Y-7155136D01*
X13965842Y-7155138D01*
X13965842Y-7155138D01*
X13967433Y-7172628D01*
X13965727Y-7188864D01*
X13965597Y-7190097D01*
X13960403Y-7206876D01*
X13952049Y-7222327D01*
X13940853Y-7235861D01*
X13927241Y-7246963D01*
X13911732Y-7255209D01*
X13894917Y-7260286D01*
X13877435Y-7262000D01*
X13876555Y-7262000D01*
X13875410Y-7261992D01*
X13875409Y-7261992D01*
X13875308Y-7261991D01*
X13857852Y-7260033D01*
X13841110Y-7254722D01*
X13825717Y-7246260D01*
X13812262Y-7234970D01*
X13801256Y-7221281D01*
X13793118Y-7205715D01*
X13788159Y-7188864D01*
X13788158Y-7188862D01*
X13788158Y-7188862D01*
X13786567Y-7171372D01*
X13788402Y-7153905D01*
X13788402Y-7153905D01*
X13788403Y-7153903D01*
X13793597Y-7137124D01*
X13801951Y-7121673D01*
X13813147Y-7108139D01*
X13826759Y-7097037D01*
X13842268Y-7088791D01*
X13859083Y-7083714D01*
X13876564Y-7082000D01*
X13877444Y-7082000D01*
X13878590Y-7082008D01*
X13878590Y-7082008D01*
G37*
G36*
X13430000Y-7260000D02*
X13330000Y-7260000D01*
X13330000Y-7200000D01*
X13430000Y-7200000D01*
X13430000Y-7260000D01*
X13430000Y-7260000D01*
G37*
G36*
X8250000Y-7255000D02*
X8150000Y-7255000D01*
X8150000Y-7195000D01*
X8250000Y-7195000D01*
X8250000Y-7255000D01*
X8250000Y-7255000D01*
G37*
G36*
X9977500Y-7115000D02*
X9892500Y-7115000D01*
X9892500Y-7025000D01*
X9977500Y-7025000D01*
X9977500Y-7115000D01*
X9977500Y-7115000D01*
G37*
G36*
X10127500Y-7115000D02*
X10042500Y-7115000D01*
X10042500Y-7025000D01*
X10127500Y-7025000D01*
X10127500Y-7115000D01*
X10127500Y-7115000D01*
G37*
G36*
X10642500Y-7115000D02*
X10557500Y-7115000D01*
X10557500Y-7025000D01*
X10642500Y-7025000D01*
X10642500Y-7115000D01*
X10642500Y-7115000D01*
G37*
G36*
X10252500Y-7115000D02*
X10167500Y-7115000D01*
X10167500Y-7025000D01*
X10252500Y-7025000D01*
X10252500Y-7115000D01*
X10252500Y-7115000D01*
G37*
G36*
X10487500Y-7115000D02*
X10402500Y-7115000D01*
X10402500Y-7025000D01*
X10487500Y-7025000D01*
X10487500Y-7115000D01*
X10487500Y-7115000D01*
G37*
G36*
X11062500Y-7115000D02*
X10977500Y-7115000D01*
X10977500Y-7025000D01*
X11062500Y-7025000D01*
X11062500Y-7115000D01*
X11062500Y-7115000D01*
G37*
G36*
X8250000Y-7105000D02*
X8150000Y-7105000D01*
X8150000Y-7045000D01*
X8250000Y-7045000D01*
X8250000Y-7105000D01*
X8250000Y-7105000D01*
G37*
G36*
X11677500Y-7100000D02*
X11592500Y-7100000D01*
X11592500Y-7010000D01*
X11677500Y-7010000D01*
X11677500Y-7100000D01*
X11677500Y-7100000D01*
G37*
G36*
X11807500Y-7100000D02*
X11722500Y-7100000D01*
X11722500Y-7010000D01*
X11807500Y-7010000D01*
X11807500Y-7100000D01*
X11807500Y-7100000D01*
G37*
G36*
X11932500Y-7100000D02*
X11847500Y-7100000D01*
X11847500Y-7010000D01*
X11932500Y-7010000D01*
X11932500Y-7100000D01*
X11932500Y-7100000D01*
G37*
G36*
X9090000Y-7090000D02*
X8910000Y-7090000D01*
X8910000Y-6910000D01*
X9090000Y-6910000D01*
X9090000Y-7090000D01*
X9090000Y-7090000D01*
G37*
G36*
X13878590Y-6828008D02*
X13878591Y-6828008D01*
X13878692Y-6828009D01*
X13896148Y-6829967D01*
X13912890Y-6835278D01*
X13928282Y-6843740D01*
X13941738Y-6855030D01*
X13952744Y-6868719D01*
X13960882Y-6884285D01*
X13965841Y-6901136D01*
X13965842Y-6901138D01*
X13965842Y-6901138D01*
X13967433Y-6918628D01*
X13965727Y-6934864D01*
X13965597Y-6936097D01*
X13960403Y-6952876D01*
X13952049Y-6968327D01*
X13940853Y-6981861D01*
X13927241Y-6992963D01*
X13911732Y-7001209D01*
X13894917Y-7006286D01*
X13877435Y-7008000D01*
X13876555Y-7008000D01*
X13875410Y-7007992D01*
X13875409Y-7007992D01*
X13875308Y-7007991D01*
X13857852Y-7006033D01*
X13841110Y-7000722D01*
X13825717Y-6992260D01*
X13812262Y-6980970D01*
X13801256Y-6967281D01*
X13793118Y-6951715D01*
X13788159Y-6934864D01*
X13788158Y-6934862D01*
X13788158Y-6934862D01*
X13786567Y-6917372D01*
X13788402Y-6899905D01*
X13788402Y-6899905D01*
X13788403Y-6899903D01*
X13793597Y-6883124D01*
X13801951Y-6867673D01*
X13813147Y-6854139D01*
X13826759Y-6843037D01*
X13842268Y-6834791D01*
X13859083Y-6829714D01*
X13876564Y-6828000D01*
X13877444Y-6828000D01*
X13878590Y-6828008D01*
X13878590Y-6828008D01*
G37*
G36*
X14132590Y-6828008D02*
X14132591Y-6828008D01*
X14132692Y-6828009D01*
X14150148Y-6829967D01*
X14166890Y-6835278D01*
X14182282Y-6843740D01*
X14195738Y-6855030D01*
X14206744Y-6868719D01*
X14214882Y-6884285D01*
X14219841Y-6901136D01*
X14219842Y-6901138D01*
X14219842Y-6901138D01*
X14221433Y-6918628D01*
X14219727Y-6934864D01*
X14219597Y-6936097D01*
X14214403Y-6952876D01*
X14206049Y-6968327D01*
X14194853Y-6981861D01*
X14181241Y-6992963D01*
X14165732Y-7001209D01*
X14148917Y-7006286D01*
X14131435Y-7008000D01*
X14130555Y-7008000D01*
X14129410Y-7007992D01*
X14129409Y-7007992D01*
X14129308Y-7007991D01*
X14111852Y-7006033D01*
X14095110Y-7000722D01*
X14079717Y-6992260D01*
X14066262Y-6980970D01*
X14055256Y-6967281D01*
X14047118Y-6951715D01*
X14042159Y-6934864D01*
X14042158Y-6934862D01*
X14042158Y-6934862D01*
X14040567Y-6917372D01*
X14042402Y-6899905D01*
X14042402Y-6899905D01*
X14042403Y-6899903D01*
X14047597Y-6883124D01*
X14055951Y-6867673D01*
X14067147Y-6854139D01*
X14080759Y-6843037D01*
X14096268Y-6834791D01*
X14113083Y-6829714D01*
X14130564Y-6828000D01*
X14131444Y-6828000D01*
X14132590Y-6828008D01*
X14132590Y-6828008D01*
G37*
G36*
X9977500Y-6965000D02*
X9892500Y-6965000D01*
X9892500Y-6875000D01*
X9977500Y-6875000D01*
X9977500Y-6965000D01*
X9977500Y-6965000D01*
G37*
G36*
X10487500Y-6965000D02*
X10402500Y-6965000D01*
X10402500Y-6875000D01*
X10487500Y-6875000D01*
X10487500Y-6965000D01*
X10487500Y-6965000D01*
G37*
G36*
X10252500Y-6965000D02*
X10167500Y-6965000D01*
X10167500Y-6875000D01*
X10252500Y-6875000D01*
X10252500Y-6965000D01*
X10252500Y-6965000D01*
G37*
G36*
X10127500Y-6965000D02*
X10042500Y-6965000D01*
X10042500Y-6875000D01*
X10127500Y-6875000D01*
X10127500Y-6965000D01*
X10127500Y-6965000D01*
G37*
G36*
X11062500Y-6965000D02*
X10977500Y-6965000D01*
X10977500Y-6875000D01*
X11062500Y-6875000D01*
X11062500Y-6965000D01*
X11062500Y-6965000D01*
G37*
G36*
X10642500Y-6965000D02*
X10557500Y-6965000D01*
X10557500Y-6875000D01*
X10642500Y-6875000D01*
X10642500Y-6965000D01*
X10642500Y-6965000D01*
G37*
G36*
X11807500Y-6950000D02*
X11722500Y-6950000D01*
X11722500Y-6860000D01*
X11807500Y-6860000D01*
X11807500Y-6950000D01*
X11807500Y-6950000D01*
G37*
G36*
X11677500Y-6950000D02*
X11592500Y-6950000D01*
X11592500Y-6860000D01*
X11677500Y-6860000D01*
X11677500Y-6950000D01*
X11677500Y-6950000D01*
G37*
G36*
X11932500Y-6950000D02*
X11847500Y-6950000D01*
X11847500Y-6860000D01*
X11932500Y-6860000D01*
X11932500Y-6950000D01*
X11932500Y-6950000D01*
G37*
G36*
X11285000Y-6900000D02*
X11225000Y-6900000D01*
X11225000Y-6800000D01*
X11285000Y-6800000D01*
X11285000Y-6900000D01*
X11285000Y-6900000D01*
G37*
G36*
X11435000Y-6900000D02*
X11375000Y-6900000D01*
X11375000Y-6800000D01*
X11435000Y-6800000D01*
X11435000Y-6900000D01*
X11435000Y-6900000D01*
G37*
G36*
X13813339Y-6523084D02*
X13837736Y-6528092D01*
X13860697Y-6537744D01*
X13881345Y-6551671D01*
X13898894Y-6569344D01*
X13912677Y-6590088D01*
X13922168Y-6613115D01*
X13927002Y-6637530D01*
X13927002Y-6637530D01*
X13927005Y-6637547D01*
X13926608Y-6665994D01*
X13926604Y-6666011D01*
X13926604Y-6666012D01*
X13921090Y-6690281D01*
X13910960Y-6713034D01*
X13896603Y-6733386D01*
X13878568Y-6750562D01*
X13857539Y-6763907D01*
X13834318Y-6772914D01*
X13809791Y-6777238D01*
X13784890Y-6776717D01*
X13760565Y-6771369D01*
X13737742Y-6761398D01*
X13717290Y-6747183D01*
X13699989Y-6729268D01*
X13686497Y-6708332D01*
X13677329Y-6685175D01*
X13672833Y-6660679D01*
X13673181Y-6635775D01*
X13678359Y-6611413D01*
X13688170Y-6588521D01*
X13702241Y-6567971D01*
X13720036Y-6550545D01*
X13740876Y-6536907D01*
X13763969Y-6527577D01*
X13788434Y-6522910D01*
X13813339Y-6523084D01*
X13813339Y-6523084D01*
G37*
G36*
X10234095Y-6470402D02*
X10234095Y-6470402D01*
X10234097Y-6470403D01*
X10250876Y-6475597D01*
X10266327Y-6483951D01*
X10279861Y-6495147D01*
X10290963Y-6508759D01*
X10299209Y-6524268D01*
X10304286Y-6541083D01*
X10306000Y-6558564D01*
X10306000Y-6559448D01*
X10305992Y-6560590D01*
X10305992Y-6560591D01*
X10305991Y-6560692D01*
X10304033Y-6578148D01*
X10298722Y-6594890D01*
X10290260Y-6610282D01*
X10278970Y-6623738D01*
X10265281Y-6634744D01*
X10249715Y-6642882D01*
X10232864Y-6647841D01*
X10232862Y-6647842D01*
X10232862Y-6647842D01*
X10215372Y-6649433D01*
X10197906Y-6647598D01*
X10197905Y-6647597D01*
X10197903Y-6647597D01*
X10181124Y-6642403D01*
X10165673Y-6634049D01*
X10152139Y-6622853D01*
X10141037Y-6609241D01*
X10132791Y-6593732D01*
X10127714Y-6576917D01*
X10126000Y-6559435D01*
X10126000Y-6558552D01*
X10126008Y-6557410D01*
X10126008Y-6557409D01*
X10126009Y-6557308D01*
X10127967Y-6539852D01*
X10133278Y-6523110D01*
X10141740Y-6507717D01*
X10153030Y-6494262D01*
X10166719Y-6483256D01*
X10182285Y-6475118D01*
X10199136Y-6470159D01*
X10199138Y-6470158D01*
X10199138Y-6470158D01*
X10216628Y-6468567D01*
X10234095Y-6470402D01*
X10234095Y-6470402D01*
G37*
G36*
X9218095Y-6470402D02*
X9218095Y-6470402D01*
X9218097Y-6470403D01*
X9234876Y-6475597D01*
X9250327Y-6483951D01*
X9263861Y-6495147D01*
X9274963Y-6508759D01*
X9283209Y-6524268D01*
X9288286Y-6541083D01*
X9290000Y-6558564D01*
X9290000Y-6559448D01*
X9289992Y-6560590D01*
X9289992Y-6560591D01*
X9289991Y-6560692D01*
X9288033Y-6578148D01*
X9282722Y-6594890D01*
X9274260Y-6610282D01*
X9262970Y-6623738D01*
X9249281Y-6634744D01*
X9233715Y-6642882D01*
X9216864Y-6647841D01*
X9216862Y-6647842D01*
X9216862Y-6647842D01*
X9199372Y-6649433D01*
X9181906Y-6647598D01*
X9181905Y-6647597D01*
X9181903Y-6647597D01*
X9165124Y-6642403D01*
X9149673Y-6634049D01*
X9136139Y-6622853D01*
X9125037Y-6609241D01*
X9116791Y-6593732D01*
X9111714Y-6576917D01*
X9110000Y-6559435D01*
X9110000Y-6558552D01*
X9110008Y-6557410D01*
X9110008Y-6557409D01*
X9110009Y-6557308D01*
X9111967Y-6539852D01*
X9117278Y-6523110D01*
X9125740Y-6507717D01*
X9137030Y-6494262D01*
X9150719Y-6483256D01*
X9166285Y-6475118D01*
X9183136Y-6470159D01*
X9183138Y-6470158D01*
X9183138Y-6470158D01*
X9200628Y-6468567D01*
X9218095Y-6470402D01*
X9218095Y-6470402D01*
G37*
G36*
X9472095Y-6470402D02*
X9472095Y-6470402D01*
X9472097Y-6470403D01*
X9488876Y-6475597D01*
X9504327Y-6483951D01*
X9517861Y-6495147D01*
X9528963Y-6508759D01*
X9537209Y-6524268D01*
X9542286Y-6541083D01*
X9544000Y-6558564D01*
X9544000Y-6559448D01*
X9543992Y-6560590D01*
X9543992Y-6560591D01*
X9543991Y-6560692D01*
X9542033Y-6578148D01*
X9536722Y-6594890D01*
X9528260Y-6610282D01*
X9516970Y-6623738D01*
X9503281Y-6634744D01*
X9487715Y-6642882D01*
X9470864Y-6647841D01*
X9470862Y-6647842D01*
X9470862Y-6647842D01*
X9453372Y-6649433D01*
X9435906Y-6647598D01*
X9435905Y-6647597D01*
X9435903Y-6647597D01*
X9419124Y-6642403D01*
X9403673Y-6634049D01*
X9390139Y-6622853D01*
X9379037Y-6609241D01*
X9370791Y-6593732D01*
X9365714Y-6576917D01*
X9364000Y-6559435D01*
X9364000Y-6558552D01*
X9364008Y-6557410D01*
X9364008Y-6557409D01*
X9364009Y-6557308D01*
X9365967Y-6539852D01*
X9371278Y-6523110D01*
X9379740Y-6507717D01*
X9391030Y-6494262D01*
X9404719Y-6483256D01*
X9420285Y-6475118D01*
X9437136Y-6470159D01*
X9437138Y-6470158D01*
X9437138Y-6470158D01*
X9454628Y-6468567D01*
X9472095Y-6470402D01*
X9472095Y-6470402D01*
G37*
G36*
X9726095Y-6470402D02*
X9726095Y-6470402D01*
X9726097Y-6470403D01*
X9742876Y-6475597D01*
X9758327Y-6483951D01*
X9771861Y-6495147D01*
X9782963Y-6508759D01*
X9791209Y-6524268D01*
X9796286Y-6541083D01*
X9798000Y-6558564D01*
X9798000Y-6559448D01*
X9797992Y-6560590D01*
X9797992Y-6560591D01*
X9797991Y-6560692D01*
X9796033Y-6578148D01*
X9790722Y-6594890D01*
X9782260Y-6610282D01*
X9770970Y-6623738D01*
X9757281Y-6634744D01*
X9741715Y-6642882D01*
X9724864Y-6647841D01*
X9724862Y-6647842D01*
X9724862Y-6647842D01*
X9707372Y-6649433D01*
X9689906Y-6647598D01*
X9689905Y-6647597D01*
X9689903Y-6647597D01*
X9673124Y-6642403D01*
X9657673Y-6634049D01*
X9644139Y-6622853D01*
X9633037Y-6609241D01*
X9624791Y-6593732D01*
X9619714Y-6576917D01*
X9618000Y-6559435D01*
X9618000Y-6558552D01*
X9618008Y-6557410D01*
X9618008Y-6557409D01*
X9618009Y-6557308D01*
X9619967Y-6539852D01*
X9625278Y-6523110D01*
X9633740Y-6507717D01*
X9645030Y-6494262D01*
X9658719Y-6483256D01*
X9674285Y-6475118D01*
X9691136Y-6470159D01*
X9691138Y-6470158D01*
X9691138Y-6470158D01*
X9708628Y-6468567D01*
X9726095Y-6470402D01*
X9726095Y-6470402D01*
G37*
G36*
X9980095Y-6470402D02*
X9980095Y-6470402D01*
X9980097Y-6470403D01*
X9996876Y-6475597D01*
X10012327Y-6483951D01*
X10025861Y-6495147D01*
X10036963Y-6508759D01*
X10045209Y-6524268D01*
X10050286Y-6541083D01*
X10052000Y-6558564D01*
X10052000Y-6559448D01*
X10051992Y-6560590D01*
X10051992Y-6560591D01*
X10051991Y-6560692D01*
X10050033Y-6578148D01*
X10044722Y-6594890D01*
X10036260Y-6610282D01*
X10024970Y-6623738D01*
X10011281Y-6634744D01*
X9995715Y-6642882D01*
X9978864Y-6647841D01*
X9978862Y-6647842D01*
X9978862Y-6647842D01*
X9961372Y-6649433D01*
X9943906Y-6647598D01*
X9943905Y-6647597D01*
X9943903Y-6647597D01*
X9927124Y-6642403D01*
X9911673Y-6634049D01*
X9898139Y-6622853D01*
X9887037Y-6609241D01*
X9878791Y-6593732D01*
X9873714Y-6576917D01*
X9872000Y-6559435D01*
X9872000Y-6558552D01*
X9872008Y-6557410D01*
X9872008Y-6557409D01*
X9872009Y-6557308D01*
X9873967Y-6539852D01*
X9879278Y-6523110D01*
X9887740Y-6507717D01*
X9899030Y-6494262D01*
X9912719Y-6483256D01*
X9928285Y-6475118D01*
X9945136Y-6470159D01*
X9945138Y-6470158D01*
X9945138Y-6470158D01*
X9962628Y-6468567D01*
X9980095Y-6470402D01*
X9980095Y-6470402D01*
G37*
G36*
X11250094Y-6470402D02*
X11250095Y-6470402D01*
X11250097Y-6470403D01*
X11266876Y-6475597D01*
X11282327Y-6483951D01*
X11295861Y-6495147D01*
X11306963Y-6508759D01*
X11315209Y-6524268D01*
X11320286Y-6541083D01*
X11322000Y-6558564D01*
X11322000Y-6559448D01*
X11321992Y-6560590D01*
X11321992Y-6560591D01*
X11321991Y-6560692D01*
X11320033Y-6578148D01*
X11314722Y-6594890D01*
X11306260Y-6610282D01*
X11294970Y-6623738D01*
X11281281Y-6634744D01*
X11265715Y-6642882D01*
X11248864Y-6647841D01*
X11248862Y-6647842D01*
X11248862Y-6647842D01*
X11231372Y-6649433D01*
X11213905Y-6647598D01*
X11213905Y-6647597D01*
X11213903Y-6647597D01*
X11197124Y-6642403D01*
X11181673Y-6634049D01*
X11168139Y-6622853D01*
X11157037Y-6609241D01*
X11148791Y-6593732D01*
X11143714Y-6576917D01*
X11142000Y-6559435D01*
X11142000Y-6558552D01*
X11142008Y-6557410D01*
X11142008Y-6557409D01*
X11142009Y-6557308D01*
X11143967Y-6539852D01*
X11149278Y-6523110D01*
X11157740Y-6507717D01*
X11169030Y-6494262D01*
X11182719Y-6483256D01*
X11198285Y-6475118D01*
X11215136Y-6470159D01*
X11215138Y-6470158D01*
X11215138Y-6470158D01*
X11232628Y-6468567D01*
X11250094Y-6470402D01*
X11250094Y-6470402D01*
G37*
G36*
X13536094Y-6470402D02*
X13536095Y-6470402D01*
X13536097Y-6470403D01*
X13552876Y-6475597D01*
X13568327Y-6483951D01*
X13581861Y-6495147D01*
X13592963Y-6508759D01*
X13601209Y-6524268D01*
X13606286Y-6541083D01*
X13608000Y-6558564D01*
X13608000Y-6559448D01*
X13607992Y-6560590D01*
X13607992Y-6560591D01*
X13607991Y-6560692D01*
X13606033Y-6578148D01*
X13600722Y-6594890D01*
X13592260Y-6610282D01*
X13580970Y-6623738D01*
X13567281Y-6634744D01*
X13551715Y-6642882D01*
X13534864Y-6647841D01*
X13534862Y-6647842D01*
X13534862Y-6647842D01*
X13517372Y-6649433D01*
X13499905Y-6647598D01*
X13499905Y-6647597D01*
X13499903Y-6647597D01*
X13483124Y-6642403D01*
X13467673Y-6634049D01*
X13454139Y-6622853D01*
X13443037Y-6609241D01*
X13434791Y-6593732D01*
X13429714Y-6576917D01*
X13428000Y-6559435D01*
X13428000Y-6558552D01*
X13428008Y-6557410D01*
X13428008Y-6557409D01*
X13428009Y-6557308D01*
X13429967Y-6539852D01*
X13435278Y-6523110D01*
X13443740Y-6507717D01*
X13455030Y-6494262D01*
X13468719Y-6483256D01*
X13484285Y-6475118D01*
X13501136Y-6470159D01*
X13501138Y-6470158D01*
X13501138Y-6470158D01*
X13518628Y-6468567D01*
X13536094Y-6470402D01*
X13536094Y-6470402D01*
G37*
G36*
X13282094Y-6470402D02*
X13282095Y-6470402D01*
X13282097Y-6470403D01*
X13298876Y-6475597D01*
X13314327Y-6483951D01*
X13327861Y-6495147D01*
X13338963Y-6508759D01*
X13347209Y-6524268D01*
X13352286Y-6541083D01*
X13354000Y-6558564D01*
X13354000Y-6559448D01*
X13353992Y-6560590D01*
X13353992Y-6560591D01*
X13353991Y-6560692D01*
X13352033Y-6578148D01*
X13346722Y-6594890D01*
X13338260Y-6610282D01*
X13326970Y-6623738D01*
X13313281Y-6634744D01*
X13297715Y-6642882D01*
X13280864Y-6647841D01*
X13280862Y-6647842D01*
X13280862Y-6647842D01*
X13263372Y-6649433D01*
X13245905Y-6647598D01*
X13245905Y-6647597D01*
X13245903Y-6647597D01*
X13229124Y-6642403D01*
X13213673Y-6634049D01*
X13200139Y-6622853D01*
X13189037Y-6609241D01*
X13180791Y-6593732D01*
X13175714Y-6576917D01*
X13174000Y-6559435D01*
X13174000Y-6558552D01*
X13174008Y-6557410D01*
X13174008Y-6557409D01*
X13174009Y-6557308D01*
X13175967Y-6539852D01*
X13181278Y-6523110D01*
X13189740Y-6507717D01*
X13201030Y-6494262D01*
X13214719Y-6483256D01*
X13230285Y-6475118D01*
X13247136Y-6470159D01*
X13247138Y-6470158D01*
X13247138Y-6470158D01*
X13264628Y-6468567D01*
X13282094Y-6470402D01*
X13282094Y-6470402D01*
G37*
G36*
X12012094Y-6470402D02*
X12012095Y-6470402D01*
X12012097Y-6470403D01*
X12028876Y-6475597D01*
X12044327Y-6483951D01*
X12057861Y-6495147D01*
X12068963Y-6508759D01*
X12077209Y-6524268D01*
X12082286Y-6541083D01*
X12084000Y-6558564D01*
X12084000Y-6559448D01*
X12083992Y-6560590D01*
X12083992Y-6560591D01*
X12083991Y-6560692D01*
X12082033Y-6578148D01*
X12076722Y-6594890D01*
X12068260Y-6610282D01*
X12056970Y-6623738D01*
X12043281Y-6634744D01*
X12027715Y-6642882D01*
X12010864Y-6647841D01*
X12010862Y-6647842D01*
X12010862Y-6647842D01*
X11993372Y-6649433D01*
X11975905Y-6647598D01*
X11975905Y-6647597D01*
X11975903Y-6647597D01*
X11959124Y-6642403D01*
X11943673Y-6634049D01*
X11930139Y-6622853D01*
X11919037Y-6609241D01*
X11910791Y-6593732D01*
X11905714Y-6576917D01*
X11904000Y-6559435D01*
X11904000Y-6558552D01*
X11904008Y-6557410D01*
X11904008Y-6557409D01*
X11904009Y-6557308D01*
X11905967Y-6539852D01*
X11911278Y-6523110D01*
X11919740Y-6507717D01*
X11931030Y-6494262D01*
X11944719Y-6483256D01*
X11960285Y-6475118D01*
X11977136Y-6470159D01*
X11977138Y-6470158D01*
X11977138Y-6470158D01*
X11994628Y-6468567D01*
X12012094Y-6470402D01*
X12012094Y-6470402D01*
G37*
G36*
X12774094Y-6470402D02*
X12774095Y-6470402D01*
X12774097Y-6470403D01*
X12790876Y-6475597D01*
X12806327Y-6483951D01*
X12819861Y-6495147D01*
X12830963Y-6508759D01*
X12839209Y-6524268D01*
X12844286Y-6541083D01*
X12846000Y-6558564D01*
X12846000Y-6559448D01*
X12845992Y-6560590D01*
X12845992Y-6560591D01*
X12845991Y-6560692D01*
X12844033Y-6578148D01*
X12838722Y-6594890D01*
X12830260Y-6610282D01*
X12818970Y-6623738D01*
X12805281Y-6634744D01*
X12789715Y-6642882D01*
X12772864Y-6647841D01*
X12772862Y-6647842D01*
X12772862Y-6647842D01*
X12755372Y-6649433D01*
X12737905Y-6647598D01*
X12737905Y-6647597D01*
X12737903Y-6647597D01*
X12721124Y-6642403D01*
X12705673Y-6634049D01*
X12692139Y-6622853D01*
X12681037Y-6609241D01*
X12672791Y-6593732D01*
X12667714Y-6576917D01*
X12666000Y-6559435D01*
X12666000Y-6558552D01*
X12666008Y-6557410D01*
X12666008Y-6557409D01*
X12666009Y-6557308D01*
X12667967Y-6539852D01*
X12673278Y-6523110D01*
X12681740Y-6507717D01*
X12693030Y-6494262D01*
X12706719Y-6483256D01*
X12722285Y-6475118D01*
X12739136Y-6470159D01*
X12739138Y-6470158D01*
X12739138Y-6470158D01*
X12756628Y-6468567D01*
X12774094Y-6470402D01*
X12774094Y-6470402D01*
G37*
G36*
X12520094Y-6470402D02*
X12520095Y-6470402D01*
X12520097Y-6470403D01*
X12536876Y-6475597D01*
X12552327Y-6483951D01*
X12565861Y-6495147D01*
X12576963Y-6508759D01*
X12585209Y-6524268D01*
X12590286Y-6541083D01*
X12592000Y-6558564D01*
X12592000Y-6559448D01*
X12591992Y-6560590D01*
X12591992Y-6560591D01*
X12591991Y-6560692D01*
X12590033Y-6578148D01*
X12584722Y-6594890D01*
X12576260Y-6610282D01*
X12564970Y-6623738D01*
X12551281Y-6634744D01*
X12535715Y-6642882D01*
X12518864Y-6647841D01*
X12518862Y-6647842D01*
X12518862Y-6647842D01*
X12501372Y-6649433D01*
X12483905Y-6647598D01*
X12483905Y-6647597D01*
X12483903Y-6647597D01*
X12467124Y-6642403D01*
X12451673Y-6634049D01*
X12438139Y-6622853D01*
X12427037Y-6609241D01*
X12418791Y-6593732D01*
X12413714Y-6576917D01*
X12412000Y-6559435D01*
X12412000Y-6558552D01*
X12412008Y-6557410D01*
X12412008Y-6557409D01*
X12412009Y-6557308D01*
X12413967Y-6539852D01*
X12419278Y-6523110D01*
X12427740Y-6507717D01*
X12439030Y-6494262D01*
X12452719Y-6483256D01*
X12468285Y-6475118D01*
X12485136Y-6470159D01*
X12485138Y-6470158D01*
X12485138Y-6470158D01*
X12502628Y-6468567D01*
X12520094Y-6470402D01*
X12520094Y-6470402D01*
G37*
G36*
X10488095Y-6470402D02*
X10488095Y-6470402D01*
X10488097Y-6470403D01*
X10504876Y-6475597D01*
X10520327Y-6483951D01*
X10533861Y-6495147D01*
X10544963Y-6508759D01*
X10553209Y-6524268D01*
X10558286Y-6541083D01*
X10560000Y-6558564D01*
X10560000Y-6559448D01*
X10559992Y-6560590D01*
X10559992Y-6560591D01*
X10559991Y-6560692D01*
X10558033Y-6578148D01*
X10552722Y-6594890D01*
X10544260Y-6610282D01*
X10532970Y-6623738D01*
X10519281Y-6634744D01*
X10503715Y-6642882D01*
X10486864Y-6647841D01*
X10486862Y-6647842D01*
X10486862Y-6647842D01*
X10469372Y-6649433D01*
X10451906Y-6647598D01*
X10451905Y-6647597D01*
X10451903Y-6647597D01*
X10435124Y-6642403D01*
X10419673Y-6634049D01*
X10406139Y-6622853D01*
X10395037Y-6609241D01*
X10386791Y-6593732D01*
X10381714Y-6576917D01*
X10380000Y-6559435D01*
X10380000Y-6558552D01*
X10380008Y-6557410D01*
X10380008Y-6557409D01*
X10380009Y-6557308D01*
X10381967Y-6539852D01*
X10387278Y-6523110D01*
X10395740Y-6507717D01*
X10407030Y-6494262D01*
X10420719Y-6483256D01*
X10436285Y-6475118D01*
X10453136Y-6470159D01*
X10453138Y-6470158D01*
X10453138Y-6470158D01*
X10470628Y-6468567D01*
X10488095Y-6470402D01*
X10488095Y-6470402D01*
G37*
G36*
X12266094Y-6470402D02*
X12266095Y-6470402D01*
X12266097Y-6470403D01*
X12282876Y-6475597D01*
X12298327Y-6483951D01*
X12311861Y-6495147D01*
X12322963Y-6508759D01*
X12331209Y-6524268D01*
X12336286Y-6541083D01*
X12338000Y-6558564D01*
X12338000Y-6559448D01*
X12337992Y-6560590D01*
X12337992Y-6560591D01*
X12337991Y-6560692D01*
X12336033Y-6578148D01*
X12330722Y-6594890D01*
X12322260Y-6610282D01*
X12310970Y-6623738D01*
X12297281Y-6634744D01*
X12281715Y-6642882D01*
X12264864Y-6647841D01*
X12264862Y-6647842D01*
X12264862Y-6647842D01*
X12247372Y-6649433D01*
X12229905Y-6647598D01*
X12229905Y-6647597D01*
X12229903Y-6647597D01*
X12213124Y-6642403D01*
X12197673Y-6634049D01*
X12184139Y-6622853D01*
X12173037Y-6609241D01*
X12164791Y-6593732D01*
X12159714Y-6576917D01*
X12158000Y-6559435D01*
X12158000Y-6558552D01*
X12158008Y-6557410D01*
X12158008Y-6557409D01*
X12158009Y-6557308D01*
X12159967Y-6539852D01*
X12165278Y-6523110D01*
X12173740Y-6507717D01*
X12185030Y-6494262D01*
X12198719Y-6483256D01*
X12214285Y-6475118D01*
X12231136Y-6470159D01*
X12231138Y-6470158D01*
X12231138Y-6470158D01*
X12248628Y-6468567D01*
X12266094Y-6470402D01*
X12266094Y-6470402D01*
G37*
G36*
X11758094Y-6470402D02*
X11758095Y-6470402D01*
X11758097Y-6470403D01*
X11774876Y-6475597D01*
X11790327Y-6483951D01*
X11803861Y-6495147D01*
X11814963Y-6508759D01*
X11823209Y-6524268D01*
X11828286Y-6541083D01*
X11830000Y-6558564D01*
X11830000Y-6559448D01*
X11829992Y-6560590D01*
X11829992Y-6560591D01*
X11829991Y-6560692D01*
X11828033Y-6578148D01*
X11822722Y-6594890D01*
X11814260Y-6610282D01*
X11802970Y-6623738D01*
X11789281Y-6634744D01*
X11773715Y-6642882D01*
X11756864Y-6647841D01*
X11756862Y-6647842D01*
X11756862Y-6647842D01*
X11739372Y-6649433D01*
X11721905Y-6647598D01*
X11721905Y-6647597D01*
X11721903Y-6647597D01*
X11705124Y-6642403D01*
X11689673Y-6634049D01*
X11676139Y-6622853D01*
X11665037Y-6609241D01*
X11656791Y-6593732D01*
X11651714Y-6576917D01*
X11650000Y-6559435D01*
X11650000Y-6558552D01*
X11650008Y-6557410D01*
X11650008Y-6557409D01*
X11650009Y-6557308D01*
X11651967Y-6539852D01*
X11657278Y-6523110D01*
X11665740Y-6507717D01*
X11677030Y-6494262D01*
X11690719Y-6483256D01*
X11706285Y-6475118D01*
X11723136Y-6470159D01*
X11723138Y-6470158D01*
X11723138Y-6470158D01*
X11740628Y-6468567D01*
X11758094Y-6470402D01*
X11758094Y-6470402D01*
G37*
G36*
X11504094Y-6470402D02*
X11504095Y-6470402D01*
X11504097Y-6470403D01*
X11520876Y-6475597D01*
X11536327Y-6483951D01*
X11549861Y-6495147D01*
X11560963Y-6508759D01*
X11569209Y-6524268D01*
X11574286Y-6541083D01*
X11576000Y-6558564D01*
X11576000Y-6559448D01*
X11575992Y-6560590D01*
X11575992Y-6560591D01*
X11575991Y-6560692D01*
X11574033Y-6578148D01*
X11568722Y-6594890D01*
X11560260Y-6610282D01*
X11548970Y-6623738D01*
X11535281Y-6634744D01*
X11519715Y-6642882D01*
X11502864Y-6647841D01*
X11502862Y-6647842D01*
X11502862Y-6647842D01*
X11485372Y-6649433D01*
X11467905Y-6647598D01*
X11467905Y-6647597D01*
X11467903Y-6647597D01*
X11451124Y-6642403D01*
X11435673Y-6634049D01*
X11422139Y-6622853D01*
X11411037Y-6609241D01*
X11402791Y-6593732D01*
X11397714Y-6576917D01*
X11396000Y-6559435D01*
X11396000Y-6558552D01*
X11396008Y-6557410D01*
X11396008Y-6557409D01*
X11396009Y-6557308D01*
X11397967Y-6539852D01*
X11403278Y-6523110D01*
X11411740Y-6507717D01*
X11423030Y-6494262D01*
X11436719Y-6483256D01*
X11452285Y-6475118D01*
X11469136Y-6470159D01*
X11469138Y-6470158D01*
X11469138Y-6470158D01*
X11486628Y-6468567D01*
X11504094Y-6470402D01*
X11504094Y-6470402D01*
G37*
G36*
X8964095Y-6470402D02*
X8964095Y-6470402D01*
X8964097Y-6470403D01*
X8980876Y-6475597D01*
X8996327Y-6483951D01*
X9009861Y-6495147D01*
X9020963Y-6508759D01*
X9029209Y-6524268D01*
X9034286Y-6541083D01*
X9036000Y-6558564D01*
X9036000Y-6559448D01*
X9035992Y-6560590D01*
X9035992Y-6560591D01*
X9035991Y-6560692D01*
X9034033Y-6578148D01*
X9028722Y-6594890D01*
X9020260Y-6610282D01*
X9008970Y-6623738D01*
X8995281Y-6634744D01*
X8979715Y-6642882D01*
X8962864Y-6647841D01*
X8962862Y-6647842D01*
X8962862Y-6647842D01*
X8945372Y-6649433D01*
X8927906Y-6647598D01*
X8927905Y-6647597D01*
X8927903Y-6647597D01*
X8911124Y-6642403D01*
X8895673Y-6634049D01*
X8882139Y-6622853D01*
X8871037Y-6609241D01*
X8862791Y-6593732D01*
X8857714Y-6576917D01*
X8856000Y-6559435D01*
X8856000Y-6558552D01*
X8856008Y-6557410D01*
X8856008Y-6557409D01*
X8856009Y-6557308D01*
X8857967Y-6539852D01*
X8863278Y-6523110D01*
X8871740Y-6507717D01*
X8883030Y-6494262D01*
X8896719Y-6483256D01*
X8912285Y-6475118D01*
X8929136Y-6470159D01*
X8929138Y-6470158D01*
X8929138Y-6470158D01*
X8946628Y-6468567D01*
X8964095Y-6470402D01*
X8964095Y-6470402D01*
G37*
G36*
X10996095Y-6470402D02*
X10996095Y-6470402D01*
X10996097Y-6470403D01*
X11012876Y-6475597D01*
X11028327Y-6483951D01*
X11041861Y-6495147D01*
X11052963Y-6508759D01*
X11061209Y-6524268D01*
X11066286Y-6541083D01*
X11068000Y-6558564D01*
X11068000Y-6559448D01*
X11067992Y-6560590D01*
X11067992Y-6560591D01*
X11067991Y-6560692D01*
X11066033Y-6578148D01*
X11060722Y-6594890D01*
X11052260Y-6610282D01*
X11040970Y-6623738D01*
X11027281Y-6634744D01*
X11011715Y-6642882D01*
X10994864Y-6647841D01*
X10994862Y-6647842D01*
X10994862Y-6647842D01*
X10977372Y-6649433D01*
X10959906Y-6647598D01*
X10959905Y-6647597D01*
X10959903Y-6647597D01*
X10943124Y-6642403D01*
X10927673Y-6634049D01*
X10914139Y-6622853D01*
X10903037Y-6609241D01*
X10894791Y-6593732D01*
X10889714Y-6576917D01*
X10888000Y-6559435D01*
X10888000Y-6558552D01*
X10888008Y-6557410D01*
X10888008Y-6557409D01*
X10888009Y-6557308D01*
X10889967Y-6539852D01*
X10895278Y-6523110D01*
X10903740Y-6507717D01*
X10915030Y-6494262D01*
X10928719Y-6483256D01*
X10944285Y-6475118D01*
X10961136Y-6470159D01*
X10961138Y-6470158D01*
X10961138Y-6470158D01*
X10978628Y-6468567D01*
X10996095Y-6470402D01*
X10996095Y-6470402D01*
G37*
G36*
X10742095Y-6470402D02*
X10742095Y-6470402D01*
X10742097Y-6470403D01*
X10758876Y-6475597D01*
X10774327Y-6483951D01*
X10787861Y-6495147D01*
X10798963Y-6508759D01*
X10807209Y-6524268D01*
X10812286Y-6541083D01*
X10814000Y-6558564D01*
X10814000Y-6559448D01*
X10813992Y-6560590D01*
X10813992Y-6560591D01*
X10813991Y-6560692D01*
X10812033Y-6578148D01*
X10806722Y-6594890D01*
X10798260Y-6610282D01*
X10786970Y-6623738D01*
X10773281Y-6634744D01*
X10757715Y-6642882D01*
X10740864Y-6647841D01*
X10740862Y-6647842D01*
X10740862Y-6647842D01*
X10723372Y-6649433D01*
X10705906Y-6647598D01*
X10705905Y-6647597D01*
X10705903Y-6647597D01*
X10689124Y-6642403D01*
X10673673Y-6634049D01*
X10660139Y-6622853D01*
X10649037Y-6609241D01*
X10640791Y-6593732D01*
X10635714Y-6576917D01*
X10634000Y-6559435D01*
X10634000Y-6558552D01*
X10634008Y-6557410D01*
X10634008Y-6557409D01*
X10634009Y-6557308D01*
X10635967Y-6539852D01*
X10641278Y-6523110D01*
X10649740Y-6507717D01*
X10661030Y-6494262D01*
X10674719Y-6483256D01*
X10690285Y-6475118D01*
X10707136Y-6470159D01*
X10707138Y-6470158D01*
X10707138Y-6470158D01*
X10724628Y-6468567D01*
X10742095Y-6470402D01*
X10742095Y-6470402D01*
G37*
G36*
X13028094Y-6470402D02*
X13028095Y-6470402D01*
X13028097Y-6470403D01*
X13044876Y-6475597D01*
X13060327Y-6483951D01*
X13073861Y-6495147D01*
X13084963Y-6508759D01*
X13093209Y-6524268D01*
X13098286Y-6541083D01*
X13100000Y-6558564D01*
X13100000Y-6559448D01*
X13099992Y-6560590D01*
X13099992Y-6560591D01*
X13099991Y-6560692D01*
X13098033Y-6578148D01*
X13092722Y-6594890D01*
X13084260Y-6610282D01*
X13072970Y-6623738D01*
X13059281Y-6634744D01*
X13043715Y-6642882D01*
X13026864Y-6647841D01*
X13026862Y-6647842D01*
X13026862Y-6647842D01*
X13009372Y-6649433D01*
X12991905Y-6647598D01*
X12991905Y-6647597D01*
X12991903Y-6647597D01*
X12975124Y-6642403D01*
X12959673Y-6634049D01*
X12946139Y-6622853D01*
X12935037Y-6609241D01*
X12926791Y-6593732D01*
X12921714Y-6576917D01*
X12920000Y-6559435D01*
X12920000Y-6558552D01*
X12920008Y-6557410D01*
X12920008Y-6557409D01*
X12920009Y-6557308D01*
X12921967Y-6539852D01*
X12927278Y-6523110D01*
X12935740Y-6507717D01*
X12947030Y-6494262D01*
X12960719Y-6483256D01*
X12976285Y-6475118D01*
X12993136Y-6470159D01*
X12993138Y-6470158D01*
X12993138Y-6470158D01*
X13010628Y-6468567D01*
X13028094Y-6470402D01*
X13028094Y-6470402D01*
G37*
G36*
X8782000Y-6649000D02*
X8602000Y-6649000D01*
X8602000Y-6469000D01*
X8782000Y-6469000D01*
X8782000Y-6649000D01*
X8782000Y-6649000D01*
G37*
G36*
X8216280Y-6275103D02*
X8246056Y-6281215D01*
X8267073Y-6290050D01*
X8274078Y-6292995D01*
X8274079Y-6292995D01*
X8299279Y-6309993D01*
X8320698Y-6331561D01*
X8337519Y-6356880D01*
X8349103Y-6384983D01*
X8355003Y-6414784D01*
X8355003Y-6414784D01*
X8355007Y-6414801D01*
X8354522Y-6449521D01*
X8354518Y-6449537D01*
X8354518Y-6449538D01*
X8347787Y-6479162D01*
X8335424Y-6506931D01*
X8317902Y-6531770D01*
X8295889Y-6552733D01*
X8270224Y-6569020D01*
X8241884Y-6580013D01*
X8211949Y-6585291D01*
X8181558Y-6584654D01*
X8151870Y-6578127D01*
X8124016Y-6565958D01*
X8099055Y-6548609D01*
X8077940Y-6526744D01*
X8061473Y-6501193D01*
X8050283Y-6472931D01*
X8044796Y-6443033D01*
X8045221Y-6412639D01*
X8051540Y-6382906D01*
X8063515Y-6354967D01*
X8080688Y-6329886D01*
X8102407Y-6308618D01*
X8127841Y-6291974D01*
X8156025Y-6280587D01*
X8185884Y-6274891D01*
X8216280Y-6275103D01*
X8216280Y-6275103D01*
G37*
G36*
X14016280Y-6245103D02*
X14046056Y-6251215D01*
X14067073Y-6260050D01*
X14074078Y-6262995D01*
X14074079Y-6262995D01*
X14099279Y-6279993D01*
X14120698Y-6301561D01*
X14137519Y-6326880D01*
X14149103Y-6354983D01*
X14155003Y-6384784D01*
X14155003Y-6384784D01*
X14155007Y-6384801D01*
X14154522Y-6419521D01*
X14154518Y-6419537D01*
X14154518Y-6419538D01*
X14147787Y-6449162D01*
X14135424Y-6476931D01*
X14117902Y-6501770D01*
X14095889Y-6522733D01*
X14070224Y-6539020D01*
X14041884Y-6550013D01*
X14011949Y-6555291D01*
X13981558Y-6554654D01*
X13951870Y-6548127D01*
X13924016Y-6535958D01*
X13899055Y-6518609D01*
X13877940Y-6496744D01*
X13861473Y-6471193D01*
X13850283Y-6442931D01*
X13844796Y-6413033D01*
X13845221Y-6382639D01*
X13851540Y-6352906D01*
X13863515Y-6324967D01*
X13880688Y-6299886D01*
X13902407Y-6278618D01*
X13927841Y-6261974D01*
X13956025Y-6250587D01*
X13985884Y-6244891D01*
X14016280Y-6245103D01*
X14016280Y-6245103D01*
G37*
G36*
X10488095Y-6216402D02*
X10488095Y-6216402D01*
X10488097Y-6216403D01*
X10504876Y-6221597D01*
X10520327Y-6229951D01*
X10533861Y-6241147D01*
X10544963Y-6254759D01*
X10553209Y-6270268D01*
X10558286Y-6287083D01*
X10560000Y-6304564D01*
X10560000Y-6305448D01*
X10559992Y-6306590D01*
X10559992Y-6306591D01*
X10559991Y-6306692D01*
X10558033Y-6324148D01*
X10552722Y-6340890D01*
X10544260Y-6356282D01*
X10532970Y-6369738D01*
X10519281Y-6380744D01*
X10503715Y-6388882D01*
X10486864Y-6393841D01*
X10486862Y-6393842D01*
X10486862Y-6393842D01*
X10469372Y-6395433D01*
X10451906Y-6393598D01*
X10451905Y-6393597D01*
X10451903Y-6393597D01*
X10435124Y-6388403D01*
X10419673Y-6380049D01*
X10406139Y-6368853D01*
X10395037Y-6355241D01*
X10386791Y-6339732D01*
X10381714Y-6322917D01*
X10380000Y-6305435D01*
X10380000Y-6304552D01*
X10380008Y-6303410D01*
X10380008Y-6303409D01*
X10380009Y-6303308D01*
X10381967Y-6285852D01*
X10387278Y-6269110D01*
X10395740Y-6253717D01*
X10407030Y-6240262D01*
X10420719Y-6229256D01*
X10436285Y-6221118D01*
X10453136Y-6216159D01*
X10453138Y-6216158D01*
X10453138Y-6216158D01*
X10470628Y-6214567D01*
X10488095Y-6216402D01*
X10488095Y-6216402D01*
G37*
G36*
X10742095Y-6216402D02*
X10742095Y-6216402D01*
X10742097Y-6216403D01*
X10758876Y-6221597D01*
X10774327Y-6229951D01*
X10787861Y-6241147D01*
X10798963Y-6254759D01*
X10807209Y-6270268D01*
X10812286Y-6287083D01*
X10814000Y-6304564D01*
X10814000Y-6305448D01*
X10813992Y-6306590D01*
X10813992Y-6306591D01*
X10813991Y-6306692D01*
X10812033Y-6324148D01*
X10806722Y-6340890D01*
X10798260Y-6356282D01*
X10786970Y-6369738D01*
X10773281Y-6380744D01*
X10757715Y-6388882D01*
X10740864Y-6393841D01*
X10740862Y-6393842D01*
X10740862Y-6393842D01*
X10723372Y-6395433D01*
X10705906Y-6393598D01*
X10705905Y-6393597D01*
X10705903Y-6393597D01*
X10689124Y-6388403D01*
X10673673Y-6380049D01*
X10660139Y-6368853D01*
X10649037Y-6355241D01*
X10640791Y-6339732D01*
X10635714Y-6322917D01*
X10634000Y-6305435D01*
X10634000Y-6304552D01*
X10634008Y-6303410D01*
X10634008Y-6303409D01*
X10634009Y-6303308D01*
X10635967Y-6285852D01*
X10641278Y-6269110D01*
X10649740Y-6253717D01*
X10661030Y-6240262D01*
X10674719Y-6229256D01*
X10690285Y-6221118D01*
X10707136Y-6216159D01*
X10707138Y-6216158D01*
X10707138Y-6216158D01*
X10724628Y-6214567D01*
X10742095Y-6216402D01*
X10742095Y-6216402D01*
G37*
G36*
X12520094Y-6216402D02*
X12520095Y-6216402D01*
X12520097Y-6216403D01*
X12536876Y-6221597D01*
X12552327Y-6229951D01*
X12565861Y-6241147D01*
X12576963Y-6254759D01*
X12585209Y-6270268D01*
X12590286Y-6287083D01*
X12592000Y-6304564D01*
X12592000Y-6305448D01*
X12591992Y-6306590D01*
X12591992Y-6306591D01*
X12591991Y-6306692D01*
X12590033Y-6324148D01*
X12584722Y-6340890D01*
X12576260Y-6356282D01*
X12564970Y-6369738D01*
X12551281Y-6380744D01*
X12535715Y-6388882D01*
X12518864Y-6393841D01*
X12518862Y-6393842D01*
X12518862Y-6393842D01*
X12501372Y-6395433D01*
X12483905Y-6393598D01*
X12483905Y-6393597D01*
X12483903Y-6393597D01*
X12467124Y-6388403D01*
X12451673Y-6380049D01*
X12438139Y-6368853D01*
X12427037Y-6355241D01*
X12418791Y-6339732D01*
X12413714Y-6322917D01*
X12412000Y-6305435D01*
X12412000Y-6304552D01*
X12412008Y-6303410D01*
X12412008Y-6303409D01*
X12412009Y-6303308D01*
X12413967Y-6285852D01*
X12419278Y-6269110D01*
X12427740Y-6253717D01*
X12439030Y-6240262D01*
X12452719Y-6229256D01*
X12468285Y-6221118D01*
X12485136Y-6216159D01*
X12485138Y-6216158D01*
X12485138Y-6216158D01*
X12502628Y-6214567D01*
X12520094Y-6216402D01*
X12520094Y-6216402D01*
G37*
G36*
X13028094Y-6216402D02*
X13028095Y-6216402D01*
X13028097Y-6216403D01*
X13044876Y-6221597D01*
X13060327Y-6229951D01*
X13073861Y-6241147D01*
X13084963Y-6254759D01*
X13093209Y-6270268D01*
X13098286Y-6287083D01*
X13100000Y-6304564D01*
X13100000Y-6305448D01*
X13099992Y-6306590D01*
X13099992Y-6306591D01*
X13099991Y-6306692D01*
X13098033Y-6324148D01*
X13092722Y-6340890D01*
X13084260Y-6356282D01*
X13072970Y-6369738D01*
X13059281Y-6380744D01*
X13043715Y-6388882D01*
X13026864Y-6393841D01*
X13026862Y-6393842D01*
X13026862Y-6393842D01*
X13009372Y-6395433D01*
X12991905Y-6393598D01*
X12991905Y-6393597D01*
X12991903Y-6393597D01*
X12975124Y-6388403D01*
X12959673Y-6380049D01*
X12946139Y-6368853D01*
X12935037Y-6355241D01*
X12926791Y-6339732D01*
X12921714Y-6322917D01*
X12920000Y-6305435D01*
X12920000Y-6304552D01*
X12920008Y-6303410D01*
X12920008Y-6303409D01*
X12920009Y-6303308D01*
X12921967Y-6285852D01*
X12927278Y-6269110D01*
X12935740Y-6253717D01*
X12947030Y-6240262D01*
X12960719Y-6229256D01*
X12976285Y-6221118D01*
X12993136Y-6216159D01*
X12993138Y-6216158D01*
X12993138Y-6216158D01*
X13010628Y-6214567D01*
X13028094Y-6216402D01*
X13028094Y-6216402D01*
G37*
G36*
X13282094Y-6216402D02*
X13282095Y-6216402D01*
X13282097Y-6216403D01*
X13298876Y-6221597D01*
X13314327Y-6229951D01*
X13327861Y-6241147D01*
X13338963Y-6254759D01*
X13347209Y-6270268D01*
X13352286Y-6287083D01*
X13354000Y-6304564D01*
X13354000Y-6305448D01*
X13353992Y-6306590D01*
X13353992Y-6306591D01*
X13353991Y-6306692D01*
X13352033Y-6324148D01*
X13346722Y-6340890D01*
X13338260Y-6356282D01*
X13326970Y-6369738D01*
X13313281Y-6380744D01*
X13297715Y-6388882D01*
X13280864Y-6393841D01*
X13280862Y-6393842D01*
X13280862Y-6393842D01*
X13263372Y-6395433D01*
X13245905Y-6393598D01*
X13245905Y-6393597D01*
X13245903Y-6393597D01*
X13229124Y-6388403D01*
X13213673Y-6380049D01*
X13200139Y-6368853D01*
X13189037Y-6355241D01*
X13180791Y-6339732D01*
X13175714Y-6322917D01*
X13174000Y-6305435D01*
X13174000Y-6304552D01*
X13174008Y-6303410D01*
X13174008Y-6303409D01*
X13174009Y-6303308D01*
X13175967Y-6285852D01*
X13181278Y-6269110D01*
X13189740Y-6253717D01*
X13201030Y-6240262D01*
X13214719Y-6229256D01*
X13230285Y-6221118D01*
X13247136Y-6216159D01*
X13247138Y-6216158D01*
X13247138Y-6216158D01*
X13264628Y-6214567D01*
X13282094Y-6216402D01*
X13282094Y-6216402D01*
G37*
G36*
X9472095Y-6216402D02*
X9472095Y-6216402D01*
X9472097Y-6216403D01*
X9488876Y-6221597D01*
X9504327Y-6229951D01*
X9517861Y-6241147D01*
X9528963Y-6254759D01*
X9537209Y-6270268D01*
X9542286Y-6287083D01*
X9544000Y-6304564D01*
X9544000Y-6305448D01*
X9543992Y-6306590D01*
X9543992Y-6306591D01*
X9543991Y-6306692D01*
X9542033Y-6324148D01*
X9536722Y-6340890D01*
X9528260Y-6356282D01*
X9516970Y-6369738D01*
X9503281Y-6380744D01*
X9487715Y-6388882D01*
X9470864Y-6393841D01*
X9470862Y-6393842D01*
X9470862Y-6393842D01*
X9453372Y-6395433D01*
X9435906Y-6393598D01*
X9435905Y-6393597D01*
X9435903Y-6393597D01*
X9419124Y-6388403D01*
X9403673Y-6380049D01*
X9390139Y-6368853D01*
X9379037Y-6355241D01*
X9370791Y-6339732D01*
X9365714Y-6322917D01*
X9364000Y-6305435D01*
X9364000Y-6304552D01*
X9364008Y-6303410D01*
X9364008Y-6303409D01*
X9364009Y-6303308D01*
X9365967Y-6285852D01*
X9371278Y-6269110D01*
X9379740Y-6253717D01*
X9391030Y-6240262D01*
X9404719Y-6229256D01*
X9420285Y-6221118D01*
X9437136Y-6216159D01*
X9437138Y-6216158D01*
X9437138Y-6216158D01*
X9454628Y-6214567D01*
X9472095Y-6216402D01*
X9472095Y-6216402D01*
G37*
G36*
X9218095Y-6216402D02*
X9218095Y-6216402D01*
X9218097Y-6216403D01*
X9234876Y-6221597D01*
X9250327Y-6229951D01*
X9263861Y-6241147D01*
X9274963Y-6254759D01*
X9283209Y-6270268D01*
X9288286Y-6287083D01*
X9290000Y-6304564D01*
X9290000Y-6305448D01*
X9289992Y-6306590D01*
X9289992Y-6306591D01*
X9289991Y-6306692D01*
X9288033Y-6324148D01*
X9282722Y-6340890D01*
X9274260Y-6356282D01*
X9262970Y-6369738D01*
X9249281Y-6380744D01*
X9233715Y-6388882D01*
X9216864Y-6393841D01*
X9216862Y-6393842D01*
X9216862Y-6393842D01*
X9199372Y-6395433D01*
X9181906Y-6393598D01*
X9181905Y-6393597D01*
X9181903Y-6393597D01*
X9165124Y-6388403D01*
X9149673Y-6380049D01*
X9136139Y-6368853D01*
X9125037Y-6355241D01*
X9116791Y-6339732D01*
X9111714Y-6322917D01*
X9110000Y-6305435D01*
X9110000Y-6304552D01*
X9110008Y-6303410D01*
X9110008Y-6303409D01*
X9110009Y-6303308D01*
X9111967Y-6285852D01*
X9117278Y-6269110D01*
X9125740Y-6253717D01*
X9137030Y-6240262D01*
X9150719Y-6229256D01*
X9166285Y-6221118D01*
X9183136Y-6216159D01*
X9183138Y-6216158D01*
X9183138Y-6216158D01*
X9200628Y-6214567D01*
X9218095Y-6216402D01*
X9218095Y-6216402D01*
G37*
G36*
X8964095Y-6216402D02*
X8964095Y-6216402D01*
X8964097Y-6216403D01*
X8980876Y-6221597D01*
X8996327Y-6229951D01*
X9009861Y-6241147D01*
X9020963Y-6254759D01*
X9029209Y-6270268D01*
X9034286Y-6287083D01*
X9036000Y-6304564D01*
X9036000Y-6305448D01*
X9035992Y-6306590D01*
X9035992Y-6306591D01*
X9035991Y-6306692D01*
X9034033Y-6324148D01*
X9028722Y-6340890D01*
X9020260Y-6356282D01*
X9008970Y-6369738D01*
X8995281Y-6380744D01*
X8979715Y-6388882D01*
X8962864Y-6393841D01*
X8962862Y-6393842D01*
X8962862Y-6393842D01*
X8945372Y-6395433D01*
X8927906Y-6393598D01*
X8927905Y-6393597D01*
X8927903Y-6393597D01*
X8911124Y-6388403D01*
X8895673Y-6380049D01*
X8882139Y-6368853D01*
X8871037Y-6355241D01*
X8862791Y-6339732D01*
X8857714Y-6322917D01*
X8856000Y-6305435D01*
X8856000Y-6304552D01*
X8856008Y-6303410D01*
X8856008Y-6303409D01*
X8856009Y-6303308D01*
X8857967Y-6285852D01*
X8863278Y-6269110D01*
X8871740Y-6253717D01*
X8883030Y-6240262D01*
X8896719Y-6229256D01*
X8912285Y-6221118D01*
X8929136Y-6216159D01*
X8929138Y-6216158D01*
X8929138Y-6216158D01*
X8946628Y-6214567D01*
X8964095Y-6216402D01*
X8964095Y-6216402D01*
G37*
G36*
X11504094Y-6216402D02*
X11504095Y-6216402D01*
X11504097Y-6216403D01*
X11520876Y-6221597D01*
X11536327Y-6229951D01*
X11549861Y-6241147D01*
X11560963Y-6254759D01*
X11569209Y-6270268D01*
X11574286Y-6287083D01*
X11576000Y-6304564D01*
X11576000Y-6305448D01*
X11575992Y-6306590D01*
X11575992Y-6306591D01*
X11575991Y-6306692D01*
X11574033Y-6324148D01*
X11568722Y-6340890D01*
X11560260Y-6356282D01*
X11548970Y-6369738D01*
X11535281Y-6380744D01*
X11519715Y-6388882D01*
X11502864Y-6393841D01*
X11502862Y-6393842D01*
X11502862Y-6393842D01*
X11485372Y-6395433D01*
X11467905Y-6393598D01*
X11467905Y-6393597D01*
X11467903Y-6393597D01*
X11451124Y-6388403D01*
X11435673Y-6380049D01*
X11422139Y-6368853D01*
X11411037Y-6355241D01*
X11402791Y-6339732D01*
X11397714Y-6322917D01*
X11396000Y-6305435D01*
X11396000Y-6304552D01*
X11396008Y-6303410D01*
X11396008Y-6303409D01*
X11396009Y-6303308D01*
X11397967Y-6285852D01*
X11403278Y-6269110D01*
X11411740Y-6253717D01*
X11423030Y-6240262D01*
X11436719Y-6229256D01*
X11452285Y-6221118D01*
X11469136Y-6216159D01*
X11469138Y-6216158D01*
X11469138Y-6216158D01*
X11486628Y-6214567D01*
X11504094Y-6216402D01*
X11504094Y-6216402D01*
G37*
G36*
X11758094Y-6216402D02*
X11758095Y-6216402D01*
X11758097Y-6216403D01*
X11774876Y-6221597D01*
X11790327Y-6229951D01*
X11803861Y-6241147D01*
X11814963Y-6254759D01*
X11823209Y-6270268D01*
X11828286Y-6287083D01*
X11830000Y-6304564D01*
X11830000Y-6305448D01*
X11829992Y-6306590D01*
X11829992Y-6306591D01*
X11829991Y-6306692D01*
X11828033Y-6324148D01*
X11822722Y-6340890D01*
X11814260Y-6356282D01*
X11802970Y-6369738D01*
X11789281Y-6380744D01*
X11773715Y-6388882D01*
X11756864Y-6393841D01*
X11756862Y-6393842D01*
X11756862Y-6393842D01*
X11739372Y-6395433D01*
X11721905Y-6393598D01*
X11721905Y-6393597D01*
X11721903Y-6393597D01*
X11705124Y-6388403D01*
X11689673Y-6380049D01*
X11676139Y-6368853D01*
X11665037Y-6355241D01*
X11656791Y-6339732D01*
X11651714Y-6322917D01*
X11650000Y-6305435D01*
X11650000Y-6304552D01*
X11650008Y-6303410D01*
X11650008Y-6303409D01*
X11650009Y-6303308D01*
X11651967Y-6285852D01*
X11657278Y-6269110D01*
X11665740Y-6253717D01*
X11677030Y-6240262D01*
X11690719Y-6229256D01*
X11706285Y-6221118D01*
X11723136Y-6216159D01*
X11723138Y-6216158D01*
X11723138Y-6216158D01*
X11740628Y-6214567D01*
X11758094Y-6216402D01*
X11758094Y-6216402D01*
G37*
G36*
X10234095Y-6216402D02*
X10234095Y-6216402D01*
X10234097Y-6216403D01*
X10250876Y-6221597D01*
X10266327Y-6229951D01*
X10279861Y-6241147D01*
X10290963Y-6254759D01*
X10299209Y-6270268D01*
X10304286Y-6287083D01*
X10306000Y-6304564D01*
X10306000Y-6305448D01*
X10305992Y-6306590D01*
X10305992Y-6306591D01*
X10305991Y-6306692D01*
X10304033Y-6324148D01*
X10298722Y-6340890D01*
X10290260Y-6356282D01*
X10278970Y-6369738D01*
X10265281Y-6380744D01*
X10249715Y-6388882D01*
X10232864Y-6393841D01*
X10232862Y-6393842D01*
X10232862Y-6393842D01*
X10215372Y-6395433D01*
X10197906Y-6393598D01*
X10197905Y-6393597D01*
X10197903Y-6393597D01*
X10181124Y-6388403D01*
X10165673Y-6380049D01*
X10152139Y-6368853D01*
X10141037Y-6355241D01*
X10132791Y-6339732D01*
X10127714Y-6322917D01*
X10126000Y-6305435D01*
X10126000Y-6304552D01*
X10126008Y-6303410D01*
X10126008Y-6303409D01*
X10126009Y-6303308D01*
X10127967Y-6285852D01*
X10133278Y-6269110D01*
X10141740Y-6253717D01*
X10153030Y-6240262D01*
X10166719Y-6229256D01*
X10182285Y-6221118D01*
X10199136Y-6216159D01*
X10199138Y-6216158D01*
X10199138Y-6216158D01*
X10216628Y-6214567D01*
X10234095Y-6216402D01*
X10234095Y-6216402D01*
G37*
G36*
X10996095Y-6216402D02*
X10996095Y-6216402D01*
X10996097Y-6216403D01*
X11012876Y-6221597D01*
X11028327Y-6229951D01*
X11041861Y-6241147D01*
X11052963Y-6254759D01*
X11061209Y-6270268D01*
X11066286Y-6287083D01*
X11068000Y-6304564D01*
X11068000Y-6305448D01*
X11067992Y-6306590D01*
X11067992Y-6306591D01*
X11067991Y-6306692D01*
X11066033Y-6324148D01*
X11060722Y-6340890D01*
X11052260Y-6356282D01*
X11040970Y-6369738D01*
X11027281Y-6380744D01*
X11011715Y-6388882D01*
X10994864Y-6393841D01*
X10994862Y-6393842D01*
X10994862Y-6393842D01*
X10977372Y-6395433D01*
X10959906Y-6393598D01*
X10959905Y-6393597D01*
X10959903Y-6393597D01*
X10943124Y-6388403D01*
X10927673Y-6380049D01*
X10914139Y-6368853D01*
X10903037Y-6355241D01*
X10894791Y-6339732D01*
X10889714Y-6322917D01*
X10888000Y-6305435D01*
X10888000Y-6304552D01*
X10888008Y-6303410D01*
X10888008Y-6303409D01*
X10888009Y-6303308D01*
X10889967Y-6285852D01*
X10895278Y-6269110D01*
X10903740Y-6253717D01*
X10915030Y-6240262D01*
X10928719Y-6229256D01*
X10944285Y-6221118D01*
X10961136Y-6216159D01*
X10961138Y-6216158D01*
X10961138Y-6216158D01*
X10978628Y-6214567D01*
X10996095Y-6216402D01*
X10996095Y-6216402D01*
G37*
G36*
X12266094Y-6216402D02*
X12266095Y-6216402D01*
X12266097Y-6216403D01*
X12282876Y-6221597D01*
X12298327Y-6229951D01*
X12311861Y-6241147D01*
X12322963Y-6254759D01*
X12331209Y-6270268D01*
X12336286Y-6287083D01*
X12338000Y-6304564D01*
X12338000Y-6305448D01*
X12337992Y-6306590D01*
X12337992Y-6306591D01*
X12337991Y-6306692D01*
X12336033Y-6324148D01*
X12330722Y-6340890D01*
X12322260Y-6356282D01*
X12310970Y-6369738D01*
X12297281Y-6380744D01*
X12281715Y-6388882D01*
X12264864Y-6393841D01*
X12264862Y-6393842D01*
X12264862Y-6393842D01*
X12247372Y-6395433D01*
X12229905Y-6393598D01*
X12229905Y-6393597D01*
X12229903Y-6393597D01*
X12213124Y-6388403D01*
X12197673Y-6380049D01*
X12184139Y-6368853D01*
X12173037Y-6355241D01*
X12164791Y-6339732D01*
X12159714Y-6322917D01*
X12158000Y-6305435D01*
X12158000Y-6304552D01*
X12158008Y-6303410D01*
X12158008Y-6303409D01*
X12158009Y-6303308D01*
X12159967Y-6285852D01*
X12165278Y-6269110D01*
X12173740Y-6253717D01*
X12185030Y-6240262D01*
X12198719Y-6229256D01*
X12214285Y-6221118D01*
X12231136Y-6216159D01*
X12231138Y-6216158D01*
X12231138Y-6216158D01*
X12248628Y-6214567D01*
X12266094Y-6216402D01*
X12266094Y-6216402D01*
G37*
G36*
X9726095Y-6216402D02*
X9726095Y-6216402D01*
X9726097Y-6216403D01*
X9742876Y-6221597D01*
X9758327Y-6229951D01*
X9771861Y-6241147D01*
X9782963Y-6254759D01*
X9791209Y-6270268D01*
X9796286Y-6287083D01*
X9798000Y-6304564D01*
X9798000Y-6305448D01*
X9797992Y-6306590D01*
X9797992Y-6306591D01*
X9797991Y-6306692D01*
X9796033Y-6324148D01*
X9790722Y-6340890D01*
X9782260Y-6356282D01*
X9770970Y-6369738D01*
X9757281Y-6380744D01*
X9741715Y-6388882D01*
X9724864Y-6393841D01*
X9724862Y-6393842D01*
X9724862Y-6393842D01*
X9707372Y-6395433D01*
X9689906Y-6393598D01*
X9689905Y-6393597D01*
X9689903Y-6393597D01*
X9673124Y-6388403D01*
X9657673Y-6380049D01*
X9644139Y-6368853D01*
X9633037Y-6355241D01*
X9624791Y-6339732D01*
X9619714Y-6322917D01*
X9618000Y-6305435D01*
X9618000Y-6304552D01*
X9618008Y-6303410D01*
X9618008Y-6303409D01*
X9618009Y-6303308D01*
X9619967Y-6285852D01*
X9625278Y-6269110D01*
X9633740Y-6253717D01*
X9645030Y-6240262D01*
X9658719Y-6229256D01*
X9674285Y-6221118D01*
X9691136Y-6216159D01*
X9691138Y-6216158D01*
X9691138Y-6216158D01*
X9708628Y-6214567D01*
X9726095Y-6216402D01*
X9726095Y-6216402D01*
G37*
G36*
X8710095Y-6216402D02*
X8710095Y-6216402D01*
X8710097Y-6216403D01*
X8726876Y-6221597D01*
X8742327Y-6229951D01*
X8755861Y-6241147D01*
X8766963Y-6254759D01*
X8775209Y-6270268D01*
X8780286Y-6287083D01*
X8782000Y-6304564D01*
X8782000Y-6305448D01*
X8781992Y-6306590D01*
X8781992Y-6306591D01*
X8781991Y-6306692D01*
X8780033Y-6324148D01*
X8774722Y-6340890D01*
X8766260Y-6356282D01*
X8754970Y-6369738D01*
X8741281Y-6380744D01*
X8725715Y-6388882D01*
X8708864Y-6393841D01*
X8708862Y-6393842D01*
X8708862Y-6393842D01*
X8691372Y-6395433D01*
X8673906Y-6393598D01*
X8673905Y-6393597D01*
X8673903Y-6393597D01*
X8657124Y-6388403D01*
X8641673Y-6380049D01*
X8628139Y-6368853D01*
X8617037Y-6355241D01*
X8608791Y-6339732D01*
X8603714Y-6322917D01*
X8602000Y-6305435D01*
X8602000Y-6304552D01*
X8602008Y-6303410D01*
X8602008Y-6303409D01*
X8602009Y-6303308D01*
X8603967Y-6285852D01*
X8609278Y-6269110D01*
X8617740Y-6253717D01*
X8629030Y-6240262D01*
X8642719Y-6229256D01*
X8658285Y-6221118D01*
X8675136Y-6216159D01*
X8675138Y-6216158D01*
X8675138Y-6216158D01*
X8692628Y-6214567D01*
X8710095Y-6216402D01*
X8710095Y-6216402D01*
G37*
G36*
X9980095Y-6216402D02*
X9980095Y-6216402D01*
X9980097Y-6216403D01*
X9996876Y-6221597D01*
X10012327Y-6229951D01*
X10025861Y-6241147D01*
X10036963Y-6254759D01*
X10045209Y-6270268D01*
X10050286Y-6287083D01*
X10052000Y-6304564D01*
X10052000Y-6305448D01*
X10051992Y-6306590D01*
X10051992Y-6306591D01*
X10051991Y-6306692D01*
X10050033Y-6324148D01*
X10044722Y-6340890D01*
X10036260Y-6356282D01*
X10024970Y-6369738D01*
X10011281Y-6380744D01*
X9995715Y-6388882D01*
X9978864Y-6393841D01*
X9978862Y-6393842D01*
X9978862Y-6393842D01*
X9961372Y-6395433D01*
X9943906Y-6393598D01*
X9943905Y-6393597D01*
X9943903Y-6393597D01*
X9927124Y-6388403D01*
X9911673Y-6380049D01*
X9898139Y-6368853D01*
X9887037Y-6355241D01*
X9878791Y-6339732D01*
X9873714Y-6322917D01*
X9872000Y-6305435D01*
X9872000Y-6304552D01*
X9872008Y-6303410D01*
X9872008Y-6303409D01*
X9872009Y-6303308D01*
X9873967Y-6285852D01*
X9879278Y-6269110D01*
X9887740Y-6253717D01*
X9899030Y-6240262D01*
X9912719Y-6229256D01*
X9928285Y-6221118D01*
X9945136Y-6216159D01*
X9945138Y-6216158D01*
X9945138Y-6216158D01*
X9962628Y-6214567D01*
X9980095Y-6216402D01*
X9980095Y-6216402D01*
G37*
G36*
X13536094Y-6216402D02*
X13536095Y-6216402D01*
X13536097Y-6216403D01*
X13552876Y-6221597D01*
X13568327Y-6229951D01*
X13581861Y-6241147D01*
X13592963Y-6254759D01*
X13601209Y-6270268D01*
X13606286Y-6287083D01*
X13608000Y-6304564D01*
X13608000Y-6305448D01*
X13607992Y-6306590D01*
X13607992Y-6306591D01*
X13607991Y-6306692D01*
X13606033Y-6324148D01*
X13600722Y-6340890D01*
X13592260Y-6356282D01*
X13580970Y-6369738D01*
X13567281Y-6380744D01*
X13551715Y-6388882D01*
X13534864Y-6393841D01*
X13534862Y-6393842D01*
X13534862Y-6393842D01*
X13517372Y-6395433D01*
X13499905Y-6393598D01*
X13499905Y-6393597D01*
X13499903Y-6393597D01*
X13483124Y-6388403D01*
X13467673Y-6380049D01*
X13454139Y-6368853D01*
X13443037Y-6355241D01*
X13434791Y-6339732D01*
X13429714Y-6322917D01*
X13428000Y-6305435D01*
X13428000Y-6304552D01*
X13428008Y-6303410D01*
X13428008Y-6303409D01*
X13428009Y-6303308D01*
X13429967Y-6285852D01*
X13435278Y-6269110D01*
X13443740Y-6253717D01*
X13455030Y-6240262D01*
X13468719Y-6229256D01*
X13484285Y-6221118D01*
X13501136Y-6216159D01*
X13501138Y-6216158D01*
X13501138Y-6216158D01*
X13518628Y-6214567D01*
X13536094Y-6216402D01*
X13536094Y-6216402D01*
G37*
G36*
X12012094Y-6216402D02*
X12012095Y-6216402D01*
X12012097Y-6216403D01*
X12028876Y-6221597D01*
X12044327Y-6229951D01*
X12057861Y-6241147D01*
X12068963Y-6254759D01*
X12077209Y-6270268D01*
X12082286Y-6287083D01*
X12084000Y-6304564D01*
X12084000Y-6305448D01*
X12083992Y-6306590D01*
X12083992Y-6306591D01*
X12083991Y-6306692D01*
X12082033Y-6324148D01*
X12076722Y-6340890D01*
X12068260Y-6356282D01*
X12056970Y-6369738D01*
X12043281Y-6380744D01*
X12027715Y-6388882D01*
X12010864Y-6393841D01*
X12010862Y-6393842D01*
X12010862Y-6393842D01*
X11993372Y-6395433D01*
X11975905Y-6393598D01*
X11975905Y-6393597D01*
X11975903Y-6393597D01*
X11959124Y-6388403D01*
X11943673Y-6380049D01*
X11930139Y-6368853D01*
X11919037Y-6355241D01*
X11910791Y-6339732D01*
X11905714Y-6322917D01*
X11904000Y-6305435D01*
X11904000Y-6304552D01*
X11904008Y-6303410D01*
X11904008Y-6303409D01*
X11904009Y-6303308D01*
X11905967Y-6285852D01*
X11911278Y-6269110D01*
X11919740Y-6253717D01*
X11931030Y-6240262D01*
X11944719Y-6229256D01*
X11960285Y-6221118D01*
X11977136Y-6216159D01*
X11977138Y-6216158D01*
X11977138Y-6216158D01*
X11994628Y-6214567D01*
X12012094Y-6216402D01*
X12012094Y-6216402D01*
G37*
G36*
X11250094Y-6216402D02*
X11250095Y-6216402D01*
X11250097Y-6216403D01*
X11266876Y-6221597D01*
X11282327Y-6229951D01*
X11295861Y-6241147D01*
X11306963Y-6254759D01*
X11315209Y-6270268D01*
X11320286Y-6287083D01*
X11322000Y-6304564D01*
X11322000Y-6305448D01*
X11321992Y-6306590D01*
X11321992Y-6306591D01*
X11321991Y-6306692D01*
X11320033Y-6324148D01*
X11314722Y-6340890D01*
X11306260Y-6356282D01*
X11294970Y-6369738D01*
X11281281Y-6380744D01*
X11265715Y-6388882D01*
X11248864Y-6393841D01*
X11248862Y-6393842D01*
X11248862Y-6393842D01*
X11231372Y-6395433D01*
X11213905Y-6393598D01*
X11213905Y-6393597D01*
X11213903Y-6393597D01*
X11197124Y-6388403D01*
X11181673Y-6380049D01*
X11168139Y-6368853D01*
X11157037Y-6355241D01*
X11148791Y-6339732D01*
X11143714Y-6322917D01*
X11142000Y-6305435D01*
X11142000Y-6304552D01*
X11142008Y-6303410D01*
X11142008Y-6303409D01*
X11142009Y-6303308D01*
X11143967Y-6285852D01*
X11149278Y-6269110D01*
X11157740Y-6253717D01*
X11169030Y-6240262D01*
X11182719Y-6229256D01*
X11198285Y-6221118D01*
X11215136Y-6216159D01*
X11215138Y-6216158D01*
X11215138Y-6216158D01*
X11232628Y-6214567D01*
X11250094Y-6216402D01*
X11250094Y-6216402D01*
G37*
G36*
X12774094Y-6216402D02*
X12774095Y-6216402D01*
X12774097Y-6216403D01*
X12790876Y-6221597D01*
X12806327Y-6229951D01*
X12819861Y-6241147D01*
X12830963Y-6254759D01*
X12839209Y-6270268D01*
X12844286Y-6287083D01*
X12846000Y-6304564D01*
X12846000Y-6305448D01*
X12845992Y-6306590D01*
X12845992Y-6306591D01*
X12845991Y-6306692D01*
X12844033Y-6324148D01*
X12838722Y-6340890D01*
X12830260Y-6356282D01*
X12818970Y-6369738D01*
X12805281Y-6380744D01*
X12789715Y-6388882D01*
X12772864Y-6393841D01*
X12772862Y-6393842D01*
X12772862Y-6393842D01*
X12755372Y-6395433D01*
X12737905Y-6393598D01*
X12737905Y-6393597D01*
X12737903Y-6393597D01*
X12721124Y-6388403D01*
X12705673Y-6380049D01*
X12692139Y-6368853D01*
X12681037Y-6355241D01*
X12672791Y-6339732D01*
X12667714Y-6322917D01*
X12666000Y-6305435D01*
X12666000Y-6304552D01*
X12666008Y-6303410D01*
X12666008Y-6303409D01*
X12666009Y-6303308D01*
X12667967Y-6285852D01*
X12673278Y-6269110D01*
X12681740Y-6253717D01*
X12693030Y-6240262D01*
X12706719Y-6229256D01*
X12722285Y-6221118D01*
X12739136Y-6216159D01*
X12739138Y-6216158D01*
X12739138Y-6216158D01*
X12756628Y-6214567D01*
X12774094Y-6216402D01*
X12774094Y-6216402D01*
G37*
M02*
